<svg xmlns="http://www.w3.org/2000/svg" width="5760" height="3240" fill="none" xmlns:v="https://vecta.io/nano"><rect width="5760" height="3240" rx="84" fill="#fff"/><path d="M1061.03 1210.7h22.18c2.37 0 4.55.32 6.54.95 2.02.61 3.75 1.53 5.2 2.74 1.48 1.2 2.63 2.7 3.45 4.5.82 1.81 1.23 3.88 1.23 6.23 0 1.33-.25 2.66-.74 3.97a13.54 13.54 0 0 1-2 3.62c-.85 1.1-1.85 2.09-3.03 2.95a13.89 13.89 0 0 1-3.83 2.01c.59.26 1.17.63 1.76 1.12.61.47 1.17 1.06 1.69 1.76.54.68 1.02 1.47 1.44 2.36.44.86.79 1.8 1.05 2.81l2.96 11.6h4.6l.07 6.68h-10.37l-3.97-16.21c-.73-2.9-1.84-5.04-3.34-6.4-1.48-1.38-3.51-2.07-6.08-2.07h-6.86v18.63h5.34v6.05h-17.29v-6.05h5.06v-41.16h-5.06v-6.09zm11.95 6.09v16.76h10.23c1.34 0 2.56-.17 3.66-.52 1.12-.35 2.08-.88 2.88-1.58.82-.71 1.45-1.57 1.9-2.61.47-1.05.7-2.27.7-3.65 0-2.65-.8-4.71-2.39-6.19s-4.12-2.21-7.59-2.21h-9.39zm43.98 29.84c0 1.03.07 1.98.21 2.85.17.84.39 1.65.67 2.43.87 2.34 2.25 4.11 4.15 5.3 1.92 1.18 4.09 1.76 6.5 1.76 1.9 0 3.74-.26 5.52-.77 1.81-.54 3.69-1.37 5.66-2.5l2.64 4.47c-2.39 1.64-4.79 2.86-7.21 3.65-2.41.8-4.92 1.2-7.52 1.2-2.46 0-4.75-.41-6.86-1.23-2.08-.82-3.89-2.04-5.41-3.66-1.5-1.61-2.69-3.63-3.55-6.04-.85-2.42-1.27-5.23-1.27-8.44 0-2.6.37-5.05 1.09-7.35.73-2.32 1.81-4.34 3.24-6.05 1.45-1.73 3.24-3.1 5.38-4.11 2.13-1.01 4.61-1.51 7.45-1.51 2.74 0 5.03.42 6.85 1.26 1.86.82 3.36 1.93 4.5 3.31 1.18 1.36 2.05 2.92 2.64 4.68.61 1.75 1.03 3.55 1.27 5.37l.21 2.71.07 2.67h-26.23zm10.23-14.52c-1.52 0-2.86.23-4.01.67-1.12.42-2.08 1.04-2.88 1.86-.8.8-1.44 1.79-1.93 2.96-.47 1.17-.82 2.48-1.06 3.94h18.88c-.09-1.36-.31-2.62-.67-3.77-.32-1.15-.84-2.14-1.54-2.98-.71-.85-1.61-1.5-2.71-1.97s-2.46-.71-4.08-.71zm51.58 28.69a12.7 12.7 0 0 1-4.19 2.95c-1.57.71-3.36 1.06-5.38 1.06-2.46 0-4.75-.42-6.89-1.27a15.85 15.85 0 0 1-5.52-3.76c-1.54-1.66-2.76-3.69-3.65-6.08-.87-2.41-1.3-5.17-1.3-8.26 0-2.82.42-5.37 1.26-7.67.85-2.32 2.04-4.29 3.59-5.9 1.54-1.64 3.41-2.91 5.59-3.8 2.18-.91 4.6-1.37 7.27-1.37 1.83 0 3.47.21 4.93.63 1.47.4 2.9 1.1 4.29 2.11v-1.86h6.53v34.98c0 5.76-1.37 10.12-4.11 13.08-2.72 2.95-6.96 4.43-12.73 4.43-1.26 0-2.58-.1-3.97-.28-1.38-.19-2.75-.5-4.11-.92a24.77 24.77 0 0 1-3.94-1.55c-1.26-.63-2.44-1.4-3.51-2.32l3.51-5.3a15.58 15.58 0 0 0 2.39 1.68 17.06 17.06 0 0 0 2.92 1.3c1.03.38 2.1.67 3.2.88a17.57 17.57 0 0 0 3.3.32c1.81 0 3.37-.19 4.68-.56 1.34-.38 2.43-1.05 3.27-2.01.87-.93 1.51-2.21 1.93-3.83s.64-3.67.64-6.15v-.53zm-8.72-1.69c1.07 0 2.06-.1 2.95-.31s1.7-.48 2.43-.81c.72-.35 1.36-.75 1.89-1.2a8.81 8.81 0 0 0 1.45-1.4v-19.94c-1.2-1.05-2.58-1.81-4.15-2.28a16.37 16.37 0 0 0-4.78-.71c-1.55 0-3 .3-4.36.88-1.36.57-2.56 1.4-3.59 2.5-1.01 1.1-1.8 2.45-2.39 4.04-.59 1.6-.88 3.42-.88 5.49 0 2.25.28 4.23.84 5.94.57 1.71 1.35 3.15 2.36 4.32a9.72 9.72 0 0 0 3.62 2.6c1.41.59 2.94.88 4.61.88zm46.19-31.53h11.74v30.37h4.05v6.05h-10.62v-3.38c-1.64 1.27-3.43 2.26-5.38 2.96-1.92.7-3.98 1.05-6.19 1.05-1.82 0-3.49-.25-4.99-.77-1.47-.54-2.74-1.36-3.8-2.46-1.03-1.13-1.82-2.54-2.39-4.26-.56-1.71-.84-3.75-.84-6.11v-17.41h-4.92v-6.04h11.74v22.67c0 2.79.65 4.9 1.93 6.33 1.29 1.43 3.14 2.15 5.56 2.15 1.43 0 2.93-.26 4.5-.78 1.59-.51 3.09-1.23 4.5-2.14v-22.19h-4.89v-6.04zm25.24-18.28h11.82v48.65h5.48v6.05h-17.3v-6.05h5.28v-42.61h-5.28v-6.04zm45.11 51.32a18.64 18.64 0 0 1-4.61 3.17c-1.66.82-3.56 1.23-5.69 1.23-1.78 0-3.42-.28-4.92-.84-1.48-.57-2.76-1.33-3.83-2.29-1.08-.98-1.93-2.12-2.54-3.41-.58-1.29-.88-2.66-.88-4.11 0-1.55.23-2.92.67-4.12.47-1.19 1.08-2.22 1.83-3.09a10.46 10.46 0 0 1 2.67-2.21 16.08 16.08 0 0 1 3.2-1.45 17.85 17.85 0 0 1 3.41-.77c1.17-.16 2.29-.25 3.34-.25 1.69 0 3.11.06 4.26.18 1.14.09 2.19.23 3.12.42l.04-2.99c0-1.29-.19-2.4-.56-3.34-.38-.96-.9-1.74-1.58-2.35-.68-.63-1.5-1.1-2.47-1.41-.93-.3-1.99-.45-3.16-.45-1.1 0-2.16.08-3.16.24-1.01.14-1.96.34-2.85.6-.87.23-1.68.51-2.43.84-.72.31-1.34.64-1.86.99l-2.14-4.54c.86-.56 1.81-1.08 2.84-1.55 1.03-.49 2.11-.9 3.24-1.23a25.01 25.01 0 0 1 3.48-.8c1.19-.21 2.37-.32 3.51-.32 2.11 0 4.01.26 5.7.77 1.69.5 3.12 1.27 4.29 2.32 1.17 1.06 2.07 2.41 2.7 4.05.64 1.61.95 3.56.95 5.83l-.03 18.21h4.04v6.05h-10.58v-3.38zm-8.86-1.08c.87 0 1.73-.11 2.6-.32s1.69-.49 2.46-.84c.78-.38 1.49-.8 2.15-1.27a11.14 11.14 0 0 0 1.65-1.51l.03-8.23h-7.59c-1.26 0-2.42.14-3.48.42-1.03.28-1.93.69-2.71 1.23a5.72 5.72 0 0 0-1.75 2.01c-.43.79-.64 1.71-.64 2.74 0 .96.18 1.8.53 2.53a5.1 5.1 0 0 0 1.48 1.79c.65.47 1.43.84 2.32 1.09.89.24 1.87.36 2.95.36zm53.02-24.26h-6.68v-2.25c-.78 0-1.57.15-2.39.45-.8.29-1.55.73-2.25 1.34-.71.59-1.33 1.35-1.87 2.29-.51.91-.89 2-1.12 3.27v17.57h6.18v6.05h-18.07v-6.05h5.03l.04-24.33h-5.07v-6.04h11.64v5.03c.42-.75.89-1.45 1.41-2.08.54-.65 1.12-1.22 1.76-1.69.65-.49 1.37-.86 2.14-1.12.8-.28 1.65-.42 2.57-.42h3.44c1.08 0 2.16.02 3.24.07v7.91zm23.09 11.28v-6.04h19.37v6.04h-19.37zm41.49 12.27l18.74-22.64c.63-.75 1.29-1.56 1.97-2.42a26.57 26.57 0 0 0 1.93-2.75c.61-.96 1.1-1.95 1.48-2.98.39-1.06.59-2.15.59-3.27 0-1.18-.23-2.28-.7-3.31a8.66 8.66 0 0 0-1.93-2.71c-.82-.77-1.81-1.38-2.96-1.82-1.12-.45-2.36-.67-3.72-.67-1.22 0-2.38.2-3.48.6-1.08.37-2.03.93-2.85 1.68s-1.49 1.69-2.01 2.82c-.49 1.1-.76 2.37-.8 3.83h-6.33c.02-2.23.45-4.28 1.3-6.15.84-1.9 1.97-3.53 3.37-4.89 1.43-1.38 3.09-2.45 4.96-3.2a15.41 15.41 0 0 1 5.91-1.16c2.39 0 4.56.39 6.5 1.16 1.95.75 3.61 1.79 4.99 3.13 1.39 1.33 2.45 2.92 3.2 4.74.78 1.83 1.16 3.81 1.16 5.95 0 .84-.1 1.74-.31 2.7-.19.94-.53 1.96-1.02 3.06-.47 1.08-1.11 2.24-1.9 3.48-.78 1.24-1.76 2.58-2.96 4.01l-16.62 19.79h22.74v6.19h-31.25v-5.17zm38.81-15.78l18.95-32.35h7.49l-18.04 31.85h13.64v-8.78l6.89-.5v9.28h7.95v6.05h-7.95v9.35h5.28v6.05h-17.3v-6.05h5.13v-9.35h-22.11l.07-5.55zm58.61-15.47h11.6v3.02a20.16 20.16 0 0 1 5.06-2.85c1.83-.7 3.71-1.05 5.66-1.05 2.39 0 4.58.44 6.57 1.34 2 .89 3.71 2.14 5.14 3.76 1.45 1.61 2.58 3.56 3.37 5.83.8 2.25 1.2 4.75 1.2 7.49 0 2.93-.45 5.6-1.34 8.02-.89 2.41-2.13 4.48-3.72 6.22-1.58 1.71-3.45 3.05-5.63 4.01s-4.57 1.44-7.17 1.44c-1.85 0-3.51-.2-4.96-.6a23.92 23.92 0 0 1-4.11-1.48v11.78h5.69v6.05h-17.29v-6.05h4.99v-40.89h-5.06v-6.04zm20.6 4.88a12.18 12.18 0 0 0-4.89 1.02 12.47 12.47 0 0 0-4.04 2.82v19.72c.77.8 1.87 1.51 3.3 2.14 1.46.64 3.26.95 5.42.95 1.5 0 2.94-.29 4.32-.88 1.38-.58 2.6-1.45 3.66-2.6 1.05-1.17 1.9-2.61 2.53-4.32s.95-3.69.95-5.94c0-2.07-.31-3.89-.92-5.49-.58-1.59-1.39-2.94-2.42-4.04-1.01-1.1-2.19-1.93-3.55-2.5-1.36-.58-2.82-.88-4.36-.88zm45.67 25.49h2.07l-7.24-9-7.07 9h1.79v6.05h-12.09v-6.05h2.95l11.08-12.9-10.41-11.43h-3.69v-6.04h12.09v6.04h-1.37l6.72 8.65 6.78-8.65h-1.75v-6.04h12.09v6.04h-3.13l-10.3 11.89 10.9 12.44h2.67v6.05h-12.09v-6.05z" fill="#333"/><path stroke="#333" stroke-opacity=".25" stroke-width="3" d="M1056 1314.5h1425"/><g fill="#333"><path d="M1092.56 1412.95h4.43l-4.22-12.09h-20.49l-4.12 12.09h5.49v6.05h-17.3v-6.05h4.64l16.6-47.25h10.37l16.56 47.25h5.34v6.05h-17.3v-6.05zm-18.28-17.93h16.45l-8.29-23.83-8.16 23.83zm56.71 17.93h5.06v-41.16h-5.06v-6.16l23.97.07c2.16 0 4.19.41 6.09 1.23 1.9.8 3.55 1.9 4.95 3.31 1.41 1.38 2.51 3.02 3.31 4.92.82 1.9 1.23 3.94 1.23 6.12a10.86 10.86 0 0 1-1.9 6.22c-1.26 1.88-3.07 3.38-5.41 4.5a16.47 16.47 0 0 1 3.13 2.14 13.8 13.8 0 0 1 2.39 2.64c.65.96 1.16 1.98 1.51 3.06.37 1.08.56 2.18.56 3.3 0 2.23-.41 4.31-1.23 6.23-.8 1.92-1.9 3.59-3.3 5.02a15.54 15.54 0 0 1-4.96 3.38c-1.88.82-3.89 1.23-6.05 1.23h-24.29v-6.05zm11.95-17.65v17.65h12.41c1.13 0 2.17-.28 3.13-.84s1.81-1.29 2.53-2.18c.73-.91 1.29-1.95 1.69-3.09.42-1.15.63-2.32.63-3.52 0-1.03-.21-2.03-.63-2.99a8.73 8.73 0 0 0-1.72-2.56 8.09 8.09 0 0 0-2.53-1.8c-.97-.44-2-.67-3.1-.67h-12.41zm0-23.51v17.4h12.1c1.12 0 2.16-.23 3.12-.67.99-.45 1.83-1.04 2.54-1.79.72-.75 1.3-1.62 1.72-2.61a7.68 7.68 0 0 0 .63-3.05c0-1.15-.21-2.28-.63-3.38a10.38 10.38 0 0 0-1.72-2.99c-.73-.86-1.59-1.57-2.57-2.11a6.19 6.19 0 0 0-3.09-.8h-12.1zm89.16 7.98c-1.57-2.68-3.66-4.77-6.26-6.3-2.58-1.52-5.46-2.28-8.65-2.28-2.72 0-5.2.57-7.45 1.72a18.28 18.28 0 0 0-5.8 4.64c-1.6 1.92-2.84 4.16-3.73 6.72-.89 2.53-1.33 5.2-1.33 8.01 0 3.33.49 6.28 1.47 8.86.99 2.56 2.26 4.69 3.83 6.4 1.6 1.69 3.48 3.1 5.66 4.25 2.18 1.13 4.63 1.69 7.35 1.69 3.7 0 6.93-.89 9.67-2.67 2.74-1.81 5.09-4.76 7.03-8.86l6.19 2.92c-.89 2.53-2.4 4.98-4.54 7.34-2.13 2.35-4.77 4.25-7.91 5.7-3.11 1.43-6.57 2.14-10.37 2.14-3.63 0-6.97-.67-10.02-2.03-3.04-1.39-5.76-3.34-8.15-5.88-2.37-2.53-4.19-5.53-5.45-9-1.25-3.46-1.87-7.09-1.87-10.86 0-3.8.62-7.38 1.87-10.76 1.26-3.37 3.02-6.3 5.27-8.79 2.27-2.5 4.97-4.47 8.09-5.9 3.14-1.45 6.54-2.18 10.19-2.18 3.26 0 6.07.47 8.44 1.4 2.37.92 4.37 2.02 6.01 3.31 1.66 1.26 3.09 2.65 4.29 4.15h3.73v6.26h-7.56zm31.01-14.07h19.82c2.44 0 4.76.32 6.96.95a25.92 25.92 0 0 1 6.16 2.67c1.9 1.15 3.62 2.54 5.16 4.15 1.55 1.6 2.86 3.38 3.94 5.35 1.1 1.97 1.95 4.09 2.53 6.36.59 2.25.88 4.59.88 7.03 0 2.49-.29 4.86-.88 7.14-.58 2.27-1.43 4.4-2.53 6.4-1.08 1.99-2.39 3.8-3.94 5.45-1.54 1.61-3.26 3.01-5.16 4.18-1.9 1.15-3.95 2.04-6.16 2.67-2.2.63-4.52.95-6.96.95h-19.82v-6.05h5.06v-41.16h-5.06v-6.09zm11.95 6.09v41.16h8.3c2.46 0 4.76-.54 6.92-1.61 2.18-1.08 4.08-2.55 5.7-4.4 1.61-1.87 2.89-4.06 3.83-6.57.94-2.53 1.4-5.25 1.4-8.16 0-2.86-.46-5.53-1.4-8.01-.94-2.49-2.22-4.65-3.83-6.47-1.62-1.85-3.52-3.31-5.7-4.36-2.16-1.06-4.46-1.58-6.92-1.58h-8.3zm56.81-6.09h38.18v15.09h-7.21v-9h-19.02v17.05h16v6.04h-16v18.07h19.02v-9h7.21V1419h-38.18v-6.05h5.06v-41.16h-5.06v-6.09zm60.96 0h38.18v15.09h-7.21v-9h-19.01v17.12h18.31v5.9h-18.31v18.14h5.34v6.05h-17.3v-6.05h5.06v-41.16h-5.06v-6.09zm100.62 53.51v-10.69c-.89 1.86-2 3.47-3.34 4.86-1.34 1.35-2.82 2.48-4.47 3.37a21.03 21.03 0 0 1-5.27 2c-1.85.45-3.74.67-5.66.67-3.47 0-6.67-.57-9.6-1.72-2.93-1.17-5.59-3.02-7.98-5.56-2.36-2.53-4.18-5.53-5.45-9-1.24-3.46-1.86-7.09-1.86-10.86 0-3.8.62-7.38 1.86-10.76 1.27-3.37 3.03-6.31 5.28-8.82 2.27-2.51 4.97-4.48 8.08-5.91 3.14-1.43 6.54-2.14 10.2-2.14 3.37 0 6.27.48 8.68 1.44 2.44.96 4.51 2.13 6.22 3.52 1.74 1.35 3.12 2.66 4.15 3.9h3.41v6.26h-7.56c-1.57-2.68-3.65-4.79-6.25-6.33-2.58-1.55-5.48-2.3-8.69-2.25-2.69 0-5.16.57-7.41 1.72s-4.19 2.7-5.81 4.64c-1.59 1.95-2.83 4.18-3.72 6.72-.89 2.53-1.34 5.2-1.34 8.01 0 3.12.49 6.01 1.48 8.68.98 2.68 2.24 4.84 3.76 6.51 1.52 1.66 3.4 3.05 5.63 4.15 2.25 1.08 4.73 1.61 7.45 1.61 4.5 0 8.19-1.09 11.07-3.27 2.89-2.2 4.9-5.62 6.05-10.26h-14.91v-6.05h22.54v25.56h-6.54zm71.26-53.51h17.3v6.05h-5.06v41.2h5.06v6.05h-17.3v-6.05h5.34v-19.16h-30.83v19.16h5.35v6.05h-17.3v-6.05h5.06v-41.2h-5.06v-6.05h17.3v6.05h-5.35v16.14h30.83v-16.14h-5.34v-6.05zm43.14 0h17.01v6.09h-5.06v41.16h5.06v6.05h-17.01v-6.05h5.06v-41.16h-5.06v-6.09zm43.06 0h17.27v6.09h-4.47v41.16c0 .52-.13 1.13-.39 1.83-.23.68-.55 1.41-.94 2.18-.38.77-.83 1.56-1.34 2.36l-1.55 2.39c-1.24 1.8-2.65 3.69-4.22 5.66l-6.04-.53a120.86 120.86 0 0 0 3.72-6.05 74.95 74.95 0 0 0 1.37-2.49c.45-.87.85-1.7 1.2-2.5s.63-1.53.84-2.21c.24-.71.35-1.3.35-1.8v-40h-5.8v-6.09zm74.78 6.09v-6.09h12.24v6.09h-4.19l-23.34 19.65 21.83 21.51h5.7v6.05h-14.35v-6.05l-21.16-21.16 23.27-20zm-35.23-6.09h17.3v6.09h-5.41v41.16h5.34v6.05h-17.3v-6.05h5.07v-41.16h-5v-6.09zm70.81 0h17.3v6.09h-5.35v41.16h18.39c.37 0 .75-.08 1.12-.24.38-.19.72-.42 1.02-.71.31-.28.55-.59.74-.95.19-.37.28-.75.28-1.12v-6.72h6.68V1419h-40.18v-6.05h5.06v-41.16h-5.06v-6.09zm61.31 47.25h5.06v-40.53h-5.06v-6.72h16.88l16.91 46.02 17.12-46.02h15.99v6.72h-5.02v40.53h5.02v6.05h-17.29v-6.05h5.69v-40.92l-18.63 46.97h-5.98l-18.88-47.07v41.02h5.49v6.05h-17.3v-6.05zm125.72-47.25h17.3v6.09h-4.54V1419h-9l-24.78-44.19v38.14h5.48v6.05h-17.3v-6.05h4.93v-41.16h-5.07v-6.16h14.35l24.33 43.77.28-1.69v-35.92h-5.98v-6.09zm62.93 54.35c-3.68 0-7.04-.67-10.09-2.03-3.05-1.39-5.76-3.34-8.16-5.88-2.39-2.53-4.2-5.53-5.44-9-1.25-3.46-1.87-7.06-1.87-10.79 0-3.84.62-7.45 1.87-10.83 1.26-3.37 3.02-6.3 5.27-8.79 2.27-2.5 4.97-4.47 8.08-5.9 3.15-1.45 6.59-2.18 10.34-2.18 3.77 0 7.23.73 10.37 2.18 3.14 1.43 5.84 3.4 8.09 5.9 2.25 2.49 3.99 5.42 5.24 8.79 1.24 3.38 1.86 6.99 1.86 10.83 0 3.85-.63 7.45-1.9 10.83-1.24 3.35-3 6.28-5.27 8.79-2.25 2.51-4.95 4.49-8.09 5.94-3.12 1.43-6.55 2.14-10.3 2.14zm0-6.53c2.79 0 5.31-.58 7.56-1.73 2.27-1.15 4.21-2.68 5.8-4.6 1.59-1.95 2.82-4.2 3.69-6.75.87-2.56 1.3-5.25 1.3-8.09 0-2.9-.48-5.71-1.44-8.4-.94-2.72-2.26-5.02-3.97-6.89-1.69-1.88-3.66-3.32-5.91-4.33-2.25-1.03-4.59-1.54-7.03-1.54-2.79 0-5.32.57-7.59 1.72-2.28 1.15-4.21 2.7-5.8 4.64-1.6 1.92-2.83 4.17-3.7 6.75a25.1 25.1 0 0 0-1.3 8.05c0 3.28.48 6.21 1.45 8.79.96 2.56 2.22 4.69 3.79 6.4 1.6 1.69 3.48 3.1 5.66 4.25 2.21 1.15 4.7 1.73 7.49 1.73zm48.87-47.82h21.55c2.39 0 4.58.32 6.57.95 2.02.61 3.75 1.53 5.21 2.74 1.47 1.2 2.61 2.7 3.41 4.5.82 1.81 1.23 3.88 1.23 6.23a13.06 13.06 0 0 1-1.2 5.52 13.79 13.79 0 0 1-3.37 4.5c-1.46 1.29-3.2 2.31-5.24 3.06-2.02.75-4.27 1.12-6.75 1.12h-9.46v18.63h5.34v6.05h-17.29v-6.05h5.06v-41.16h-5.06v-6.09zm11.95 6.09v16.76h9.6c1.33 0 2.55-.17 3.65-.52 1.13-.38 2.09-.92 2.89-1.62.82-.7 1.45-1.58 1.9-2.64.46-1.05.7-2.27.7-3.65 0-2.63-.8-4.67-2.39-6.12-1.6-1.48-4.14-2.21-7.63-2.21h-8.72zm68.03 48.05c-3.28-.44-6.28-1.46-9-3.05-2.7-1.6-5.02-3.61-6.96-6.05-1.92-2.46-3.41-5.26-4.47-8.4-1.05-3.14-1.58-6.47-1.58-9.99 0-3.84.62-7.45 1.86-10.83 1.27-3.37 3.03-6.3 5.28-8.79 2.27-2.5 4.97-4.47 8.08-5.9 3.14-1.45 6.59-2.18 10.34-2.18 3.77 0 7.23.73 10.37 2.18 3.14 1.43 5.84 3.4 8.09 5.9 2.25 2.49 3.99 5.42 5.23 8.79 1.25 3.38 1.87 6.99 1.87 10.83 0 3.56-.55 6.93-1.65 10.09-1.08 3.14-2.61 5.94-4.58 8.4-1.96 2.44-4.32 4.46-7.06 6.05s-5.77 2.59-9.07 2.99c1.52.4 2.74.87 3.65 1.41.92.53 2.07 1.14 3.45 1.82 1.38.71 2.77 1.06 4.15 1.06 1.33 0 2.52-.34 3.55-1.02 1.05-.66 1.75-1.68 2.07-3.06l5.35 2.43c-.28 1.31-.81 2.46-1.59 3.44-.75 1.01-1.64 1.84-2.67 2.5a11.07 11.07 0 0 1-3.27 1.51c-1.17.33-2.32.49-3.44.49-1.81 0-3.51-.33-5.1-.98-1.57-.66-3.22-1.46-4.96-2.39-1.73-.94-3.4-1.41-4.99-1.41-.96 0-1.94.15-2.95.46v-6.3zm3.55-6.32c2.79 0 5.31-.58 7.56-1.73 2.27-1.15 4.2-2.68 5.8-4.6 1.59-1.95 2.82-4.2 3.69-6.75.87-2.56 1.3-5.25 1.3-8.09 0-2.9-.48-5.69-1.44-8.37-.94-2.69-2.26-4.99-3.97-6.89-1.71-1.89-3.66-3.35-5.84-4.36-2.18-1.03-4.55-1.54-7.1-1.54-2.79 0-5.32.57-7.59 1.72-2.28 1.15-4.21 2.7-5.81 4.64-1.59 1.92-2.82 4.17-3.69 6.75a25.1 25.1 0 0 0-1.3 8.05c0 3.21.47 6.11 1.41 8.69.96 2.57 2.23 4.73 3.8 6.46 1.57 1.71 3.51 3.14 5.83 4.29 2.34 1.15 4.79 1.73 7.35 1.73zm48.87-47.82h22.18c2.37 0 4.55.32 6.54.95 2.01.61 3.75 1.53 5.2 2.74 1.48 1.2 2.63 2.7 3.45 4.5.82 1.81 1.23 3.88 1.23 6.23 0 1.33-.25 2.66-.74 3.97a13.54 13.54 0 0 1-2 3.62c-.85 1.1-1.86 2.09-3.03 2.95a13.89 13.89 0 0 1-3.83 2.01c.59.26 1.17.63 1.76 1.12.61.47 1.17 1.06 1.69 1.76.53.68 1.01 1.47 1.44 2.36.44.86.79 1.8 1.05 2.81l2.95 11.6h4.61l.07 6.68h-10.37l-3.97-16.21c-.73-2.9-1.84-5.04-3.34-6.4-1.48-1.38-3.51-2.07-6.09-2.07h-6.85v18.63h5.34v6.05h-17.29v-6.05h5.06v-41.16h-5.06v-6.09zm11.95 6.09v16.76h10.23c1.34 0 2.55-.17 3.66-.52 1.12-.35 2.08-.88 2.88-1.58.82-.71 1.45-1.57 1.9-2.61.47-1.05.7-2.27.7-3.65 0-2.65-.8-4.71-2.39-6.19s-4.13-2.21-7.59-2.21h-9.39zm82.37 8.4c0-2.07-.37-3.61-1.12-4.64s-1.59-1.82-2.5-2.36a10.51 10.51 0 0 0-2.95-1.26c-1.08-.31-2.16-.46-3.24-.46-1.78 0-3.34.21-4.67.63-1.34.4-2.45.95-3.34 1.65-.87.71-1.53 1.53-1.97 2.46a6.78 6.78 0 0 0-.67 2.96c0 1.54.27 2.8.81 3.76.56.94 1.26 1.7 2.11 2.28.84.57 1.77 1.01 2.77 1.34a102.33 102.33 0 0 1 2.96.99l7.1 2.32c2.13.68 4.01 1.45 5.62 2.32 1.65.86 3.02 1.89 4.12 3.09a11.68 11.68 0 0 1 2.49 4.08c.59 1.54.88 3.34.88 5.38 0 2.2-.45 4.24-1.37 6.11a14.52 14.52 0 0 1-3.76 4.89c-1.62 1.38-3.55 2.47-5.8 3.27-2.23.77-4.68 1.16-7.35 1.16-2.74 0-5.08-.32-7.03-.95-1.95-.61-3.59-1.43-4.92-2.46-1.31-1.05-2.37-2.25-3.17-3.59-.79-1.33-1.41-2.7-1.86-4.11h-2.67V1403h8.86c0 2.61.27 4.45.81 5.52.56 1.08 1.33 1.98 2.32 2.71.98.7 2.15 1.24 3.51 1.62 1.36.35 2.86.53 4.5.53 1.6 0 3.03-.19 4.29-.57 1.29-.37 2.38-.91 3.27-1.61a7.15 7.15 0 0 0 2.08-2.61c.49-1.03.73-2.19.73-3.48 0-1.43-.3-2.63-.91-3.62a8.5 8.5 0 0 0-2.29-2.56c-.93-.71-1.96-1.28-3.09-1.73a48.53 48.53 0 0 0-3.2-1.16l-7.7-2.18c-1.68-.51-3.23-1.17-4.64-1.97a13.97 13.97 0 0 1-3.58-2.91c-.99-1.15-1.75-2.49-2.29-4.01-.54-1.55-.81-3.33-.81-5.35 0-2.03.4-3.94 1.2-5.73.79-1.78 1.97-3.34 3.51-4.67 1.55-1.34 3.44-2.38 5.66-3.13 2.25-.77 4.82-1.16 7.7-1.16 1.9 0 3.65.22 5.24.67 1.62.44 3.07 1.08 4.36 1.9a14.42 14.42 0 0 1 3.45 2.91c1 1.13 1.85 2.37 2.53 3.73h2.63v6.05h-8.61zm41.87 32.76h4.89v-41.48h-12.17v8.3h-7.2v-14.07h47.53v14.07h-7.21v-8.3h-14.06v41.48h5.48v6.05h-17.26v-6.05zm54.21-47.25h17.26v6.09h-5.45v24.82c0 2.97.33 5.51.99 7.62.68 2.09 1.6 3.8 2.78 5.14 1.19 1.31 2.6 2.27 4.22 2.88 1.64.61 3.43.91 5.37.91 2.02 0 3.87-.27 5.56-.8 1.69-.54 3.13-1.45 4.32-2.71 1.22-1.29 2.16-2.99 2.82-5.1.68-2.13 1.02-4.78 1.02-7.94v-24.82h-5.77v-6.09h17.26v6.09h-4.74v24.04c0 3.85-.54 7.26-1.62 10.23-1.06 2.98-2.51 5.48-4.36 7.49-1.85 2.02-4.03 3.55-6.54 4.61-2.51 1.03-5.2 1.54-8.09 1.54-2.81 0-5.45-.51-7.91-1.54a18.5 18.5 0 0 1-6.4-4.54c-1.8-1.99-3.23-4.42-4.28-7.28-1.04-2.88-1.55-6.17-1.55-9.88v-24.67h-4.89v-6.09zm101.89 0h17.29v6.09h-4.6l-17.27 47.21h-9.66l-17.02-47.21h-4.71v-6.09h17.3v6.09h-4.64l13.67 41.09 14.66-41.09h-5.02v-6.09zm104.73 0h17.29v6.09h-4.64l-15.22 47.21h-10.76l-14.45-46.44-13.32 46.44h-10.65l-15.54-47.21h-4.71v-6.09h17.29v6.09h-4.64l12.9 40.95 13.61-47.04h10.51l14.49 47.04 13.14-40.95h-5.3v-6.09zm66.79 0h17.3v6.09h-3.94l-14.41 20 15.04 21.16h3.31v6.05h-17.3v-6.05h6.51l-11.39-15.85-11.47 15.85h6.23v6.05h-17.3v-6.05h3.48l15.19-21.2-14.35-19.96h-4.32v-6.09h17.3v6.09h-5.14l10.38 14.59 10.47-14.59h-5.59v-6.09zm36.88 0h17.3v6.09h-5.06l10.02 17.12 10.72-17.12h-5.56v-6.09h17.3v6.09h-4.53l-14.98 22.71v18.45h5.48v6.05h-17.29v-6.05h4.88v-18.63l-14.13-22.53h-4.15v-6.09zm102.45 7.88l-32.1 39.37h25v-8.86h6.89V1419h-38.89v-7.98l31.64-39.23h-24.15v9h-6.89v-15.09h38.5v7.88z"/><path d="M1080.93 1534.62c-1.39 1.29-2.92 2.35-4.61 3.17-1.66.82-3.56 1.23-5.7 1.23-1.78 0-3.42-.28-4.92-.84-1.47-.57-2.75-1.33-3.83-2.29-1.08-.98-1.92-2.12-2.53-3.41a9.76 9.76 0 0 1-.88-4.11c0-1.55.22-2.92.67-4.12.47-1.19 1.08-2.22 1.83-3.09.77-.89 1.66-1.63 2.67-2.21a16.08 16.08 0 0 1 3.2-1.45 17.68 17.68 0 0 1 3.41-.77c1.17-.16 2.28-.25 3.34-.25l4.25.18c1.15.09 2.19.23 3.13.42l.04-2.99c0-1.29-.19-2.4-.57-3.34-.37-.96-.9-1.74-1.58-2.35-.68-.63-1.5-1.1-2.46-1.41-.94-.3-1.99-.45-3.16-.45-1.11 0-2.16.08-3.17.24a20.2 20.2 0 0 0-2.85.6c-.86.23-1.67.51-2.42.84-.73.31-1.35.64-1.86.99l-2.15-4.54a22.58 22.58 0 0 1 2.85-1.55c1.03-.49 2.11-.9 3.23-1.23a25.01 25.01 0 0 1 3.48-.8c1.2-.21 2.37-.32 3.52-.32 2.11 0 4.01.26 5.69.77 1.69.5 3.12 1.27 4.29 2.32 1.18 1.06 2.08 2.41 2.71 4.05.63 1.61.95 3.56.95 5.83l-.04 18.21h4.05v6.05h-10.58v-3.38zm-8.86-1.08c.86 0 1.73-.11 2.6-.32s1.69-.49 2.46-.84a14.91 14.91 0 0 0 2.14-1.27c.66-.49 1.21-1 1.66-1.51l.03-8.23h-7.59c-1.27 0-2.43.14-3.48.42-1.03.28-1.94.69-2.71 1.23a5.75 5.75 0 0 0-1.76 2.01c-.42.79-.63 1.71-.63 2.74 0 .96.17 1.8.53 2.53a5.18 5.18 0 0 0 1.47 1.79c.66.47 1.43.84 2.32 1.09.89.24 1.88.36 2.96.36zm41.06-50.24h11.81v21.3c1.55-1.19 3.24-2.14 5.06-2.85 1.83-.7 3.72-1.05 5.66-1.05 2.39 0 4.59.44 6.58 1.34 1.99.89 3.7 2.14 5.13 3.76 1.45 1.61 2.58 3.56 3.38 5.83.79 2.25 1.19 4.75 1.19 7.49 0 2.93-.44 5.59-1.33 7.98-.9 2.37-2.14 4.41-3.73 6.12-1.57 1.71-3.45 3.03-5.63 3.97-2.18.92-4.57 1.37-7.17 1.37-1.8 0-3.5-.26-5.1-.77-1.57-.54-2.91-1.23-4.04-2.08v2.29h-6.54v-48.66h-5.27v-6.04zm20.81 23.16c-1.71 0-3.35.36-4.92 1.06s-2.93 1.65-4.08 2.85v19.58c.75.77 1.85 1.46 3.31 2.07 1.45.59 3.28.88 5.48.88a11.38 11.38 0 0 0 4.32-.84c1.39-.56 2.61-1.41 3.66-2.53 1.06-1.15 1.9-2.57 2.53-4.26.64-1.68.95-3.65.95-5.9 0-2.07-.3-3.89-.91-5.49-.59-1.59-1.4-2.94-2.43-4.04-1.01-1.1-2.19-1.93-3.55-2.5-1.36-.58-2.81-.88-4.36-.88zm66.83 4.82c-.98-1.76-2.23-3.05-3.76-3.87-1.5-.82-3.24-1.23-5.24-1.23a9.96 9.96 0 0 0-4.29.95 10.77 10.77 0 0 0-3.51 2.71c-.99 1.17-1.77 2.6-2.36 4.29-.56 1.66-.84 3.53-.84 5.59 0 2.04.28 3.88.84 5.52.59 1.64 1.39 3.05 2.39 4.22 1.01 1.15 2.17 2.04 3.48 2.67 1.34.61 2.77.91 4.29.91 2.25 0 4.21-.54 5.87-1.61 1.67-1.11 2.99-2.71 3.98-4.82l5.41 2.67a17.36 17.36 0 0 1-2.6 4.04c-1.03 1.2-2.2 2.22-3.52 3.06-1.29.85-2.71 1.49-4.29 1.94-1.54.47-3.18.7-4.92.7-2.53 0-4.87-.47-7.03-1.41-2.13-.96-3.98-2.29-5.55-4-1.55-1.72-2.76-3.75-3.62-6.12-.87-2.37-1.3-4.96-1.3-7.77s.45-5.4 1.37-7.77c.91-2.37 2.16-4.4 3.76-6.08 1.59-1.71 3.46-3.05 5.59-4.01s4.42-1.44 6.85-1.44c2.3 0 4.47.4 6.51 1.19a14.94 14.94 0 0 1 5.41 3.62h3.69v6.05h-6.61zm50.24-27.98h11.5v48.65h5.34v6.05h-11.88v-2.99c-1.17 1.2-2.53 2.13-4.08 2.81-1.55.66-3.3.99-5.27.99-2.46 0-4.76-.42-6.89-1.27a15.85 15.85 0 0 1-5.52-3.76c-1.55-1.66-2.77-3.69-3.66-6.08-.87-2.41-1.3-5.17-1.3-8.26 0-2.82.42-5.37 1.27-7.67.84-2.32 2.03-4.29 3.58-5.9 1.55-1.64 3.41-2.91 5.59-3.8 2.18-.91 4.61-1.37 7.28-1.37 1.76 0 3.36.2 4.82.6 1.45.37 2.84 1.04 4.18 2v-13.96h-4.96v-6.04zm-3.55 49.81c1.95 0 3.58-.28 4.89-.84 1.31-.59 2.52-1.45 3.62-2.6v-20.39c-1.17-.99-2.52-1.7-4.04-2.15a16.86 16.86 0 0 0-4.68-.67c-1.55 0-3 .3-4.36.88a10.44 10.44 0 0 0-3.59 2.5c-1 1.1-1.8 2.45-2.39 4.04-.58 1.6-.87 3.42-.87 5.49 0 2.25.28 4.23.84 5.94s1.35 3.15 2.35 4.32c1.01 1.15 2.22 2.02 3.63 2.6 1.4.59 2.94.88 4.6.88zm48.59-12.48c0 1.03.07 1.98.21 2.85.16.84.38 1.65.67 2.43.86 2.34 2.25 4.11 4.14 5.3 1.93 1.18 4.09 1.76 6.51 1.76 1.9 0 3.74-.26 5.52-.77 1.8-.54 3.69-1.37 5.66-2.5l2.63 4.47c-2.39 1.64-4.79 2.86-7.2 3.65a23.79 23.79 0 0 1-7.53 1.2c-2.46 0-4.74-.41-6.85-1.23-2.09-.82-3.89-2.04-5.42-3.66-1.5-1.61-2.68-3.63-3.55-6.04-.84-2.42-1.26-5.23-1.26-8.44 0-2.6.36-5.05 1.09-7.35.72-2.32 1.8-4.34 3.23-6.05 1.46-1.73 3.25-3.1 5.38-4.11s4.62-1.51 7.45-1.51c2.75 0 5.03.42 6.86 1.26 1.85.82 3.35 1.93 4.5 3.31 1.17 1.36 2.05 2.92 2.64 4.68a26.35 26.35 0 0 1 1.26 5.37c.12.89.19 1.8.21 2.71l.07 2.67h-26.22zm10.23-14.52c-1.53 0-2.86.23-4.01.67-1.13.42-2.09 1.04-2.88 1.86-.8.8-1.44 1.79-1.94 2.96-.47 1.17-.82 2.48-1.05 3.94h18.88c-.1-1.36-.32-2.62-.67-3.77-.33-1.15-.84-2.14-1.55-2.98-.7-.85-1.6-1.5-2.7-1.97-1.11-.47-2.47-.71-4.08-.71zm52.7-4.53h8.43v5.31h-8.43v25.06h5.69v6.05h-17.72v-6.05h5.49v-25.06h-6.01v-5.31h6.01v-5.7c.04-2.11.35-3.95.91-5.52s1.36-2.88 2.39-3.93c1.03-1.06 2.28-1.84 3.73-2.36s3.07-.77 4.85-.77c1.24 0 2.36.06 3.34.17.98.12 1.86.28 2.64.49.77.19 1.45.4 2.04.64l1.61.7-2 4.68c-.75-.4-1.74-.74-2.95-1.02a16.5 16.5 0 0 0-3.77-.42c-1.94 0-3.48.6-4.6 1.82-1.1 1.2-1.65 2.97-1.65 5.31v5.91zm56.6 33.22a12.7 12.7 0 0 1-4.19 2.95c-1.57.71-3.36 1.06-5.37 1.06-2.47 0-4.76-.42-6.9-1.27-2.1-.86-3.94-2.12-5.51-3.76-1.55-1.66-2.77-3.69-3.66-6.08-.87-2.41-1.3-5.17-1.3-8.26 0-2.82.42-5.37 1.26-7.67.85-2.32 2.04-4.29 3.59-5.9 1.55-1.64 3.41-2.91 5.59-3.8 2.18-.91 4.61-1.37 7.28-1.37 1.83 0 3.47.21 4.92.63 1.48.4 2.91 1.1 4.29 2.11v-1.86h6.54v34.98c0 5.76-1.37 10.12-4.12 13.08-2.71 2.95-6.96 4.43-12.72 4.43-1.27 0-2.59-.1-3.98-.28-1.38-.19-2.75-.5-4.11-.92a25.15 25.15 0 0 1-3.94-1.55 17.36 17.36 0 0 1-3.51-2.32l3.51-5.3c.71.6 1.5 1.17 2.39 1.68a17.06 17.06 0 0 0 2.92 1.3c1.03.38 2.1.67 3.2.88s2.2.32 3.31.32c1.8 0 3.36-.19 4.67-.56 1.34-.38 2.43-1.05 3.27-2.01.87-.93 1.51-2.21 1.94-3.83.42-1.62.63-3.67.63-6.15v-.53zm-8.72-1.69c1.08 0 2.06-.1 2.95-.31s1.7-.48 2.43-.81c.72-.35 1.36-.75 1.9-1.2.56-.44 1.04-.91 1.44-1.4v-19.94c-1.2-1.05-2.58-1.81-4.15-2.28a16.37 16.37 0 0 0-4.78-.71c-1.55 0-3 .3-4.36.88-1.36.57-2.56 1.4-3.59 2.5-1 1.1-1.8 2.45-2.39 4.04-.58 1.6-.88 3.42-.88 5.49 0 2.25.28 4.23.85 5.94.56 1.71 1.34 3.15 2.35 4.32a9.72 9.72 0 0 0 3.62 2.6c1.41.59 2.95.88 4.61.88zm40.5-49.81h11.53v22.29h.21c.66-.66 1.41-1.27 2.25-1.83.87-.59 1.77-1.09 2.71-1.51.94-.43 1.91-.75 2.92-.99 1-.23 2.06-.35 3.16-.35 1.95 0 3.7.27 5.27.81s2.91 1.36 4.01 2.46 1.95 2.52 2.53 4.25c.61 1.71.92 3.74.92 6.09v17.43h5.48v6.05h-17.3v-6.05h5v-16.63c0-2.78-.72-4.89-2.15-6.32-1.4-1.46-3.43-2.18-6.08-2.18-1.5 0-3.02.36-4.57 1.09-1.55.7-3 1.59-4.36 2.67v21.37h5.27v6.05h-17.29v-6.05h5.48v-42.61h-4.99v-6.04zm62.58 18.28h11.88v30.37h5.48v6.05h-17.29v-6.05h5.2v-24.33h-5.27v-6.04zm4.04-12.9c0-.61.12-1.19.35-1.73.26-.56.59-1.04.99-1.44.42-.42.91-.75 1.47-.98.57-.26 1.16-.39 1.8-.39.61 0 1.18.13 1.72.39a4.14 4.14 0 0 1 2.42 2.42c.26.54.39 1.12.39 1.73a4.21 4.21 0 0 1-.39 1.79 4.85 4.85 0 0 1-.98 1.51c-.4.42-.88.76-1.44 1.02-.54.23-1.11.35-1.72.35a4.73 4.73 0 0 1-1.8-.35 5.09 5.09 0 0 1-1.47-1.02c-.4-.44-.73-.95-.99-1.51a4.68 4.68 0 0 1-.35-1.79zm34.56 12.9h11.81v39.23c0 2.09-.27 3.96-.81 5.63-.54 1.68-1.32 3.11-2.35 4.29-1.01 1.19-2.25 2.12-3.73 2.77-1.48.66-3.16 1.01-5.06 1.06l-.67-4.89c2.09-.3 3.6-1.3 4.54-2.99.96-1.66 1.44-3.86 1.44-6.61v-32.45h-5.17v-6.04zm4.32-12.9a4.03 4.03 0 0 1 .32-1.59c.23-.49.54-.92.91-1.3.38-.37.81-.67 1.3-.88a4.05 4.05 0 0 1 1.66-.35c.56 0 1.09.12 1.58.35.51.21.96.51 1.33.88.38.38.67.81.88 1.3.24.5.36 1.02.36 1.59a3.89 3.89 0 0 1-.36 1.65c-.21.51-.5.97-.88 1.37-.37.37-.82.68-1.33.91-.49.21-1.02.32-1.58.32a4.38 4.38 0 0 1-1.66-.32c-.49-.23-.92-.54-1.3-.91-.37-.4-.68-.86-.91-1.37a4.37 4.37 0 0 1-.32-1.65zm32.94-5.38h12.84v6.04h-.07v27.21h6.32l8.65-8.93h-2.18v-6.04h13.82v6.04h-4.61l-11.07 11.43 12.09 12.9h4.4v6.05h-7.7l-14.91-16.28h-4.81v10.23h3.02v6.05h-15.57v-6.05h5.97v-42.61h-6.19v-6.04zm60.97 0h11.81v48.65h5.48v6.05h-17.29v-6.05h5.27v-42.61h-5.27v-6.04zm39.44 18.28h11.6v4.25h.07a28.85 28.85 0 0 1 2.5-1.9c.89-.61 1.82-1.13 2.78-1.58.96-.44 1.95-.8 2.98-1.05 1.06-.26 2.15-.39 3.27-.39 2.63 0 4.89.49 6.79 1.48 1.9.96 3.36 2.47 4.39 4.53a35.07 35.07 0 0 1 2.82-2.28c.98-.75 2-1.4 3.05-1.94a19.19 19.19 0 0 1 3.38-1.3c1.17-.33 2.39-.49 3.66-.49 1.96 0 3.73.27 5.3.81 1.58.54 2.91 1.36 4.01 2.46s1.94 2.52 2.5 4.25c.58 1.71.88 3.74.88 6.09v17.43h5.06v6.05h-17.02v-6.05h5.14v-16.63c0-2.78-.71-4.89-2.11-6.32-1.41-1.46-3.44-2.18-6.08-2.18-1.57 0-3.18.37-4.82 1.12s-3.05 1.7-4.22 2.85v21.16h5.03v6.05h-16.98v-6.05h5.13v-16.63c0-2.78-.71-4.89-2.14-6.32-1.41-1.46-3.44-2.18-6.09-2.18-1.52 0-3.05.36-4.6 1.09-1.55.72-3.01 1.63-4.4 2.7v21.34h5.14v6.05h-17.02v-6.05h5.06v-24.33h-5.06v-6.04zm111.8 30.37h5.13v-16.63c0-2.78-.71-4.89-2.14-6.32-1.41-1.46-3.44-2.18-6.09-2.18-1.52 0-3.05.36-4.6 1.09-1.55.72-3.01 1.63-4.4 2.7v21.34h5.14v6.05h-17.02v-6.05h5.06v-24.33h-5.06v-6.04h11.6v4.29h.07c.78-.68 1.6-1.33 2.46-1.94.89-.61 1.82-1.13 2.78-1.58.96-.44 1.96-.8 2.99-1.05 1.05-.26 2.16-.39 3.3-.39 1.95 0 3.71.27 5.28.81s2.9 1.36 4.01 2.46c1.1 1.1 1.94 2.52 2.53 4.25.61 1.71.91 3.74.91 6.09v17.43h5.06v6.05h-17.01v-6.05zm39.3-12.16c.03-2.88.48-5.51 1.37-7.88.92-2.36 2.18-4.39 3.8-6.08 1.62-1.71 3.54-3.02 5.77-3.94 2.22-.91 4.67-1.37 7.34-1.37 2.7 0 5.16.46 7.39 1.37 2.25.92 4.17 2.22 5.76 3.91 1.6 1.66 2.84 3.68 3.73 6.04.89 2.37 1.33 5 1.33 7.88 0 2.83-.44 5.45-1.33 7.84-.89 2.37-2.13 4.4-3.73 6.12-1.59 1.71-3.51 3.04-5.76 4-2.23.94-4.69 1.41-7.39 1.41-2.74 0-5.22-.47-7.45-1.41-2.23-.93-4.14-2.25-5.73-3.93-1.59-1.71-2.84-3.75-3.73-6.12s-1.34-4.98-1.37-7.84zm6.93 0c0 2.09.29 3.97.88 5.66.61 1.69 1.43 3.13 2.46 4.32 1.05 1.18 2.26 2.09 3.62 2.75 1.38.63 2.85.94 4.39.94 1.62 0 3.12-.31 4.5-.94 1.41-.64 2.63-1.54 3.66-2.71 1.03-1.2 1.84-2.64 2.43-4.33.58-1.68.87-3.58.87-5.69 0-2.2-.29-4.16-.87-5.87-.59-1.71-1.4-3.14-2.43-4.29a9.64 9.64 0 0 0-3.62-2.6c-1.41-.59-2.92-.88-4.54-.88-1.54 0-3.01.29-4.39.88-1.36.58-2.57 1.45-3.62 2.6-1.03 1.15-1.85 2.58-2.46 4.29-.59 1.71-.88 3.67-.88 5.87zm50.97-18.21h11.61v3.02a20.16 20.16 0 0 1 5.06-2.85c1.83-.7 3.71-1.05 5.66-1.05 2.39 0 4.58.44 6.57 1.34 2 .89 3.71 2.14 5.14 3.76 1.45 1.61 2.57 3.56 3.37 5.83.8 2.25 1.2 4.75 1.2 7.49 0 2.93-.45 5.6-1.34 8.02-.89 2.41-2.13 4.48-3.73 6.22-1.57 1.71-3.44 3.05-5.62 4.01s-4.57 1.44-7.17 1.44c-1.85 0-3.51-.2-4.96-.6a23.92 23.92 0 0 1-4.11-1.48v11.78h5.69v6.05h-17.29v-6.05h4.99v-40.89h-5.07v-6.04zm20.61 4.88a12.18 12.18 0 0 0-4.89 1.02 12.47 12.47 0 0 0-4.04 2.82v19.72c.77.8 1.87 1.51 3.3 2.14 1.45.64 3.26.95 5.42.95 1.5 0 2.94-.29 4.32-.88 1.38-.58 2.6-1.45 3.66-2.6 1.05-1.17 1.89-2.61 2.53-4.32.63-1.71.95-3.69.95-5.94 0-2.07-.31-3.89-.92-5.49-.58-1.59-1.39-2.94-2.42-4.04-1.01-1.1-2.19-1.93-3.55-2.5-1.36-.58-2.82-.88-4.36-.88zm61.56 42.05h5.27v-13.36c-1.17 1.15-2.52 2.05-4.04 2.71-1.53.63-3.25.95-5.17.95-2.46 0-4.76-.42-6.89-1.27a15.85 15.85 0 0 1-5.52-3.76c-1.55-1.66-2.77-3.69-3.66-6.08-.87-2.41-1.3-5.17-1.3-8.26 0-2.82.42-5.37 1.27-7.67.84-2.32 2.04-4.29 3.58-5.9 1.55-1.64 3.41-2.91 5.59-3.8 2.18-.91 4.61-1.37 7.28-1.37 1.76 0 3.34.2 4.75.6 1.4.37 2.77 1 4.11 1.9v-1.62h6.54v46.93h5.48v6.05h-17.29v-6.05zm-3.1-15.4c1.99 0 3.68-.32 5.06-.98 1.39-.66 2.49-1.43 3.31-2.32v-20.64c-1.17-.96-2.51-1.65-4.01-2.07-1.48-.42-3-.64-4.57-.64-1.55 0-3 .3-4.36.88a10.16 10.16 0 0 0-3.59 2.54c-1 1.1-1.8 2.44-2.39 4.04-.58 1.59-.87 3.41-.87 5.45 0 2.25.28 4.23.84 5.94s1.35 3.15 2.35 4.32c1.01 1.15 2.22 2.02 3.63 2.6 1.4.59 2.94.88 4.6.88zm66.41-23.83h-6.68v-2.25c-.77 0-1.57.15-2.39.45-.8.29-1.55.73-2.25 1.34-.7.59-1.32 1.35-1.86 2.29-.52.91-.89 2-1.13 3.27v17.57h6.19v6.05h-18.07v-6.05h5.03l.03-24.33h-5.06v-6.04h11.64v5.03c.42-.75.89-1.45 1.4-2.08a10.36 10.36 0 0 1 1.76-1.69 7.6 7.6 0 0 1 2.15-1.12c.79-.28 1.65-.42 2.56-.42h3.45a69.61 69.61 0 0 1 3.23.07v7.91zm44.33 2.07c0-.98-.23-1.81-.7-2.49-.44-.71-1.03-1.27-1.76-1.69-.72-.45-1.53-.76-2.42-.95-.89-.21-1.76-.32-2.6-.32-.94 0-1.81.11-2.61.32-.77.21-1.44.51-2 .91s-1.01.89-1.34 1.48c-.3.56-.45 1.19-.45 1.9 0 1.22.36 2.19 1.09 2.92.75.7 1.99 1.36 3.72 1.96l7 2.47c3 1 5.19 2.37 6.57 4.11 1.39 1.73 2.08 3.81 2.08 6.22 0 1.62-.33 3.11-.99 4.47-.63 1.33-1.54 2.48-2.74 3.44-1.17.94-2.59 1.67-4.25 2.18-1.67.54-3.52.81-5.56.81-2.83 0-5.14-.46-6.92-1.37-1.78-.92-3.16-2.12-4.12-3.62h-3.65v-6.05h7.27c0 1.01.22 1.88.64 2.6.44.71 1.02 1.28 1.72 1.73.73.44 1.54.77 2.43.98a12.33 12.33 0 0 0 2.77.32c.92 0 1.8-.11 2.64-.32.84-.24 1.58-.56 2.21-.98.66-.45 1.18-.98 1.55-1.59.38-.61.56-1.3.56-2.07 0-1.17-.38-2.17-1.16-2.99-.75-.82-2.04-1.56-3.86-2.21l-6.96-2.61c-2.84-1-4.95-2.28-6.33-3.83-1.36-1.57-2.04-3.53-2.04-5.87 0-1.55.28-2.98.84-4.29.59-1.31 1.42-2.44 2.5-3.37 1.1-.96 2.44-1.71 4.01-2.25s3.36-.81 5.38-.81c2.6 0 4.78.36 6.53 1.09 1.76.72 3.34 1.97 4.75 3.72h3.41v6.05h-7.21zm40.22-9.77h8.55v5.31h-8.62l-.1 21.02c0 1.43.16 2.59.49 3.48s.85 1.51 1.58 1.86c.73.33 1.55.5 2.46.5.99 0 1.85-.09 2.6-.25.75-.19 1.57-.49 2.46-.91l1.52 4.39c-1.13.59-2.31 1.04-3.56 1.37-1.24.35-2.7.53-4.39.53-1.59 0-2.99-.2-4.18-.6a6.68 6.68 0 0 1-2.99-1.93c-.8-.92-1.4-2.14-1.79-3.66-.4-1.55-.6-3.47-.6-5.76l.1-20.04h-5.8v-5.31h5.87v-8.72l6.4-3.02v11.74zm53.93 0h11.74v30.37h4.05v6.05h-10.62v-3.38c-1.64 1.27-3.43 2.26-5.38 2.96-1.92.7-3.98 1.05-6.19 1.05-1.82 0-3.49-.25-4.99-.77a9.91 9.91 0 0 1-3.8-2.46c-1.03-1.13-1.82-2.54-2.39-4.26-.56-1.71-.84-3.75-.84-6.11v-17.41h-4.92v-6.04h11.74v22.67c0 2.79.64 4.9 1.93 6.33s3.14 2.15 5.56 2.15c1.43 0 2.93-.26 4.5-.78 1.59-.51 3.09-1.23 4.5-2.14v-22.19h-4.89v-6.04zm38.46 0h12.59v6.04h-3.41l9 25.11 8.79-25.11h-2.22v-6.04h11.53v6.04h-3.12l-11.92 30.94h-6.47l-11.88-30.94h-2.89v-6.04zm54.42 0h11.54v6.04h-1.69l6.36 23.24 8.72-29.28h5.48l8.34 29.21 6.64-23.17h-2.11v-6.04h11.53v6.04h-3.13l-9.98 30.94h-6.05l-8.26-29.07-8.23 29.07h-6.11l-9.92-30.94h-3.13v-6.04zm97.11 30.37h2.07l-7.24-9-7.07 9h1.79v6.05h-12.09v-6.05h2.95l11.08-12.9-10.41-11.43h-3.69v-6.04h12.09v6.04h-1.37l6.72 8.65 6.78-8.65h-1.75v-6.04h12.09v6.04h-3.13l-10.3 11.89 10.9 12.44h2.67v6.05h-12.09v-6.05zm30.76-30.37h13.81v6.04h-4.32l8.54 23.24 8.93-23.24h-4.29v-6.04h13.82v6.04h-3.76l-16.21 40.89h4.99v6.05h-14.69v-6.05h4.43l3.87-10.02-12.17-30.87h-2.95v-6.04zm58.67 32.38l18.46-26.93h-11.64v5.13h-6.46v-10.58H2485v4.15l-18.43 26.79h12.45v-6.19h6.78V1538h-27.21v-4.04z"/><path d="M1064.51 1650.95h5.17v-38.99l-10.8 5.88v-7.35l14.84-8.3h2.81v48.76h5.24v6.05h-17.26v-6.05zm40.5.88l18.74-22.64 1.96-2.42c.71-.87 1.35-1.79 1.94-2.75.61-.96 1.1-1.95 1.47-2.98a9.19 9.19 0 0 0 .6-3.27c0-1.18-.23-2.28-.7-3.31a8.66 8.66 0 0 0-1.93-2.71c-.82-.77-1.81-1.38-2.96-1.82-1.12-.45-2.36-.67-3.72-.67-1.22 0-2.38.2-3.48.6-1.08.37-2.03.93-2.85 1.68s-1.49 1.69-2.01 2.82c-.49 1.1-.76 2.37-.8 3.83h-6.33c.02-2.23.45-4.28 1.3-6.15.84-1.9 1.97-3.53 3.37-4.89 1.43-1.38 3.09-2.45 4.96-3.2a15.41 15.41 0 0 1 5.91-1.16c2.39 0 4.56.39 6.5 1.16 1.95.75 3.61 1.79 4.99 3.13 1.39 1.33 2.45 2.92 3.2 4.74.78 1.83 1.16 3.81 1.16 5.95 0 .84-.1 1.74-.31 2.7-.19.94-.53 1.96-1.02 3.06-.47 1.08-1.11 2.24-1.9 3.48-.78 1.24-1.76 2.58-2.96 4.01l-16.62 19.79h22.74v6.19h-31.25v-5.17zm78.75-34.21c0-.91-.2-1.88-.6-2.91-.37-1.06-.97-2.02-1.79-2.89-.8-.89-1.82-1.61-3.06-2.18-1.22-.58-2.66-.87-4.33-.87-1.38 0-2.64.24-3.79.73-1.13.47-2.25 1.36-3.38 2.68-1.12 1.31-1.73 2.76-1.83 4.36h-6.68c.12-2.04.63-3.88 1.52-5.52.91-1.64 2.06-3.09 3.44-4.33s3-2.23 4.85-2.95a15.68 15.68 0 0 1 5.8-1.09c2.51 0 4.79.42 6.82 1.26 2.04.82 3.78 1.93 5.21 3.31a14.38 14.38 0 0 1 3.34 4.67c.79 1.76 1.19 3.56 1.19 5.38 0 1.13-.14 2.25-.42 3.38-.28 1.12-.73 2.2-1.34 3.23-.58 1.01-1.34 1.95-2.28 2.82-.94.86-2.07 1.62-3.41 2.28 1.1.42 2.13 1.02 3.09 1.79.99.75 1.84 1.66 2.57 2.71.73 1.06 1.3 2.25 1.72 3.59.42 1.33.64 2.8.64 4.39 0 2.3-.45 4.43-1.34 6.4-.89 1.94-2.1 3.63-3.62 5.06-1.53 1.43-3.32 2.56-5.38 3.38-2.04.79-4.23 1.19-6.58 1.19-2.15 0-4.3-.37-6.43-1.12-2.11-.78-3.9-1.87-5.38-3.27-1.47-1.41-2.56-2.87-3.27-4.4-.7-1.52-1.12-3.03-1.26-4.53h6.75c.68 2.18 1.88 3.89 3.62 5.13 1.76 1.24 3.98 1.86 6.68 1.86 1.22 0 2.4-.24 3.55-.73 1.17-.5 2.2-1.18 3.09-2.04.89-.89 1.61-1.93 2.15-3.1.54-1.19.81-2.49.81-3.9 0-1.48-.27-2.81-.81-4.01-.54-1.19-1.27-2.2-2.18-3.02a9.45 9.45 0 0 0-3.2-1.93c-1.2-.47-2.47-.71-3.83-.71h-3.03v-5.31h2.46c1.55 0 2.93-.22 4.15-.66 1.24-.47 2.29-1.11 3.13-1.9a8.19 8.19 0 0 0 1.93-2.78c.47-1.08.71-2.23.71-3.45zm30.58 18.43l18.95-32.35h7.49l-18.03 31.85h13.64v-8.78l6.89-.5v9.28h7.94v6.05h-7.94v9.35h5.27v6.05h-17.3v-6.05h5.14v-9.35h-22.12l.07-5.55zm67.68-10.48c1.31-.89 2.66-1.56 4.04-2 1.39-.47 2.97-.71 4.75-.71 2.62 0 5.04.47 7.24 1.41s4.09 2.2 5.66 3.8c1.59 1.59 2.83 3.45 3.69 5.59.89 2.11 1.34 4.34 1.34 6.71 0 2.39-.44 4.67-1.3 6.82-.87 2.13-2.1 4.01-3.69 5.63-1.6 1.61-3.52 2.9-5.77 3.86-2.23.94-4.71 1.41-7.45 1.41-2.09 0-4.03-.28-5.84-.84-1.8-.54-3.43-1.3-4.89-2.29a17.42 17.42 0 0 1-3.79-3.58 18.2 18.2 0 0 1-2.53-4.54l5.76-2.88c.38 1.19.93 2.31 1.65 3.34.73 1 1.59 1.88 2.57 2.63.99.73 2.08 1.3 3.27 1.73a12.19 12.19 0 0 0 3.8.59c1.68 0 3.24-.3 4.67-.91a11.58 11.58 0 0 0 3.76-2.57c1.08-1.07 1.93-2.33 2.54-3.76.61-1.45.91-3 .91-4.64 0-1.66-.3-3.2-.91-4.6a11.15 11.15 0 0 0-2.54-3.7c-1.07-1.05-2.34-1.87-3.79-2.46-1.43-.61-2.98-.91-4.64-.91-1.88 0-3.61.34-5.21 1.02-1.57.66-2.88 1.55-3.93 2.67l-5.17-.81v-27.88h30.02v5.84h-24.22v16.03zm73.34-21.87l-11.96 19.94c1.43-.61 2.72-.96 3.87-1.06l3.13-.14c2.15 0 4.24.41 6.26 1.23 2.01.8 3.79 1.94 5.34 3.41 1.57 1.46 2.82 3.2 3.76 5.24.94 2.02 1.41 4.24 1.41 6.68 0 2.98-.51 5.62-1.51 7.95-1.01 2.32-2.37 4.27-4.08 5.87-1.71 1.59-3.7 2.81-5.98 3.65-2.25.82-4.64 1.23-7.17 1.23a18.9 18.9 0 0 1-6.93-1.3 18.93 18.93 0 0 1-5.87-3.62c-1.71-1.57-3.08-3.44-4.11-5.62-1.01-2.21-1.51-4.64-1.51-7.32 0-2.06.38-4.1 1.16-6.11.79-2.02 1.78-4.13 2.95-6.33l13.04-23.7h8.2zm-7.7 24.51c-1.69 0-3.13.27-4.33.81-1.17.51-2.28 1.25-3.34 2.21-1.05.94-1.88 2.15-2.49 3.62-.61 1.45-.92 3.14-.92 5.06 0 1.83.31 3.47.92 4.93.61 1.45 1.45 2.68 2.53 3.69 1.08.98 2.34 1.74 3.79 2.28 1.48.52 3.07.78 4.79.78 1.59 0 3.11-.29 4.57-.85a11.74 11.74 0 0 0 3.83-2.39c1.1-1.03 1.98-2.26 2.63-3.69.66-1.43.99-3.01.99-4.75 0-1.92-.35-3.61-1.06-5.06-.7-1.47-1.65-2.71-2.84-3.69-1.18-.98-2.55-1.72-4.12-2.21-1.57-.5-3.22-.74-4.95-.74zm45.14 22.74h4.11c1.27-3.61 2.66-7.26 4.18-10.97l4.64-10.86 4.65-10.02 4.18-8.61h-19.97v4.11h-6.75v-10.9h34.98v5.28l-4.85 9.7-5.03 10.48c-1.64 3.58-3.23 7.22-4.78 10.89a202.4 202.4 0 0 0-4.22 10.9h4.43v6.05h-15.57v-6.05zm69.43-48.23c2.02 0 3.91.36 5.7 1.09 1.8.73 3.38 1.72 4.74 2.99a13.68 13.68 0 0 1 3.2 4.46c.8 1.69 1.2 3.49 1.2 5.42 0 2.29-.54 4.41-1.62 6.36a14.31 14.31 0 0 1-4.33 4.82c1.2.7 2.29 1.54 3.27 2.53a15.69 15.69 0 0 1 2.54 3.2c.7 1.14 1.24 2.39 1.61 3.72.4 1.34.6 2.72.6 4.15 0 2.23-.46 4.31-1.37 6.26a16.49 16.49 0 0 1-3.66 5.13c-1.54 1.45-3.35 2.6-5.41 3.45-2.06.84-4.27 1.26-6.61 1.26-2.37 0-4.59-.42-6.68-1.26-2.09-.85-3.9-2-5.45-3.45-1.55-1.47-2.78-3.19-3.69-5.13-.89-1.95-1.34-4.03-1.34-6.26a15.12 15.12 0 0 1 .57-4.15 15.33 15.33 0 0 1 1.65-3.76 17.21 17.21 0 0 1 2.56-3.2 17.08 17.08 0 0 1 3.34-2.53 14.47 14.47 0 0 1-4.25-4.82c-1.03-1.94-1.55-4.05-1.55-6.32 0-1.93.39-3.73 1.16-5.42a14.05 14.05 0 0 1 3.17-4.46c1.36-1.27 2.95-2.26 4.78-2.99s3.78-1.09 5.87-1.09zm-10.86 38.6c0 1.38.28 2.7.84 3.94a10.42 10.42 0 0 0 2.29 3.2c.98.91 2.12 1.64 3.41 2.18 1.31.54 2.7.81 4.18.81 1.45 0 2.82-.27 4.11-.81s2.42-1.27 3.38-2.18c.98-.92 1.76-1.98 2.32-3.2.56-1.24.84-2.56.84-3.94a9.17 9.17 0 0 0-.84-3.87c-.56-1.22-1.34-2.28-2.32-3.2-.96-.91-2.09-1.63-3.38-2.14-1.29-.54-2.66-.81-4.11-.81-1.48 0-2.87.27-4.18.81a10.82 10.82 0 0 0-3.41 2.14 10.42 10.42 0 0 0-2.29 3.2 9.17 9.17 0 0 0-.84 3.87zm1.93-24.5c0 1.17.22 2.27.67 3.3.44 1.01 1.07 1.9 1.86 2.67.8.75 1.74 1.35 2.81 1.8 1.11.44 2.3.66 3.59.66 1.2 0 2.32-.22 3.38-.66 1.05-.45 1.98-1.05 2.77-1.8.82-.77 1.47-1.66 1.94-2.67a7.85 7.85 0 0 0 .7-3.3c0-1.15-.23-2.23-.7-3.24-.47-1.03-1.12-1.92-1.94-2.67a9.03 9.03 0 0 0-2.77-1.83 8.71 8.71 0 0 0-3.38-.67c-1.29 0-2.48.23-3.59.67-1.07.45-2.01 1.06-2.81 1.83-.79.75-1.42 1.64-1.86 2.67-.45 1.01-.67 2.09-.67 3.24zm62.47 40.18l12.27-20.11c-1.17.47-2.24.79-3.2.95s-1.99.25-3.09.25c-2.06 0-4.21-.4-6.43-1.2-2.21-.82-4.09-1.96-5.66-3.41-1.55-1.48-2.84-3.28-3.87-5.41-1.01-2.16-1.51-4.34-1.51-6.54 0-2.98.5-5.63 1.51-7.95s2.37-4.28 4.08-5.87a17.36 17.36 0 0 1 5.94-3.62c2.27-.84 4.67-1.27 7.21-1.27 2.53 0 4.88.43 7.06 1.27a17.71 17.71 0 0 1 5.87 3.66c1.71 1.57 3.05 3.45 4.01 5.66.99 2.18 1.48 4.6 1.48 7.27 0 2.07-.4 4.11-1.2 6.12-.77 2.02-1.74 4.13-2.92 6.33l-13.36 23.87h-8.19zm7.07-48.06a12.4 12.4 0 0 0-4.57.85c-1.45.56-2.73 1.35-3.83 2.39-1.1 1.03-1.98 2.26-2.64 3.69s-.98 3.01-.98 4.74c0 1.93.35 3.62 1.05 5.1a10.99 10.99 0 0 0 2.81 3.66 12.56 12.56 0 0 0 3.98 2.21c1.47.49 2.95.74 4.43.74 2.15 0 3.82-.26 4.99-.77 1.19-.54 2.32-1.28 3.37-2.22 1.06-.96 1.89-2.17 2.5-3.62.61-1.48.91-3.17.91-5.1 0-1.82-.3-3.47-.91-4.92s-1.45-2.67-2.53-3.65c-1.08-1.01-2.36-1.77-3.83-2.29-1.46-.54-3.04-.81-4.75-.81zm61.24 48.69c-3.79 0-6.97-.7-9.53-2.11-2.55-1.4-4.6-3.34-6.15-5.8-1.52-2.46-2.61-5.34-3.27-8.65-.65-3.3-.98-6.85-.98-10.65 0-4.05.44-7.84 1.33-11.35.9-3.54 2.09-6.38 3.59-8.51s3.39-3.95 5.66-5.45c2.3-1.5 5.44-2.25 9.42-2.25 3.78 0 6.92.6 9.42 1.79 2.51 1.2 4.57 3.04 6.19 5.52 1.64 2.46 2.79 5.44 3.45 8.93.65 3.49.98 7.2.98 11.11 0 3.82-.33 7.4-.98 10.72-.66 3.33-1.77 6.24-3.34 8.72a16.85 16.85 0 0 1-6.19 5.84c-2.58 1.43-5.78 2.14-9.6 2.14zm0-6.25c2.74 0 4.95-.56 6.61-1.66 1.69-1.12 2.95-2.65 3.8-4.57.87-1.92 1.51-4.16 1.93-6.71.42-2.58.63-5.32.63-8.23 0-2.79-.16-5.46-.49-8.01-.33-2.58-.96-4.86-1.9-6.82-.93-1.97-2.25-3.54-3.93-4.72-1.69-1.17-3.88-1.75-6.58-1.75-2.79 0-4.99.58-6.61 1.75-1.61 1.18-2.82 2.59-3.62 4.26-.8 1.64-1.43 3.9-1.9 6.78-.44 2.89-.66 5.72-.66 8.51 0 2.91.14 5.65.42 8.23.3 2.55.9 4.79 1.79 6.71.91 1.92 2.2 3.45 3.87 4.57 1.68 1.1 3.9 1.66 6.64 1.66zm1395.89-397.01h5.45v-34h-5.45v-9.74l25.98.07c2.42 0 4.62.44 6.61 1.3 2.02.85 3.75 2.01 5.21 3.48 1.45 1.46 2.57 3.17 3.37 5.14.82 1.94 1.23 4.02 1.23 6.22 0 2.58-.46 4.71-1.37 6.4-.89 1.69-2.17 3.05-3.83 4.08 1.76 1.12 3.14 2.52 4.15 4.18 1.03 1.64 1.54 3.64 1.54 6.01 0 2.42-.42 4.63-1.26 6.65-.82 2.01-1.96 3.76-3.41 5.23-1.43 1.46-3.13 2.59-5.1 3.41-1.97.8-4.09 1.2-6.36 1.2h-26.76v-9.63zm17.12-12.41v12.41h8.86a3.63 3.63 0 0 0 1.9-.53 5.09 5.09 0 0 0 1.55-1.37 7.11 7.11 0 0 0 1.05-2.01c.26-.77.39-1.57.39-2.39a7.09 7.09 0 0 0-.39-2.39c-.25-.75-.61-1.39-1.05-1.93-.45-.56-.97-1-1.58-1.3a3.76 3.76 0 0 0-1.87-.49h-8.86zm0-21.59v11.95h8.37c.66 0 1.28-.16 1.86-.49.59-.33 1.09-.76 1.52-1.3a7.09 7.09 0 0 0 1.05-1.86c.26-.71.39-1.43.39-2.18 0-.73-.13-1.45-.39-2.18s-.61-1.38-1.05-1.97c-.43-.59-.93-1.05-1.52-1.41-.58-.37-1.2-.56-1.86-.56h-8.37zm30.17 25.28c0-2.65.48-5.13 1.44-7.45s2.3-4.35 4.01-6.09c1.71-1.73 3.75-3.1 6.11-4.11 2.37-1.01 4.97-1.51 7.81-1.51 2.83 0 5.44.5 7.8 1.51 2.39 1.01 4.45 2.38 6.16 4.11 1.71 1.74 3.03 3.77 3.97 6.09.96 2.32 1.44 4.8 1.44 7.45s-.47 5.14-1.41 7.49c-.91 2.32-2.22 4.36-3.93 6.11-1.69 1.74-3.73 3.11-6.12 4.12-2.37 1.01-5 1.51-7.91 1.51-2.93 0-5.59-.5-7.98-1.51-2.37-1.01-4.4-2.38-6.08-4.12-1.69-1.73-3-3.76-3.94-6.08-.92-2.34-1.37-4.85-1.37-7.52zm10.51 0c0 1.38.23 2.66.7 3.83a9.6 9.6 0 0 0 1.9 2.99c.82.84 1.76 1.5 2.81 1.97 1.08.47 2.23.7 3.45.7 1.24 0 2.39-.22 3.44-.67a8 8 0 0 0 2.78-1.97c.8-.84 1.42-1.84 1.86-2.98.45-1.18.67-2.47.67-3.87 0-1.45-.22-2.77-.67-3.94-.44-1.17-1.06-2.17-1.86-2.99a7.48 7.48 0 0 0-2.78-1.86c-1.05-.45-2.2-.66-3.44-.63-1.22-.03-2.37.18-3.45.63-1.05.42-1.99 1.04-2.81 1.86-.8.82-1.43 1.82-1.9 2.99s-.7 2.49-.7 3.94zm32.84-36.35h16.41v45.07h5.63v9.63h-22.04v-9.63h5.62v-35.44h-5.62v-9.63zm49.71 0h15.92v45.07h7.1v9.63h-17.93v-1.41c-1.26.66-2.56 1.18-3.9 1.55a14.33 14.33 0 0 1-4.01.56c-2.79 0-5.35-.49-7.7-1.47-2.32-1.01-4.32-2.38-6.01-4.12-1.66-1.73-2.96-3.76-3.9-6.08-.94-2.34-1.41-4.85-1.41-7.52s.46-5.16 1.38-7.46c.93-2.32 2.22-4.33 3.86-6.04 1.67-1.71 3.65-3.06 5.94-4.05 2.32-.98 4.87-1.47 7.63-1.47 1.53 0 2.96.15 4.29.46 1.34.28 2.62.69 3.83 1.23v-9.25h-5.09v-9.63zm-2.22 45.7c1.55-.05 2.94-.45 4.19-1.2 1.26-.75 2.3-1.73 3.12-2.95v-10.72a8.37 8.37 0 0 0-3.2-2.88c-1.28-.71-2.66-1.05-4.11-1.02-1.22-.03-2.37.18-3.44.63-1.06.44-2 1.08-2.82 1.9-.79.82-1.43 1.8-1.89 2.95-.47 1.15-.71 2.45-.71 3.9 0 1.43.24 2.73.71 3.91.46 1.14 1.1 2.13 1.89 2.95.82.8 1.76 1.41 2.82 1.83 1.07.42 2.22.65 3.44.7zm43.63-6.79v-9.63h22.04v9.63h-22.04zm43.81 6.65l18.42-19.58c1.59-1.55 2.82-3.1 3.69-4.64.87-1.55 1.3-3.12 1.3-4.71 0-.68-.14-1.35-.42-2.01a5.12 5.12 0 0 0-1.23-1.79c-.52-.54-1.16-.96-1.94-1.27-.75-.32-1.6-.49-2.56-.49-1.15 0-2.16.19-3.03.56-.84.36-1.56.85-2.14 1.48a6.69 6.69 0 0 0-1.3 2.21c-.31.85-.47 1.74-.49 2.68h-10.59c0-2.77.46-5.23 1.37-7.39.92-2.18 2.17-4 3.77-5.48 1.61-1.5 3.5-2.64 5.66-3.41 2.15-.77 4.46-1.16 6.92-1.16 2.32 0 4.53.35 6.61 1.05 2.11.71 3.96 1.74 5.56 3.1 1.61 1.36 2.89 3.03 3.83 5.03.94 1.99 1.41 4.28 1.41 6.89 0 2.08-.44 4.02-1.31 5.8-.84 1.75-1.99 3.44-3.44 5.06l-15.19 16.42h19.86V1264h-34.76v-9.14zm37.3-14.41l18.95-29.75h11.74l-18.67 29.82h11.25v-10.31l11-.14v10.45h7.42v8.93h-7.42v4.92h6.79v9.63h-22.85v-9.63h5.06v-4.92h-23.27v-9zm61.55-12.87h15.9v.53c1.12-.5 2.27-.88 3.44-1.16a14.09 14.09 0 0 1 3.62-.46c2.67 0 5.16.5 7.45 1.51 2.3 1.01 4.29 2.38 5.98 4.11 1.69 1.74 3 3.77 3.94 6.09.96 2.32 1.44 4.78 1.44 7.38 0 2.62-.47 5.1-1.41 7.42-.91 2.32-2.2 4.34-3.86 6.08-1.67 1.71-3.66 3.07-5.98 4.08-2.3.98-4.82 1.47-7.56 1.47-1.55 0-2.99-.15-4.32-.45a21.27 21.27 0 0 1-3.87-1.23v7.98h6.96v9.63h-23.76v-9.63h5.97v-33.72h-3.94v-9.63zm22.19 8.61c-1.48 0-2.86.39-4.15 1.16s-2.38 1.86-3.27 3.27v10.27c.75 1.19 1.77 2.16 3.06 2.91s2.74 1.13 4.36 1.13c1.19 0 2.33-.22 3.41-.67a8.75 8.75 0 0 0 2.81-1.93c.8-.85 1.43-1.83 1.9-2.95.47-1.15.7-2.4.7-3.73 0-1.48-.23-2.8-.7-3.97-.45-1.18-1.07-2.16-1.86-2.96-.8-.82-1.74-1.44-2.82-1.86-1.07-.45-2.22-.67-3.44-.67zm45.84 18.18h2.08l-4.54-4.33-4.71 4.33h2.36v9.63h-17.16v-9.63h3.62l9.04-8.86-8.37-8.3h-4.29v-9.63h17.16v9.63h-1.66l4.26 3.76 4.08-3.76h-1.94v-9.63h17.12v9.63h-4.01l-8.4 8.33 8.9 8.83h3.62v9.63h-17.16v-9.63z"/></g><path stroke="#333" stroke-opacity=".25" stroke-width="3" d="M2976 1314.5h1425"/><g fill="#333"><path d="M3007.39 1409.37h5.31l-2.39-7.67h-16.38l-2.39 7.67h5.62v9.63h-20.21v-9.63h3.97l14.52-43.67h14.1l14.2 43.67h3.87v9.63h-20.22v-9.63zm-10.68-16.67h10.75l-5.41-17.33-5.34 17.33zm50.13 16.67h5.45v-34h-5.45v-9.74l25.98.07c2.41 0 4.62.44 6.61 1.3 2.02.85 3.75 2.01 5.2 3.48 1.46 1.46 2.58 3.17 3.38 5.14.82 1.94 1.23 4.02 1.23 6.22 0 2.58-.46 4.71-1.37 6.4-.89 1.69-2.17 3.05-3.83 4.08 1.75 1.12 3.14 2.52 4.14 4.18 1.03 1.64 1.55 3.64 1.55 6.01 0 2.42-.42 4.63-1.27 6.65-.82 2.01-1.95 3.76-3.41 5.23-1.43 1.46-3.12 2.59-5.09 3.41-1.97.8-4.09 1.2-6.37 1.2h-26.75v-9.63zm17.12-12.41v12.41h8.86c.68 0 1.31-.18 1.9-.53a5.21 5.21 0 0 0 1.55-1.37c.44-.59.79-1.26 1.05-2.01.26-.77.39-1.57.39-2.39a7.09 7.09 0 0 0-.39-2.39c-.26-.75-.61-1.39-1.05-1.93-.45-.56-.98-1-1.59-1.3-.58-.33-1.2-.49-1.86-.49h-8.86zm0-21.59v11.95h8.37c.65 0 1.28-.16 1.86-.49a4.95 4.95 0 0 0 1.51-1.3c.45-.56.8-1.18 1.06-1.86.26-.71.38-1.43.38-2.18a6.42 6.42 0 0 0-.38-2.18c-.26-.73-.61-1.38-1.06-1.97a5.06 5.06 0 0 0-1.51-1.41c-.58-.37-1.21-.56-1.86-.56h-8.37zm80.93 6.54c-1.31-1.87-2.5-3.2-3.55-3.97-1.05-.8-2.19-1.36-3.41-1.69a13.84 13.84 0 0 0-3.83-.53c-1.97 0-3.8.45-5.49 1.34-1.68.87-3.15 2.06-4.39 3.58-1.22 1.5-2.18 3.26-2.88 5.28-.71 1.99-1.06 4.11-1.06 6.36 0 2.27.34 4.42 1.02 6.43.7 2 1.66 3.74 2.88 5.24s2.68 2.7 4.36 3.59c1.69.87 3.54 1.3 5.56 1.3 1.4 0 2.72-.22 3.94-.67 1.21-.47 2.32-1.08 3.3-1.83a13.65 13.65 0 0 0 2.64-2.56 13.15 13.15 0 0 0 1.75-3.06l11.32 3.16c-.72 2.3-1.79 4.43-3.19 6.4-1.41 1.95-3.11 3.63-5.1 5.06-1.97 1.43-4.2 2.56-6.68 3.38-2.46.82-5.12 1.23-7.98 1.23-2.42 0-4.72-.33-6.93-.99-2.2-.65-4.26-1.58-6.19-2.77-1.89-1.2-3.63-2.64-5.2-4.33-1.55-1.68-2.87-3.55-3.97-5.59-1.1-2.06-1.96-4.26-2.57-6.61-.61-2.36-.91-4.82-.91-7.38 0-3.82.67-7.39 2-10.72 1.34-3.35 3.17-6.27 5.49-8.76a25.62 25.62 0 0 1 8.15-5.9c3.14-1.45 6.52-2.18 10.13-2.18 2.88 0 5.31.36 7.28 1.09 1.96.7 4.13 2.11 6.5 4.22h7.87v11.88h-10.86zm33.05-16.21h20.46c2.44 0 4.77.32 6.99.95 2.25.64 4.34 1.53 6.26 2.67 1.95 1.15 3.71 2.54 5.28 4.15 1.59 1.6 2.95 3.38 4.07 5.35 1.13 1.97 2 4.09 2.61 6.36a27.69 27.69 0 0 1 .91 7.1 27.69 27.69 0 0 1-.91 7.1c-.61 2.28-1.48 4.41-2.61 6.4-1.12 1.97-2.48 3.77-4.07 5.42-1.57 1.61-3.33 3.01-5.28 4.18-1.92 1.15-4.01 2.04-6.26 2.67-2.22.63-4.55.95-6.99.95h-20.46v-9.63h4.25v-34h-4.25v-9.67zm15.92 9.67v34h4.47c1.9 0 3.69-.45 5.38-1.34 1.68-.89 3.15-2.1 4.39-3.62 1.24-1.55 2.23-3.35 2.95-5.41.73-2.09 1.09-4.33 1.09-6.72 0-2.37-.36-4.58-1.09-6.64-.72-2.07-1.71-3.86-2.95-5.38-1.24-1.53-2.71-2.72-4.39-3.59-1.69-.87-3.48-1.3-5.38-1.3h-4.47zm51.19-9.67h42.4v18.18h-11.46v-7.56h-13.68v10.51h10.58v10.2h-10.58v12.34h13.68v-9.46h11.46V1419h-42.4v-9.63h5.59v-33.05h-5.59v-10.62zm62.93 0h41.24v18.18h-11.43v-7.49h-12.62v11.22h10.94v10.23h-10.94v11.53h5.63v9.63h-22.82v-9.63h5.52v-32.98h-5.52v-10.69zm98.26 53.3v-9.14c-1.45 2.55-2.87 4.43-4.25 5.62-1.38 1.2-2.95 2.16-4.71 2.89-1.74.72-4.07 1.08-7 1.05-1.45-.02-2.9-.19-4.36-.49-1.45-.33-2.86-.77-4.22-1.34-1.36-.58-2.69-1.27-4-2.07-1.29-.82-2.47-1.76-3.52-2.81-2.6-2.63-4.63-5.66-6.08-9.11-1.43-3.47-2.15-7.24-2.15-11.32a28.82 28.82 0 0 1 .92-7.28 29.41 29.41 0 0 1 2.56-6.57 26.96 26.96 0 0 1 3.98-5.55 26.08 26.08 0 0 1 5.2-4.33c1.92-1.19 3.98-2.12 6.19-2.78 2.2-.65 4.51-.98 6.92-.98 2.77 0 5.17.37 7.21 1.12 2.04.73 4.23 2.1 6.57 4.12h7.88v11.88h-10.86c-1.08-1.66-2.1-2.87-3.06-3.62-.94-.75-1.97-1.37-3.1-1.86-1.1-.5-2.65-.74-4.64-.74-1.97 0-3.79.44-5.48 1.33s-3.15 2.1-4.4 3.62c-1.22 1.5-2.18 3.29-2.88 5.35a19.22 19.22 0 0 0-1.05 6.29c0 2.13.31 4.16.95 6.08.63 1.93 1.59 3.66 2.88 5.21 1.29 1.52 2.79 2.69 4.5 3.51s3.54 1.23 5.48 1.23c2.49 0 4.66-.72 6.51-2.18 1.85-1.45 3.18-3.43 4-5.94h-10.16v-9.63h24.68V1419h-10.51zm68.98-53.3h22.85v9.67h-5.62v34h5.62v9.63h-22.85v-9.63h5.55v-13.64h-24.04v13.64h5.62v9.63h-22.81v-9.63h5.51v-34h-5.51v-9.67h22.81v9.67h-5.62v11.08h24.04v-11.08h-5.55v-9.67zm45.17 0h22.82v9.64h-5.62v34.03h5.62v9.63h-22.82v-9.63h5.52v-34.03h-5.52v-9.64zm41.81 0h20.14v10.69h-3.73v36.56c-.51 1.9-1.26 3.65-2.25 5.24-.98 1.57-1.95 3-2.91 4.29-.94 1.29-2.27 2.92-3.98 4.89l-9.81-.53c1.39-2.11 2.46-3.86 3.24-5.24.8-1.36 1.59-2.86 2.39-4.5.8-1.66 1.42-3.43 1.86-5.31v-35.4h-4.95v-10.69zm39.62 0h22.81v9.67h-5.62v15.51l17.05-14.88v-10.3h18.17v10.37h-3.97l-17.75 15.26 17.01 17.23h4.33V1419h-17.69v-10.44l-17.15-17.16v17.97h5.62v9.63h-22.81v-9.63h5.52v-34h-5.52v-9.67zm72.63 0h22.82v9.67h-5.63v34h11.6c.31 0 .6-.08.88-.25a2.72 2.72 0 0 0 .77-.7c.24-.28.43-.59.57-.92.14-.32.21-.64.21-.95v-7.13h11.39V1419h-42.61v-9.63h5.52v-34h-5.52v-9.67zm61.73 43.67h4.96v-34h-4.96v-9.67h21.94l15.72 38.46 14.59-38.46h22.25v9.67h-4.96v34h4.89v9.63h-19.93v-9.63h3.65v-30.66l-15.96 39.66h-9.88l-16.24-38.6v29.6h3.97v9.63h-20.04v-9.63zm130.57-43.67H3887v9.67h-4.32V1419h-11.67l-22.19-34.45v24.82h4.47v9.63h-20.22v-9.63h4.4v-34h-4.33v-9.67h16.11l22.04 34.91v-25.24h-4.54v-9.67zm64.55 54.25c-2.41 0-4.72-.33-6.92-.99a25.19 25.19 0 0 1-6.19-2.77c-1.9-1.2-3.64-2.63-5.21-4.29-1.54-1.69-2.87-3.55-3.97-5.59-1.1-2.06-1.96-4.27-2.56-6.61-.61-2.34-.92-4.79-.92-7.35a29.14 29.14 0 0 1 .92-7.35 28.89 28.89 0 0 1 2.56-6.61c1.1-2.06 2.43-3.92 3.97-5.59 1.57-1.68 3.31-3.12 5.21-4.32 1.92-1.19 3.98-2.12 6.19-2.78 2.2-.65 4.51-.98 6.92-.98s4.72.33 6.93.98c2.22.66 4.29 1.59 6.18 2.78a25.06 25.06 0 0 1 5.21 4.32c1.57 1.67 2.9 3.53 4 5.59 1.13 2.04 2 4.25 2.61 6.61.61 2.35.91 4.8.91 7.35 0 2.53-.3 4.98-.91 7.35-.61 2.34-1.48 4.55-2.61 6.61a26.99 26.99 0 0 1-4 5.59c-1.55 1.66-3.28 3.09-5.21 4.29a24.47 24.47 0 0 1-6.18 2.77c-2.21.66-4.52.99-6.93.99zm0-11.04c2.04 0 3.9-.43 5.59-1.3 1.71-.89 3.18-2.09 4.4-3.59 1.21-1.52 2.15-3.28 2.81-5.27.68-2.02 1.02-4.15 1.02-6.4 0-2.27-.34-4.42-1.02-6.43-.68-2.02-1.64-3.78-2.89-5.28-1.21-1.52-2.67-2.71-4.35-3.58-1.69-.89-3.54-1.34-5.56-1.34-2.01 0-3.87.45-5.55 1.34a13.4 13.4 0 0 0-4.36 3.58c-1.22 1.5-2.18 3.26-2.89 5.28-.68 2.01-1.02 4.16-1.02 6.43 0 2.25.34 4.38 1.02 6.4.71 1.99 1.67 3.75 2.89 5.27 1.22 1.5 2.67 2.7 4.36 3.59 1.68.87 3.54 1.3 5.55 1.3zm47.25-43.21h24.61c2.74 0 5.26.44 7.56 1.3 2.3.85 4.28 2 5.94 3.45s2.96 3.13 3.9 5.03 1.41 3.88 1.41 5.94c0 2.48-.38 4.81-1.13 6.99-.72 2.16-1.86 4.04-3.41 5.63-1.54 1.59-3.5 2.86-5.87 3.8-2.36.91-5.17 1.37-8.4 1.37h-7.42v10.16h4.89v9.63h-22.08v-9.63h5.52v-34h-5.52v-9.67zm17.19 9.67v14.31h4.82c2.67 0 4.79-.56 6.36-1.69 1.57-1.12 2.36-2.9 2.36-5.34 0-2.27-.74-4.06-2.22-5.35-1.47-1.28-3.64-1.93-6.5-1.93h-4.82zm65.64 44.05c-3-.61-5.78-1.72-8.33-3.34a26.94 26.94 0 0 1-6.61-6.04 28.65 28.65 0 0 1-4.36-8.09c-1.03-3.02-1.55-6.22-1.55-9.6a29.14 29.14 0 0 1 .92-7.35 28.89 28.89 0 0 1 2.56-6.61c1.1-2.06 2.43-3.92 3.97-5.59 1.57-1.68 3.31-3.12 5.21-4.32 1.92-1.19 3.98-2.12 6.19-2.78 2.2-.65 4.51-.98 6.92-.98s4.72.33 6.93.98c2.22.66 4.29 1.59 6.18 2.78a25.06 25.06 0 0 1 5.21 4.32c1.57 1.67 2.9 3.53 4 5.59 1.13 2.04 2 4.25 2.61 6.61.61 2.35.91 4.8.91 7.35 0 3.42-.54 6.66-1.62 9.7-1.07 3.05-2.57 5.78-4.5 8.2-1.9 2.41-4.16 4.43-6.78 6.04a24.07 24.07 0 0 1-8.54 3.24c.72.3 1.44.63 2.14.98a26.66 26.66 0 0 0 2.18 1.02c.73.33 1.44.6 2.14.81.73.23 1.47.36 2.22.39.73 0 1.43-.1 2.11-.28.7-.19 1.33-.49 1.9-.88.56-.4 1.04-.92 1.44-1.55.42-.63.7-1.41.84-2.32l7.84 3.9c-.21 1.71-.7 3.26-1.47 4.64a11.97 11.97 0 0 1-2.92 3.55c-1.2.99-2.56 1.75-4.08 2.29s-3.14.81-4.85.81c-1.39 0-2.78-.27-4.19-.81-1.38-.52-2.73-1.09-4.04-1.72l-3.66-1.73c-1.14-.51-2.15-.77-3.02-.77a10.73 10.73 0 0 1-1.02-.04h-.84c-.28.03-.6.06-.95.11-.33.07-.72.19-1.16.35l.07-8.86zm4.92-10.51c2.04 0 3.9-.43 5.59-1.3 1.71-.89 3.18-2.09 4.4-3.59 1.21-1.52 2.15-3.28 2.81-5.27.68-2.02 1.02-4.15 1.02-6.4 0-2.27-.34-4.42-1.02-6.43-.68-2.02-1.64-3.78-2.89-5.28-1.21-1.52-2.67-2.71-4.35-3.58-1.69-.89-3.54-1.34-5.56-1.34-2.01 0-3.87.45-5.55 1.34a13.4 13.4 0 0 0-4.36 3.58c-1.22 1.5-2.18 3.26-2.89 5.28-.68 2.01-1.02 4.16-1.02 6.43 0 2.25.34 4.38 1.02 6.4.71 1.99 1.67 3.75 2.89 5.27 1.22 1.5 2.67 2.7 4.36 3.59 1.68.87 3.54 1.3 5.55 1.3zm47.74-43.21h28.2c2.74 0 5.19.41 7.35 1.23 2.15.82 3.97 1.93 5.45 3.31 1.47 1.36 2.6 2.95 3.37 4.78.8 1.8 1.2 3.69 1.2 5.66 0 1.8-.2 3.39-.6 4.75-.38 1.36-.94 2.56-1.69 3.62-.73 1.05-1.63 1.99-2.71 2.81-1.07.8-2.31 1.52-3.69 2.18 1.2.61 2.25 1.55 3.17 2.81.91 1.24 1.6 2.86 2.07 4.85l1.79 6.93h4.4l.07 10.37h-15.47l-2.11-12.66c-.21-1.5-.54-2.79-.98-3.86-.43-1.1-1-2-1.73-2.68-.72-.7-1.61-1.21-2.67-1.54-1.03-.33-2.26-.49-3.69-.49h-4.54v11.6h4.89v9.63h-22.08v-9.63h5.52v-34h-5.52v-9.67zm17.19 9.67v12.9h7c1.34 0 2.53-.11 3.59-.35 1.07-.26 1.99-.64 2.74-1.16.77-.54 1.36-1.21 1.76-2 .42-.8.63-1.75.63-2.85 0-2.06-.74-3.67-2.22-4.82-1.47-1.14-3.64-1.72-6.5-1.72h-7zm76.65 5.34c-.12-.82-.42-1.59-.88-2.32-.45-.72-1.04-1.34-1.76-1.86a8 8 0 0 0-2.43-1.26c-.89-.31-1.83-.46-2.81-.46-.89 0-1.72.09-2.5.28-.77.19-1.45.48-2.04.88-.56.37-1.01.87-1.37 1.48-.32.6-.49 1.33-.49 2.17 0 1.06.22 1.9.67 2.54.47.61 1.05 1.11 1.76 1.51.72.4 1.52.71 2.39.95.87.23 1.71.49 2.53.77l9.67 3.23c1.33.47 2.59 1.12 3.76 1.94a12.61 12.61 0 0 1 3.02 2.99c.87 1.17 1.55 2.52 2.04 4.04s.74 3.23.74 5.13c0 2.58-.48 4.94-1.44 7.07-.94 2.13-2.26 3.96-3.97 5.48-1.72 1.53-3.77 2.71-6.16 3.55-2.39.85-5.04 1.27-7.94 1.27-2.04 0-3.97-.23-5.8-.7-1.81-.45-3.46-1.1-4.96-1.97s-2.81-1.9-3.94-3.1c-1.12-1.21-2-2.59-2.63-4.11h-3.63v-10.58h12.73v2.18c0 1.05.17 2.03.49 2.92.36.89.87 1.66 1.55 2.32.68.65 1.54 1.17 2.57 1.54 1.03.36 2.24.53 3.62.53 2.11 0 3.71-.48 4.81-1.44 1.11-.98 1.66-2.34 1.66-4.08 0-.89-.2-1.63-.6-2.21-.38-.61-.87-1.12-1.48-1.51-.61-.43-1.29-.78-2.04-1.06a44.93 44.93 0 0 0-2.21-.77l-8.05-2.6c-1.53-.47-3-1.13-4.43-1.97-1.41-.85-2.66-1.9-3.76-3.17-1.08-1.26-1.95-2.74-2.61-4.43-.63-1.71-.94-3.65-.94-5.83 0-2.53.46-4.78 1.4-6.75.94-2 2.25-3.67 3.94-5.03s3.69-2.39 6.01-3.09c2.32-.71 4.86-1.06 7.63-1.06 2.18 0 4.2.26 6.05.77 1.85.5 3.5 1.16 4.95 2.01 1.48.84 2.72 1.81 3.73 2.92 1.03 1.07 1.82 2.2 2.36 3.37h3.51v10.62h-12.72v-3.1zm41.73 28.66h5.51v-34.35h-6.46v6.89h-11.46v-16.21h48.48v16.21h-11.54v-6.89h-7.34v34.35h5.62v9.63h-22.81v-9.63zm53.36-43.67h21.38v9.67h-4.89v22.11c0 2.02.22 3.73.67 5.14.47 1.4 1.11 2.55 1.93 3.44s1.8 1.55 2.92 1.97c1.13.4 2.36.6 3.69.6 1.38 0 2.64-.18 3.76-.53a6.62 6.62 0 0 0 2.92-1.79c.82-.87 1.44-2.02 1.86-3.45.45-1.43.67-3.22.67-5.38v-22.11h-5.66v-9.67h21.38v9.67h-4.26v20.74c0 3.75-.54 7.09-1.61 10.02-1.08 2.91-2.57 5.37-4.47 7.39a18.71 18.71 0 0 1-6.64 4.6c-2.53 1.06-5.25 1.58-8.16 1.58-2.88 0-5.58-.51-8.08-1.54-2.51-1.06-4.7-2.57-6.58-4.54-1.85-1.99-3.32-4.41-4.39-7.24-1.08-2.84-1.62-6.05-1.62-9.63v-21.38h-4.82v-9.67zm97.77 0h22.82v9.67h-4.75l-14.24 43.63h-14.41l-13.82-43.63h-5.13v-9.67h22.85v9.67h-5.69l9.28 30.24 9.24-30.24h-6.15v-9.67zm97.31 0h22.82v9.67h-4.82l-12.26 43.63h-15.19l-8.05-33.26-8.23 33.26h-15.05l-12.48-43.63h-5.38v-9.67h22.86v9.67h-5.56l7.84 28.72 9.46-38.28h13.08l9.28 38.28 7.87-28.72h-6.19v-9.67zm68.14 0h22.6v9.67h-1.83l-16.13 17.12 16.1 16.88h1.72v9.63h-22.6v-9.63h5.38l-8.23-8.72-8.19 8.72h4.78v9.63h-22.61v-9.63h2.43l15.89-16.88-16.28-17.12h-1.9v-9.67h22.61v9.67h-5.38l8.58 9.04 8.51-9.04h-5.45v-9.67zm41.38 0h22.81v9.67h-4.46l7.13 12.24 7.56-12.24h-5.09v-9.67h22.81v9.67h-3.94l-15.85 21.52v12.48h6.47v9.63h-23.77v-9.63h5.91v-12.62l-14.91-21.38h-4.67v-9.67zm109.44 11.04l-26.55 31.82h15.05v-8.26h11.43v18.7h-40.47v-11l25.91-31.86H4688v8.44h-11.46v-18.88h40.47v11.04z"/><path d="M3001.21 1536.03l-2.25 1.34c-.68.35-1.36.63-2.04.84-.68.24-1.38.4-2.11.49a14.71 14.71 0 0 1-2.39.18c-2.18 0-4.14-.29-5.87-.88-1.71-.61-3.17-1.43-4.36-2.46-1.17-1.06-2.08-2.29-2.71-3.69-.63-1.43-.95-2.98-.95-4.64 0-1.69.32-3.25.95-4.68a10.15 10.15 0 0 1 2.81-3.65c1.22-1.04 2.71-1.83 4.47-2.4 1.78-.58 3.81-.87 6.08-.87 1.66 0 3.18.09 4.54.28l3.83.63v-1.13c0-.91-.18-1.69-.53-2.35-.35-.68-.84-1.23-1.48-1.65-.63-.45-1.39-.77-2.28-.95-.89-.21-1.87-.32-2.92-.32-2.2 0-4.15.22-5.84.67a21.37 21.37 0 0 0-4.81 1.86l-3.38-6.82c2.39-1.64 4.89-2.89 7.49-3.76 2.63-.87 5.4-1.3 8.33-1.3 2.28 0 4.37.26 6.3.77 1.94.5 3.61 1.32 4.99 2.46 1.38 1.13 2.46 2.61 3.23 4.43.8 1.83 1.2 4.06 1.2 6.68v13.26h4.88v9.63h-15.18v-1.97zm-8.02-5.45c1.67 0 3.18-.27 4.54-.81s2.52-1.19 3.48-1.97v-4.64h-8.44c-.54 0-1.07.09-1.58.25-.52.16-.99.4-1.41.7-.4.31-.73.68-.98 1.13-.24.44-.35.96-.35 1.55 0 1.07.38 1.98 1.16 2.7.79.73 1.99 1.09 3.58 1.09zm43.24-47.28h15.89v19.09a20.11 20.11 0 0 1 3.91-1.41 17 17 0 0 1 4.11-.49c2.7 0 5.19.5 7.49 1.51 2.29 1.01 4.28 2.38 5.94 4.11 1.66 1.74 2.96 3.77 3.9 6.09.96 2.32 1.44 4.78 1.44 7.38 0 2.62-.47 5.1-1.4 7.42-.92 2.32-2.21 4.34-3.87 6.08-1.66 1.71-3.64 3.07-5.94 4.08-2.3.98-4.82 1.47-7.56 1.47-1.48 0-2.88-.14-4.22-.42-1.33-.28-2.6-.68-3.8-1.19v.98h-10.79v-45.07h-5.1v-9.63zm23.17 26.89c-1.55 0-2.94.35-4.18 1.06-1.22.7-2.25 1.71-3.1 3.02v10.9c.75 1.12 1.75 2.04 2.99 2.74 1.27.68 2.67 1.02 4.22 1.02a9.3 9.3 0 0 0 3.41-.63c1.08-.45 2.02-1.07 2.81-1.87.82-.82 1.47-1.79 1.94-2.91.47-1.15.7-2.44.7-3.87 0-1.45-.23-2.77-.7-3.94s-1.1-2.17-1.9-2.99-1.74-1.44-2.81-1.86c-1.06-.45-2.18-.67-3.38-.67zm66.24 3.97c-1.01-1.26-2.14-2.21-3.38-2.84-1.24-.66-2.71-.94-4.39-.85-1.36-.09-2.61.1-3.73.57-1.1.46-2.06 1.12-2.88 1.96-.8.85-1.42 1.86-1.87 3.03-.44 1.15-.66 2.45-.66 3.9 0 1.29.23 2.51.7 3.66.47 1.14 1.1 2.14 1.9 2.98a9.08 9.08 0 0 0 2.88 1.94c1.13.47 2.34.75 3.66.84 1.1-.09 2.09-.31 2.98-.67.92-.37 1.73-.84 2.43-1.4.7-.59 1.3-1.23 1.79-1.94.52-.72.92-1.4 1.2-2.04l9.67 2.68c-.4 1.4-1.09 2.87-2.08 4.39-.96 1.52-2.22 2.92-3.79 4.18-1.55 1.25-3.4 2.28-5.56 3.1-2.13.82-4.57 1.23-7.31 1.23-2.79 0-5.36-.5-7.7-1.51-2.34-1.03-4.36-2.43-6.05-4.19-1.69-1.75-3.01-3.82-3.97-6.18-.94-2.37-1.41-4.91-1.41-7.63 0-2.7.48-5.19 1.44-7.49.99-2.32 2.34-4.34 4.05-6.05 1.71-1.73 3.74-3.08 6.08-4.04 2.37-.96 4.93-1.4 7.7-1.3a17.2 17.2 0 0 1 5.73.67 19.77 19.77 0 0 1 5.27 2.42h7v10.58h-9.7zm50.16-30.86h15.93v45.07h7.1v9.63h-17.93v-1.41c-1.26.66-2.56 1.18-3.9 1.55a14.33 14.33 0 0 1-4.01.56c-2.79 0-5.35-.49-7.7-1.47-2.32-1.01-4.32-2.38-6.01-4.12-1.66-1.73-2.96-3.76-3.9-6.08-.94-2.34-1.41-4.85-1.41-7.52s.46-5.16 1.37-7.46c.94-2.32 2.23-4.33 3.87-6.04 1.66-1.71 3.64-3.06 5.94-4.05 2.32-.98 4.86-1.47 7.63-1.47 1.52 0 2.95.15 4.29.46a19.03 19.03 0 0 1 3.83 1.23v-9.25h-5.1v-9.63zm-2.21 45.7c1.55-.05 2.94-.45 4.18-1.2a9.6 9.6 0 0 0 3.13-2.95v-10.72a8.44 8.44 0 0 0-3.2-2.88 8.04 8.04 0 0 0-4.11-1.02c-1.22-.03-2.37.18-3.45.63-1.05.44-1.99 1.08-2.81 1.9-.8.82-1.43 1.8-1.9 2.95s-.7 2.45-.7 3.9c0 1.43.23 2.73.7 3.91.47 1.14 1.1 2.13 1.9 2.95.82.8 1.76 1.41 2.81 1.83 1.08.42 2.23.65 3.45.7zm53.75-6.93l.11 1.09c.26 1.06.69 1.98 1.3 2.78a8.98 8.98 0 0 0 2.21 2.01c.85.53 1.79.94 2.82 1.23 1.03.25 2.07.38 3.13.38a25.46 25.46 0 0 0 2.98-.17l2.78-.53 2.6-.77 2.57-.95 3.87 7.2-3.7 2.11c-1.1.57-2.21 1.03-3.33 1.41-1.13.37-2.33.64-3.59.81-1.27.19-2.74.28-4.43.28-3.16 0-5.98-.52-8.44-1.55-2.46-1.05-4.53-2.47-6.22-4.25-1.66-1.78-2.94-3.87-3.83-6.26-.87-2.39-1.3-4.92-1.3-7.59 0-2.68.45-5.18 1.37-7.53.94-2.34 2.25-4.38 3.94-6.11 1.68-1.76 3.7-3.14 6.04-4.15 2.35-1.01 4.95-1.51 7.81-1.51s5.39.48 7.59 1.44c2.23.94 4.1 2.25 5.63 3.94 1.52 1.66 2.69 3.63 3.51 5.9.82 2.25 1.27 4.68 1.34 7.28.07.58.1 1.17.1 1.76.03.56.01 1.14-.03 1.75h-26.83zm8.41-13.28c-1.32 0-2.44.16-3.38.49-.91.3-1.69.74-2.32 1.3-.63.54-1.14 1.16-1.51 1.86-.38.7-.67 1.44-.88 2.22h15.22c-.16-.8-.4-1.55-.7-2.25-.31-.71-.73-1.33-1.27-1.87s-1.23-.96-2.07-1.26c-.82-.33-1.85-.49-3.09-.49zm54.07-7.21h6.64v9.21h-6.64v17.58h6.71v9.63h-22.61v-9.63h5.45v-17.58h-5.52v-9.21h5.52v-6.05c0-2.13.38-4.01 1.13-5.62.75-1.62 1.75-2.98 2.99-4.08 1.26-1.1 2.72-1.94 4.36-2.5s3.36-.84 5.16-.84c1.34 0 2.54.1 3.59.31 1.06.19 1.98.44 2.78.74.8.31 1.46.64 2 .99.56.35 1.01.68 1.34.98l-4.04 7.42c-.54-.4-1.15-.72-1.83-.95s-1.51-.35-2.5-.35c-.63 0-1.23.1-1.79.32-.54.21-1.02.51-1.44.91-.4.4-.72.9-.95 1.51-.24.59-.35 1.28-.35 2.08v5.13zm54.31 34.52c-1.31.75-2.62 1.29-3.94 1.62-1.31.33-2.64.49-4 .49-2.82 0-5.41-.48-7.77-1.44-2.37-.96-4.42-2.29-6.16-3.97-1.71-1.71-3.04-3.73-4-6.05s-1.44-4.84-1.44-7.56c0-2.55.45-4.96 1.37-7.21.93-2.27 2.23-4.25 3.9-5.94 1.66-1.71 3.66-3.06 5.98-4.04s4.84-1.49 7.55-1.51c1.67.02 3.19.2 4.57.53a20.05 20.05 0 0 1 3.94 1.33v-.77h10.65v34.91c0 3.07-.52 5.72-1.58 7.94-1.05 2.25-2.47 4.11-4.25 5.56-1.76 1.47-3.81 2.56-6.15 3.27-2.35.72-4.81 1.09-7.39 1.09-3.18 0-6.14-.44-8.86-1.3-2.69-.87-5.09-2.04-7.2-3.52l4.39-7.8c1.62 1.03 3.38 1.84 5.27 2.42 1.9.61 4.01.92 6.33.92 1.27 0 2.43-.14 3.48-.43 1.08-.28 2.01-.76 2.78-1.44.8-.65 1.42-1.54 1.86-2.67.45-1.12.67-2.54.67-4.25v-.18zm-7.59-7.63c1.64 0 3.12-.41 4.43-1.23a9.25 9.25 0 0 0 3.16-3.3l.07-8.86a9.16 9.16 0 0 0-3.27-3.52c-1.38-.86-2.88-1.31-4.5-1.33a9.24 9.24 0 0 0-3.37.7 8.33 8.33 0 0 0-2.88 1.83c-.8.79-1.43 1.74-1.9 2.85-.47 1.07-.71 2.28-.71 3.62 0 1.4.24 2.68.71 3.83s1.1 2.12 1.9 2.92c.79.79 1.73 1.41 2.81 1.86 1.1.42 2.28.63 3.55.63zm39.72-45.17h16.42v21.65c1.39-1.26 2.9-2.25 4.54-2.95 1.66-.73 3.49-1.09 5.48-1.09 4.39 0 7.74 1.23 10.06 3.69 2.32 2.44 3.48 6.01 3.48 10.72v13.05h5.34v9.63h-16.28v-20.21c0-2.04-.5-3.65-1.51-4.82s-2.31-1.76-3.9-1.76c-1.05 0-2.2.29-3.45.88-1.24.59-2.49 1.44-3.76 2.57v13.71h5.35v9.63h-21.77v-9.63h5.63v-35.44h-5.63v-9.63zm63.95 18.28h16.35v26.79h5.06v9.63h-21.41v-9.63h5.49v-17.16h-5.49v-9.63zm4.93-11.74c0-.87.15-1.68.45-2.43a6.33 6.33 0 0 1 1.34-2c.56-.57 1.22-1.01 1.97-1.34.77-.33 1.6-.49 2.49-.49.85 0 1.64.16 2.39.49s1.41.77 1.97 1.34c.57.56 1.01 1.23 1.34 2 .33.75.49 1.56.49 2.43 0 .86-.16 1.68-.49 2.46a6.37 6.37 0 0 1-1.34 1.97c-.56.56-1.22 1-1.97 1.33s-1.54.49-2.39.49c-.89 0-1.72-.16-2.49-.49-.75-.33-1.41-.77-1.97-1.33-.56-.57-1.01-1.22-1.34-1.97-.3-.78-.45-1.6-.45-2.46zm36.24 11.74h16v37.05c0 2.79-.35 5.18-1.06 7.17-.68 2-1.68 3.64-3.02 4.93-1.31 1.29-2.94 2.23-4.89 2.84-1.94.61-4.17.92-6.68.92l-.14-7.98c1.69-.07 2.94-.75 3.76-2.04.83-1.27 1.24-2.97 1.24-5.1v-28.16h-5.21v-9.63zm4.61-11.74c0-.87.15-1.68.45-2.43a6.33 6.33 0 0 1 1.34-2c.56-.57 1.22-1.01 1.97-1.34.77-.33 1.6-.49 2.5-.49.84 0 1.64.16 2.39.49.77.33 1.44.77 2 1.34.59.56 1.04 1.23 1.37 2 .35.75.53 1.56.53 2.43 0 .86-.18 1.68-.53 2.46a6.13 6.13 0 0 1-1.37 1.97c-.56.56-1.23 1-2 1.33-.75.33-1.55.49-2.39.49-.9 0-1.73-.16-2.5-.49-.75-.33-1.41-.77-1.97-1.33-.56-.57-1.01-1.22-1.34-1.97-.3-.78-.45-1.6-.45-2.46zm31.95-6.54h16.42v31.53h6.15l2.54-3.62v-9.63h18.84v9.63h-6.54l-6.78 7.84 6.92 8.37h6.05V1538h-9.88l-11.81-15.61h-5.49v5.98h3.73v9.63h-20.15v-9.63h5.63v-35.44h-5.63v-9.63zm65.4 0h16.41v45.07h5.63v9.63h-22.04v-9.63h5.62v-35.44h-5.62v-9.63zm42.64 18.28h16.66v3.16c1.5-1.19 3.19-2.14 5.07-2.85a16.4 16.4 0 0 1 5.8-1.05c2.76 0 5.13.49 7.1 1.48 1.99.96 3.55 2.43 4.67 4.43.78-.87 1.64-1.66 2.61-2.36a17.61 17.61 0 0 1 3.12-1.86c1.11-.54 2.25-.95 3.45-1.23 1.22-.31 2.46-.46 3.73-.46 4.45 0 7.87 1.23 10.26 3.69s3.59 6.06 3.59 10.79v13.05h5.17v9.63h-16.63v-20.88c0-2.07-.54-3.68-1.62-4.85-1.05-1.18-2.53-1.76-4.43-1.76-1.31 0-2.55.31-3.73.95-1.14.61-2.29 1.67-3.44 3.2.02.25.03.52.03.8v.81 12.1h5.28v9.63h-16.63v-20.95c0-.99-.15-1.88-.46-2.67-.3-.8-.73-1.48-1.26-2.04-.54-.57-1.19-1-1.94-1.3-.72-.33-1.53-.51-2.42-.53-1.18-.03-2.39.23-3.66.77-1.24.54-2.44 1.54-3.59 2.99v14.1h5.84v9.63h-22.64v-9.63h5.41v-17.16h-5.34v-9.63zm120.09 15.47c0-2.04-.54-3.64-1.61-4.78-1.08-1.18-2.51-1.76-4.29-1.76-1.22 0-2.45.27-3.69.81-1.25.54-2.45 1.54-3.63 3.02v14.03h5.91v9.63h-22.64v-9.63h5.34v-17.16h-5.27v-9.63h16.59v3.2c1.53-1.2 3.23-2.14 5.1-2.82 1.9-.7 3.89-1.05 5.98-1.05 4.38 0 7.76 1.23 10.12 3.69 2.37 2.44 3.55 6.01 3.55 10.72v13.05h5.17v9.63h-16.63v-20.95zm35.51 2.6c0-2.65.48-5.13 1.44-7.45s2.3-4.35 4.01-6.09c1.71-1.73 3.75-3.1 6.12-4.11 2.36-1.01 4.97-1.51 7.8-1.51 2.84 0 5.44.5 7.81 1.51 2.39 1.01 4.44 2.38 6.15 4.11 1.71 1.74 3.03 3.77 3.97 6.09.96 2.32 1.44 4.8 1.44 7.45s-.47 5.14-1.4 7.49c-.92 2.32-2.23 4.36-3.94 6.11-1.69 1.74-3.73 3.11-6.12 4.12-2.36 1.01-5 1.51-7.91 1.51-2.93 0-5.59-.5-7.98-1.51-2.37-1.01-4.39-2.38-6.08-4.12-1.69-1.73-3-3.76-3.94-6.08-.91-2.34-1.37-4.85-1.37-7.52zm10.51 0c0 1.38.24 2.66.71 3.83.46 1.15 1.1 2.14 1.89 2.99a9.03 9.03 0 0 0 2.82 1.97 8.5 8.5 0 0 0 3.44.7c1.24 0 2.39-.22 3.45-.67 1.08-.47 2-1.12 2.78-1.97.79-.84 1.41-1.84 1.86-2.98.44-1.18.67-2.47.67-3.87 0-1.45-.23-2.77-.67-3.94-.45-1.17-1.07-2.17-1.86-2.99-.78-.82-1.7-1.44-2.78-1.86-1.06-.45-2.21-.66-3.45-.63-1.22-.03-2.36.18-3.44.63a8.25 8.25 0 0 0-2.82 1.86c-.79.82-1.43 1.82-1.89 2.99-.47 1.17-.71 2.49-.71 3.94zm49.36-18.07h15.89v.53c1.13-.5 2.28-.88 3.45-1.16a14.09 14.09 0 0 1 3.62-.46c2.67 0 5.16.5 7.45 1.51 2.3 1.01 4.29 2.38 5.98 4.11 1.69 1.74 3 3.77 3.94 6.09.96 2.32 1.44 4.78 1.44 7.38 0 2.62-.47 5.1-1.41 7.42-.91 2.32-2.2 4.34-3.87 6.08-1.66 1.71-3.65 3.07-5.97 4.08-2.3.98-4.82 1.47-7.56 1.47-1.55 0-2.99-.15-4.32-.45a21.27 21.27 0 0 1-3.87-1.23v7.98h6.96v9.63h-23.77v-9.63h5.98v-33.72h-3.94v-9.63zm22.19 8.61c-1.48 0-2.86.39-4.15 1.16s-2.38 1.86-3.27 3.27v10.27c.75 1.19 1.77 2.16 3.06 2.91s2.74 1.13 4.36 1.13c1.19 0 2.33-.22 3.41-.67 1.07-.47 2.01-1.11 2.81-1.93.8-.85 1.43-1.83 1.9-2.95.47-1.15.7-2.4.7-3.73 0-1.48-.23-2.8-.7-3.97-.45-1.18-1.07-2.16-1.87-2.96a7.76 7.76 0 0 0-2.81-1.86c-1.08-.45-2.23-.67-3.44-.67zm57.44 34.74h7.56v-8.23a21.15 21.15 0 0 1-3.8 1.44c-1.26.38-2.56.56-3.9.56-2.79 0-5.35-.49-7.7-1.47-2.32-1.01-4.32-2.38-6.01-4.12a19.13 19.13 0 0 1-3.9-6.15c-.94-2.34-1.41-4.85-1.41-7.52 0-2.6.46-5.05 1.37-7.35.94-2.3 2.23-4.3 3.87-6.01 1.66-1.74 3.64-3.1 5.94-4.08 2.32-1.01 4.86-1.51 7.63-1.51 1.48 0 2.86.14 4.15.42a19.86 19.86 0 0 1 3.76 1.2v-1.62h10.79v44.44h5.42v9.63h-23.77v-9.63zm.53-16c1.45 0 2.78-.33 3.97-.98 1.22-.68 2.24-1.61 3.06-2.78v-11.29c-.82-1.15-1.86-2.05-3.13-2.7a8.53 8.53 0 0 0-4.01-.99c-1.19 0-2.33.22-3.41.67a8.22 8.22 0 0 0-2.81 1.9c-.8.82-1.43 1.8-1.9 2.95s-.7 2.44-.7 3.87c0 1.45.23 2.76.7 3.94.47 1.14 1.1 2.13 1.9 2.95.82.8 1.77 1.41 2.85 1.83s2.24.63 3.48.63zm75.34-14.1h-9.88v-3.76c-.96 0-1.84.07-2.64.21-.79.12-1.5.33-2.11.63-.58.31-1.09.73-1.51 1.27-.4.54-.68 1.21-.84 2v13.19h7.42v9.63h-23.77v-9.63h5.45v-17.16h-5.38v-9.63h16.21v2.56c1.03-.82 2.19-1.45 3.48-1.89 1.29-.45 2.69-.67 4.22-.67l4.78.03 4.57.04v13.18zm43.63-2.11c0-.56-.19-1.1-.57-1.61-.35-.52-.87-.97-1.58-1.34-.7-.4-1.57-.72-2.6-.95-1.01-.23-2.15-.35-3.44-.35a10.17 10.17 0 0 0-1.59.14 5.84 5.84 0 0 0-1.58.42 3.39 3.39 0 0 0-1.19.88c-.31.35-.46.81-.46 1.37 0 .28.03.55.11.81.09.26.25.5.49.74.23.23.55.46.95.67.42.18.96.34 1.61.45l6.61 1.3c2.39.47 4.4 1.06 6.01 1.76 1.62.7 2.92 1.53 3.91 2.46.98.94 1.68 1.98 2.11 3.13.44 1.15.66 2.39.66 3.73 0 2.08-.49 3.91-1.47 5.48-.96 1.57-2.24 2.89-3.83 3.94-1.57 1.03-3.36 1.8-5.35 2.32-1.97.54-3.96.81-5.97.81-1.32 0-2.51-.08-3.59-.25-1.06-.16-2.02-.38-2.88-.67-.85-.28-1.61-.6-2.29-.98-.65-.4-1.26-.83-1.83-1.3h-6.36v-9.77h9.95v.21c.02.68.23 1.27.63 1.79.4.49.92.91 1.55 1.27.66.35 1.39.62 2.21.8.82.17 1.69.25 2.61.25 2.1 0 3.64-.27 4.6-.81.96-.56 1.44-1.28 1.44-2.14 0-.68-.23-1.26-.7-1.73-.47-.49-1.3-.87-2.5-1.16l-6.75-1.44c-4.24-.82-7.44-2.18-9.59-4.07-2.16-1.93-3.24-4.39-3.24-7.39 0-1.76.41-3.35 1.23-4.78.82-1.45 1.94-2.68 3.34-3.69 1.41-1.03 3.05-1.83 4.92-2.39 1.9-.56 3.93-.84 6.09-.84 1.47 0 2.78.09 3.93.28 1.15.16 2.18.38 3.1.66.91.29 1.71.63 2.39 1.02.7.38 1.32.78 1.86 1.2h6.12v9.77h-9.07zm43.66-11.14h7.28v9.21h-7.35l-.07 15.4c0 .89.07 1.61.21 2.18.14.54.34.97.6 1.3.28.33.61.55.98.67.38.11.81.17 1.3.17.9 0 1.68-.08 2.36-.24.68-.19 1.36-.4 2.04-.64l1.51 6.79c-1.19.75-2.53 1.35-4.01 1.79-1.45.45-3.18.67-5.2.67a11.64 11.64 0 0 1-4.11-.74 9.6 9.6 0 0 1-3.41-2.21c-.99-1.01-1.77-2.27-2.36-3.77s-.87-3.24-.84-5.23l.1-16.14h-5.24v-9.21h5.28l.07-8.72 10.93-5.2-.07 13.92zm51.4 0h17.23v26.79h4.39v9.63h-15.43v-3.09c-1.24 1.12-2.7 1.99-4.36 2.6-1.67.61-3.59.91-5.77.91-2.01 0-3.91-.31-5.69-.95a13.05 13.05 0 0 1-4.68-2.85c-1.31-1.28-2.35-2.89-3.13-4.81-.75-1.92-1.12-4.19-1.12-6.79v-11.81h-4.75v-9.63h16.1v21.44c0 2.44.62 4.27 1.87 5.49 1.24 1.19 2.86 1.79 4.85 1.79 1.4 0 2.68-.43 3.83-1.3s1.98-2.04 2.5-3.52v-14.27h-5.84v-9.63zm40.01 0h19.02v9.63h-4.43l5.94 15.65 5.73-15.65h-3.94v-9.63h19.02v9.63h-4.85l-10.86 26.93h-10.73l-10.86-26.93h-4.04v-9.63zm58.64 0h19.02v9.63h-4.12l3.87 12.97 7.49-22.6h10.3l7.56 23.76 4.64-14.13h-3.9v-9.63h19.02v9.63h-4.89l-9.74 26.93h-10.51l-7.63-23.24-7.77 23.24h-10.23l-9.03-26.93h-4.08v-9.63zm103.81 26.79h2.08l-4.54-4.33-4.71 4.33h2.36v9.63h-17.16v-9.63h3.62l9.04-8.86-8.37-8.3h-4.29v-9.63h17.16v9.63h-1.65l4.25 3.76 4.08-3.76h-1.94v-9.63h17.13v9.63h-4.01l-8.4 8.33 8.89 8.83h3.62v9.63h-17.16v-9.63zm35.55-26.79h17.86v9.63h-2.82l5.24 13.64 5.38-13.64h-3.13v-9.63h17.86v9.63h-3.97l-14.1 33.72h6.26v9.63h-22.61v-9.63h6.37l2.74-6.93-11.39-26.79h-3.69v-9.63zm59.59 30.65l15.08-21.3h-7.07v5.48h-9.17v-14.83h31.92v6.33l-15.86 20.67h8.09v-7h9.21V1538h-32.2v-5.77z"/><path d="M2980.04 1647.37h5.59v-27.81l-8.19 4.89v-12.24l14.7-8.65 5.09.07v43.74h5.63v9.63h-22.82v-9.63zm43.53.49l18.42-19.58c1.59-1.55 2.82-3.1 3.69-4.64.87-1.55 1.3-3.12 1.3-4.71 0-.68-.14-1.35-.42-2.01a5.12 5.12 0 0 0-1.23-1.79c-.52-.54-1.16-.96-1.94-1.27-.75-.32-1.6-.49-2.56-.49-1.15 0-2.16.19-3.03.56-.84.36-1.55.85-2.14 1.48a6.69 6.69 0 0 0-1.3 2.21c-.31.85-.47 1.74-.49 2.68h-10.58c0-2.77.45-5.23 1.37-7.39.91-2.18 2.16-4 3.76-5.48 1.62-1.5 3.5-2.64 5.66-3.41 2.15-.77 4.46-1.16 6.92-1.16 2.32 0 4.53.35 6.61 1.05 2.11.71 3.96 1.74 5.56 3.1 1.62 1.36 2.89 3.03 3.83 5.03.94 1.99 1.41 4.28 1.41 6.89 0 2.08-.44 4.02-1.3 5.8-.85 1.75-2 3.44-3.45 5.06l-15.19 16.42h19.87V1657h-34.77v-9.14zm76.92-28.93c0-.71-.17-1.41-.49-2.11-.31-.71-.77-1.34-1.38-1.9-.58-.56-1.3-1.02-2.14-1.37-.82-.35-1.73-.53-2.74-.53-.87 0-1.7.15-2.5.46-.77.28-1.46.66-2.07 1.16-.59.49-1.06 1.06-1.41 1.72-.35.63-.53 1.72-.53 3.27l-10.93-.07c.02-2.27.46-4.44 1.3-6.51.85-2.06 2.02-3.87 3.52-5.44 1.52-1.57 3.35-2.82 5.48-3.73 2.13-.92 4.51-1.37 7.14-1.37 2.48 0 4.8.43 6.96 1.3 2.16.84 4.03 1.99 5.62 3.44 1.6 1.46 2.84 3.13 3.73 5.03.91 1.9 1.37 3.89 1.37 5.98 0 2.27-.47 4.35-1.4 6.22-.94 1.85-2.22 3.35-3.84 4.5.85.47 1.63 1.09 2.36 1.86a12.54 12.54 0 0 1 1.9 2.68 13.76 13.76 0 0 1 1.3 3.3c.33 1.2.49 2.45.49 3.76a15.57 15.57 0 0 1-1.41 6.54c-.93 2.06-2.23 3.88-3.9 5.45-1.64 1.55-3.58 2.78-5.83 3.69-2.25.92-4.68 1.37-7.28 1.37-2.46 0-4.76-.38-6.89-1.16-2.11-.77-3.96-1.84-5.56-3.2-1.59-1.38-2.88-3-3.86-4.85-.96-1.87-1.54-3.43-1.73-4.67-.16-1.25-.25-2.54-.28-3.87h11.04c.14 2.46.85 4.28 2.11 5.45 1.29 1.15 3.06 1.72 5.31 1.72 1.01 0 1.94-.16 2.81-.49.89-.35 1.67-.81 2.32-1.37.66-.59 1.17-1.27 1.55-2.04.4-.77.6-1.61.6-2.5 0-.94-.18-1.8-.53-2.6-.33-.82-.81-1.51-1.44-2.07-.64-.59-1.41-1.05-2.32-1.37-.92-.33-1.94-.5-3.06-.5h-4.92v-9.59h4.99c1.03 0 1.94-.14 2.74-.43.82-.28 1.51-.66 2.08-1.16.56-.49.98-1.07 1.26-1.75.31-.68.46-1.43.46-2.25zm27.46 14.52l18.94-29.75h11.75l-18.67 29.82h11.25v-10.31l11-.14v10.45h7.42v8.93h-7.42v4.92h6.79v9.63h-22.85v-9.63h5.06v-4.92h-23.27v-9zm72.7-9c1.12-.43 2.33-.78 3.62-1.06 1.31-.3 2.72-.46 4.22-.46 2.39 0 4.65.38 6.78 1.13 2.16.73 4.05 1.82 5.66 3.27 1.64 1.43 2.95 3.2 3.91 5.31s1.44 4.54 1.44 7.31c0 2.98-.53 5.6-1.58 7.87-1.06 2.25-2.45 4.14-4.19 5.66-1.73 1.53-3.71 2.68-5.94 3.45-2.2.77-4.46 1.16-6.78 1.16-2.3 0-4.48-.3-6.54-.91-2.04-.59-3.88-1.48-5.52-2.68-1.64-1.19-3.04-2.68-4.19-4.46-1.12-1.81-1.9-3.9-2.32-6.29l10.87-2.96c.14 1.1.43 2.09.87 2.96.45.86 1 1.6 1.66 2.21.68.61 1.45 1.08 2.32 1.41.89.33 1.84.49 2.85.49 1.12 0 2.15-.21 3.09-.63a7.2 7.2 0 0 0 2.39-1.73c.66-.75 1.16-1.61 1.51-2.6.38-.98.56-2.05.56-3.2 0-.96-.18-1.9-.56-2.81-.37-.91-.91-1.72-1.62-2.43-.7-.7-1.54-1.26-2.53-1.68-.98-.42-2.07-.64-3.27-.64-1.52 0-2.84.16-3.97.46a18.64 18.64 0 0 0-3.37 1.23l-9.53-1.76v-28.37h33.85v10.76h-23.69v9.99zm73.58-20.82l-10.86 19.02c.63-.04 1.24-.03 1.83.04a15.39 15.39 0 0 1 1.79.24c1.99.38 3.85 1.07 5.59 2.08a16.77 16.77 0 0 1 4.5 3.69c1.29 1.45 2.3 3.1 3.02 4.96.75 1.85 1.13 3.82 1.13 5.9 0 2.56-.5 4.92-1.48 7.1-.96 2.18-2.29 4.07-3.97 5.66-1.69 1.6-3.66 2.85-5.91 3.77-2.23.89-4.6 1.33-7.14 1.33-2.48 0-4.84-.44-7.06-1.33-2.21-.92-4.14-2.15-5.8-3.7-1.67-1.57-2.99-3.42-3.98-5.55-.96-2.13-1.44-4.43-1.44-6.89a15.62 15.62 0 0 1 .35-3.34c.24-1.08.56-2.12.95-3.13a30.36 30.36 0 0 1 1.37-3.02l1.62-2.99 13.19-23.84h12.3zm-11.64 28.97c-1.43 0-2.73.27-3.9.81a7.33 7.33 0 0 0-2.85 2.25 11.97 11.97 0 0 0-.77 1.9c-.19.68-.28 1.43-.28 2.25s.15 1.66.46 2.53c.32.84.82 1.63 1.47 2.36.66.7 1.49 1.28 2.5 1.75 1.01.45 2.2.67 3.58.67.94 0 1.89-.16 2.85-.49a8.33 8.33 0 0 0 2.57-1.41 7.19 7.19 0 0 0 1.83-2.25c.49-.91.74-1.94.74-3.09 0-1.1-.23-2.1-.67-2.99a6.66 6.66 0 0 0-1.76-2.28c-.75-.64-1.62-1.13-2.6-1.48-.99-.35-2.04-.53-3.17-.53zm42.93 14.77h3.73l3.69-8.44 3.76-8.47 3.69-8.16 3.48-7.63H3309v6.05h-10.09v-17.02h38.95v7.95l-8.47 17.58-8.33 18.14h3.48v9.63h-19.02v-9.63zm70.66-44.65c2.39 0 4.64.42 6.75 1.26 2.11.85 3.95 1.98 5.52 3.41s2.82 3.1 3.73 5 1.37 3.9 1.37 6.01c0 2.06-.48 4.01-1.44 5.83-.94 1.83-2.22 3.44-3.83 4.82 1.97 1.41 3.52 3.12 4.67 5.13 1.15 2 1.73 4.2 1.73 6.61a15.16 15.16 0 0 1-1.45 6.54c-.93 2.06-2.23 3.89-3.9 5.49-1.64 1.57-3.6 2.82-5.87 3.76-2.25.91-4.67 1.37-7.28 1.37-1.73 0-3.39-.22-4.99-.67-1.59-.42-3.08-1.02-4.46-1.79a18.86 18.86 0 0 1-3.73-2.78c-1.1-1.08-2.05-2.24-2.85-3.48a18.61 18.61 0 0 1-1.83-4.01 14.85 14.85 0 0 1-.63-4.29c0-2.48.59-4.74 1.76-6.78 1.17-2.06 2.75-3.8 4.75-5.2-1.62-1.36-2.9-2.93-3.84-4.72-.91-1.78-1.37-3.65-1.37-5.62a14.45 14.45 0 0 1 1.34-6.15c.91-1.92 2.14-3.6 3.69-5.03 1.57-1.45 3.4-2.6 5.48-3.45 2.09-.84 4.32-1.26 6.68-1.26zm-8.29 37.93c0 .96.21 1.88.63 2.74.42.87 1.01 1.63 1.76 2.29.75.63 1.63 1.15 2.63 1.55 1.01.37 2.1.56 3.27.56 1.15 0 2.22-.19 3.2-.56 1.01-.4 1.88-.92 2.6-1.55.75-.66 1.34-1.42 1.76-2.29.42-.86.64-1.78.64-2.74 0-.94-.22-1.81-.64-2.63-.42-.85-1.01-1.59-1.76-2.22-.72-.63-1.59-1.14-2.6-1.51-.98-.38-2.05-.56-3.2-.56-1.17 0-2.26.18-3.27.56-1 .37-1.88.88-2.63 1.51s-1.34 1.37-1.76 2.22c-.42.82-.63 1.69-.63 2.63zm1.3-21.65c0 .79.17 1.55.52 2.28.36.7.85 1.33 1.48 1.86.63.54 1.37.98 2.22 1.31a8.38 8.38 0 0 0 2.77.45c.99 0 1.9-.15 2.75-.45.86-.33 1.61-.77 2.25-1.31.63-.53 1.13-1.16 1.51-1.86.37-.73.56-1.49.56-2.28 0-.82-.19-1.6-.56-2.32a6.6 6.6 0 0 0-1.51-1.97c-.64-.57-1.39-1.01-2.25-1.34-.85-.33-1.76-.49-2.75-.49-.98 0-1.91.16-2.77.49-.85.33-1.59.77-2.22 1.34-.63.56-1.12 1.22-1.48 1.97-.35.72-.52 1.5-.52 2.32zm51.15 38.07l10.79-18.98c-.63.04-1.24.03-1.83-.04l-1.68-.28a18.11 18.11 0 0 1-5.59-2.04c-1.74-1.01-3.25-2.24-4.54-3.69-1.29-1.48-2.31-3.14-3.06-4.99-.72-1.85-1.09-3.82-1.09-5.91 0-2.55.48-4.92 1.45-7.1.98-2.18 2.3-4.07 3.97-5.66 1.66-1.59 3.62-2.84 5.87-3.73 2.25-.91 4.64-1.37 7.17-1.37a18.51 18.51 0 0 1 7.07 1.37c2.22.89 4.17 2.12 5.83 3.69 1.69 1.57 3.01 3.43 3.98 5.56.98 2.13 1.47 4.43 1.47 6.89 0 1.17-.11 2.3-.35 3.37-.23 1.06-.56 2.09-.98 3.1-.4 1.01-.86 2-1.37 2.99l-1.62 2.98-13.19 23.84h-12.3zm11.67-28.93c1.36 0 2.6-.24 3.73-.71a7.16 7.16 0 0 0 2.81-2.18c.33-.61.6-1.26.81-1.96.23-.73.35-1.52.35-2.36 0-.8-.16-1.63-.49-2.5-.31-.86-.79-1.66-1.44-2.39-.64-.72-1.46-1.31-2.46-1.75-.99-.47-2.16-.71-3.52-.71-.98 0-1.96.17-2.92.49-.93.33-1.79.81-2.56 1.45-.75.6-1.36 1.37-1.83 2.28-.47.89-.7 1.91-.7 3.06 0 1.1.21 2.1.63 2.99a7.19 7.19 0 0 0 1.76 2.28c.75.64 1.62 1.13 2.63 1.48a9.72 9.72 0 0 0 3.2.53zm56.15 29.35c-3.75 0-6.94-.69-9.57-2.07-2.62-1.38-4.77-3.28-6.43-5.7-1.64-2.43-2.85-5.29-3.62-8.58-.75-3.3-1.13-6.85-1.13-10.65 0-3.75.37-7.28 1.09-10.58.73-3.33 1.91-6.23 3.55-8.72a17.83 17.83 0 0 1 6.44-5.94c2.65-1.45 5.89-2.18 9.74-2.18 3.79 0 7 .72 9.63 2.14 2.65 1.43 4.79 3.38 6.43 5.84s2.83 5.34 3.55 8.65c.75 3.28 1.13 6.78 1.13 10.51 0 3.77-.39 7.33-1.16 10.65-.75 3.31-1.96 6.19-3.62 8.65-1.64 2.46-3.79 4.41-6.44 5.84-2.64 1.43-5.84 2.14-9.59 2.14zm0-10.79c2.08 0 3.73-.41 4.95-1.23 1.25-.85 2.19-1.99 2.85-3.45.66-1.47 1.08-3.22 1.27-5.23.18-2.02.28-4.21.28-6.58a71.96 71.96 0 0 0-.28-6.47c-.19-2.01-.61-3.76-1.27-5.24-.63-1.5-1.57-2.67-2.81-3.51-1.22-.85-2.86-1.27-4.92-1.27-2.09 0-3.75.42-5 1.27-1.24.84-2.19 2.01-2.84 3.51-.66 1.48-1.09 3.23-1.3 5.24-.19 1.99-.29 4.15-.29 6.47 0 2.37.1 4.56.29 6.58.21 2.01.63 3.76 1.26 5.23.66 1.46 1.6 2.6 2.81 3.45 1.25.82 2.91 1.23 5 1.23zm-877.76 548.14h14.76l-14.06-40.31h-68.32l-13.71 40.31h18.28V2215h-57.65v-20.16h15.46l55.32-157.5h34.57l55.19 157.5h17.81V2215h-57.65v-20.16zm-60.94-59.76h54.84l-27.65-79.46-27.19 79.46zm202.85 68.67a62.41 62.41 0 0 1-15.35 10.55c-5.55 2.73-11.87 4.1-18.98 4.1-5.94 0-11.41-.94-16.41-2.81-4.92-1.88-9.18-4.42-12.77-7.62-3.6-3.28-6.41-7.07-8.44-11.37-1.95-4.3-2.93-8.87-2.93-13.71 0-5.16.74-9.73 2.23-13.71 1.56-3.98 3.59-7.42 6.09-10.31a35.26 35.26 0 0 1 8.91-7.39c3.43-2.03 6.99-3.63 10.66-4.8 3.75-1.25 7.54-2.11 11.37-2.58 3.9-.55 7.61-.82 11.13-.82 5.63 0 10.35.2 14.18.59 3.83.31 7.3.78 10.43 1.4l.12-9.96c0-4.29-.63-8.01-1.88-11.13-1.25-3.2-3.01-5.82-5.27-7.85-2.27-2.11-5-3.67-8.2-4.69-3.13-1.02-6.65-1.52-10.55-1.52-3.67 0-7.19.27-10.55.82-3.36.47-6.52 1.13-9.49 1.99-2.89.78-5.59 1.72-8.09 2.81-2.42 1.02-4.49 2.11-6.21 3.28l-7.15-15.11c2.89-1.88 6.06-3.6 9.5-5.16 3.43-1.64 7.03-3.01 10.78-4.1 3.83-1.17 7.69-2.07 11.6-2.7 3.98-.7 7.89-1.05 11.72-1.05 7.03 0 13.36.86 18.98 2.58 5.63 1.64 10.39 4.22 14.3 7.73 3.91 3.52 6.91 8.01 9.02 13.48 2.11 5.39 3.17 11.87 3.17 19.45l-.12 60.7h13.48V2215h-35.28v-11.25zm-29.53-3.63c2.89 0 5.78-.35 8.67-1.06 2.89-.7 5.63-1.64 8.21-2.81 2.57-1.25 4.96-2.66 7.14-4.22 2.19-1.64 4.03-3.32 5.51-5.04l.12-27.42h-25.31c-4.22 0-8.09.47-11.6 1.41-3.44.93-6.45 2.3-9.03 4.1-2.5 1.8-4.45 4.02-5.86 6.68-1.4 2.65-2.11 5.7-2.11 9.14 0 3.2.59 6.01 1.76 8.44a17.26 17.26 0 0 0 4.92 5.97c2.19 1.57 4.77 2.78 7.74 3.64 2.97.78 6.25 1.17 9.84 1.17z"/><path d="M2566.12 2289.91h12.94c1.38 0 2.65.18 3.81.55 1.18.36 2.19.89 3.04 1.6.86.7 1.53 1.58 2.01 2.63s.72 2.26.72 3.63c0 .78-.15 1.55-.43 2.32-.28.75-.67 1.45-1.17 2.11a9.04 9.04 0 0 1-1.77 1.72 7.93 7.93 0 0 1-2.23 1.17c.34.15.68.37 1.02.66.36.27.69.61.99 1.02.31.4.59.86.84 1.38.26.5.46 1.05.61 1.64l1.73 6.76h2.68l.04 3.9h-6.05l-2.31-9.45c-.43-1.7-1.08-2.94-1.95-3.74-.86-.8-2.05-1.21-3.55-1.21h-4v10.87h3.12v3.53h-10.09v-3.53h2.95v-24.01h-2.95v-3.55zm6.97 3.55v9.78h5.97c.78 0 1.49-.1 2.13-.31.66-.2 1.22-.51 1.68-.92a4.13 4.13 0 0 0 1.11-1.52c.27-.61.41-1.32.41-2.13 0-1.55-.46-2.75-1.39-3.61s-2.41-1.29-4.43-1.29h-5.48zm25.66 17.41c0 .6.04 1.15.12 1.66.1.49.23.96.39 1.42.51 1.36 1.31 2.39 2.42 3.09 1.12.69 2.39 1.03 3.79 1.03a11.54 11.54 0 0 0 3.22-.45c1.06-.32 2.16-.8 3.31-1.46l1.53 2.6c-1.39.96-2.79 1.67-4.2 2.14a14.05 14.05 0 0 1-4.39.69c-1.44 0-2.77-.23-4-.71-1.22-.48-2.27-1.19-3.16-2.14-.87-.94-1.56-2.12-2.07-3.52-.49-1.41-.74-3.05-.74-4.93 0-1.51.22-2.94.64-4.28.42-1.35 1.05-2.53 1.89-3.53.84-1.01 1.89-1.81 3.13-2.4 1.25-.59 2.7-.88 4.35-.88 1.6 0 2.93.25 4 .74 1.08.48 1.96 1.12 2.63 1.93.68.79 1.19 1.7 1.53 2.72.36 1.03.61 2.08.74 3.14.07.52.11 1.05.12 1.58l.05 1.56h-15.3zm5.96-8.47c-.88 0-1.66.13-2.33.39-.66.25-1.22.61-1.68 1.09-.47.46-.85 1.04-1.13 1.72s-.48 1.45-.62 2.3h11.01c-.05-.8-.18-1.53-.38-2.2s-.5-1.25-.91-1.74-.93-.88-1.58-1.15c-.64-.27-1.43-.41-2.38-.41zm30.09 16.73a7.49 7.49 0 0 1-2.44 1.73c-.92.41-1.96.61-3.14.61-1.43 0-2.77-.24-4.02-.74-1.23-.5-2.3-1.23-3.22-2.19-.9-.97-1.61-2.15-2.13-3.55-.51-1.41-.76-3.01-.76-4.82 0-1.64.25-3.13.74-4.47.49-1.35 1.19-2.5 2.09-3.44.9-.96 1.99-1.7 3.26-2.22 1.27-.53 2.69-.8 4.25-.8 1.06 0 2.02.12 2.87.37.86.23 1.69.64 2.5 1.23v-1.09h3.81v20.41c0 3.36-.8 5.91-2.4 7.63-1.58 1.72-4.06 2.58-7.42 2.58a17.19 17.19 0 0 1-2.32-.16c-.8-.11-1.6-.29-2.4-.54a14.31 14.31 0 0 1-2.29-.9 10.38 10.38 0 0 1-2.05-1.35l2.05-3.1a8.63 8.63 0 0 0 1.39.99c.54.3 1.1.55 1.7.76.61.21 1.23.39 1.87.51s1.29.18 1.93.18c1.05 0 1.96-.11 2.73-.33.77-.21 1.41-.6 1.9-1.16.51-.55.88-1.3 1.13-2.24s.37-2.14.37-3.59v-.31zm-5.09-.98c.63 0 1.21-.06 1.73-.19a7.52 7.52 0 0 0 1.41-.47c.43-.2.79-.43 1.11-.69.33-.26.61-.54.84-.82v-11.63c-.7-.62-1.5-1.06-2.42-1.34a9.66 9.66 0 0 0-2.79-.41c-.9 0-1.75.18-2.54.52a5.92 5.92 0 0 0-2.09 1.45c-.59.65-1.06 1.43-1.4 2.36s-.51 2-.51 3.2c0 1.31.16 2.47.49 3.47.33.99.79 1.84 1.38 2.52.58.67 1.29 1.17 2.11 1.52.82.34 1.71.51 2.68.51zm26.95-18.4h6.85v17.72h2.36v3.53h-6.19v-1.97c-.96.74-2.01 1.31-3.14 1.72a10.45 10.45 0 0 1-3.61.62c-1.07 0-2.04-.15-2.91-.45-.86-.32-1.6-.8-2.22-1.44-.6-.65-1.06-1.48-1.39-2.48s-.49-2.19-.49-3.57v-10.15h-2.88v-3.53h6.85v13.23c0 1.63.38 2.86 1.13 3.69.75.84 1.83 1.25 3.24 1.25.84 0 1.71-.15 2.63-.45.93-.3 1.8-.72 2.62-1.25v-12.94h-2.85v-3.53zm14.73-10.66h6.89v28.38h3.2v3.53h-10.09v-3.53h3.07v-24.85h-3.07v-3.53zm26.31 29.94a11.01 11.01 0 0 1-2.69 1.85c-.97.48-2.08.71-3.32.71-1.04 0-2-.16-2.87-.49-.86-.33-1.61-.77-2.24-1.33-.63-.57-1.12-1.24-1.47-1.99s-.52-1.55-.52-2.4c0-.9.13-1.7.39-2.4.28-.7.63-1.3 1.07-1.8.45-.52.97-.95 1.56-1.3.6-.35 1.22-.63 1.86-.84a10.78 10.78 0 0 1 1.99-.45 15.16 15.16 0 0 1 1.95-.14l2.48.1 1.83.25.02-1.75c0-.75-.11-1.4-.33-1.94-.22-.56-.53-1.02-.92-1.38-.4-.37-.88-.64-1.44-.82-.55-.18-1.16-.26-1.84-.26-.65 0-1.26.04-1.85.14-.59.08-1.14.2-1.66.35-.51.13-.98.3-1.42.49-.42.18-.78.37-1.08.57l-1.25-2.64a11.85 11.85 0 0 1 1.66-.9 12.16 12.16 0 0 1 1.88-.72c.67-.21 1.35-.36 2.03-.47a11.28 11.28 0 0 1 2.06-.19c1.23 0 2.33.15 3.32.45.98.29 1.82.74 2.5 1.36.68.61 1.21 1.4 1.58 2.36.37.94.55 2.07.55 3.4l-.02 10.62h2.36v3.53h-6.17v-1.97zm-5.17-.63a6.59 6.59 0 0 0 1.52-.19c.5-.12.98-.29 1.43-.49a8.95 8.95 0 0 0 1.25-.74c.39-.29.71-.58.97-.88l.02-4.8h-4.43c-.74 0-1.42.08-2.03.25-.6.16-1.13.4-1.58.71a3.49 3.49 0 0 0-1.03 1.17c-.24.47-.37 1-.37 1.6 0 .56.11 1.05.31 1.48.21.41.49.76.86 1.04.39.28.84.49 1.36.64a6.59 6.59 0 0 0 1.72.21zm30.93-14.15h-3.9v-1.32c-.45 0-.92.09-1.4.27-.46.16-.9.42-1.31.78-.41.34-.77.78-1.09 1.33-.3.53-.51 1.17-.65 1.91v10.25h3.61v3.53h-10.54v-3.53h2.93l.02-14.19h-2.95v-3.53h6.78v2.94c.25-.44.52-.84.83-1.21a5.6 5.6 0 0 1 1.02-.99 4.51 4.51 0 0 1 1.25-.65c.47-.17.97-.25 1.5-.25h2.01l1.89.04v4.62z" fill-opacity=".75"/><path d="M3057.73 2182.89h17.69l-7.97-25.55h-54.61l-7.96 25.55h18.74V2215h-67.38v-32.11h13.24l48.4-145.55h47l47.34 145.55h12.89V2215h-67.38v-32.11zm-35.63-55.55h35.86l-18.05-57.77-17.81 57.77zm189.85 81.1l-7.5 4.45c-2.27 1.17-4.54 2.11-6.8 2.81a35.41 35.41 0 0 1-7.03 1.64c-2.42.39-5.08.59-7.97.59-7.27 0-13.79-.98-19.57-2.93-5.7-2.03-10.55-4.77-14.53-8.2-3.91-3.52-6.92-7.62-9.03-12.31-2.11-4.76-3.16-9.92-3.16-15.47 0-5.62 1.05-10.82 3.16-15.58a34.11 34.11 0 0 1 9.38-12.19c4.06-3.44 9.02-6.09 14.88-7.97 5.94-1.95 12.7-2.93 20.27-2.93 5.55 0 10.59.31 15.12.94 4.61.55 8.87 1.25 12.78 2.11v-3.75c0-3.05-.59-5.67-1.76-7.85-1.17-2.27-2.81-4.1-4.92-5.51-2.11-1.49-4.65-2.54-7.62-3.17-2.97-.7-6.21-1.05-9.73-1.05-7.34 0-13.83.74-19.45 2.23-5.55 1.4-10.9 3.47-16.06 6.21l-11.25-22.74c7.97-5.47 16.29-9.65 24.96-12.54 8.76-2.89 18.01-4.33 27.78-4.33 7.58 0 14.57.86 20.98 2.58 6.48 1.64 12.03 4.37 16.64 8.2 4.6 3.75 8.2 8.67 10.78 14.77 2.65 6.09 3.98 13.51 3.98 22.26v44.18h16.29V2215h-50.62v-6.56zm-26.72-18.17c5.54 0 10.58-.89 15.11-2.69 4.54-1.8 8.4-3.99 11.61-6.56v-15.47h-28.13c-1.8 0-3.55.27-5.27.82-1.72.54-3.28 1.33-4.69 2.34-1.33 1.02-2.42 2.27-3.28 3.75-.78 1.49-1.17 3.2-1.17 5.16 0 3.59 1.29 6.6 3.86 9.02 2.66 2.42 6.64 3.63 11.96 3.63z"/><path d="M3068.48 2315.38h3.17v-19.83h-3.17v-5.68l15.15.04c1.41 0 2.69.25 3.86.76 1.17.49 2.18 1.17 3.03 2.03a8.8 8.8 0 0 1 1.97 2.99c.48 1.14.72 2.35.72 3.63 0 1.51-.27 2.75-.8 3.74-.52.98-1.27 1.77-2.24 2.37 1.03.66 1.83 1.47 2.42 2.45.6.95.91 2.12.91 3.5 0 1.41-.25 2.7-.74 3.88-.48 1.17-1.14 2.19-1.99 3.05-.84.85-1.83 1.51-2.98 1.99-1.14.47-2.38.7-3.71.7h-15.6v-5.62zm9.98-7.24v7.24h5.17c.4 0 .77-.1 1.11-.31.35-.2.65-.47.9-.8.26-.34.47-.73.62-1.17.15-.45.22-.91.22-1.39 0-.51-.07-.97-.22-1.39-.15-.44-.36-.82-.62-1.13-.26-.33-.57-.58-.92-.76-.34-.19-.71-.29-1.09-.29h-5.17zm0-12.59v6.97h4.88c.39 0 .75-.09 1.09-.28a3.06 3.06 0 0 0 .88-.76 4.05 4.05 0 0 0 .62-1.09 3.65 3.65 0 0 0 .22-1.27 3.73 3.73 0 0 0-.22-1.27c-.15-.43-.36-.81-.62-1.15a2.86 2.86 0 0 0-.88-.82c-.34-.22-.7-.33-1.09-.33h-4.88zm17.6 14.74c0-1.54.28-2.99.84-4.34.56-1.36 1.34-2.54 2.34-3.55s2.18-1.81 3.57-2.4c1.38-.59 2.89-.88 4.55-.88 1.65 0 3.17.29 4.55.88 1.4.59 2.59 1.39 3.59 2.4s1.77 2.19 2.32 3.55c.56 1.35.84 2.8.84 4.34a11.75 11.75 0 0 1-.82 4.37c-.54 1.36-1.3 2.55-2.3 3.57-.98 1.01-2.17 1.81-3.57 2.4-1.38.59-2.92.88-4.61.88-1.71 0-3.26-.29-4.66-.88-1.38-.59-2.56-1.39-3.54-2.4-.99-1.01-1.75-2.19-2.3-3.55-.53-1.36-.8-2.83-.8-4.39zm6.13 0c0 .81.14 1.56.41 2.24.27.67.64 1.25 1.11 1.74.48.5 1.02.88 1.64 1.15.63.28 1.3.41 2.01.41.72 0 1.39-.13 2.01-.39.63-.27 1.17-.65 1.62-1.15a5.35 5.35 0 0 0 1.09-1.74c.25-.68.38-1.43.38-2.26 0-.84-.13-1.61-.38-2.29-.26-.69-.63-1.27-1.09-1.75-.45-.47-.99-.84-1.62-1.08a4.96 4.96 0 0 0-2.01-.37c-.71-.01-1.38.11-2.01.37-.62.24-1.16.61-1.64 1.08-.47.48-.84 1.06-1.11 1.75-.27.68-.41 1.45-.41 2.29zm19.15-21.2h9.58v26.29h3.28v5.62h-12.86v-5.62h3.29v-20.67h-3.29v-5.62zm29 0h9.29v26.29h4.15v5.62h-10.46v-.82a12.28 12.28 0 0 1-2.28.9c-.77.22-1.54.33-2.34.33-1.62 0-3.12-.29-4.49-.86-1.35-.59-2.52-1.39-3.51-2.4-.97-1.01-1.73-2.19-2.27-3.55-.55-1.37-.82-2.83-.82-4.39s.26-3 .8-4.34a10.93 10.93 0 0 1 2.25-3.53c.97-1 2.13-1.79 3.47-2.36 1.35-.57 2.84-.86 4.45-.86.89 0 1.72.09 2.5.26s1.53.41 2.24.72v-5.39h-2.98v-5.62zm-1.29 26.66c.9-.03 1.72-.26 2.44-.7.74-.43 1.35-1.01 1.83-1.72v-6.25c-.48-.73-1.1-1.29-1.87-1.69-.75-.41-1.55-.6-2.4-.59-.71-.01-1.38.11-2.01.37-.61.26-1.16.63-1.64 1.11-.46.47-.83 1.05-1.11 1.72-.27.67-.41 1.43-.41 2.27s.14 1.6.41 2.28c.28.67.65 1.24 1.11 1.72.48.47 1.03.82 1.64 1.07a6.1 6.1 0 0 0 2.01.41z" fill-opacity=".75"/><path d="M453.448 647.189h34.064l-15.34-49.177H367.049l-15.34 49.177h36.094V709H258.091v-61.811h25.491l93.167-280.177h90.46l91.137 280.177h24.814V709H453.448v-61.811zM384.87 540.262h69.029l-34.74-111.214-34.289 111.214zm435.002 20.077h-63.39v-24.138c-6.166 0-11.805.451-16.919 1.354-5.113.752-9.625 2.105-13.535 4.06-3.76 1.955-6.993 4.662-9.7 8.121-2.557 3.459-4.361 7.745-5.414 12.859v84.594h47.599V709H606.016v-61.811h34.966V537.104h-34.514v-61.811h103.995v16.468c6.617-5.264 14.061-9.324 22.333-12.182s17.295-4.286 27.07-4.286l30.68.226 29.326.225v84.595zm30.752-85.046h122.042v61.811h-28.424l38.124 100.385 36.774-100.385h-25.269v-61.811h122.039v61.811h-31.13l-69.7 172.798h-68.808l-69.706-172.798h-25.942v-61.811zM1142.6 591.244c0-16.994 3.09-32.935 9.25-47.824 6.17-14.889 14.74-27.898 25.72-39.026s24.06-19.927 39.25-26.394 31.88-9.7 50.08-9.7 34.89 3.233 50.08 9.7c15.34 6.467 28.5 15.265 39.48 26.394s19.47 24.137 25.49 39.026c6.17 14.889 9.25 30.83 9.25 47.824s-3.01 33.011-9.02 48.05c-5.87 14.889-14.29 27.973-25.27 39.252-10.83 11.129-23.91 19.927-39.25 26.393-15.19 6.467-32.11 9.701-50.76 9.701-18.8 0-35.87-3.234-51.21-9.701-15.19-6.466-28.19-15.264-39.02-26.393s-19.25-24.138-25.27-39.026c-5.86-15.04-8.8-31.131-8.8-48.276zm67.45 0c0 8.873 1.51 17.069 4.52 24.589 3 7.369 7.06 13.761 12.18 19.175 5.26 5.414 11.28 9.625 18.04 12.633 6.92 3.007 14.29 4.511 22.11 4.511 7.97 0 15.34-1.428 22.11-4.286 6.92-3.008 12.86-7.219 17.82-12.633 5.11-5.414 9.1-11.805 11.96-19.174 2.85-7.52 4.28-15.791 4.28-24.815 0-9.324-1.43-17.746-4.28-25.265-2.86-7.52-6.85-13.912-11.96-19.175-4.96-5.264-10.9-9.249-17.82-11.956-6.77-2.858-14.14-4.211-22.11-4.061-7.82-.15-15.19 1.203-22.11 4.061-6.76 2.707-12.78 6.692-18.04 11.956-5.12 5.263-9.18 11.655-12.18 19.175-3.01 7.519-4.52 15.941-4.52 25.265z"/></g></svg>