<svg width="1811" height="1006" viewBox="0 0 1811 1006" fill="none" xmlns="http://www.w3.org/2000/svg">
<rect width="1811" height="1006" rx="28" fill="white"/>
<rect x="16" y="16" width="818" height="974" rx="20" fill="#10664F"/>
<rect x="874" y="16" width="438" height="467" rx="20" fill="#F4C31F"/>
<rect x="1352" y="16" width="438" height="467" rx="20" fill="#F6F6F6"/>
<rect x="874" y="523" width="438" height="467" rx="20" fill="#EEF7F4"/>
<rect x="1352" y="523" width="438" height="467" rx="20" fill="#333333"/>
<path d="M64.84 77.36C63.096 77.36 61.572 77 60.268 76.28C58.964 75.56 57.948 74.544 57.22 73.232C56.5 71.912 56.14 70.372 56.14 68.612C56.14 67.332 56.352 66.16 56.776 65.096C57.208 64.024 57.812 63.096 58.588 62.312C59.372 61.528 60.296 60.92 61.36 60.488C62.424 60.056 63.592 59.84 64.864 59.84C66.144 59.84 67.248 60 68.176 60.32C69.112 60.64 69.928 61.096 70.624 61.688L69.232 63.884C68.704 63.396 68.088 63.032 67.384 62.792C66.68 62.552 65.904 62.432 65.056 62.432C64.12 62.432 63.276 62.576 62.524 62.864C61.772 63.152 61.128 63.564 60.592 64.1C60.064 64.628 59.656 65.272 59.368 66.032C59.088 66.784 58.948 67.636 58.948 68.588C58.948 69.884 59.2 70.992 59.704 71.912C60.216 72.832 60.936 73.536 61.864 74.024C62.8 74.504 63.904 74.744 65.176 74.744C66.024 74.744 66.84 74.62 67.624 74.372C68.416 74.116 69.156 73.704 69.844 73.136L71.092 75.404C70.284 76.036 69.36 76.52 68.32 76.856C67.288 77.192 66.128 77.36 64.84 77.36ZM76.6304 77.36C75.8064 77.36 75.0824 77.208 74.4584 76.904C73.8344 76.592 73.3464 76.156 72.9944 75.596C72.6504 75.028 72.4784 74.36 72.4784 73.592C72.4784 72.944 72.6424 72.36 72.9704 71.84C73.2984 71.312 73.8064 70.876 74.4944 70.532C75.1904 70.188 76.0824 69.96 77.1704 69.848C78.2584 69.728 79.5664 69.744 81.0944 69.896L81.1424 71.72C80.0544 71.568 79.1184 71.504 78.3344 71.528C77.5504 71.552 76.9064 71.652 76.4024 71.828C75.9064 71.996 75.5384 72.224 75.2984 72.512C75.0664 72.792 74.9504 73.116 74.9504 73.484C74.9504 74.06 75.1544 74.504 75.5624 74.816C75.9784 75.128 76.5464 75.284 77.2664 75.284C77.8824 75.284 78.4344 75.172 78.9224 74.948C79.4104 74.724 79.7944 74.408 80.0744 74C80.3624 73.592 80.5064 73.112 80.5064 72.56V69.404C80.5064 68.876 80.3944 68.42 80.1704 68.036C79.9464 67.644 79.6064 67.34 79.1504 67.124C78.6944 66.908 78.1264 66.8 77.4464 66.8C76.8224 66.8 76.2064 66.896 75.5984 67.088C74.9904 67.272 74.4104 67.564 73.8584 67.964L73.1144 66.02C73.8584 65.516 74.6344 65.16 75.4424 64.952C76.2504 64.744 77.0264 64.64 77.7704 64.64C78.8744 64.64 79.8184 64.816 80.6024 65.168C81.3944 65.512 82.0024 66.036 82.4264 66.74C82.8504 67.436 83.0624 68.316 83.0624 69.38V77H80.6864V75.596C80.2864 76.164 79.7304 76.6 79.0184 76.904C78.3064 77.208 77.5104 77.36 76.6304 77.36ZM90.3406 77.348C89.3566 77.348 88.4366 77.208 87.5806 76.928C86.7246 76.648 86.0046 76.272 85.4206 75.8L86.4166 73.868C86.9686 74.3 87.5886 74.64 88.2766 74.888C88.9726 75.136 89.6566 75.26 90.3286 75.26C91.1046 75.26 91.7086 75.124 92.1406 74.852C92.5726 74.58 92.7886 74.2 92.7886 73.712C92.7886 73.248 92.6006 72.908 92.2246 72.692C91.8566 72.468 91.1526 72.236 90.1126 71.996C88.6166 71.684 87.5286 71.244 86.8486 70.676C86.1766 70.1 85.8406 69.304 85.8406 68.288C85.8406 67.576 86.0366 66.948 86.4286 66.404C86.8286 65.852 87.3766 65.42 88.0726 65.108C88.7686 64.796 89.5726 64.64 90.4846 64.64C91.3726 64.64 92.2086 64.768 92.9926 65.024C93.7766 65.272 94.4566 65.624 95.0326 66.08L94.0966 68.024C93.8006 67.76 93.4566 67.532 93.0646 67.34C92.6726 67.148 92.2566 67 91.8166 66.896C91.3846 66.784 90.9526 66.728 90.5206 66.728C89.8486 66.728 89.3006 66.86 88.8766 67.124C88.4606 67.38 88.2526 67.736 88.2526 68.192C88.2526 68.664 88.4526 69.012 88.8526 69.236C89.2526 69.46 89.9406 69.684 90.9166 69.908C92.4526 70.244 93.5526 70.692 94.2166 71.252C94.8806 71.812 95.2126 72.588 95.2126 73.58C95.2126 74.34 95.0086 75.004 94.6006 75.572C94.1926 76.132 93.6206 76.568 92.8846 76.88C92.1566 77.192 91.3086 77.348 90.3406 77.348ZM102.944 77.36C101.784 77.36 100.856 77.024 100.16 76.352C99.4639 75.68 99.1159 74.652 99.1159 73.268V61.652H101.756V65.12H105.056V67.304H101.756V72.692C101.756 73.524 101.912 74.112 102.224 74.456C102.544 74.792 102.992 74.96 103.568 74.96C103.848 74.96 104.112 74.928 104.36 74.864C104.608 74.8 104.832 74.716 105.032 74.612L105.5 76.748C105.156 76.924 104.76 77.068 104.312 77.18C103.872 77.3 103.416 77.36 102.944 77.36ZM96.5119 67.304V65.12H99.4639V67.304H96.5119ZM108.024 77V59.72H110.664V77H108.024ZM119.513 77.36C118.233 77.36 117.109 77.1 116.141 76.58C115.173 76.052 114.417 75.316 113.873 74.372C113.337 73.428 113.069 72.332 113.069 71.084C113.069 70.172 113.225 69.332 113.537 68.564C113.849 67.788 114.289 67.116 114.857 66.548C115.425 65.98 116.089 65.54 116.849 65.228C117.617 64.916 118.453 64.76 119.357 64.76C120.341 64.76 121.217 64.936 121.985 65.288C122.753 65.632 123.389 66.116 123.893 66.74C124.405 67.364 124.765 68.096 124.973 68.936C125.189 69.768 125.225 70.672 125.081 71.648H115.601C115.585 72.36 115.741 72.984 116.069 73.52C116.397 74.048 116.865 74.46 117.473 74.756C118.089 75.052 118.813 75.2 119.645 75.2C120.317 75.2 120.965 75.1 121.589 74.9C122.221 74.692 122.793 74.388 123.305 73.988L124.325 75.884C123.941 76.196 123.477 76.464 122.933 76.688C122.389 76.904 121.821 77.068 121.229 77.18C120.637 77.3 120.065 77.36 119.513 77.36ZM115.757 69.704H122.489C122.465 68.808 122.177 68.104 121.625 67.592C121.081 67.08 120.305 66.824 119.297 66.824C118.321 66.824 117.509 67.08 116.861 67.592C116.221 68.104 115.853 68.808 115.757 69.704ZM132.458 77.36C131.298 77.36 130.37 77.024 129.674 76.352C128.978 75.68 128.63 74.652 128.63 73.268V61.652H131.27V65.12H134.57V67.304H131.27V72.692C131.27 73.524 131.426 74.112 131.738 74.456C132.058 74.792 132.506 74.96 133.082 74.96C133.362 74.96 133.626 74.928 133.874 74.864C134.122 74.8 134.346 74.716 134.546 74.612L135.014 76.748C134.67 76.924 134.274 77.068 133.826 77.18C133.386 77.3 132.93 77.36 132.458 77.36ZM126.026 67.304V65.12H128.978V67.304H126.026ZM142.881 77.36C141.641 77.36 140.533 77.076 139.556 76.508C138.588 75.932 137.828 75.168 137.276 74.216C136.724 73.256 136.448 72.204 136.448 71.06C136.448 70.212 136.604 69.412 136.916 68.66C137.236 67.9 137.684 67.228 138.26 66.644C138.844 66.06 139.528 65.6 140.312 65.264C141.097 64.928 141.957 64.76 142.892 64.76C144.133 64.76 145.237 65.048 146.205 65.624C147.181 66.192 147.944 66.956 148.497 67.916C149.049 68.868 149.325 69.916 149.325 71.06C149.325 71.9 149.165 72.7 148.845 73.46C148.533 74.22 148.089 74.892 147.513 75.476C146.937 76.06 146.257 76.52 145.473 76.856C144.689 77.192 143.825 77.36 142.881 77.36ZM142.881 75.02C143.617 75.02 144.269 74.86 144.836 74.54C145.413 74.212 145.865 73.752 146.193 73.16C146.521 72.568 146.685 71.868 146.685 71.06C146.685 70.252 146.521 69.552 146.193 68.96C145.865 68.36 145.413 67.9 144.836 67.58C144.269 67.26 143.617 67.1 142.881 67.1C142.145 67.1 141.488 67.26 140.913 67.58C140.344 67.9 139.896 68.36 139.568 68.96C139.248 69.552 139.088 70.252 139.088 71.06C139.088 71.868 139.252 72.568 139.581 73.16C139.908 73.752 140.356 74.212 140.924 74.54C141.5 74.86 142.152 75.02 142.881 75.02ZM151.736 77V65.12H154.376V66.632C154.872 65.968 155.448 65.492 156.104 65.204C156.76 64.908 157.44 64.76 158.144 64.76C159.232 64.76 160.132 64.976 160.844 65.408C161.556 65.84 162.084 66.396 162.428 67.076C162.78 67.756 162.956 68.456 162.956 69.176V77H160.316V69.992C160.316 69.144 160.06 68.464 159.548 67.952C159.044 67.44 158.34 67.184 157.436 67.184C156.844 67.184 156.316 67.316 155.852 67.58C155.396 67.844 155.036 68.212 154.772 68.684C154.508 69.148 154.376 69.692 154.376 70.316V77H151.736ZM176.585 82.4C175.697 82.4 174.897 82.32 174.185 82.16C173.473 82.008 172.865 81.784 172.361 81.488C171.865 81.192 171.485 80.836 171.221 80.42C170.957 80.004 170.825 79.54 170.825 79.028C170.825 78.62 170.933 78.236 171.149 77.876C171.373 77.516 171.701 77.208 172.133 76.952C172.573 76.688 173.109 76.492 173.741 76.364C173.269 76.124 172.917 75.852 172.685 75.548C172.461 75.244 172.349 74.896 172.349 74.504C172.349 74.168 172.445 73.852 172.637 73.556C172.837 73.252 173.117 72.984 173.477 72.752C173.845 72.512 174.277 72.316 174.773 72.164C175.269 72.012 175.817 71.924 176.417 71.9L176.993 73.052C176.497 73.044 176.073 73.084 175.721 73.172C175.377 73.252 175.109 73.368 174.917 73.52C174.733 73.664 174.641 73.84 174.641 74.048C174.641 74.32 174.797 74.52 175.109 74.648C175.421 74.768 175.861 74.852 176.429 74.9L178.469 75.056C179.469 75.136 180.321 75.3 181.025 75.548C181.737 75.796 182.281 76.144 182.657 76.592C183.041 77.04 183.233 77.608 183.233 78.296C183.233 78.88 183.073 79.42 182.753 79.916C182.441 80.42 181.989 80.856 181.397 81.224C180.813 81.592 180.113 81.88 179.297 82.088C178.481 82.296 177.577 82.4 176.585 82.4ZM176.849 80.576C178.041 80.576 178.977 80.396 179.657 80.036C180.345 79.684 180.689 79.224 180.689 78.656C180.689 78.224 180.461 77.888 180.005 77.648C179.549 77.408 178.853 77.256 177.917 77.192L175.733 77.024C175.221 77.064 174.777 77.16 174.401 77.312C174.033 77.464 173.753 77.66 173.561 77.9C173.369 78.14 173.273 78.412 173.273 78.716C173.273 79.084 173.417 79.408 173.705 79.688C173.993 79.968 174.405 80.184 174.941 80.336C175.477 80.496 176.113 80.576 176.849 80.576ZM176.765 73.232C175.773 73.232 174.881 73.044 174.089 72.668C173.305 72.292 172.685 71.784 172.229 71.144C171.773 70.504 171.545 69.788 171.545 68.996C171.545 68.204 171.773 67.488 172.229 66.848C172.693 66.208 173.317 65.7 174.101 65.324C174.893 64.948 175.781 64.76 176.765 64.76C177.749 64.76 178.633 64.948 179.417 65.324C180.201 65.7 180.821 66.208 181.277 66.848C181.741 67.488 181.973 68.204 181.973 68.996C181.973 69.78 181.745 70.492 181.289 71.132C180.833 71.772 180.213 72.284 179.429 72.668C178.645 73.044 177.757 73.232 176.765 73.232ZM176.765 71.252C177.309 71.252 177.793 71.16 178.217 70.976C178.641 70.784 178.973 70.52 179.213 70.184C179.453 69.84 179.573 69.444 179.573 68.996C179.573 68.324 179.309 67.78 178.781 67.364C178.261 66.94 177.589 66.728 176.765 66.728C176.213 66.728 175.725 66.824 175.301 67.016C174.885 67.208 174.557 67.476 174.317 67.82C174.077 68.156 173.957 68.548 173.957 68.996C173.957 69.66 174.217 70.204 174.737 70.628C175.265 71.044 175.941 71.252 176.765 71.252ZM178.613 67.208L177.629 65.372L184.001 65.12L183.977 67.304L178.613 67.208ZM186.032 77V65.12H188.672V66.764C189.12 66.02 189.664 65.5 190.304 65.204C190.944 64.9 191.632 64.748 192.368 64.748C192.608 64.748 192.836 64.76 193.052 64.784C193.268 64.808 193.476 64.844 193.676 64.892L193.328 67.616C193.088 67.544 192.844 67.488 192.596 67.448C192.348 67.408 192.1 67.388 191.852 67.388C190.932 67.388 190.172 67.672 189.572 68.24C188.972 68.8 188.672 69.564 188.672 70.532V77H186.032ZM200.825 77.36C199.545 77.36 198.421 77.1 197.453 76.58C196.485 76.052 195.729 75.316 195.185 74.372C194.649 73.428 194.381 72.332 194.381 71.084C194.381 70.172 194.537 69.332 194.849 68.564C195.161 67.788 195.601 67.116 196.169 66.548C196.737 65.98 197.401 65.54 198.161 65.228C198.929 64.916 199.765 64.76 200.669 64.76C201.653 64.76 202.529 64.936 203.297 65.288C204.065 65.632 204.701 66.116 205.205 66.74C205.717 67.364 206.077 68.096 206.285 68.936C206.501 69.768 206.537 70.672 206.393 71.648H196.913C196.897 72.36 197.053 72.984 197.381 73.52C197.709 74.048 198.177 74.46 198.785 74.756C199.401 75.052 200.125 75.2 200.957 75.2C201.629 75.2 202.277 75.1 202.901 74.9C203.533 74.692 204.105 74.388 204.617 73.988L205.637 75.884C205.253 76.196 204.789 76.464 204.245 76.688C203.701 76.904 203.133 77.068 202.541 77.18C201.949 77.3 201.377 77.36 200.825 77.36ZM197.069 69.704H203.801C203.777 68.808 203.489 68.104 202.937 67.592C202.393 67.08 201.617 66.824 200.609 66.824C199.633 66.824 198.821 67.08 198.173 67.592C197.533 68.104 197.165 68.808 197.069 69.704ZM214.437 77.36C213.157 77.36 212.033 77.1 211.065 76.58C210.097 76.052 209.341 75.316 208.797 74.372C208.261 73.428 207.993 72.332 207.993 71.084C207.993 70.172 208.149 69.332 208.461 68.564C208.773 67.788 209.213 67.116 209.781 66.548C210.349 65.98 211.013 65.54 211.773 65.228C212.541 64.916 213.377 64.76 214.281 64.76C215.265 64.76 216.141 64.936 216.909 65.288C217.677 65.632 218.313 66.116 218.817 66.74C219.329 67.364 219.689 68.096 219.897 68.936C220.113 69.768 220.149 70.672 220.005 71.648H210.525C210.509 72.36 210.665 72.984 210.993 73.52C211.321 74.048 211.789 74.46 212.397 74.756C213.013 75.052 213.737 75.2 214.569 75.2C215.241 75.2 215.889 75.1 216.513 74.9C217.145 74.692 217.717 74.388 218.229 73.988L219.249 75.884C218.865 76.196 218.401 76.464 217.857 76.688C217.313 76.904 216.745 77.068 216.153 77.18C215.561 77.3 214.989 77.36 214.437 77.36ZM210.681 69.704H217.413C217.389 68.808 217.101 68.104 216.549 67.592C216.005 67.08 215.229 66.824 214.221 66.824C213.245 66.824 212.433 67.08 211.785 67.592C211.145 68.104 210.777 68.808 210.681 69.704ZM222.507 77V65.12H225.147V66.632C225.643 65.968 226.219 65.492 226.875 65.204C227.531 64.908 228.211 64.76 228.915 64.76C230.003 64.76 230.903 64.976 231.615 65.408C232.327 65.84 232.855 66.396 233.199 67.076C233.551 67.756 233.727 68.456 233.727 69.176V77H231.087V69.992C231.087 69.144 230.831 68.464 230.319 67.952C229.815 67.44 229.111 67.184 228.207 67.184C227.615 67.184 227.087 67.316 226.623 67.58C226.167 67.844 225.807 68.212 225.543 68.684C225.279 69.148 225.147 69.692 225.147 70.316V77H222.507Z" fill="white"/>
<path d="M56.638 103V90.4H58.654V95.404H64.756V90.4H66.772V103H64.756V97.258H58.654V103H56.638ZM69.8701 103V90.4H78.0151V92.182H71.8861V95.584H77.1781V97.267H71.8861V101.2H78.0691V103H69.8701ZM79.5506 103L83.6366 96.538L79.7666 90.4H82.1786L85.0856 95.053L88.1906 90.4H90.5306L86.4626 96.592L90.6476 103H88.2266L85.0046 98.041L81.8996 103H79.5506ZM93.5982 96.403C93.2142 96.403 92.8812 96.28 92.5992 96.034C92.3232 95.788 92.1852 95.467 92.1852 95.071C92.1852 94.801 92.2482 94.567 92.3742 94.369C92.5002 94.165 92.6712 94.009 92.8872 93.901C93.1032 93.787 93.3402 93.73 93.5982 93.73C93.9882 93.73 94.3182 93.853 94.5882 94.099C94.8642 94.339 95.0022 94.663 95.0022 95.071C95.0022 95.335 94.9392 95.569 94.8132 95.773C94.6872 95.971 94.5162 96.127 94.3002 96.241C94.0902 96.349 93.8562 96.403 93.5982 96.403ZM93.5982 103.27C93.2142 103.27 92.8812 103.147 92.5992 102.901C92.3232 102.655 92.1852 102.334 92.1852 101.938C92.1852 101.668 92.2482 101.434 92.3742 101.236C92.5002 101.032 92.6712 100.876 92.8872 100.768C93.1032 100.654 93.3402 100.597 93.5982 100.597C93.9882 100.597 94.3182 100.72 94.5882 100.966C94.8642 101.206 95.0022 101.53 95.0022 101.938C95.0022 102.202 94.9392 102.436 94.8132 102.64C94.6872 102.838 94.5162 102.991 94.3002 103.099C94.0902 103.213 93.8562 103.27 93.5982 103.27ZM101.798 102.568L102.536 99.517H100.997L101.321 98.095H102.869L103.517 95.323H101.969L102.311 93.901H103.841L104.588 90.832H106.055L105.326 93.901H107.99L108.719 90.823H110.204L109.466 93.901H110.996L110.672 95.332H109.133L108.512 98.086H110.042L109.7 99.517H108.161L107.423 102.577H105.938L106.676 99.517H104.021L103.283 102.568H101.798ZM104.345 98.095L107.027 98.086L107.648 95.332L104.966 95.323L104.345 98.095ZM115.457 103V92.524L112.19 93.721L111.668 92.155L117.185 90.13H117.329V103H115.457ZM125.259 103.27C124.455 103.27 123.732 103.099 123.09 102.757C122.454 102.415 121.911 101.941 121.461 101.335C121.017 100.729 120.678 100.03 120.444 99.238C120.21 98.446 120.093 97.6 120.093 96.7C120.093 95.794 120.21 94.945 120.444 94.153C120.678 93.361 121.017 92.665 121.461 92.065C121.911 91.459 122.454 90.985 123.09 90.643C123.732 90.301 124.455 90.13 125.259 90.13C126.063 90.13 126.783 90.301 127.419 90.643C128.061 90.985 128.604 91.459 129.048 92.065C129.498 92.665 129.84 93.361 130.074 94.153C130.314 94.945 130.434 95.794 130.434 96.7C130.434 97.6 130.314 98.446 130.074 99.238C129.84 100.03 129.498 100.729 129.048 101.335C128.604 101.941 128.061 102.415 127.419 102.757C126.783 103.099 126.063 103.27 125.259 103.27ZM125.259 101.488C125.739 101.488 126.174 101.38 126.564 101.164C126.954 100.942 127.29 100.624 127.572 100.21C127.86 99.796 128.079 99.295 128.229 98.707C128.379 98.113 128.454 97.444 128.454 96.7C128.454 95.704 128.319 94.849 128.049 94.135C127.785 93.415 127.413 92.866 126.933 92.488C126.459 92.104 125.901 91.912 125.259 91.912C124.785 91.912 124.35 92.023 123.954 92.245C123.564 92.461 123.228 92.776 122.946 93.19C122.664 93.604 122.445 94.105 122.289 94.693C122.139 95.281 122.064 95.95 122.064 96.7C122.064 97.696 122.196 98.551 122.46 99.265C122.73 99.979 123.105 100.528 123.585 100.912C124.065 101.296 124.623 101.488 125.259 101.488ZM137.143 103.27C136.195 103.27 135.355 103.066 134.623 102.658C133.891 102.25 133.315 101.662 132.895 100.894C132.475 100.12 132.265 99.187 132.265 98.095C132.265 97.033 132.463 96.055 132.859 95.161C133.255 94.261 133.81 93.466 134.524 92.776C135.238 92.08 136.072 91.507 137.026 91.057C137.986 90.607 139.027 90.298 140.149 90.13L140.851 91.678C139.933 91.774 139.117 91.966 138.403 92.254C137.689 92.536 137.074 92.887 136.558 93.307C136.048 93.727 135.631 94.195 135.307 94.711C134.983 95.221 134.743 95.755 134.587 96.313C134.923 95.881 135.349 95.539 135.865 95.287C136.381 95.029 136.942 94.9 137.548 94.9C138.358 94.9 139.087 95.071 139.735 95.413C140.389 95.755 140.902 96.229 141.274 96.835C141.652 97.441 141.841 98.14 141.841 98.932C141.841 99.538 141.727 100.105 141.499 100.633C141.271 101.161 140.947 101.623 140.527 102.019C140.107 102.409 139.609 102.715 139.033 102.937C138.463 103.159 137.833 103.27 137.143 103.27ZM137.143 101.56C137.677 101.56 138.151 101.452 138.565 101.236C138.979 101.02 139.303 100.726 139.537 100.354C139.777 99.976 139.897 99.544 139.897 99.058C139.897 98.578 139.774 98.149 139.528 97.771C139.288 97.393 138.958 97.093 138.538 96.871C138.124 96.649 137.659 96.538 137.143 96.538C136.621 96.538 136.15 96.649 135.73 96.871C135.316 97.093 134.986 97.393 134.74 97.771C134.5 98.149 134.38 98.578 134.38 99.058C134.38 99.544 134.497 99.976 134.731 100.354C134.971 100.726 135.298 101.02 135.712 101.236C136.126 101.452 136.603 101.56 137.143 101.56ZM148.494 103.27C147.546 103.27 146.706 103.066 145.974 102.658C145.242 102.25 144.666 101.662 144.246 100.894C143.826 100.12 143.616 99.187 143.616 98.095C143.616 97.033 143.814 96.055 144.21 95.161C144.606 94.261 145.161 93.466 145.875 92.776C146.589 92.08 147.423 91.507 148.377 91.057C149.337 90.607 150.378 90.298 151.5 90.13L152.202 91.678C151.284 91.774 150.468 91.966 149.754 92.254C149.04 92.536 148.425 92.887 147.909 93.307C147.399 93.727 146.982 94.195 146.658 94.711C146.334 95.221 146.094 95.755 145.938 96.313C146.274 95.881 146.7 95.539 147.216 95.287C147.732 95.029 148.293 94.9 148.899 94.9C149.709 94.9 150.438 95.071 151.086 95.413C151.74 95.755 152.253 96.229 152.625 96.835C153.003 97.441 153.192 98.14 153.192 98.932C153.192 99.538 153.078 100.105 152.85 100.633C152.622 101.161 152.298 101.623 151.878 102.019C151.458 102.409 150.96 102.715 150.384 102.937C149.814 103.159 149.184 103.27 148.494 103.27ZM148.494 101.56C149.028 101.56 149.502 101.452 149.916 101.236C150.33 101.02 150.654 100.726 150.888 100.354C151.128 99.976 151.248 99.544 151.248 99.058C151.248 98.578 151.125 98.149 150.879 97.771C150.639 97.393 150.309 97.093 149.889 96.871C149.475 96.649 149.01 96.538 148.494 96.538C147.972 96.538 147.501 96.649 147.081 96.871C146.667 97.093 146.337 97.393 146.091 97.771C145.851 98.149 145.731 98.578 145.731 99.058C145.731 99.544 145.848 99.976 146.082 100.354C146.322 100.726 146.649 101.02 147.063 101.236C147.477 101.452 147.954 101.56 148.494 101.56ZM160.845 103V100.417H154.572V98.896L159.09 90.4H161.142L156.687 98.734H160.845V95.935H162.582V98.734H164.526V100.417H162.582V103H160.845ZM166.525 103V90.4H174.31V92.245H168.541V95.872H173.77V97.672H168.541V103H166.525Z" fill="white"/>
<path d="M913.656 77.36C912.496 77.36 911.36 77.196 910.248 76.868C909.144 76.532 908.212 76.052 907.452 75.428L908.772 73.376C909.172 73.72 909.636 74.016 910.164 74.264C910.7 74.512 911.268 74.704 911.868 74.84C912.468 74.968 913.068 75.032 913.668 75.032C914.764 75.032 915.648 74.824 916.32 74.408C917 73.992 917.34 73.384 917.34 72.584C917.34 71.984 917.108 71.476 916.644 71.06C916.188 70.644 915.34 70.26 914.1 69.908L912.372 69.404C910.788 68.948 909.632 68.344 908.904 67.592C908.184 66.84 907.824 65.904 907.824 64.784C907.824 64.04 907.972 63.368 908.268 62.768C908.572 62.168 908.996 61.648 909.54 61.208C910.092 60.768 910.74 60.432 911.484 60.2C912.228 59.968 913.044 59.852 913.932 59.852C915.06 59.852 916.108 60.016 917.076 60.344C918.044 60.672 918.844 61.112 919.476 61.664L918.108 63.656C917.764 63.344 917.36 63.076 916.896 62.852C916.44 62.628 915.948 62.456 915.42 62.336C914.892 62.216 914.356 62.156 913.812 62.156C913.14 62.156 912.544 62.256 912.024 62.456C911.512 62.648 911.112 62.928 910.824 63.296C910.536 63.664 910.392 64.112 910.392 64.64C910.392 65.024 910.488 65.36 910.68 65.648C910.872 65.936 911.2 66.2 911.664 66.44C912.136 66.672 912.784 66.908 913.608 67.148L915.432 67.688C916.984 68.144 918.12 68.74 918.84 69.476C919.56 70.204 919.92 71.152 919.92 72.32C919.92 73.32 919.672 74.2 919.176 74.96C918.688 75.712 917.976 76.3 917.04 76.724C916.104 77.148 914.976 77.36 913.656 77.36ZM925.966 77.36C925.142 77.36 924.418 77.208 923.794 76.904C923.17 76.592 922.682 76.156 922.33 75.596C921.986 75.028 921.814 74.36 921.814 73.592C921.814 72.944 921.978 72.36 922.306 71.84C922.634 71.312 923.142 70.876 923.83 70.532C924.526 70.188 925.418 69.96 926.506 69.848C927.594 69.728 928.902 69.744 930.43 69.896L930.478 71.72C929.39 71.568 928.454 71.504 927.67 71.528C926.886 71.552 926.242 71.652 925.738 71.828C925.242 71.996 924.874 72.224 924.634 72.512C924.402 72.792 924.286 73.116 924.286 73.484C924.286 74.06 924.49 74.504 924.898 74.816C925.314 75.128 925.882 75.284 926.602 75.284C927.218 75.284 927.77 75.172 928.258 74.948C928.746 74.724 929.13 74.408 929.41 74C929.698 73.592 929.842 73.112 929.842 72.56V69.404C929.842 68.876 929.73 68.42 929.506 68.036C929.282 67.644 928.942 67.34 928.486 67.124C928.03 66.908 927.462 66.8 926.782 66.8C926.158 66.8 925.542 66.896 924.934 67.088C924.326 67.272 923.746 67.564 923.194 67.964L922.45 66.02C923.194 65.516 923.97 65.16 924.778 64.952C925.586 64.744 926.362 64.64 927.106 64.64C928.21 64.64 929.154 64.816 929.938 65.168C930.73 65.512 931.338 66.036 931.762 66.74C932.186 67.436 932.398 68.316 932.398 69.38V77H930.022V75.596C929.622 76.164 929.066 76.6 928.354 76.904C927.642 77.208 926.846 77.36 925.966 77.36ZM936.598 77V63.176C936.598 61.992 936.938 61.06 937.618 60.38C938.306 59.7 939.254 59.36 940.462 59.36C940.902 59.36 941.302 59.408 941.662 59.504C942.03 59.592 942.37 59.72 942.682 59.888L942.19 61.976C941.958 61.848 941.734 61.76 941.518 61.712C941.302 61.664 941.09 61.64 940.882 61.64C940.394 61.64 939.994 61.764 939.682 62.012C939.378 62.26 939.226 62.684 939.226 63.284V65.12H942.346V67.304H939.226V77H936.598ZM934.21 67.304V65.12H936.946V67.304H934.21ZM945.91 77V63.176C945.91 61.992 946.25 61.06 946.93 60.38C947.618 59.7 948.566 59.36 949.774 59.36C950.214 59.36 950.614 59.408 950.974 59.504C951.342 59.592 951.682 59.72 951.994 59.888L951.502 61.976C951.27 61.848 951.046 61.76 950.83 61.712C950.614 61.664 950.402 61.64 950.194 61.64C949.706 61.64 949.306 61.764 948.994 62.012C948.69 62.26 948.538 62.684 948.538 63.284V65.12H951.658V67.304H948.538V77H945.91ZM943.522 67.304V65.12H946.258V67.304H943.522ZM953.803 77V65.12H956.443V66.764C956.891 66.02 957.435 65.5 958.075 65.204C958.715 64.9 959.403 64.748 960.139 64.748C960.379 64.748 960.607 64.76 960.823 64.784C961.039 64.808 961.247 64.844 961.447 64.892L961.099 67.616C960.859 67.544 960.615 67.488 960.367 67.448C960.119 67.408 959.871 67.388 959.623 67.388C958.703 67.388 957.943 67.672 957.343 68.24C956.743 68.8 956.443 69.564 956.443 70.532V77H953.803ZM968.585 77.36C967.345 77.36 966.237 77.076 965.261 76.508C964.293 75.932 963.533 75.168 962.981 74.216C962.429 73.256 962.153 72.204 962.153 71.06C962.153 70.212 962.309 69.412 962.621 68.66C962.941 67.9 963.389 67.228 963.965 66.644C964.549 66.06 965.233 65.6 966.017 65.264C966.801 64.928 967.661 64.76 968.597 64.76C969.837 64.76 970.941 65.048 971.909 65.624C972.885 66.192 973.649 66.956 974.201 67.916C974.753 68.868 975.029 69.916 975.029 71.06C975.029 71.9 974.869 72.7 974.549 73.46C974.237 74.22 973.793 74.892 973.217 75.476C972.641 76.06 971.961 76.52 971.177 76.856C970.393 77.192 969.529 77.36 968.585 77.36ZM968.585 75.02C969.321 75.02 969.973 74.86 970.541 74.54C971.117 74.212 971.569 73.752 971.897 73.16C972.225 72.568 972.389 71.868 972.389 71.06C972.389 70.252 972.225 69.552 971.897 68.96C971.569 68.36 971.117 67.9 970.541 67.58C969.973 67.26 969.321 67.1 968.585 67.1C967.849 67.1 967.193 67.26 966.617 67.58C966.049 67.9 965.601 68.36 965.273 68.96C964.953 69.552 964.793 70.252 964.793 71.06C964.793 71.868 964.957 72.568 965.285 73.16C965.613 73.752 966.061 74.212 966.629 74.54C967.205 74.86 967.857 75.02 968.585 75.02ZM977.441 77V65.12H980.081V66.632C980.577 65.968 981.153 65.492 981.809 65.204C982.465 64.908 983.145 64.76 983.849 64.76C984.937 64.76 985.837 64.976 986.549 65.408C987.261 65.84 987.789 66.396 988.133 67.076C988.485 67.756 988.661 68.456 988.661 69.176V77H986.021V69.992C986.021 69.144 985.765 68.464 985.253 67.952C984.749 67.44 984.045 67.184 983.141 67.184C982.549 67.184 982.021 67.316 981.557 67.58C981.101 67.844 980.741 68.212 980.477 68.684C980.213 69.148 980.081 69.692 980.081 70.316V77H977.441Z" fill="white"/>
<path d="M907.638 103V90.4H909.654V95.404H915.756V90.4H917.772V103H915.756V97.258H909.654V103H907.638ZM920.87 103V90.4H929.015V92.182H922.886V95.584H928.178V97.267H922.886V101.2H929.069V103H920.87ZM930.551 103L934.637 96.538L930.767 90.4H933.179L936.086 95.053L939.191 90.4H941.531L937.463 96.592L941.648 103H939.227L936.005 98.041L932.9 103H930.551ZM944.598 96.403C944.214 96.403 943.881 96.28 943.599 96.034C943.323 95.788 943.185 95.467 943.185 95.071C943.185 94.801 943.248 94.567 943.374 94.369C943.5 94.165 943.671 94.009 943.887 93.901C944.103 93.787 944.34 93.73 944.598 93.73C944.988 93.73 945.318 93.853 945.588 94.099C945.864 94.339 946.002 94.663 946.002 95.071C946.002 95.335 945.939 95.569 945.813 95.773C945.687 95.971 945.516 96.127 945.3 96.241C945.09 96.349 944.856 96.403 944.598 96.403ZM944.598 103.27C944.214 103.27 943.881 103.147 943.599 102.901C943.323 102.655 943.185 102.334 943.185 101.938C943.185 101.668 943.248 101.434 943.374 101.236C943.5 101.032 943.671 100.876 943.887 100.768C944.103 100.654 944.34 100.597 944.598 100.597C944.988 100.597 945.318 100.72 945.588 100.966C945.864 101.206 946.002 101.53 946.002 101.938C946.002 102.202 945.939 102.436 945.813 102.64C945.687 102.838 945.516 102.991 945.3 103.099C945.09 103.213 944.856 103.27 944.598 103.27ZM952.798 102.568L953.536 99.517H951.997L952.321 98.095H953.869L954.517 95.323H952.969L953.311 93.901H954.841L955.588 90.832H957.055L956.326 93.901H958.99L959.719 90.823H961.204L960.466 93.901H961.996L961.672 95.332H960.133L959.512 98.086H961.042L960.7 99.517H959.161L958.423 102.577H956.938L957.676 99.517H955.021L954.283 102.568H952.798ZM955.345 98.095L958.027 98.086L958.648 95.332L955.966 95.323L955.345 98.095ZM964.162 103V90.4H971.947V92.245H966.178V95.872H971.407V97.672H966.178V103H964.162ZM979.373 103V100.417H973.1V98.896L977.618 90.4H979.67L975.215 98.734H979.373V95.935H981.11V98.734H983.054V100.417H981.11V103H979.373ZM990.795 103.27C989.487 103.27 988.344 103 987.366 102.46C986.388 101.92 985.626 101.158 985.08 100.174C984.54 99.184 984.27 98.029 984.27 96.709C984.27 95.749 984.429 94.87 984.747 94.072C985.071 93.268 985.524 92.572 986.106 91.984C986.694 91.396 987.387 90.94 988.185 90.616C988.983 90.292 989.859 90.13 990.813 90.13C991.773 90.13 992.601 90.25 993.297 90.49C993.999 90.73 994.611 91.072 995.133 91.516L994.089 93.163C993.693 92.797 993.231 92.524 992.703 92.344C992.175 92.164 991.593 92.074 990.957 92.074C990.255 92.074 989.622 92.182 989.058 92.398C988.494 92.614 988.011 92.923 987.609 93.325C987.213 93.721 986.907 94.204 986.691 94.774C986.481 95.338 986.376 95.977 986.376 96.691C986.376 97.663 986.565 98.494 986.943 99.184C987.327 99.874 987.867 100.402 988.563 100.768C989.265 101.128 990.093 101.308 991.047 101.308C991.683 101.308 992.295 101.215 992.883 101.029C993.477 100.837 994.032 100.528 994.548 100.102L995.484 101.803C994.878 102.277 994.185 102.64 993.405 102.892C992.631 103.144 991.761 103.27 990.795 103.27ZM1000.52 103.27C999.998 103.27 999.482 103.216 998.972 103.108C998.468 103 998.003 102.853 997.577 102.667C997.157 102.475 996.812 102.256 996.542 102.01L997.217 100.354C997.595 100.708 998.075 100.99 998.657 101.2C999.239 101.41 999.818 101.515 1000.39 101.515C1000.96 101.515 1001.46 101.419 1001.88 101.227C1002.3 101.035 1002.62 100.765 1002.85 100.417C1003.09 100.069 1003.2 99.658 1003.2 99.184C1003.2 98.464 1002.94 97.903 1002.41 97.501C1001.89 97.099 1001.19 96.898 1000.32 96.898C1000.09 96.898 999.845 96.916 999.593 96.952C999.341 96.982 999.086 97.027 998.828 97.087L998.243 95.764L1002.19 92.092H996.641V90.4H1004.58V91.957L1000.83 95.602C1001.58 95.59 1002.28 95.719 1002.94 95.989C1003.6 96.259 1004.13 96.67 1004.53 97.222C1004.94 97.768 1005.15 98.458 1005.15 99.292C1005.15 100.084 1004.95 100.78 1004.55 101.38C1004.16 101.974 1003.61 102.439 1002.91 102.775C1002.22 103.105 1001.42 103.27 1000.52 103.27ZM1009.84 103V92.524L1006.57 93.721L1006.05 92.155L1011.57 90.13H1011.71V103H1009.84ZM1015.17 103V90.4H1022.95V92.245H1017.19V95.872H1022.41V97.672H1017.19V103H1015.17Z" fill="white"/>
<path d="M1405.66 77.36C1404.5 77.36 1403.36 77.196 1402.25 76.868C1401.14 76.532 1400.21 76.052 1399.45 75.428L1400.77 73.376C1401.17 73.72 1401.64 74.016 1402.16 74.264C1402.7 74.512 1403.27 74.704 1403.87 74.84C1404.47 74.968 1405.07 75.032 1405.67 75.032C1406.76 75.032 1407.65 74.824 1408.32 74.408C1409 73.992 1409.34 73.384 1409.34 72.584C1409.34 71.984 1409.11 71.476 1408.64 71.06C1408.19 70.644 1407.34 70.26 1406.1 69.908L1404.37 69.404C1402.79 68.948 1401.63 68.344 1400.9 67.592C1400.18 66.84 1399.82 65.904 1399.82 64.784C1399.82 64.04 1399.97 63.368 1400.27 62.768C1400.57 62.168 1401 61.648 1401.54 61.208C1402.09 60.768 1402.74 60.432 1403.48 60.2C1404.23 59.968 1405.04 59.852 1405.93 59.852C1407.06 59.852 1408.11 60.016 1409.08 60.344C1410.04 60.672 1410.84 61.112 1411.48 61.664L1410.11 63.656C1409.76 63.344 1409.36 63.076 1408.9 62.852C1408.44 62.628 1407.95 62.456 1407.42 62.336C1406.89 62.216 1406.36 62.156 1405.81 62.156C1405.14 62.156 1404.54 62.256 1404.02 62.456C1403.51 62.648 1403.11 62.928 1402.82 63.296C1402.54 63.664 1402.39 64.112 1402.39 64.64C1402.39 65.024 1402.49 65.36 1402.68 65.648C1402.87 65.936 1403.2 66.2 1403.66 66.44C1404.14 66.672 1404.78 66.908 1405.61 67.148L1407.43 67.688C1408.98 68.144 1410.12 68.74 1410.84 69.476C1411.56 70.204 1411.92 71.152 1411.92 72.32C1411.92 73.32 1411.67 74.2 1411.18 74.96C1410.69 75.712 1409.98 76.3 1409.04 76.724C1408.1 77.148 1406.98 77.36 1405.66 77.36ZM1420.09 77.36C1418.81 77.36 1417.69 77.1 1416.72 76.58C1415.75 76.052 1414.99 75.316 1414.45 74.372C1413.91 73.428 1413.65 72.332 1413.65 71.084C1413.65 70.172 1413.8 69.332 1414.11 68.564C1414.43 67.788 1414.87 67.116 1415.43 66.548C1416 65.98 1416.67 65.54 1417.43 65.228C1418.19 64.916 1419.03 64.76 1419.93 64.76C1420.92 64.76 1421.79 64.936 1422.56 65.288C1423.33 65.632 1423.97 66.116 1424.47 66.74C1424.98 67.364 1425.34 68.096 1425.55 68.936C1425.77 69.768 1425.8 70.672 1425.66 71.648H1416.18C1416.16 72.36 1416.32 72.984 1416.65 73.52C1416.97 74.048 1417.44 74.46 1418.05 74.756C1418.67 75.052 1419.39 75.2 1420.22 75.2C1420.89 75.2 1421.54 75.1 1422.17 74.9C1422.8 74.692 1423.37 74.388 1423.88 73.988L1424.9 75.884C1424.52 76.196 1424.05 76.464 1423.51 76.688C1422.97 76.904 1422.4 77.068 1421.81 77.18C1421.21 77.3 1420.64 77.36 1420.09 77.36ZM1416.33 69.704H1423.07C1423.04 68.808 1422.75 68.104 1422.2 67.592C1421.66 67.08 1420.88 66.824 1419.87 66.824C1418.9 66.824 1418.09 67.08 1417.44 67.592C1416.8 68.104 1416.43 68.808 1416.33 69.704ZM1431.46 77.36C1430.64 77.36 1429.91 77.208 1429.29 76.904C1428.66 76.592 1428.18 76.156 1427.82 75.596C1427.48 75.028 1427.31 74.36 1427.31 73.592C1427.31 72.944 1427.47 72.36 1427.8 71.84C1428.13 71.312 1428.64 70.876 1429.32 70.532C1430.02 70.188 1430.91 69.96 1432 69.848C1433.09 69.728 1434.4 69.744 1435.92 69.896L1435.97 71.72C1434.88 71.568 1433.95 71.504 1433.16 71.528C1432.38 71.552 1431.74 71.652 1431.23 71.828C1430.74 71.996 1430.37 72.224 1430.13 72.512C1429.9 72.792 1429.78 73.116 1429.78 73.484C1429.78 74.06 1429.98 74.504 1430.39 74.816C1430.81 75.128 1431.38 75.284 1432.1 75.284C1432.71 75.284 1433.26 75.172 1433.75 74.948C1434.24 74.724 1434.62 74.408 1434.9 74C1435.19 73.592 1435.34 73.112 1435.34 72.56V69.404C1435.34 68.876 1435.22 68.42 1435 68.036C1434.78 67.644 1434.44 67.34 1433.98 67.124C1433.52 66.908 1432.96 66.8 1432.28 66.8C1431.65 66.8 1431.04 66.896 1430.43 67.088C1429.82 67.272 1429.24 67.564 1428.69 67.964L1427.94 66.02C1428.69 65.516 1429.46 65.16 1430.27 64.952C1431.08 64.744 1431.86 64.64 1432.6 64.64C1433.7 64.64 1434.65 64.816 1435.43 65.168C1436.22 65.512 1436.83 66.036 1437.26 66.74C1437.68 67.436 1437.89 68.316 1437.89 69.38V77H1435.52V75.596C1435.12 76.164 1434.56 76.6 1433.85 76.904C1433.14 77.208 1432.34 77.36 1431.46 77.36ZM1445.17 77.348C1444.19 77.348 1443.27 77.208 1442.41 76.928C1441.55 76.648 1440.83 76.272 1440.25 75.8L1441.25 73.868C1441.8 74.3 1442.42 74.64 1443.11 74.888C1443.8 75.136 1444.49 75.26 1445.16 75.26C1445.93 75.26 1446.54 75.124 1446.97 74.852C1447.4 74.58 1447.62 74.2 1447.62 73.712C1447.62 73.248 1447.43 72.908 1447.05 72.692C1446.69 72.468 1445.98 72.236 1444.94 71.996C1443.45 71.684 1442.36 71.244 1441.68 70.676C1441.01 70.1 1440.67 69.304 1440.67 68.288C1440.67 67.576 1440.87 66.948 1441.26 66.404C1441.66 65.852 1442.21 65.42 1442.9 65.108C1443.6 64.796 1444.4 64.64 1445.31 64.64C1446.2 64.64 1447.04 64.768 1447.82 65.024C1448.61 65.272 1449.29 65.624 1449.86 66.08L1448.93 68.024C1448.63 67.76 1448.29 67.532 1447.89 67.34C1447.5 67.148 1447.09 67 1446.65 66.896C1446.21 66.784 1445.78 66.728 1445.35 66.728C1444.68 66.728 1444.13 66.86 1443.71 67.124C1443.29 67.38 1443.08 67.736 1443.08 68.192C1443.08 68.664 1443.28 69.012 1443.68 69.236C1444.08 69.46 1444.77 69.684 1445.75 69.908C1447.28 70.244 1448.38 70.692 1449.05 71.252C1449.71 71.812 1450.04 72.588 1450.04 73.58C1450.04 74.34 1449.84 75.004 1449.43 75.572C1449.02 76.132 1448.45 76.568 1447.71 76.88C1446.99 77.192 1446.14 77.348 1445.17 77.348ZM1456.08 77.36C1455.26 77.36 1454.53 77.208 1453.91 76.904C1453.29 76.592 1452.8 76.156 1452.45 75.596C1452.1 75.028 1451.93 74.36 1451.93 73.592C1451.93 72.944 1452.09 72.36 1452.42 71.84C1452.75 71.312 1453.26 70.876 1453.95 70.532C1454.64 70.188 1455.53 69.96 1456.62 69.848C1457.71 69.728 1459.02 69.744 1460.55 69.896L1460.59 71.72C1459.51 71.568 1458.57 71.504 1457.79 71.528C1457 71.552 1456.36 71.652 1455.85 71.828C1455.36 71.996 1454.99 72.224 1454.75 72.512C1454.52 72.792 1454.4 73.116 1454.4 73.484C1454.4 74.06 1454.61 74.504 1455.01 74.816C1455.43 75.128 1456 75.284 1456.72 75.284C1457.33 75.284 1457.89 75.172 1458.37 74.948C1458.86 74.724 1459.25 74.408 1459.53 74C1459.81 73.592 1459.96 73.112 1459.96 72.56V69.404C1459.96 68.876 1459.85 68.42 1459.62 68.036C1459.4 67.644 1459.06 67.34 1458.6 67.124C1458.15 66.908 1457.58 66.8 1456.9 66.8C1456.27 66.8 1455.66 66.896 1455.05 67.088C1454.44 67.272 1453.86 67.564 1453.31 67.964L1452.57 66.02C1453.31 65.516 1454.09 65.16 1454.89 64.952C1455.7 64.744 1456.48 64.64 1457.22 64.64C1458.33 64.64 1459.27 64.816 1460.05 65.168C1460.85 65.512 1461.45 66.036 1461.88 66.74C1462.3 67.436 1462.51 68.316 1462.51 69.38V77H1460.14V75.596C1459.74 76.164 1459.18 76.6 1458.47 76.904C1457.76 77.208 1456.96 77.36 1456.08 77.36ZM1465.78 77V59.72H1468.42V77H1465.78ZM1476.84 77.36C1475.68 77.36 1474.75 77.024 1474.06 76.352C1473.36 75.68 1473.01 74.652 1473.01 73.268V61.652H1475.65V65.12H1478.95V67.304H1475.65V72.692C1475.65 73.524 1475.81 74.112 1476.12 74.456C1476.44 74.792 1476.89 74.96 1477.47 74.96C1477.75 74.96 1478.01 74.928 1478.26 74.864C1478.51 74.8 1478.73 74.716 1478.93 74.612L1479.4 76.748C1479.05 76.924 1478.66 77.068 1478.21 77.18C1477.77 77.3 1477.31 77.36 1476.84 77.36ZM1470.41 67.304V65.12H1473.36V67.304H1470.41Z" fill="#333333"/>
<path d="M1399.64 103V90.4H1401.65V95.404H1407.76V90.4H1409.77V103H1407.76V97.258H1401.65V103H1399.64ZM1412.87 103V90.4H1421.02V92.182H1414.89V95.584H1420.18V97.267H1414.89V101.2H1421.07V103H1412.87ZM1422.55 103L1426.64 96.538L1422.77 90.4H1425.18L1428.09 95.053L1431.19 90.4H1433.53L1429.46 96.592L1433.65 103H1431.23L1428 98.041L1424.9 103H1422.55ZM1436.6 96.403C1436.21 96.403 1435.88 96.28 1435.6 96.034C1435.32 95.788 1435.19 95.467 1435.19 95.071C1435.19 94.801 1435.25 94.567 1435.37 94.369C1435.5 94.165 1435.67 94.009 1435.89 93.901C1436.1 93.787 1436.34 93.73 1436.6 93.73C1436.99 93.73 1437.32 93.853 1437.59 94.099C1437.86 94.339 1438 94.663 1438 95.071C1438 95.335 1437.94 95.569 1437.81 95.773C1437.69 95.971 1437.52 96.127 1437.3 96.241C1437.09 96.349 1436.86 96.403 1436.6 96.403ZM1436.6 103.27C1436.21 103.27 1435.88 103.147 1435.6 102.901C1435.32 102.655 1435.19 102.334 1435.19 101.938C1435.19 101.668 1435.25 101.434 1435.37 101.236C1435.5 101.032 1435.67 100.876 1435.89 100.768C1436.1 100.654 1436.34 100.597 1436.6 100.597C1436.99 100.597 1437.32 100.72 1437.59 100.966C1437.86 101.206 1438 101.53 1438 101.938C1438 102.202 1437.94 102.436 1437.81 102.64C1437.69 102.838 1437.52 102.991 1437.3 103.099C1437.09 103.213 1436.86 103.27 1436.6 103.27ZM1444.8 102.568L1445.54 99.517H1444L1444.32 98.095H1445.87L1446.52 95.323H1444.97L1445.31 93.901H1446.84L1447.59 90.832H1449.06L1448.33 93.901H1450.99L1451.72 90.823H1453.2L1452.47 93.901H1454L1453.67 95.332H1452.13L1451.51 98.086H1453.04L1452.7 99.517H1451.16L1450.42 102.577H1448.94L1449.68 99.517H1447.02L1446.28 102.568H1444.8ZM1447.35 98.095L1450.03 98.086L1450.65 95.332L1447.97 95.323L1447.35 98.095ZM1456.16 103V90.4H1463.95V92.245H1458.18V95.872H1463.41V97.672H1458.18V103H1456.16ZM1470.72 103.27C1469.78 103.27 1468.94 103.066 1468.2 102.658C1467.47 102.25 1466.9 101.662 1466.48 100.894C1466.06 100.12 1465.85 99.187 1465.85 98.095C1465.85 97.033 1466.04 96.055 1466.44 95.161C1466.84 94.261 1467.39 93.466 1468.11 92.776C1468.82 92.08 1469.65 91.507 1470.61 91.057C1471.57 90.607 1472.61 90.298 1473.73 90.13L1474.43 91.678C1473.51 91.774 1472.7 91.966 1471.98 92.254C1471.27 92.536 1470.66 92.887 1470.14 93.307C1469.63 93.727 1469.21 94.195 1468.89 94.711C1468.56 95.221 1468.32 95.755 1468.17 96.313C1468.5 95.881 1468.93 95.539 1469.45 95.287C1469.96 95.029 1470.52 94.9 1471.13 94.9C1471.94 94.9 1472.67 95.071 1473.32 95.413C1473.97 95.755 1474.48 96.229 1474.86 96.835C1475.23 97.441 1475.42 98.14 1475.42 98.932C1475.42 99.538 1475.31 100.105 1475.08 100.633C1474.85 101.161 1474.53 101.623 1474.11 102.019C1473.69 102.409 1473.19 102.715 1472.61 102.937C1472.04 103.159 1471.41 103.27 1470.72 103.27ZM1470.72 101.56C1471.26 101.56 1471.73 101.452 1472.15 101.236C1472.56 101.02 1472.88 100.726 1473.12 100.354C1473.36 99.976 1473.48 99.544 1473.48 99.058C1473.48 98.578 1473.36 98.149 1473.11 97.771C1472.87 97.393 1472.54 97.093 1472.12 96.871C1471.71 96.649 1471.24 96.538 1470.72 96.538C1470.2 96.538 1469.73 96.649 1469.31 96.871C1468.9 97.093 1468.57 97.393 1468.32 97.771C1468.08 98.149 1467.96 98.578 1467.96 99.058C1467.96 99.544 1468.08 99.976 1468.31 100.354C1468.55 100.726 1468.88 101.02 1469.29 101.236C1469.71 101.452 1470.18 101.56 1470.72 101.56ZM1477.77 103V90.4H1485.56V92.245H1479.79V95.872H1485.02V97.672H1479.79V103H1477.77ZM1492.34 103.27C1491.39 103.27 1490.55 103.066 1489.82 102.658C1489.09 102.25 1488.51 101.662 1488.09 100.894C1487.67 100.12 1487.46 99.187 1487.46 98.095C1487.46 97.033 1487.66 96.055 1488.05 95.161C1488.45 94.261 1489 93.466 1489.72 92.776C1490.43 92.08 1491.27 91.507 1492.22 91.057C1493.18 90.607 1494.22 90.298 1495.34 90.13L1496.05 91.678C1495.13 91.774 1494.31 91.966 1493.6 92.254C1492.88 92.536 1492.27 92.887 1491.75 93.307C1491.24 93.727 1490.83 94.195 1490.5 94.711C1490.18 95.221 1489.94 95.755 1489.78 96.313C1490.12 95.881 1490.54 95.539 1491.06 95.287C1491.58 95.029 1492.14 94.9 1492.74 94.9C1493.55 94.9 1494.28 95.071 1494.93 95.413C1495.58 95.755 1496.1 96.229 1496.47 96.835C1496.85 97.441 1497.04 98.14 1497.04 98.932C1497.04 99.538 1496.92 100.105 1496.69 100.633C1496.47 101.161 1496.14 101.623 1495.72 102.019C1495.3 102.409 1494.8 102.715 1494.23 102.937C1493.66 103.159 1493.03 103.27 1492.34 103.27ZM1492.34 101.56C1492.87 101.56 1493.35 101.452 1493.76 101.236C1494.17 101.02 1494.5 100.726 1494.73 100.354C1494.97 99.976 1495.09 99.544 1495.09 99.058C1495.09 98.578 1494.97 98.149 1494.72 97.771C1494.48 97.393 1494.15 97.093 1493.73 96.871C1493.32 96.649 1492.85 96.538 1492.34 96.538C1491.82 96.538 1491.34 96.649 1490.92 96.871C1490.51 97.093 1490.18 97.393 1489.93 97.771C1489.69 98.149 1489.57 98.578 1489.57 99.058C1489.57 99.544 1489.69 99.976 1489.93 100.354C1490.17 100.726 1490.49 101.02 1490.91 101.236C1491.32 101.452 1491.8 101.56 1492.34 101.56ZM1499.39 103V90.4H1507.17V92.245H1501.4V95.872H1506.63V97.672H1501.4V103H1499.39ZM1513.95 103.27C1513 103.27 1512.16 103.066 1511.43 102.658C1510.7 102.25 1510.12 101.662 1509.7 100.894C1509.28 100.12 1509.07 99.187 1509.07 98.095C1509.07 97.033 1509.27 96.055 1509.67 95.161C1510.06 94.261 1510.62 93.466 1511.33 92.776C1512.05 92.08 1512.88 91.507 1513.83 91.057C1514.79 90.607 1515.83 90.298 1516.96 90.13L1517.66 91.678C1516.74 91.774 1515.92 91.966 1515.21 92.254C1514.5 92.536 1513.88 92.887 1513.37 93.307C1512.86 93.727 1512.44 94.195 1512.11 94.711C1511.79 95.221 1511.55 95.755 1511.39 96.313C1511.73 95.881 1512.16 95.539 1512.67 95.287C1513.19 95.029 1513.75 94.9 1514.36 94.9C1515.17 94.9 1515.89 95.071 1516.54 95.413C1517.2 95.755 1517.71 96.229 1518.08 96.835C1518.46 97.441 1518.65 98.14 1518.65 98.932C1518.65 99.538 1518.53 100.105 1518.31 100.633C1518.08 101.161 1517.75 101.623 1517.33 102.019C1516.91 102.409 1516.42 102.715 1515.84 102.937C1515.27 103.159 1514.64 103.27 1513.95 103.27ZM1513.95 101.56C1514.48 101.56 1514.96 101.452 1515.37 101.236C1515.79 101.02 1516.11 100.726 1516.34 100.354C1516.58 99.976 1516.7 99.544 1516.7 99.058C1516.7 98.578 1516.58 98.149 1516.34 97.771C1516.1 97.393 1515.77 97.093 1515.35 96.871C1514.93 96.649 1514.47 96.538 1513.95 96.538C1513.43 96.538 1512.96 96.649 1512.54 96.871C1512.12 97.093 1511.79 97.393 1511.55 97.771C1511.31 98.149 1511.19 98.578 1511.19 99.058C1511.19 99.544 1511.3 99.976 1511.54 100.354C1511.78 100.726 1512.11 101.02 1512.52 101.236C1512.93 101.452 1513.41 101.56 1513.95 101.56Z" fill="#333333"/>
<path d="M1402.42 582.36C1401.66 582.36 1400.95 582.26 1400.27 582.06C1399.6 581.868 1398.96 581.596 1398.37 581.244L1399.25 579.036C1399.72 579.308 1400.19 579.52 1400.65 579.672C1401.12 579.816 1401.6 579.888 1402.08 579.888C1403.09 579.888 1403.86 579.648 1404.4 579.168C1404.93 578.688 1405.2 577.908 1405.2 576.828V565.2H1407.89V577.272C1407.89 578.296 1407.68 579.192 1407.25 579.96C1406.83 580.72 1406.21 581.312 1405.39 581.736C1404.58 582.152 1403.58 582.36 1402.42 582.36ZM1417.07 582.36C1415.79 582.36 1414.66 582.1 1413.69 581.58C1412.73 581.052 1411.97 580.316 1411.43 579.372C1410.89 578.428 1410.62 577.332 1410.62 576.084C1410.62 575.172 1410.78 574.332 1411.09 573.564C1411.4 572.788 1411.84 572.116 1412.41 571.548C1412.98 570.98 1413.64 570.54 1414.4 570.228C1415.17 569.916 1416.01 569.76 1416.91 569.76C1417.89 569.76 1418.77 569.936 1419.54 570.288C1420.31 570.632 1420.94 571.116 1421.45 571.74C1421.96 572.364 1422.32 573.096 1422.53 573.936C1422.74 574.768 1422.78 575.672 1422.63 576.648H1413.15C1413.14 577.36 1413.29 577.984 1413.62 578.52C1413.95 579.048 1414.42 579.46 1415.03 579.756C1415.64 580.052 1416.37 580.2 1417.2 580.2C1417.87 580.2 1418.52 580.1 1419.14 579.9C1419.77 579.692 1420.35 579.388 1420.86 578.988L1421.88 580.884C1421.49 581.196 1421.03 581.464 1420.49 581.688C1419.94 581.904 1419.37 582.068 1418.78 582.18C1418.19 582.3 1417.62 582.36 1417.07 582.36ZM1413.31 574.704H1420.04C1420.02 573.808 1419.73 573.104 1419.18 572.592C1418.63 572.08 1417.86 571.824 1416.85 571.824C1415.87 571.824 1415.06 572.08 1414.41 572.592C1413.77 573.104 1413.41 573.808 1413.31 574.704ZM1430.01 582.36C1428.85 582.36 1427.92 582.024 1427.23 581.352C1426.53 580.68 1426.18 579.652 1426.18 578.268V566.652H1428.82V570.12H1432.12V572.304H1428.82V577.692C1428.82 578.524 1428.98 579.112 1429.29 579.456C1429.61 579.792 1430.06 579.96 1430.64 579.96C1430.92 579.96 1431.18 579.928 1431.43 579.864C1431.68 579.8 1431.9 579.716 1432.1 579.612L1432.57 581.748C1432.22 581.924 1431.83 582.068 1431.38 582.18C1430.94 582.3 1430.48 582.36 1430.01 582.36ZM1423.58 572.304V570.12H1426.53V572.304H1423.58Z" fill="white"/>
<path d="M1399.64 608V595.4H1401.65V600.404H1407.76V595.4H1409.77V608H1407.76V602.258H1401.65V608H1399.64ZM1412.87 608V595.4H1421.02V597.182H1414.89V600.584H1420.18V602.267H1414.89V606.2H1421.07V608H1412.87ZM1422.55 608L1426.64 601.538L1422.77 595.4H1425.18L1428.09 600.053L1431.19 595.4H1433.53L1429.46 601.592L1433.65 608H1431.23L1428 603.041L1424.9 608H1422.55ZM1436.6 601.403C1436.21 601.403 1435.88 601.28 1435.6 601.034C1435.32 600.788 1435.19 600.467 1435.19 600.071C1435.19 599.801 1435.25 599.567 1435.37 599.369C1435.5 599.165 1435.67 599.009 1435.89 598.901C1436.1 598.787 1436.34 598.73 1436.6 598.73C1436.99 598.73 1437.32 598.853 1437.59 599.099C1437.86 599.339 1438 599.663 1438 600.071C1438 600.335 1437.94 600.569 1437.81 600.773C1437.69 600.971 1437.52 601.127 1437.3 601.241C1437.09 601.349 1436.86 601.403 1436.6 601.403ZM1436.6 608.27C1436.21 608.27 1435.88 608.147 1435.6 607.901C1435.32 607.655 1435.19 607.334 1435.19 606.938C1435.19 606.668 1435.25 606.434 1435.37 606.236C1435.5 606.032 1435.67 605.876 1435.89 605.768C1436.1 605.654 1436.34 605.597 1436.6 605.597C1436.99 605.597 1437.32 605.72 1437.59 605.966C1437.86 606.206 1438 606.53 1438 606.938C1438 607.202 1437.94 607.436 1437.81 607.64C1437.69 607.838 1437.52 607.991 1437.3 608.099C1437.09 608.213 1436.86 608.27 1436.6 608.27ZM1444.8 607.568L1445.54 604.517H1444L1444.32 603.095H1445.87L1446.52 600.323H1444.97L1445.31 598.901H1446.84L1447.59 595.832H1449.06L1448.33 598.901H1450.99L1451.72 595.823H1453.2L1452.47 598.901H1454L1453.67 600.332H1452.13L1451.51 603.086H1453.04L1452.7 604.517H1451.16L1450.42 607.577H1448.94L1449.68 604.517H1447.02L1446.28 607.568H1444.8ZM1447.35 603.095L1450.03 603.086L1450.65 600.332L1447.97 600.323L1447.35 603.095ZM1459.26 608.27C1458.74 608.27 1458.22 608.216 1457.71 608.108C1457.21 608 1456.74 607.853 1456.31 607.667C1455.89 607.475 1455.55 607.256 1455.28 607.01L1455.95 605.354C1456.33 605.708 1456.81 605.99 1457.39 606.2C1457.98 606.41 1458.56 606.515 1459.13 606.515C1459.7 606.515 1460.2 606.419 1460.62 606.227C1461.04 606.035 1461.36 605.765 1461.59 605.417C1461.82 605.069 1461.94 604.658 1461.94 604.184C1461.94 603.464 1461.68 602.903 1461.15 602.501C1460.63 602.099 1459.93 601.898 1459.06 601.898C1458.83 601.898 1458.58 601.916 1458.33 601.952C1458.08 601.982 1457.82 602.027 1457.57 602.087L1456.98 600.764L1460.92 597.092H1455.38V595.4H1463.32V596.957L1459.56 600.602C1460.31 600.59 1461.02 600.719 1461.68 600.989C1462.34 601.259 1462.87 601.67 1463.27 602.222C1463.68 602.768 1463.88 603.458 1463.88 604.292C1463.88 605.084 1463.69 605.78 1463.29 606.38C1462.89 606.974 1462.35 607.439 1461.65 607.775C1460.96 608.105 1460.16 608.27 1459.26 608.27ZM1469.55 608.27C1469.03 608.27 1468.52 608.216 1468.01 608.108C1467.5 608 1467.04 607.853 1466.61 607.667C1466.19 607.475 1465.85 607.256 1465.58 607.01L1466.25 605.354C1466.63 605.708 1467.11 605.99 1467.69 606.2C1468.27 606.41 1468.85 606.515 1469.43 606.515C1470 606.515 1470.49 606.419 1470.91 606.227C1471.33 606.035 1471.66 605.765 1471.89 605.417C1472.12 605.069 1472.24 604.658 1472.24 604.184C1472.24 603.464 1471.97 602.903 1471.44 602.501C1470.92 602.099 1470.23 601.898 1469.36 601.898C1469.12 601.898 1468.88 601.916 1468.63 601.952C1468.38 601.982 1468.12 602.027 1467.86 602.087L1467.28 600.764L1471.22 597.092H1465.68V595.4H1473.61V596.957L1469.86 600.602C1470.61 600.59 1471.32 600.719 1471.98 600.989C1472.64 601.259 1473.17 601.67 1473.57 602.222C1473.98 602.768 1474.18 603.458 1474.18 604.292C1474.18 605.084 1473.98 605.78 1473.59 606.38C1473.19 606.974 1472.64 607.439 1471.95 607.775C1471.25 608.105 1470.45 608.27 1469.55 608.27ZM1479.85 608.27C1479.33 608.27 1478.81 608.216 1478.3 608.108C1477.8 608 1477.33 607.853 1476.91 607.667C1476.49 607.475 1476.14 607.256 1475.87 607.01L1476.55 605.354C1476.93 605.708 1477.41 605.99 1477.99 606.2C1478.57 606.41 1479.15 606.515 1479.72 606.515C1480.29 606.515 1480.79 606.419 1481.21 606.227C1481.63 606.035 1481.95 605.765 1482.18 605.417C1482.42 605.069 1482.53 604.658 1482.53 604.184C1482.53 603.464 1482.27 602.903 1481.74 602.501C1481.22 602.099 1480.52 601.898 1479.65 601.898C1479.42 601.898 1479.18 601.916 1478.92 601.952C1478.67 601.982 1478.42 602.027 1478.16 602.087L1477.57 600.764L1481.52 597.092H1475.97V595.4H1483.91V596.957L1480.16 600.602C1480.91 600.59 1481.61 600.719 1482.27 600.989C1482.93 601.259 1483.46 601.67 1483.86 602.222C1484.27 602.768 1484.48 603.458 1484.48 604.292C1484.48 605.084 1484.28 605.78 1483.88 606.38C1483.49 606.974 1482.94 607.439 1482.24 607.775C1481.55 608.105 1480.75 608.27 1479.85 608.27ZM1490.15 608.27C1489.63 608.27 1489.11 608.216 1488.6 608.108C1488.1 608 1487.63 607.853 1487.2 607.667C1486.78 607.475 1486.44 607.256 1486.17 607.01L1486.84 605.354C1487.22 605.708 1487.7 605.99 1488.28 606.2C1488.87 606.41 1489.45 606.515 1490.02 606.515C1490.59 606.515 1491.09 606.419 1491.51 606.227C1491.93 606.035 1492.25 605.765 1492.48 605.417C1492.71 605.069 1492.83 604.658 1492.83 604.184C1492.83 603.464 1492.57 602.903 1492.04 602.501C1491.52 602.099 1490.82 601.898 1489.95 601.898C1489.72 601.898 1489.47 601.916 1489.22 601.952C1488.97 601.982 1488.71 602.027 1488.46 602.087L1487.87 600.764L1491.81 597.092H1486.27V595.4H1494.21V596.957L1490.45 600.602C1491.2 600.59 1491.91 600.719 1492.57 600.989C1493.23 601.259 1493.76 601.67 1494.16 602.222C1494.57 602.768 1494.77 603.458 1494.77 604.292C1494.77 605.084 1494.58 605.78 1494.18 606.38C1493.78 606.974 1493.24 607.439 1492.54 607.775C1491.85 608.105 1491.05 608.27 1490.15 608.27ZM1500.44 608.27C1499.92 608.27 1499.41 608.216 1498.9 608.108C1498.39 608 1497.93 607.853 1497.5 607.667C1497.08 607.475 1496.74 607.256 1496.47 607.01L1497.14 605.354C1497.52 605.708 1498 605.99 1498.58 606.2C1499.16 606.41 1499.74 606.515 1500.32 606.515C1500.89 606.515 1501.38 606.419 1501.8 606.227C1502.22 606.035 1502.55 605.765 1502.77 605.417C1503.01 605.069 1503.13 604.658 1503.13 604.184C1503.13 603.464 1502.86 602.903 1502.33 602.501C1501.81 602.099 1501.12 601.898 1500.25 601.898C1500.01 601.898 1499.77 601.916 1499.52 601.952C1499.26 601.982 1499.01 602.027 1498.75 602.087L1498.17 600.764L1502.11 597.092H1496.56V595.4H1504.5V596.957L1500.75 600.602C1501.5 600.59 1502.2 600.719 1502.86 600.989C1503.52 601.259 1504.06 601.67 1504.46 602.222C1504.87 602.768 1505.07 603.458 1505.07 604.292C1505.07 605.084 1504.87 605.78 1504.48 606.38C1504.08 606.974 1503.53 607.439 1502.84 607.775C1502.14 608.105 1501.34 608.27 1500.44 608.27ZM1510.74 608.27C1510.22 608.27 1509.7 608.216 1509.19 608.108C1508.69 608 1508.22 607.853 1507.8 607.667C1507.38 607.475 1507.03 607.256 1506.76 607.01L1507.44 605.354C1507.82 605.708 1508.3 605.99 1508.88 606.2C1509.46 606.41 1510.04 606.515 1510.61 606.515C1511.18 606.515 1511.68 606.419 1512.1 606.227C1512.52 606.035 1512.84 605.765 1513.07 605.417C1513.31 605.069 1513.42 604.658 1513.42 604.184C1513.42 603.464 1513.16 602.903 1512.63 602.501C1512.11 602.099 1511.41 601.898 1510.54 601.898C1510.31 601.898 1510.07 601.916 1509.81 601.952C1509.56 601.982 1509.31 602.027 1509.05 602.087L1508.46 600.764L1512.41 597.092H1506.86V595.4H1514.8V596.957L1511.05 600.602C1511.8 600.59 1512.5 600.719 1513.16 600.989C1513.82 601.259 1514.35 601.67 1514.75 602.222C1515.16 602.768 1515.37 603.458 1515.37 604.292C1515.37 605.084 1515.17 605.78 1514.77 606.38C1514.38 606.974 1513.83 607.439 1513.13 607.775C1512.44 608.105 1511.64 608.27 1510.74 608.27Z" fill="white"/>
<path d="M908.184 582V565.2H910.788L917.64 576.348L916.596 576.36L923.196 565.2H925.752V582H923.124L923.16 568.776L923.676 568.956L917.964 578.376H915.996L910.176 568.956L910.608 568.776L910.644 582H908.184ZM929.534 582V570.12H932.174V582H929.534ZM930.854 567.996C930.382 567.996 929.974 567.844 929.63 567.54C929.286 567.236 929.114 566.836 929.114 566.34C929.114 565.852 929.286 565.456 929.63 565.152C929.974 564.84 930.382 564.684 930.854 564.684C931.326 564.684 931.734 564.84 932.078 565.152C932.422 565.456 932.594 565.852 932.594 566.34C932.594 566.836 932.422 567.236 932.078 567.54C931.734 567.844 931.326 567.996 930.854 567.996ZM935.598 582V570.12H938.238V571.632C938.734 570.968 939.31 570.492 939.966 570.204C940.622 569.908 941.302 569.76 942.006 569.76C943.094 569.76 943.994 569.976 944.706 570.408C945.418 570.84 945.946 571.396 946.29 572.076C946.642 572.756 946.818 573.456 946.818 574.176V582H944.178V574.992C944.178 574.144 943.922 573.464 943.41 572.952C942.906 572.44 942.202 572.184 941.298 572.184C940.706 572.184 940.178 572.316 939.714 572.58C939.258 572.844 938.898 573.212 938.634 573.684C938.37 574.148 938.238 574.692 938.238 575.316V582H935.598ZM954.881 582.36C953.721 582.36 952.793 582.024 952.097 581.352C951.401 580.68 951.053 579.652 951.053 578.268V566.652H953.693V570.12H956.993V572.304H953.693V577.692C953.693 578.524 953.849 579.112 954.161 579.456C954.481 579.792 954.929 579.96 955.505 579.96C955.785 579.96 956.049 579.928 956.297 579.864C956.545 579.8 956.769 579.716 956.969 579.612L957.437 581.748C957.093 581.924 956.697 582.068 956.249 582.18C955.809 582.3 955.353 582.36 954.881 582.36ZM948.449 572.304V570.12H951.401V572.304H948.449ZM971.053 582.36C969.805 582.36 968.693 582.088 967.717 581.544C966.741 580.992 965.973 580.244 965.413 579.3C964.861 578.348 964.585 577.268 964.585 576.06C964.585 575.148 964.749 574.312 965.077 573.552C965.405 572.784 965.869 572.116 966.469 571.548C967.069 570.98 967.773 570.54 968.581 570.228C969.397 569.916 970.281 569.76 971.233 569.76C972.033 569.76 972.773 569.868 973.453 570.084C974.141 570.292 974.773 570.616 975.349 571.056L974.077 573.072C973.709 572.744 973.285 572.5 972.805 572.34C972.333 572.18 971.829 572.1 971.293 572.1C970.461 572.1 969.745 572.256 969.145 572.568C968.545 572.88 968.077 573.332 967.741 573.924C967.413 574.508 967.249 575.216 967.249 576.048C967.249 577.288 967.609 578.26 968.329 578.964C969.057 579.668 970.045 580.02 971.293 580.02C971.885 580.02 972.445 579.912 972.973 579.696C973.501 579.472 973.941 579.18 974.293 578.82L975.553 580.824C974.921 581.304 974.217 581.68 973.441 581.952C972.665 582.224 971.869 582.36 971.053 582.36ZM977.74 582V570.12H980.38V571.764C980.828 571.02 981.372 570.5 982.012 570.204C982.652 569.9 983.34 569.748 984.076 569.748C984.316 569.748 984.544 569.76 984.76 569.784C984.976 569.808 985.184 569.844 985.384 569.892L985.036 572.616C984.796 572.544 984.552 572.488 984.304 572.448C984.056 572.408 983.808 572.388 983.56 572.388C982.64 572.388 981.88 572.672 981.28 573.24C980.68 573.8 980.38 574.564 980.38 575.532V582H977.74ZM992.533 582.36C991.253 582.36 990.129 582.1 989.161 581.58C988.193 581.052 987.437 580.316 986.893 579.372C986.357 578.428 986.089 577.332 986.089 576.084C986.089 575.172 986.245 574.332 986.557 573.564C986.869 572.788 987.309 572.116 987.877 571.548C988.445 570.98 989.109 570.54 989.869 570.228C990.637 569.916 991.473 569.76 992.377 569.76C993.361 569.76 994.237 569.936 995.005 570.288C995.773 570.632 996.409 571.116 996.913 571.74C997.425 572.364 997.785 573.096 997.993 573.936C998.209 574.768 998.245 575.672 998.101 576.648H988.621C988.605 577.36 988.761 577.984 989.089 578.52C989.417 579.048 989.885 579.46 990.493 579.756C991.109 580.052 991.833 580.2 992.665 580.2C993.337 580.2 993.985 580.1 994.609 579.9C995.241 579.692 995.813 579.388 996.325 578.988L997.345 580.884C996.961 581.196 996.497 581.464 995.953 581.688C995.409 581.904 994.841 582.068 994.249 582.18C993.657 582.3 993.085 582.36 992.533 582.36ZM988.777 574.704H995.509C995.485 573.808 995.197 573.104 994.645 572.592C994.101 572.08 993.325 571.824 992.317 571.824C991.341 571.824 990.529 572.08 989.881 572.592C989.241 573.104 988.873 573.808 988.777 574.704ZM1003.9 582.36C1003.08 582.36 1002.36 582.208 1001.73 581.904C1001.11 581.592 1000.62 581.156 1000.27 580.596C999.924 580.028 999.752 579.36 999.752 578.592C999.752 577.944 999.916 577.36 1000.24 576.84C1000.57 576.312 1001.08 575.876 1001.77 575.532C1002.46 575.188 1003.36 574.96 1004.44 574.848C1005.53 574.728 1006.84 574.744 1008.37 574.896L1008.42 576.72C1007.33 576.568 1006.39 576.504 1005.61 576.528C1004.82 576.552 1004.18 576.652 1003.68 576.828C1003.18 576.996 1002.81 577.224 1002.57 577.512C1002.34 577.792 1002.22 578.116 1002.22 578.484C1002.22 579.06 1002.43 579.504 1002.84 579.816C1003.25 580.128 1003.82 580.284 1004.54 580.284C1005.16 580.284 1005.71 580.172 1006.2 579.948C1006.68 579.724 1007.07 579.408 1007.35 579C1007.64 578.592 1007.78 578.112 1007.78 577.56V574.404C1007.78 573.876 1007.67 573.42 1007.44 573.036C1007.22 572.644 1006.88 572.34 1006.42 572.124C1005.97 571.908 1005.4 571.8 1004.72 571.8C1004.1 571.8 1003.48 571.896 1002.87 572.088C1002.26 572.272 1001.68 572.564 1001.13 572.964L1000.39 571.02C1001.13 570.516 1001.91 570.16 1002.72 569.952C1003.52 569.744 1004.3 569.64 1005.04 569.64C1006.15 569.64 1007.09 569.816 1007.88 570.168C1008.67 570.512 1009.28 571.036 1009.7 571.74C1010.12 572.436 1010.34 573.316 1010.34 574.38V582H1007.96V580.596C1007.56 581.164 1007 581.6 1006.29 581.904C1005.58 582.208 1004.78 582.36 1003.9 582.36ZM1013.61 582V570.12H1016.25V571.752C1016.57 571.288 1016.93 570.912 1017.35 570.624C1017.77 570.328 1018.21 570.112 1018.67 569.976C1019.13 569.832 1019.61 569.76 1020.09 569.76C1021.05 569.76 1021.86 569.972 1022.5 570.396C1023.15 570.82 1023.6 571.364 1023.87 572.028C1024.46 571.164 1025.15 570.572 1025.93 570.252C1026.71 569.924 1027.5 569.76 1028.29 569.76C1029.39 569.76 1030.27 569.976 1030.92 570.408C1031.58 570.84 1032.05 571.396 1032.34 572.076C1032.63 572.756 1032.78 573.456 1032.78 574.176V582H1030.14V574.944C1030.14 574.12 1029.91 573.456 1029.46 572.952C1029.01 572.44 1028.35 572.184 1027.49 572.184C1026.92 572.184 1026.41 572.308 1025.97 572.556C1025.52 572.804 1025.16 573.148 1024.9 573.588C1024.64 574.02 1024.51 574.52 1024.51 575.088V582H1021.87V574.944C1021.87 574.12 1021.65 573.456 1021.2 572.952C1020.75 572.44 1020.09 572.184 1019.22 572.184C1018.66 572.184 1018.15 572.308 1017.7 572.556C1017.25 572.804 1016.89 573.148 1016.63 573.588C1016.37 574.02 1016.25 574.52 1016.25 575.088V582H1013.61Z" fill="#333333"/>
<path d="M907.638 608V595.4H909.654V600.404H915.756V595.4H917.772V608H915.756V602.258H909.654V608H907.638ZM920.87 608V595.4H929.015V597.182H922.886V600.584H928.178V602.267H922.886V606.2H929.069V608H920.87ZM930.551 608L934.637 601.538L930.767 595.4H933.179L936.086 600.053L939.191 595.4H941.531L937.463 601.592L941.648 608H939.227L936.005 603.041L932.9 608H930.551ZM944.598 601.403C944.214 601.403 943.881 601.28 943.599 601.034C943.323 600.788 943.185 600.467 943.185 600.071C943.185 599.801 943.248 599.567 943.374 599.369C943.5 599.165 943.671 599.009 943.887 598.901C944.103 598.787 944.34 598.73 944.598 598.73C944.988 598.73 945.318 598.853 945.588 599.099C945.864 599.339 946.002 599.663 946.002 600.071C946.002 600.335 945.939 600.569 945.813 600.773C945.687 600.971 945.516 601.127 945.3 601.241C945.09 601.349 944.856 601.403 944.598 601.403ZM944.598 608.27C944.214 608.27 943.881 608.147 943.599 607.901C943.323 607.655 943.185 607.334 943.185 606.938C943.185 606.668 943.248 606.434 943.374 606.236C943.5 606.032 943.671 605.876 943.887 605.768C944.103 605.654 944.34 605.597 944.598 605.597C944.988 605.597 945.318 605.72 945.588 605.966C945.864 606.206 946.002 606.53 946.002 606.938C946.002 607.202 945.939 607.436 945.813 607.64C945.687 607.838 945.516 607.991 945.3 608.099C945.09 608.213 944.856 608.27 944.598 608.27ZM952.798 607.568L953.536 604.517H951.997L952.321 603.095H953.869L954.517 600.323H952.969L953.311 598.901H954.841L955.588 595.832H957.055L956.326 598.901H958.99L959.719 595.823H961.204L960.466 598.901H961.996L961.672 600.332H960.133L959.512 603.086H961.042L960.7 604.517H959.161L958.423 607.577H956.938L957.676 604.517H955.021L954.283 607.568H952.798ZM955.345 603.095L958.027 603.086L958.648 600.332L955.966 600.323L955.345 603.095ZM964.162 608V595.4H972.307V597.182H966.178V600.584H971.47V602.267H966.178V606.2H972.361V608H964.162ZM975.003 608V595.4H983.148V597.182H977.019V600.584H982.311V602.267H977.019V606.2H983.202V608H975.003ZM985.844 608V595.4H993.629V597.245H987.86V600.872H993.089V602.672H987.86V608H985.844ZM996.043 608L1001.35 597.218H995.35V595.4H1003.6V596.903L998.203 608H996.043ZM1005.89 608V595.4H1013.68V597.245H1007.91V600.872H1013.14V602.672H1007.91V608H1005.89ZM1021.1 608V605.417H1014.83V603.896L1019.35 595.4H1021.4L1016.95 603.734H1021.1V600.935H1022.84V603.734H1024.79V605.417H1022.84V608H1021.1Z" fill="#333333"/>
</svg>
