<svg xmlns="http://www.w3.org/2000/svg" width="1811" height="1006" fill="none" xmlns:v="https://vecta.io/nano"><rect width="1811" height="1006" rx="28" fill="#fff"/><rect x="16" y="16" width="818" height="974" rx="20" fill="#10664f"/><rect x="874" y="16" width="438" height="467" rx="20" fill="#f4c31f"/><rect x="1352" y="16" width="438" height="467" rx="20" fill="#f6f6f6"/><rect x="874" y="523" width="438" height="467" rx="20" fill="#eef7f4"/><rect x="1352" y="523" width="438" height="467" rx="20" fill="#333"/><g fill="#fff"><path d="M64.84 77.36c-1.744 0-3.268-.36-4.572-1.08s-2.32-1.736-3.048-3.048c-.72-1.32-1.08-2.86-1.08-4.62 0-1.28.212-2.452.636-3.516a8.34 8.34 0 0 1 1.812-2.784c.784-.784 1.708-1.392 2.772-1.824s2.232-.648 3.504-.648c1.28 0 2.384.16 3.312.48.936.32 1.752.776 2.448 1.368l-1.392 2.196c-.528-.488-1.144-.852-1.848-1.092s-1.48-.36-2.328-.36c-.936 0-1.78.144-2.532.432a5.45 5.45 0 0 0-1.932 1.236c-.528.528-.936 1.172-1.224 1.932-.28.752-.42 1.604-.42 2.556 0 1.296.252 2.404.756 3.324.512.92 1.232 1.624 2.16 2.112.936.48 2.04.72 3.312.72.848 0 1.664-.124 2.448-.372.792-.256 1.532-.668 2.22-1.236l1.248 2.268c-.808.632-1.732 1.116-2.772 1.452-1.032.336-2.192.504-3.48.504zm11.79 0c-.824 0-1.548-.152-2.172-.456-.624-.312-1.112-.748-1.464-1.308-.344-.568-.516-1.236-.516-2.004 0-.648.164-1.232.492-1.752.328-.528.836-.964 1.524-1.308.696-.344 1.588-.572 2.676-.684 1.088-.12 2.396-.104 3.924.048l.048 1.824c-1.088-.152-2.024-.216-2.808-.192s-1.428.124-1.932.3c-.496.168-.864.396-1.104.684a1.48 1.48 0 0 0-.348.972c0 .576.204 1.02.612 1.332.416.312.984.468 1.704.468.616 0 1.168-.112 1.656-.336s.872-.54 1.152-.948c.288-.408.432-.888.432-1.44v-3.156c0-.528-.112-.984-.336-1.368-.224-.392-.564-.696-1.02-.912s-1.024-.324-1.704-.324c-.624 0-1.24.096-1.848.288a5.84 5.84 0 0 0-1.74.876l-.744-1.944c.744-.504 1.52-.86 2.328-1.068s1.584-.312 2.328-.312c1.104 0 2.048.176 2.832.528.792.344 1.4.868 1.824 1.572.424.696.636 1.576.636 2.64V77h-2.376v-1.404c-.4.568-.956 1.004-1.668 1.308s-1.508.456-2.388.456zm13.71-.012c-.984 0-1.904-.14-2.76-.42s-1.576-.656-2.16-1.128l.996-1.932c.552.432 1.172.772 1.86 1.02.696.248 1.38.372 2.052.372.776 0 1.38-.136 1.812-.408s.648-.652.648-1.14c0-.464-.188-.804-.564-1.02-.368-.224-1.072-.456-2.112-.696-1.496-.312-2.584-.752-3.264-1.32-.672-.576-1.008-1.372-1.008-2.388 0-.712.196-1.34.588-1.884.4-.552.948-.984 1.644-1.296s1.5-.468 2.412-.468a8.03 8.03 0 0 1 2.508.384c.784.248 1.464.6 2.04 1.056l-.936 1.944c-.296-.264-.64-.492-1.032-.684s-.808-.34-1.248-.444c-.432-.112-.864-.168-1.296-.168-.672 0-1.22.132-1.644.396-.416.256-.624.612-.624 1.068 0 .472.2.82.6 1.044s1.088.448 2.064.672c1.536.336 2.636.784 3.3 1.344s.996 1.336.996 2.328c0 .76-.204 1.424-.612 1.992-.408.56-.98.996-1.716 1.308-.728.312-1.576.468-2.544.468zm12.603.012c-1.16 0-2.088-.336-2.784-1.008s-1.044-1.7-1.044-3.084V61.652h2.64v3.468h3.3v2.184h-3.3v5.388c0 .832.156 1.42.468 1.764.32.336.768.504 1.344.504a3.16 3.16 0 0 0 .792-.096 3.17 3.17 0 0 0 .672-.252l.468 2.136c-.344.176-.74.32-1.188.432-.44.12-.896.18-1.368.18zm-6.432-10.056V65.12h2.952v2.184h-2.952zM108.024 77V59.72h2.64V77h-2.64zm11.489.36c-1.28 0-2.404-.26-3.372-.78-.968-.528-1.724-1.264-2.268-2.208-.536-.944-.804-2.04-.804-3.288 0-.912.156-1.752.468-2.52a5.96 5.96 0 0 1 1.32-2.016c.568-.568 1.232-1.008 1.992-1.32.768-.312 1.604-.468 2.508-.468.984 0 1.86.176 2.628.528.768.344 1.404.828 1.908 1.452a5.49 5.49 0 0 1 1.08 2.196c.216.832.252 1.736.108 2.712h-9.48c-.016.712.14 1.336.468 1.872.328.528.796.94 1.404 1.236.616.296 1.34.444 2.172.444a6.33 6.33 0 0 0 1.944-.3c.632-.208 1.204-.512 1.716-.912l1.02 1.896c-.384.312-.848.58-1.392.804a9.28 9.28 0 0 1-1.704.492c-.592.12-1.164.18-1.716.18zm-3.756-7.656h6.732c-.024-.896-.312-1.6-.864-2.112-.544-.512-1.32-.768-2.328-.768-.976 0-1.788.256-2.436.768-.64.512-1.008 1.216-1.104 2.112zm16.701 7.656c-1.16 0-2.088-.336-2.784-1.008s-1.044-1.7-1.044-3.084V61.652h2.64v3.468h3.3v2.184h-3.3v5.388c0 .832.156 1.42.468 1.764.32.336.768.504 1.344.504a3.16 3.16 0 0 0 .792-.096 3.17 3.17 0 0 0 .672-.252l.468 2.136c-.344.176-.74.32-1.188.432-.44.12-.896.18-1.368.18zm-6.432-10.056V65.12h2.952v2.184h-2.952zm16.855 10.056c-1.24 0-2.348-.284-3.325-.852-.968-.576-1.728-1.34-2.28-2.292a6.22 6.22 0 0 1-.828-3.156 6.2 6.2 0 0 1 .468-2.4 6.36 6.36 0 0 1 1.344-2.016 6.48 6.48 0 0 1 2.052-1.38c.785-.336 1.645-.504 2.58-.504 1.241 0 2.345.288 3.313.864.976.568 1.739 1.332 2.292 2.292.552.952.828 2 .828 3.144a6.12 6.12 0 0 1-.48 2.4c-.312.76-.756 1.432-1.332 2.016a6.34 6.34 0 0 1-2.04 1.38c-.784.336-1.648.504-2.592.504zm0-2.34c.736 0 1.388-.16 1.955-.48a3.51 3.51 0 0 0 1.357-1.38c.328-.592.492-1.292.492-2.1s-.164-1.508-.492-2.1a3.41 3.41 0 0 0-1.357-1.38c-.567-.32-1.219-.48-1.955-.48s-1.393.16-1.968.48c-.569.32-1.017.78-1.345 1.38-.32.592-.48 1.292-.48 2.1s.164 1.508.493 2.1a3.53 3.53 0 0 0 1.343 1.38c.576.32 1.228.48 1.957.48zm8.855 1.98V65.12h2.64v1.512c.496-.664 1.072-1.14 1.728-1.428.656-.296 1.336-.444 2.04-.444 1.088 0 1.988.216 2.7.648s1.24.988 1.584 1.668c.352.68.528 1.38.528 2.1V77h-2.64v-7.008c0-.848-.256-1.528-.768-2.04-.504-.512-1.208-.768-2.112-.768-.592 0-1.12.132-1.584.396-.456.264-.816.632-1.08 1.104-.264.464-.396 1.008-.396 1.632V77h-2.64zm24.849 5.4c-.888 0-1.688-.08-2.4-.24-.712-.152-1.32-.376-1.824-.672-.496-.296-.876-.652-1.14-1.068s-.396-.88-.396-1.392a2.2 2.2 0 0 1 .324-1.152c.224-.36.552-.668.984-.924.44-.264.976-.46 1.608-.588-.472-.24-.824-.512-1.056-.816-.224-.304-.336-.652-.336-1.044a1.71 1.71 0 0 1 .288-.948c.2-.304.48-.572.84-.804.368-.24.8-.436 1.296-.588s1.044-.24 1.644-.264l.576 1.152c-.496-.008-.92.032-1.272.12-.344.08-.612.196-.804.348-.184.144-.276.32-.276.528 0 .272.156.472.468.6.312.12.752.204 1.32.252l2.04.156c1 .08 1.852.244 2.556.492.712.248 1.256.596 1.632 1.044.384.448.576 1.016.576 1.704a2.93 2.93 0 0 1-.48 1.62c-.312.504-.764.94-1.356 1.308-.584.368-1.284.656-2.1.864s-1.72.312-2.712.312zm.264-1.824c1.192 0 2.128-.18 2.808-.54.688-.352 1.032-.812 1.032-1.38 0-.432-.228-.768-.684-1.008s-1.152-.392-2.088-.456l-2.184-.168c-.512.04-.956.136-1.332.288-.368.152-.648.348-.84.588a1.27 1.27 0 0 0-.288.816c0 .368.144.692.432.972s.7.496 1.236.648c.536.16 1.172.24 1.908.24zm-.084-7.344c-.992 0-1.884-.188-2.676-.564-.784-.376-1.404-.884-1.86-1.524s-.684-1.356-.684-2.148.228-1.508.684-2.148c.464-.64 1.088-1.148 1.872-1.524.792-.376 1.68-.564 2.664-.564s1.868.188 2.652.564 1.404.884 1.86 1.524a3.57 3.57 0 0 1 .696 2.148c0 .784-.228 1.496-.684 2.136s-1.076 1.152-1.86 1.536c-.784.376-1.672.564-2.664.564zm0-1.98c.544 0 1.028-.092 1.452-.276.424-.192.756-.456.996-.792.24-.344.36-.74.36-1.188 0-.672-.264-1.216-.792-1.632-.52-.424-1.192-.636-2.016-.636-.552 0-1.04.096-1.464.288-.416.192-.744.46-.984.804a1.97 1.97 0 0 0-.36 1.176 2.01 2.01 0 0 0 .78 1.632c.528.416 1.204.624 2.028.624zm1.848-4.044l-.984-1.836 6.372-.252-.024 2.184-5.364-.096zM186.032 77V65.12h2.64v1.644c.448-.744.992-1.264 1.632-1.56a4.75 4.75 0 0 1 2.064-.456 6.2 6.2 0 0 1 .684.036 5.07 5.07 0 0 1 .624.108l-.348 2.724c-.24-.072-.484-.128-.732-.168s-.496-.06-.744-.06c-.92 0-1.68.284-2.28.852-.6.56-.9 1.324-.9 2.292V77h-2.64zm14.793.36c-1.28 0-2.404-.26-3.372-.78-.968-.528-1.724-1.264-2.268-2.208-.536-.944-.804-2.04-.804-3.288 0-.912.156-1.752.468-2.52a5.96 5.96 0 0 1 1.32-2.016c.568-.568 1.232-1.008 1.992-1.32.768-.312 1.604-.468 2.508-.468.984 0 1.86.176 2.628.528.768.344 1.404.828 1.908 1.452a5.49 5.49 0 0 1 1.08 2.196c.216.832.252 1.736.108 2.712h-9.48c-.016.712.14 1.336.468 1.872.328.528.796.94 1.404 1.236.616.296 1.34.444 2.172.444a6.33 6.33 0 0 0 1.944-.3c.632-.208 1.204-.512 1.716-.912l1.02 1.896c-.384.312-.848.58-1.392.804a9.28 9.28 0 0 1-1.704.492c-.592.12-1.164.18-1.716.18zm-3.756-7.656h6.732c-.024-.896-.312-1.6-.864-2.112-.544-.512-1.32-.768-2.328-.768-.976 0-1.788.256-2.436.768-.64.512-1.008 1.216-1.104 2.112zm17.368 7.656c-1.28 0-2.404-.26-3.372-.78-.968-.528-1.724-1.264-2.268-2.208-.536-.944-.804-2.04-.804-3.288 0-.912.156-1.752.468-2.52a5.96 5.96 0 0 1 1.32-2.016c.568-.568 1.232-1.008 1.992-1.32.768-.312 1.604-.468 2.508-.468.984 0 1.86.176 2.628.528.768.344 1.404.828 1.908 1.452a5.49 5.49 0 0 1 1.08 2.196c.216.832.252 1.736.108 2.712h-9.48c-.016.712.14 1.336.468 1.872.328.528.796.94 1.404 1.236.616.296 1.34.444 2.172.444a6.33 6.33 0 0 0 1.944-.3c.632-.208 1.204-.512 1.716-.912l1.02 1.896c-.384.312-.848.58-1.392.804a9.28 9.28 0 0 1-1.704.492c-.592.12-1.164.18-1.716.18zm-3.756-7.656h6.732c-.024-.896-.312-1.6-.864-2.112-.544-.512-1.32-.768-2.328-.768-.976 0-1.788.256-2.436.768-.64.512-1.008 1.216-1.104 2.112zM222.507 77V65.12h2.64v1.512c.496-.664 1.072-1.14 1.728-1.428.656-.296 1.336-.444 2.04-.444 1.088 0 1.988.216 2.7.648s1.24.988 1.584 1.668c.352.68.528 1.38.528 2.1V77h-2.64v-7.008c0-.848-.256-1.528-.768-2.04-.504-.512-1.208-.768-2.112-.768-.592 0-1.12.132-1.584.396-.456.264-.816.632-1.08 1.104-.264.464-.396 1.008-.396 1.632V77h-2.64zM56.638 103V90.4h2.016v5.004h6.102V90.4h2.016V103h-2.016v-5.742h-6.102V103h-2.016zm13.232 0V90.4h8.145v1.782h-6.129v3.402h5.292v1.683h-5.292v3.933h6.183v1.8H69.87zm9.681 0l4.086-6.462-3.87-6.138h2.412l2.907 4.653 3.105-4.653h2.34l-4.068 6.192L90.648 103h-2.421l-3.222-4.959L81.9 103h-2.349zm14.048-6.597a1.47 1.47 0 0 1-.999-.369c-.276-.246-.414-.567-.414-.963a1.28 1.28 0 0 1 .189-.702c.126-.204.297-.36.513-.468a1.5 1.5 0 0 1 .711-.171c.39 0 .72.123.99.369.276.24.414.564.414.972 0 .264-.063.498-.189.702-.126.198-.297.354-.513.468-.21.108-.444.162-.702.162zm0 6.867a1.47 1.47 0 0 1-.999-.369c-.276-.246-.414-.567-.414-.963a1.28 1.28 0 0 1 .189-.702c.126-.204.297-.36.513-.468a1.5 1.5 0 0 1 .711-.171c.39 0 .72.123.99.369.276.24.414.564.414.972 0 .264-.063.498-.189.702-.126.198-.297.351-.513.459-.21.114-.444.171-.702.171zm8.2-.702l.738-3.051h-1.539l.324-1.422h1.548l.648-2.772h-1.548l.342-1.422h1.53l.747-3.069h1.467l-.729 3.069h2.664l.729-3.078h1.485l-.738 3.078h1.53l-.324 1.431h-1.539l-.621 2.754h1.53l-.342 1.431h-1.539l-.738 3.06h-1.485l.738-3.06h-2.655l-.738 3.051h-1.485zm2.547-4.473l2.682-.009.621-2.754-2.682-.009-.621 2.772zM115.457 103V92.524l-3.267 1.197-.522-1.566 5.517-2.025h.144V103h-1.872zm9.802.27c-.804 0-1.527-.171-2.169-.513-.636-.342-1.179-.816-1.629-1.422a6.75 6.75 0 0 1-1.017-2.097c-.234-.792-.351-1.638-.351-2.538 0-.906.117-1.755.351-2.547s.573-1.488 1.017-2.088c.45-.606.993-1.08 1.629-1.422.642-.342 1.365-.513 2.169-.513s1.524.171 2.16.513c.642.342 1.185.816 1.629 1.422.45.6.792 1.296 1.026 2.088a8.74 8.74 0 0 1 .36 2.547c0 .9-.12 1.746-.36 2.538-.234.792-.576 1.491-1.026 2.097-.444.606-.987 1.08-1.629 1.422-.636.342-1.356.513-2.16.513zm0-1.782c.48 0 .915-.108 1.305-.324.39-.222.726-.54 1.008-.954.288-.414.507-.915.657-1.503.15-.594.225-1.263.225-2.007 0-.996-.135-1.851-.405-2.565-.264-.72-.636-1.269-1.116-1.647-.474-.384-1.032-.576-1.674-.576-.474 0-.909.111-1.305.333-.39.216-.726.531-1.008.945s-.501.915-.657 1.503c-.15.588-.225 1.257-.225 2.007 0 .996.132 1.851.396 2.565.27.714.645 1.263 1.125 1.647a2.6 2.6 0 0 0 1.674.576zm11.884 1.782c-.948 0-1.788-.204-2.52-.612s-1.308-.996-1.728-1.764c-.42-.774-.63-1.707-.63-2.799 0-1.062.198-2.04.594-2.934.396-.9.951-1.695 1.665-2.385.714-.696 1.548-1.269 2.502-1.719.96-.45 2.001-.759 3.123-.927l.702 1.548c-.918.096-1.734.288-2.448.576-.714.282-1.329.633-1.845 1.053a5.85 5.85 0 0 0-1.251 1.404 5.98 5.98 0 0 0-.72 1.602c.336-.432.762-.774 1.278-1.026a3.71 3.71 0 0 1 1.683-.387c.81 0 1.539.171 2.187.513a3.87 3.87 0 0 1 1.539 1.422c.378.606.567 1.305.567 2.097 0 .606-.114 1.173-.342 1.701s-.552.99-.972 1.386a4.6 4.6 0 0 1-1.494.918c-.57.222-1.2.333-1.89.333zm0-1.71c.534 0 1.008-.108 1.422-.324s.738-.51.972-.882c.24-.378.36-.81.36-1.296 0-.48-.123-.909-.369-1.287-.24-.378-.57-.678-.99-.9-.414-.222-.879-.333-1.395-.333-.522 0-.993.111-1.413.333-.414.222-.744.522-.99.9a2.35 2.35 0 0 0-.36 1.287c0 .486.117.918.351 1.296a2.54 2.54 0 0 0 .981.882c.414.216.891.324 1.431.324zm11.351 1.71c-.948 0-1.788-.204-2.52-.612s-1.308-.996-1.728-1.764c-.42-.774-.63-1.707-.63-2.799 0-1.062.198-2.04.594-2.934.396-.9.951-1.695 1.665-2.385.714-.696 1.548-1.269 2.502-1.719.96-.45 2.001-.759 3.123-.927l.702 1.548c-.918.096-1.734.288-2.448.576-.714.282-1.329.633-1.845 1.053a5.85 5.85 0 0 0-1.251 1.404 5.98 5.98 0 0 0-.72 1.602c.336-.432.762-.774 1.278-1.026a3.71 3.71 0 0 1 1.683-.387c.81 0 1.539.171 2.187.513a3.87 3.87 0 0 1 1.539 1.422c.378.606.567 1.305.567 2.097 0 .606-.114 1.173-.342 1.701s-.552.99-.972 1.386a4.6 4.6 0 0 1-1.494.918c-.57.222-1.2.333-1.89.333zm0-1.71c.534 0 1.008-.108 1.422-.324s.738-.51.972-.882c.24-.378.36-.81.36-1.296 0-.48-.123-.909-.369-1.287-.24-.378-.57-.678-.99-.9-.414-.222-.879-.333-1.395-.333-.522 0-.993.111-1.413.333-.414.222-.744.522-.99.9a2.35 2.35 0 0 0-.36 1.287c0 .486.117.918.351 1.296a2.54 2.54 0 0 0 .981.882c.414.216.891.324 1.431.324zm12.351 1.44v-2.583h-6.273v-1.521l4.518-8.496h2.052l-4.455 8.334h4.158v-2.799h1.737v2.799h1.944v1.683h-1.944V103h-1.737zm5.68 0V90.4h7.785v1.845h-5.769v3.627h5.229v1.8h-5.229V103h-2.016zm747.131-25.64c-1.16 0-2.296-.164-3.408-.492-1.104-.336-2.036-.816-2.796-1.44l1.32-2.052c.4.344.864.64 1.392.888a8.54 8.54 0 0 0 1.704.576c.6.128 1.2.192 1.8.192 1.096 0 1.98-.208 2.652-.624.68-.416 1.02-1.024 1.02-1.824 0-.6-.232-1.108-.696-1.524-.456-.416-1.304-.8-2.544-1.152l-1.728-.504c-1.584-.456-2.74-1.06-3.468-1.812-.72-.752-1.08-1.688-1.08-2.808 0-.744.148-1.416.444-2.016.304-.6.728-1.12 1.272-1.56.552-.44 1.2-.776 1.944-1.008s1.56-.348 2.448-.348c1.128 0 2.176.164 3.144.492s1.768.768 2.4 1.32l-1.368 1.992a5.07 5.07 0 0 0-1.212-.804c-.456-.224-.948-.396-1.476-.516s-1.064-.18-1.608-.18c-.672 0-1.268.1-1.788.3-.512.192-.912.472-1.2.84s-.432.816-.432 1.344c0 .384.096.72.288 1.008s.52.552.984.792c.472.232 1.12.468 1.944.708l1.824.54c1.552.456 2.688 1.052 3.408 1.788.72.728 1.08 1.676 1.08 2.844 0 1-.248 1.88-.744 2.64-.488.752-1.2 1.34-2.136 1.764s-2.064.636-3.384.636zm12.31 0c-.824 0-1.548-.152-2.172-.456-.624-.312-1.112-.748-1.464-1.308-.344-.568-.516-1.236-.516-2.004 0-.648.164-1.232.492-1.752.328-.528.836-.964 1.524-1.308.696-.344 1.588-.572 2.676-.684 1.088-.12 2.396-.104 3.924.048l.048 1.824c-1.088-.152-2.024-.216-2.808-.192s-1.428.124-1.932.3c-.496.168-.864.396-1.104.684a1.48 1.48 0 0 0-.348.972c0 .576.204 1.02.612 1.332.416.312.984.468 1.704.468.616 0 1.168-.112 1.656-.336s.872-.54 1.152-.948c.288-.408.432-.888.432-1.44v-3.156c0-.528-.112-.984-.336-1.368-.224-.392-.564-.696-1.02-.912s-1.024-.324-1.704-.324c-.624 0-1.24.096-1.848.288a5.84 5.84 0 0 0-1.74.876l-.744-1.944c.744-.504 1.52-.86 2.328-1.068s1.584-.312 2.328-.312c1.104 0 2.048.176 2.832.528.792.344 1.4.868 1.824 1.572.424.696.636 1.576.636 2.64V77h-2.376v-1.404c-.4.568-.956 1.004-1.668 1.308s-1.508.456-2.388.456zm10.632-.36V63.176c0-1.184.34-2.116 1.02-2.796.688-.68 1.636-1.02 2.844-1.02.44 0 .84.048 1.2.144.368.088.708.216 1.02.384l-.492 2.088a2.54 2.54 0 0 0-.672-.264c-.216-.048-.428-.072-.636-.072-.488 0-.888.124-1.2.372-.304.248-.456.672-.456 1.272v1.836h3.12v2.184h-3.12V77h-2.628zm-2.388-9.696V65.12h2.736v2.184h-2.736zM945.91 77V63.176c0-1.184.34-2.116 1.02-2.796.688-.68 1.636-1.02 2.844-1.02.44 0 .84.048 1.2.144.368.088.708.216 1.02.384l-.492 2.088a2.54 2.54 0 0 0-.672-.264c-.216-.048-.428-.072-.636-.072-.488 0-.888.124-1.2.372-.304.248-.456.672-.456 1.272v1.836h3.12v2.184h-3.12V77h-2.628zm-2.388-9.696V65.12h2.736v2.184h-2.736zM953.803 77V65.12h2.64v1.644c.448-.744.992-1.264 1.632-1.56a4.75 4.75 0 0 1 2.064-.456 6.2 6.2 0 0 1 .684.036 5.07 5.07 0 0 1 .624.108l-.348 2.724c-.24-.072-.484-.128-.732-.168s-.496-.06-.744-.06c-.92 0-1.68.284-2.28.852-.6.56-.9 1.324-.9 2.292V77h-2.64zm14.782.36c-1.24 0-2.348-.284-3.324-.852-.968-.576-1.728-1.34-2.28-2.292a6.22 6.22 0 0 1-.828-3.156 6.2 6.2 0 0 1 .468-2.4 6.36 6.36 0 0 1 1.344-2.016 6.48 6.48 0 0 1 2.052-1.38c.784-.336 1.644-.504 2.58-.504 1.24 0 2.344.288 3.312.864.976.568 1.74 1.332 2.292 2.292.552.952.828 2 .828 3.144a6.12 6.12 0 0 1-.48 2.4c-.312.76-.756 1.432-1.332 2.016a6.34 6.34 0 0 1-2.04 1.38c-.784.336-1.648.504-2.592.504zm0-2.34c.736 0 1.388-.16 1.956-.48.576-.328 1.028-.788 1.356-1.38s.492-1.292.492-2.1-.164-1.508-.492-2.1c-.328-.6-.78-1.06-1.356-1.38-.568-.32-1.22-.48-1.956-.48s-1.392.16-1.968.48c-.568.32-1.016.78-1.344 1.38-.32.592-.48 1.292-.48 2.1s.164 1.508.492 2.1a3.54 3.54 0 0 0 1.344 1.38c.576.32 1.228.48 1.956.48zm8.856 1.98V65.12h2.64v1.512c.496-.664 1.072-1.14 1.728-1.428.656-.296 1.336-.444 2.04-.444 1.088 0 1.988.216 2.7.648s1.24.988 1.584 1.668c.352.68.528 1.38.528 2.1V77h-2.64v-7.008c0-.848-.256-1.528-.768-2.04-.504-.512-1.208-.768-2.112-.768-.592 0-1.12.132-1.584.396-.456.264-.816.632-1.08 1.104-.264.464-.396 1.008-.396 1.632V77h-2.64z"/><path d="M907.638 103V90.4h2.016v5.004h6.102V90.4h2.016V103h-2.016v-5.742h-6.102V103h-2.016zm13.232 0V90.4h8.145v1.782h-6.129v3.402h5.292v1.683h-5.292v3.933h6.183v1.8h-8.199zm9.681 0l4.086-6.462-3.87-6.138h2.412l2.907 4.653 3.105-4.653h2.34l-4.068 6.192 4.185 6.408h-2.421l-3.222-4.959L932.9 103h-2.349zm14.047-6.597a1.47 1.47 0 0 1-.999-.369c-.276-.246-.414-.567-.414-.963a1.28 1.28 0 0 1 .189-.702c.126-.204.297-.36.513-.468a1.5 1.5 0 0 1 .711-.171c.39 0 .72.123.99.369.276.24.414.564.414.972 0 .264-.063.498-.189.702-.126.198-.297.354-.513.468-.21.108-.444.162-.702.162zm0 6.867a1.47 1.47 0 0 1-.999-.369c-.276-.246-.414-.567-.414-.963a1.28 1.28 0 0 1 .189-.702c.126-.204.297-.36.513-.468a1.5 1.5 0 0 1 .711-.171c.39 0 .72.123.99.369.276.24.414.564.414.972 0 .264-.063.498-.189.702-.126.198-.297.351-.513.459-.21.114-.444.171-.702.171zm8.2-.702l.738-3.051h-1.539l.324-1.422h1.548l.648-2.772h-1.548l.342-1.422h1.53l.747-3.069h1.467l-.729 3.069h2.664l.729-3.078h1.485l-.738 3.078h1.53l-.324 1.431h-1.539l-.621 2.754h1.53l-.342 1.431h-1.539l-.738 3.06h-1.485l.738-3.06h-2.655l-.738 3.051h-1.485zm2.547-4.473l2.682-.009.621-2.754-2.682-.009-.621 2.772zm8.817 4.905V90.4h7.785v1.845h-5.769v3.627h5.229v1.8h-5.229V103h-2.016zm15.211 0v-2.583H973.1v-1.521l4.518-8.496h2.052l-4.455 8.334h4.158v-2.799h1.737v2.799h1.944v1.683h-1.944V103h-1.737zm11.422.27c-1.308 0-2.451-.27-3.429-.81a5.74 5.74 0 0 1-2.286-2.286c-.54-.99-.81-2.145-.81-3.465 0-.96.159-1.839.477-2.637.324-.804.777-1.5 1.359-2.088.588-.588 1.281-1.044 2.079-1.368s1.674-.486 2.628-.486c.96 0 1.788.12 2.484.36.702.24 1.314.582 1.836 1.026l-1.044 1.647c-.396-.366-.858-.639-1.386-.819s-1.11-.27-1.746-.27c-.702 0-1.335.108-1.899.324s-1.047.525-1.449.927c-.396.396-.702.879-.918 1.449-.21.564-.315 1.203-.315 1.917 0 .972.189 1.803.567 2.493a3.89 3.89 0 0 0 1.62 1.584c.702.36 1.53.54 2.484.54a6.05 6.05 0 0 0 1.836-.279c.594-.192 1.149-.501 1.665-.927l.936 1.701a6.67 6.67 0 0 1-2.079 1.089c-.774.252-1.644.378-2.61.378zm9.725 0a7.45 7.45 0 0 1-1.548-.162c-.504-.108-.969-.255-1.395-.441-.42-.192-.765-.411-1.035-.657l.675-1.656c.378.354.858.636 1.44.846s1.161.315 1.733.315 1.07-.096 1.49-.288.74-.462.97-.81c.24-.348.35-.759.35-1.233 0-.72-.26-1.281-.79-1.683-.52-.402-1.22-.603-2.09-.603a5.17 5.17 0 0 0-.727.054 7.06 7.06 0 0 0-.765.135l-.585-1.323 3.947-3.672h-5.549V90.4h7.939v1.557l-3.75 3.645c.75-.012 1.45.117 2.11.387s1.19.681 1.59 1.233c.41.546.62 1.236.62 2.07 0 .792-.2 1.488-.6 2.088-.39.594-.94 1.059-1.64 1.395-.69.33-1.49.495-2.39.495zm9.32-.27V92.524l-3.27 1.197-.52-1.566 5.52-2.025h.14V103h-1.87zm5.33 0V90.4h7.78v1.845h-5.76v3.627h5.22v1.8h-5.22V103h-2.02z"/></g><path d="M1405.66 77.36a11.99 11.99 0 0 1-3.41-.492c-1.11-.336-2.04-.816-2.8-1.44l1.32-2.052c.4.344.87.64 1.39.888.54.248 1.11.44 1.71.576.6.128 1.2.192 1.8.192 1.09 0 1.98-.208 2.65-.624.68-.416 1.02-1.024 1.02-1.824 0-.6-.23-1.108-.7-1.524-.45-.416-1.3-.8-2.54-1.152l-1.73-.504c-1.58-.456-2.74-1.06-3.47-1.812-.72-.752-1.08-1.688-1.08-2.808 0-.744.15-1.416.45-2.016a4.75 4.75 0 0 1 1.27-1.56c.55-.44 1.2-.776 1.94-1.008.75-.232 1.56-.348 2.45-.348 1.13 0 2.18.164 3.15.492.96.328 1.76.768 2.4 1.32l-1.37 1.992c-.35-.312-.75-.58-1.21-.804s-.95-.396-1.48-.516-1.06-.18-1.61-.18c-.67 0-1.27.1-1.79.3-.51.192-.91.472-1.2.84a2.16 2.16 0 0 0-.43 1.344 1.79 1.79 0 0 0 .29 1.008c.19.288.52.552.98.792.48.232 1.12.468 1.95.708l1.82.54c1.55.456 2.69 1.052 3.41 1.788.72.728 1.08 1.676 1.08 2.844 0 1-.25 1.88-.74 2.64-.49.752-1.2 1.34-2.14 1.764s-2.06.636-3.38.636zm14.43 0c-1.28 0-2.4-.26-3.37-.78a5.7 5.7 0 0 1-2.27-2.208c-.54-.944-.8-2.04-.8-3.288 0-.912.15-1.752.46-2.52.32-.776.76-1.448 1.32-2.016.57-.568 1.24-1.008 2-1.32s1.6-.468 2.5-.468c.99 0 1.86.176 2.63.528.77.344 1.41.828 1.91 1.452.51.624.87 1.356 1.08 2.196.22.832.25 1.736.11 2.712h-9.48c-.02.712.14 1.336.47 1.872.32.528.79.94 1.4 1.236.62.296 1.34.444 2.17.444.67 0 1.32-.1 1.95-.3.63-.208 1.2-.512 1.71-.912l1.02 1.896c-.38.312-.85.58-1.39.804-.54.216-1.11.38-1.7.492a8.75 8.75 0 0 1-1.72.18zm-3.76-7.656h6.74c-.03-.896-.32-1.6-.87-2.112-.54-.512-1.32-.768-2.33-.768-.97 0-1.78.256-2.43.768-.64.512-1.01 1.216-1.11 2.112zm15.13 7.656c-.82 0-1.55-.152-2.17-.456-.63-.312-1.11-.748-1.47-1.308-.34-.568-.51-1.236-.51-2.004 0-.648.16-1.232.49-1.752.33-.528.84-.964 1.52-1.308.7-.344 1.59-.572 2.68-.684 1.09-.12 2.4-.104 3.92.048l.05 1.824c-1.09-.152-2.02-.216-2.81-.192-.78.024-1.42.124-1.93.3-.49.168-.86.396-1.1.684a1.49 1.49 0 0 0-.35.972c0 .576.2 1.02.61 1.332.42.312.99.468 1.71.468.61 0 1.16-.112 1.65-.336s.87-.54 1.15-.948c.29-.408.44-.888.44-1.44v-3.156c0-.528-.12-.984-.34-1.368-.22-.392-.56-.696-1.02-.912s-1.02-.324-1.7-.324c-.63 0-1.24.096-1.85.288-.61.184-1.19.476-1.74.876l-.75-1.944c.75-.504 1.52-.86 2.33-1.068s1.59-.312 2.33-.312c1.1 0 2.05.176 2.83.528.79.344 1.4.868 1.83 1.572.42.696.63 1.576.63 2.64V77h-2.37v-1.404c-.4.568-.96 1.004-1.67 1.308s-1.51.456-2.39.456zm13.71-.012c-.98 0-1.9-.14-2.76-.42s-1.58-.656-2.16-1.128l1-1.932c.55.432 1.17.772 1.86 1.02a6.06 6.06 0 0 0 2.05.372c.77 0 1.38-.136 1.81-.408s.65-.652.65-1.14c0-.464-.19-.804-.57-1.02-.36-.224-1.07-.456-2.11-.696-1.49-.312-2.58-.752-3.26-1.32-.67-.576-1.01-1.372-1.01-2.388 0-.712.2-1.34.59-1.884.4-.552.95-.984 1.64-1.296.7-.312 1.5-.468 2.41-.468.89 0 1.73.128 2.51.384.79.248 1.47.6 2.04 1.056l-.93 1.944c-.3-.264-.64-.492-1.04-.684a5.82 5.82 0 0 0-1.24-.444c-.44-.112-.87-.168-1.3-.168-.67 0-1.22.132-1.64.396-.42.256-.63.612-.63 1.068 0 .472.2.82.6 1.044s1.09.448 2.07.672c1.53.336 2.63.784 3.3 1.344.66.56.99 1.336.99 2.328 0 .76-.2 1.424-.61 1.992-.41.56-.98.996-1.72 1.308-.72.312-1.57.468-2.54.468zm10.91.012c-.82 0-1.55-.152-2.17-.456-.62-.312-1.11-.748-1.46-1.308-.35-.568-.52-1.236-.52-2.004 0-.648.16-1.232.49-1.752.33-.528.84-.964 1.53-1.308s1.58-.572 2.67-.684c1.09-.12 2.4-.104 3.93.048l.04 1.824c-1.08-.152-2.02-.216-2.8-.192-.79.024-1.43.124-1.94.3-.49.168-.86.396-1.1.684a1.49 1.49 0 0 0-.35.972c0 .576.21 1.02.61 1.332.42.312.99.468 1.71.468.61 0 1.17-.112 1.65-.336.49-.224.88-.54 1.16-.948s.43-.888.43-1.44v-3.156c0-.528-.11-.984-.34-1.368-.22-.392-.56-.696-1.02-.912-.45-.216-1.02-.324-1.7-.324-.63 0-1.24.096-1.85.288-.61.184-1.19.476-1.74.876l-.74-1.944c.74-.504 1.52-.86 2.32-1.068.81-.208 1.59-.312 2.33-.312 1.11 0 2.05.176 2.83.528.8.344 1.4.868 1.83 1.572.42.696.63 1.576.63 2.64V77h-2.37v-1.404c-.4.568-.96 1.004-1.67 1.308s-1.51.456-2.39.456zm9.7-.36V59.72h2.64V77h-2.64zm11.06.36c-1.16 0-2.09-.336-2.78-1.008-.7-.672-1.05-1.7-1.05-3.084V61.652h2.64v3.468h3.3v2.184h-3.3v5.388c0 .832.16 1.42.47 1.764.32.336.77.504 1.35.504.28 0 .54-.032.79-.096a3.11 3.11 0 0 0 .67-.252l.47 2.136c-.35.176-.74.32-1.19.432a5.2 5.2 0 0 1-1.37.18zm-6.43-10.056V65.12h2.95v2.184h-2.95zM1399.64 103V90.4h2.01v5.004h6.11V90.4h2.01V103h-2.01v-5.742h-6.11V103h-2.01zm13.23 0V90.4h8.15v1.782h-6.13v3.402h5.29v1.683h-5.29v3.933h6.18v1.8h-8.2zm9.68 0l4.09-6.462-3.87-6.138h2.41l2.91 4.653 3.1-4.653h2.34l-4.07 6.192 4.19 6.408h-2.42l-3.23-4.959-3.1 4.959h-2.35zm14.05-6.597c-.39 0-.72-.123-1-.369s-.41-.567-.41-.963c0-.27.06-.504.18-.702.13-.204.3-.36.52-.468.21-.114.45-.171.71-.171.39 0 .72.123.99.369.27.24.41.564.41.972 0 .264-.06.498-.19.702-.12.198-.29.354-.51.468-.21.108-.44.162-.7.162zm0 6.867c-.39 0-.72-.123-1-.369s-.41-.567-.41-.963c0-.27.06-.504.18-.702.13-.204.3-.36.52-.468.21-.114.45-.171.71-.171.39 0 .72.123.99.369.27.24.41.564.41.972 0 .264-.06.498-.19.702-.12.198-.29.351-.51.459-.21.114-.44.171-.7.171zm8.2-.702l.74-3.051H1444l.32-1.422h1.55l.65-2.772h-1.55l.34-1.422h1.53l.75-3.069h1.47l-.73 3.069h2.66l.73-3.078h1.48l-.73 3.078h1.53l-.33 1.431h-1.54l-.62 2.754h1.53l-.34 1.431h-1.54l-.74 3.06h-1.48l.74-3.06h-2.66l-.74 3.051h-1.48zm2.55-4.473l2.68-.009.62-2.754-2.68-.009-.62 2.772zm8.81 4.905V90.4h7.79v1.845h-5.77v3.627h5.23v1.8h-5.23V103h-2.02zm14.56.27c-.94 0-1.78-.204-2.52-.612-.73-.408-1.3-.996-1.72-1.764-.42-.774-.63-1.707-.63-2.799 0-1.062.19-2.04.59-2.934.4-.9.95-1.695 1.67-2.385.71-.696 1.54-1.269 2.5-1.719s2-.759 3.12-.927l.7 1.548c-.92.096-1.73.288-2.45.576-.71.282-1.32.633-1.84 1.053-.51.42-.93.888-1.25 1.404-.33.51-.57 1.044-.72 1.602.33-.432.76-.774 1.28-1.026.51-.258 1.07-.387 1.68-.387.81 0 1.54.171 2.19.513s1.16.816 1.54 1.422c.37.606.56 1.305.56 2.097a4.21 4.21 0 0 1-.34 1.701c-.23.528-.55.99-.97 1.386-.42.39-.92.696-1.5.918-.57.222-1.2.333-1.89.333zm0-1.71c.54 0 1.01-.108 1.43-.324.41-.216.73-.51.97-.882.24-.378.36-.81.36-1.296 0-.48-.12-.909-.37-1.287-.24-.378-.57-.678-.99-.9-.41-.222-.88-.333-1.4-.333a2.97 2.97 0 0 0-1.41.333c-.41.222-.74.522-.99.9a2.35 2.35 0 0 0-.36 1.287c0 .486.12.918.35 1.296.24.372.57.666.98.882.42.216.89.324 1.43.324zm7.05 1.44V90.4h7.79v1.845h-5.77v3.627h5.23v1.8h-5.23V103h-2.02zm14.57.27c-.95 0-1.79-.204-2.52-.612s-1.31-.996-1.73-1.764c-.42-.774-.63-1.707-.63-2.799a7.26 7.26 0 0 1 .59-2.934c.4-.9.95-1.695 1.67-2.385.71-.696 1.55-1.269 2.5-1.719.96-.45 2-.759 3.12-.927l.71 1.548c-.92.096-1.74.288-2.45.576-.72.282-1.33.633-1.85 1.053-.51.42-.92.888-1.25 1.404a6.24 6.24 0 0 0-.72 1.602 3.59 3.59 0 0 1 1.28-1.026c.52-.258 1.08-.387 1.68-.387.81 0 1.54.171 2.19.513s1.17.816 1.54 1.422c.38.606.57 1.305.57 2.097 0 .606-.12 1.173-.35 1.701-.22.528-.55.99-.97 1.386-.42.39-.92.696-1.49.918s-1.2.333-1.89.333zm0-1.71c.53 0 1.01-.108 1.42-.324s.74-.51.97-.882c.24-.378.36-.81.36-1.296 0-.48-.12-.909-.37-1.287-.24-.378-.57-.678-.99-.9a2.89 2.89 0 0 0-1.39-.333 3.01 3.01 0 0 0-1.42.333c-.41.222-.74.522-.99.9a2.35 2.35 0 0 0-.36 1.287c0 .486.12.918.36 1.296.24.372.56.666.98.882.41.216.89.324 1.43.324zm7.05 1.44V90.4h7.78v1.845h-5.77v3.627h5.23v1.8h-5.23V103h-2.01zm14.56.27c-.95 0-1.79-.204-2.52-.612s-1.31-.996-1.73-1.764c-.42-.774-.63-1.707-.63-2.799 0-1.062.2-2.04.6-2.934.39-.9.95-1.695 1.66-2.385.72-.696 1.55-1.269 2.5-1.719.96-.45 2-.759 3.13-.927l.7 1.548c-.92.096-1.74.288-2.45.576-.71.282-1.33.633-1.84 1.053s-.93.888-1.26 1.404a6.24 6.24 0 0 0-.72 1.602 3.68 3.68 0 0 1 1.28-1.026 3.74 3.74 0 0 1 1.69-.387c.81 0 1.53.171 2.18.513a3.82 3.82 0 0 1 1.54 1.422c.38.606.57 1.305.57 2.097 0 .606-.12 1.173-.34 1.701-.23.528-.56.99-.98 1.386a4.54 4.54 0 0 1-1.49.918c-.57.222-1.2.333-1.89.333zm0-1.71c.53 0 1.01-.108 1.42-.324a2.4 2.4 0 0 0 .97-.882c.24-.378.36-.81.36-1.296a2.35 2.35 0 0 0-.36-1.287c-.24-.378-.57-.678-.99-.9a2.93 2.93 0 0 0-1.4-.333 2.97 2.97 0 0 0-1.41.333c-.42.222-.75.522-.99.9a2.35 2.35 0 0 0-.36 1.287c0 .486.11.918.35 1.296.24.372.57.666.98.882s.89.324 1.43.324z" fill="#333"/><path d="M1402.42 582.36c-.76 0-1.47-.1-2.15-.3-.67-.192-1.31-.464-1.9-.816l.88-2.208a7.51 7.51 0 0 0 1.4.636c.47.144.95.216 1.43.216 1.01 0 1.78-.24 2.32-.72.53-.48.8-1.26.8-2.34V565.2h2.69v12.072c0 1.024-.21 1.92-.64 2.688-.42.76-1.04 1.352-1.86 1.776-.81.416-1.81.624-2.97.624zm14.65 0c-1.28 0-2.41-.26-3.38-.78a5.74 5.74 0 0 1-2.26-2.208c-.54-.944-.81-2.04-.81-3.288 0-.912.16-1.752.47-2.52a5.9 5.9 0 0 1 1.32-2.016 6.03 6.03 0 0 1 1.99-1.32c.77-.312 1.61-.468 2.51-.468.98 0 1.86.176 2.63.528.77.344 1.4.828 1.91 1.452s.87 1.356 1.08 2.196c.21.832.25 1.736.1 2.712h-9.48c-.01.712.14 1.336.47 1.872.33.528.8.94 1.41 1.236s1.34.444 2.17.444c.67 0 1.32-.1 1.94-.3.63-.208 1.21-.512 1.72-.912l1.02 1.896a5.7 5.7 0 0 1-1.39.804 9.53 9.53 0 0 1-1.71.492c-.59.12-1.16.18-1.71.18zm-3.76-7.656h6.73c-.02-.896-.31-1.6-.86-2.112s-1.32-.768-2.33-.768c-.98 0-1.79.256-2.44.768-.64.512-1 1.216-1.1 2.112zm16.7 7.656c-1.16 0-2.09-.336-2.78-1.008-.7-.672-1.05-1.7-1.05-3.084v-11.616h2.64v3.468h3.3v2.184h-3.3v5.388c0 .832.16 1.42.47 1.764.32.336.77.504 1.35.504.28 0 .54-.032.79-.096a3.11 3.11 0 0 0 .67-.252l.47 2.136c-.35.176-.74.32-1.19.432a5.2 5.2 0 0 1-1.37.18zm-6.43-10.056v-2.184h2.95v2.184h-2.95zM1399.64 608v-12.6h2.01v5.004h6.11V595.4h2.01V608h-2.01v-5.742h-6.11V608h-2.01zm13.23 0v-12.6h8.15v1.782h-6.13v3.402h5.29v1.683h-5.29v3.933h6.18v1.8h-8.2zm9.68 0l4.09-6.462-3.87-6.138h2.41l2.91 4.653 3.1-4.653h2.34l-4.07 6.192 4.19 6.408h-2.42l-3.23-4.959-3.1 4.959h-2.35zm14.05-6.597c-.39 0-.72-.123-1-.369s-.41-.567-.41-.963c0-.27.06-.504.18-.702.13-.204.3-.36.52-.468.21-.114.45-.171.71-.171.39 0 .72.123.99.369.27.24.41.564.41.972 0 .264-.06.498-.19.702-.12.198-.29.354-.51.468-.21.108-.44.162-.7.162zm0 6.867c-.39 0-.72-.123-1-.369s-.41-.567-.41-.963c0-.27.06-.504.18-.702.13-.204.3-.36.52-.468.21-.114.45-.171.71-.171.39 0 .72.123.99.369.27.24.41.564.41.972 0 .264-.06.498-.19.702-.12.198-.29.351-.51.459-.21.114-.44.171-.7.171zm8.2-.702l.74-3.051H1444l.32-1.422h1.55l.65-2.772h-1.55l.34-1.422h1.53l.75-3.069h1.47l-.73 3.069h2.66l.73-3.078h1.48l-.73 3.078h1.53l-.33 1.431h-1.54l-.62 2.754h1.53l-.34 1.431h-1.54l-.74 3.06h-1.48l.74-3.06h-2.66l-.74 3.051h-1.48zm2.55-4.473l2.68-.009.62-2.754-2.68-.009-.62 2.772zm11.91 5.175c-.52 0-1.04-.054-1.55-.162a7.54 7.54 0 0 1-1.4-.441c-.42-.192-.76-.411-1.03-.657l.67-1.656c.38.354.86.636 1.44.846.59.21 1.17.315 1.74.315s1.07-.096 1.49-.288.74-.462.97-.81.35-.759.35-1.233c0-.72-.26-1.281-.79-1.683-.52-.402-1.22-.603-2.09-.603a5.19 5.19 0 0 0-.73.054 6.73 6.73 0 0 0-.76.135l-.59-1.323 3.94-3.672h-5.54V595.4h7.94v1.557l-3.76 3.645c.75-.012 1.46.117 2.12.387s1.19.681 1.59 1.233c.41.546.61 1.236.61 2.07 0 .792-.19 1.488-.59 2.088-.4.594-.94 1.059-1.64 1.395-.69.33-1.49.495-2.39.495zm10.29 0a7.39 7.39 0 0 1-1.54-.162 7.31 7.31 0 0 1-1.4-.441c-.42-.192-.76-.411-1.03-.657l.67-1.656c.38.354.86.636 1.44.846a5.08 5.08 0 0 0 1.74.315c.57 0 1.06-.096 1.48-.288s.75-.462.98-.81.35-.759.35-1.233c0-.72-.27-1.281-.8-1.683-.52-.402-1.21-.603-2.08-.603-.24 0-.48.018-.73.054-.25.03-.51.075-.77.135l-.58-1.323 3.94-3.672h-5.54V595.4h7.93v1.557l-3.75 3.645c.75-.012 1.46.117 2.12.387s1.19.681 1.59 1.233c.41.546.61 1.236.61 2.07 0 .792-.2 1.488-.59 2.088a4.09 4.09 0 0 1-1.64 1.395c-.7.33-1.5.495-2.4.495zm10.3 0c-.52 0-1.04-.054-1.55-.162-.5-.108-.97-.255-1.39-.441a4.02 4.02 0 0 1-1.04-.657l.68-1.656c.38.354.86.636 1.44.846a5.07 5.07 0 0 0 1.73.315c.57 0 1.07-.096 1.49-.288s.74-.462.97-.81c.24-.348.35-.759.35-1.233 0-.72-.26-1.281-.79-1.683-.52-.402-1.22-.603-2.09-.603a5.3 5.3 0 0 0-.73.054 7.15 7.15 0 0 0-.76.135l-.59-1.323 3.95-3.672h-5.55V595.4h7.94v1.557l-3.75 3.645c.75-.012 1.45.117 2.11.387s1.19.681 1.59 1.233c.41.546.62 1.236.62 2.07 0 .792-.2 1.488-.6 2.088-.39.594-.94 1.059-1.64 1.395-.69.33-1.49.495-2.39.495zm10.3 0c-.52 0-1.04-.054-1.55-.162a7.54 7.54 0 0 1-1.4-.441c-.42-.192-.76-.411-1.03-.657l.67-1.656c.38.354.86.636 1.44.846.59.21 1.17.315 1.74.315s1.07-.096 1.49-.288.74-.462.97-.81.35-.759.35-1.233c0-.72-.26-1.281-.79-1.683-.52-.402-1.22-.603-2.09-.603a5.19 5.19 0 0 0-.73.054 6.73 6.73 0 0 0-.76.135l-.59-1.323 3.94-3.672h-5.54V595.4h7.94v1.557l-3.76 3.645c.75-.012 1.46.117 2.12.387s1.19.681 1.59 1.233c.41.546.61 1.236.61 2.07 0 .792-.19 1.488-.59 2.088-.4.594-.94 1.059-1.64 1.395-.69.33-1.49.495-2.39.495zm10.29 0a7.39 7.39 0 0 1-1.54-.162 7.31 7.31 0 0 1-1.4-.441c-.42-.192-.76-.411-1.03-.657l.67-1.656c.38.354.86.636 1.44.846a5.08 5.08 0 0 0 1.74.315c.57 0 1.06-.096 1.48-.288s.75-.462.97-.81c.24-.348.36-.759.36-1.233 0-.72-.27-1.281-.8-1.683-.52-.402-1.21-.603-2.08-.603-.24 0-.48.018-.73.054a6.9 6.9 0 0 0-.77.135l-.58-1.323 3.94-3.672h-5.55V595.4h7.94v1.557l-3.75 3.645c.75-.012 1.45.117 2.11.387a3.63 3.63 0 0 1 1.6 1.233c.41.546.61 1.236.61 2.07 0 .792-.2 1.488-.59 2.088a4.09 4.09 0 0 1-1.64 1.395c-.7.33-1.5.495-2.4.495zm10.3 0c-.52 0-1.04-.054-1.55-.162-.5-.108-.97-.255-1.39-.441a4.02 4.02 0 0 1-1.04-.657l.68-1.656c.38.354.86.636 1.44.846a5.07 5.07 0 0 0 1.73.315c.57 0 1.07-.096 1.49-.288s.74-.462.97-.81c.24-.348.35-.759.35-1.233 0-.72-.26-1.281-.79-1.683-.52-.402-1.22-.603-2.09-.603a5.3 5.3 0 0 0-.73.054 7.15 7.15 0 0 0-.76.135l-.59-1.323 3.95-3.672h-5.55V595.4h7.94v1.557l-3.75 3.645c.75-.012 1.45.117 2.11.387s1.19.681 1.59 1.233c.41.546.62 1.236.62 2.07 0 .792-.2 1.488-.6 2.088-.39.594-.94 1.059-1.64 1.395-.69.33-1.49.495-2.39.495z" fill="#fff"/><path d="M908.184 582v-16.8h2.604l6.852 11.148-1.044.012 6.6-11.16h2.556V582h-2.628l.036-13.224.516.18-5.712 9.42h-1.968l-5.82-9.42.432-.18.036 13.224h-2.46zm21.35 0v-11.88h2.64V582h-2.64zm1.32-14.004c-.472 0-.88-.152-1.224-.456s-.516-.704-.516-1.2c0-.488.172-.884.516-1.188a1.76 1.76 0 0 1 1.224-.468 1.76 1.76 0 0 1 1.224.468c.344.304.516.7.516 1.188 0 .496-.172.896-.516 1.2s-.752.456-1.224.456zM935.598 582v-11.88h2.64v1.512c.496-.664 1.072-1.14 1.728-1.428.656-.296 1.336-.444 2.04-.444 1.088 0 1.988.216 2.7.648s1.24.988 1.584 1.668c.352.68.528 1.38.528 2.1V582h-2.64v-7.008c0-.848-.256-1.528-.768-2.04-.504-.512-1.208-.768-2.112-.768-.592 0-1.12.132-1.584.396-.456.264-.816.632-1.08 1.104-.264.464-.396 1.008-.396 1.632V582h-2.64zm19.283.36c-1.16 0-2.088-.336-2.784-1.008s-1.044-1.7-1.044-3.084v-11.616h2.64v3.468h3.3v2.184h-3.3v5.388c0 .832.156 1.42.468 1.764.32.336.768.504 1.344.504a3.16 3.16 0 0 0 .792-.096 3.17 3.17 0 0 0 .672-.252l.468 2.136c-.344.176-.74.32-1.188.432-.44.12-.896.18-1.368.18zm-6.432-10.056v-2.184h2.952v2.184h-2.952zm22.604 10.056c-1.248 0-2.36-.272-3.336-.816-.976-.552-1.744-1.3-2.304-2.244-.552-.952-.828-2.032-.828-3.24 0-.912.164-1.748.492-2.508.328-.768.792-1.436 1.392-2.004s1.304-1.008 2.112-1.32c.816-.312 1.7-.468 2.652-.468.8 0 1.54.108 2.22.324.688.208 1.32.532 1.896.972l-1.272 2.016a3.6 3.6 0 0 0-1.272-.732 4.68 4.68 0 0 0-1.512-.24c-.832 0-1.548.156-2.148.468a3.37 3.37 0 0 0-1.404 1.356c-.328.584-.492 1.292-.492 2.124 0 1.24.36 2.212 1.08 2.916.728.704 1.716 1.056 2.964 1.056.592 0 1.152-.108 1.68-.324.528-.224.968-.516 1.32-.876l1.26 2.004a7.65 7.65 0 0 1-2.112 1.128 7.17 7.17 0 0 1-2.388.408zm6.687-.36v-11.88h2.64v1.644c.448-.744.992-1.264 1.632-1.56a4.75 4.75 0 0 1 2.064-.456 6.2 6.2 0 0 1 .684.036 5.07 5.07 0 0 1 .624.108l-.348 2.724c-.24-.072-.484-.128-.732-.168s-.496-.06-.744-.06c-.92 0-1.68.284-2.28.852-.6.56-.9 1.324-.9 2.292V582h-2.64zm14.793.36c-1.28 0-2.404-.26-3.372-.78-.968-.528-1.724-1.264-2.268-2.208-.536-.944-.804-2.04-.804-3.288 0-.912.156-1.752.468-2.52a5.96 5.96 0 0 1 1.32-2.016c.568-.568 1.232-1.008 1.992-1.32.768-.312 1.604-.468 2.508-.468.984 0 1.86.176 2.628.528.768.344 1.404.828 1.908 1.452a5.49 5.49 0 0 1 1.08 2.196c.216.832.252 1.736.108 2.712h-9.48c-.016.712.14 1.336.468 1.872.328.528.796.94 1.404 1.236.616.296 1.34.444 2.172.444a6.33 6.33 0 0 0 1.944-.3c.632-.208 1.204-.512 1.716-.912l1.02 1.896c-.384.312-.848.58-1.392.804a9.28 9.28 0 0 1-1.704.492c-.592.12-1.164.18-1.716.18zm-3.756-7.656h6.732c-.024-.896-.312-1.6-.864-2.112-.544-.512-1.32-.768-2.328-.768-.976 0-1.788.256-2.436.768-.64.512-1.008 1.216-1.104 2.112zm15.123 7.656c-.82 0-1.54-.152-2.17-.456-.62-.312-1.11-.748-1.46-1.308-.346-.568-.518-1.236-.518-2.004 0-.648.164-1.232.488-1.752.33-.528.84-.964 1.53-1.308s1.59-.572 2.67-.684c1.09-.12 2.4-.104 3.93.048l.05 1.824c-1.09-.152-2.03-.216-2.81-.192-.79.024-1.43.124-1.93.3-.5.168-.87.396-1.11.684a1.49 1.49 0 0 0-.35.972c0 .576.21 1.02.62 1.332s.98.468 1.7.468c.62 0 1.17-.112 1.66-.336a2.8 2.8 0 0 0 1.15-.948c.29-.408.43-.888.43-1.44v-3.156c0-.528-.11-.984-.34-1.368-.22-.392-.56-.696-1.02-.912-.45-.216-1.02-.324-1.7-.324-.62 0-1.24.096-1.85.288-.61.184-1.19.476-1.74.876l-.74-1.944c.74-.504 1.52-.86 2.33-1.068.8-.208 1.58-.312 2.32-.312 1.11 0 2.05.176 2.84.528.79.344 1.4.868 1.82 1.572.42.696.64 1.576.64 2.64V582h-2.38v-1.404c-.4.568-.96 1.004-1.67 1.308s-1.51.456-2.39.456zm9.71-.36v-11.88h2.64v1.632c.32-.464.68-.84 1.1-1.128a4.5 4.5 0 0 1 1.32-.648 4.76 4.76 0 0 1 1.42-.216c.96 0 1.77.212 2.41.636a3.48 3.48 0 0 1 1.37 1.632c.59-.864 1.28-1.456 2.06-1.776.78-.328 1.57-.492 2.36-.492 1.1 0 1.98.216 2.63.648.66.432 1.13.988 1.42 1.668a5.31 5.31 0 0 1 .44 2.1V582h-2.64v-7.056c0-.824-.23-1.488-.68-1.992-.45-.512-1.11-.768-1.97-.768-.57 0-1.08.124-1.52.372-.45.248-.81.592-1.07 1.032-.26.432-.39.932-.39 1.5V582h-2.64v-7.056c0-.824-.22-1.488-.67-1.992-.45-.512-1.11-.768-1.98-.768-.56 0-1.07.124-1.52.372s-.81.592-1.07 1.032c-.26.432-.38.932-.38 1.5V582h-2.64zm-105.972 26v-12.6h2.016v5.004h6.102V595.4h2.016V608h-2.016v-5.742h-6.102V608h-2.016zm13.232 0v-12.6h8.145v1.782h-6.129v3.402h5.292v1.683h-5.292v3.933h6.183v1.8h-8.199zm9.681 0l4.086-6.462-3.87-6.138h2.412l2.907 4.653 3.105-4.653h2.34l-4.068 6.192 4.185 6.408h-2.421l-3.222-4.959L932.9 608h-2.349zm14.047-6.597a1.47 1.47 0 0 1-.999-.369c-.276-.246-.414-.567-.414-.963a1.28 1.28 0 0 1 .189-.702c.126-.204.297-.36.513-.468a1.5 1.5 0 0 1 .711-.171c.39 0 .72.123.99.369.276.24.414.564.414.972 0 .264-.063.498-.189.702-.126.198-.297.354-.513.468-.21.108-.444.162-.702.162zm0 6.867a1.47 1.47 0 0 1-.999-.369c-.276-.246-.414-.567-.414-.963a1.28 1.28 0 0 1 .189-.702c.126-.204.297-.36.513-.468a1.5 1.5 0 0 1 .711-.171c.39 0 .72.123.99.369.276.24.414.564.414.972 0 .264-.063.498-.189.702-.126.198-.297.351-.513.459-.21.114-.444.171-.702.171zm8.2-.702l.738-3.051h-1.539l.324-1.422h1.548l.648-2.772h-1.548l.342-1.422h1.53l.747-3.069h1.467l-.729 3.069h2.664l.729-3.078h1.485l-.738 3.078h1.53l-.324 1.431h-1.539l-.621 2.754h1.53l-.342 1.431h-1.539l-.738 3.06h-1.485l.738-3.06h-2.655l-.738 3.051h-1.485zm2.547-4.473l2.682-.009.621-2.754-2.682-.009-.621 2.772zm8.817 4.905v-12.6h8.145v1.782h-6.129v3.402h5.292v1.683h-5.292v3.933h6.183v1.8h-8.199zm10.841 0v-12.6h8.145v1.782h-6.129v3.402h5.292v1.683h-5.292v3.933h6.183v1.8h-8.199zm10.841 0v-12.6h7.785v1.845h-5.769v3.627h5.229v1.8h-5.229V608h-2.016zm10.199 0l5.307-10.782h-6V595.4h8.25v1.503L998.203 608h-2.16zm9.847 0v-12.6h7.79v1.845h-5.77v3.627h5.23v1.8h-5.23V608h-2.02zm15.21 0v-2.583h-6.27v-1.521l4.52-8.496h2.05l-4.45 8.334h4.15v-2.799h1.74v2.799h1.95v1.683h-1.95V608h-1.74z" fill="#333"/></svg>