<svg width="1440" height="900" viewBox="0 0 1440 900" fill="none" xmlns="http://www.w3.org/2000/svg">
<rect width="1440" height="900" rx="28" fill="#848484"/>
<rect x="216.265" y="260" width="333" height="333" rx="28.7482" fill="#10664F"/>
<path d="M331.851 496.926V493.847H337.91C339.493 493.847 340.722 493.438 341.595 492.619C342.479 491.789 342.922 490.643 342.922 489.18V489.147C342.922 487.662 342.479 486.511 341.595 485.692C340.722 484.873 339.493 484.464 337.91 484.464H331.851V481.368H338.827C340.378 481.368 341.737 481.696 342.905 482.351C344.084 482.995 345.007 483.901 345.673 485.07C346.339 486.227 346.672 487.575 346.672 489.115V489.147C346.672 490.687 346.339 492.046 345.673 493.225C345.007 494.393 344.084 495.305 342.905 495.96C341.737 496.604 340.378 496.926 338.827 496.926H331.851ZM330.017 505V481.368H333.685V505H330.017ZM349.456 505V487.772H353.026V490.719H353.091C353.364 489.704 353.85 488.907 354.549 488.328C355.248 487.739 356.088 487.444 357.071 487.444C357.333 487.444 357.568 487.461 357.775 487.493C357.994 487.515 358.168 487.542 358.299 487.575V490.867C358.157 490.812 357.944 490.769 357.661 490.736C357.377 490.692 357.06 490.67 356.711 490.67C355.957 490.67 355.302 490.834 354.746 491.162C354.189 491.478 353.763 491.942 353.468 492.554C353.173 493.154 353.026 493.88 353.026 494.732V505H349.456ZM360.641 505V487.772H364.211V505H360.641ZM362.426 485.119C361.859 485.119 361.373 484.922 360.969 484.529C360.565 484.125 360.363 483.645 360.363 483.088C360.363 482.509 360.565 482.023 360.969 481.63C361.373 481.237 361.859 481.041 362.426 481.041C363.005 481.041 363.491 481.237 363.884 481.63C364.288 482.023 364.49 482.509 364.49 483.088C364.49 483.645 364.288 484.125 363.884 484.529C363.491 484.922 363.005 485.119 362.426 485.119ZM367.831 505V487.772H371.401V490.441H371.466C371.837 489.535 372.443 488.809 373.284 488.263C374.125 487.717 375.107 487.444 376.232 487.444C377.018 487.444 377.728 487.575 378.361 487.837C379.005 488.099 379.556 488.487 380.015 489C380.473 489.502 380.812 490.114 381.03 490.834H381.112C381.407 490.135 381.816 489.535 382.34 489.033C382.875 488.52 383.492 488.126 384.191 487.854C384.901 487.581 385.665 487.444 386.484 487.444C387.619 487.444 388.607 487.684 389.448 488.165C390.289 488.634 390.944 489.295 391.413 490.146C391.883 490.998 392.117 491.997 392.117 493.143V505H388.547V494.011C388.547 493.258 388.416 492.619 388.154 492.095C387.903 491.571 387.532 491.173 387.04 490.9C386.56 490.627 385.965 490.49 385.255 490.49C384.557 490.49 383.94 490.649 383.405 490.965C382.881 491.282 382.466 491.724 382.16 492.292C381.865 492.859 381.718 493.504 381.718 494.224V505H378.23V493.749C378.23 493.083 378.093 492.51 377.82 492.03C377.558 491.538 377.187 491.162 376.707 490.9C376.226 490.627 375.648 490.49 374.971 490.49C374.283 490.49 373.666 490.659 373.12 490.998C372.585 491.325 372.165 491.779 371.859 492.357C371.554 492.936 371.401 493.602 371.401 494.355V505H367.831ZM400.584 505.311C399.438 505.311 398.433 505.093 397.571 504.656C396.708 504.219 396.037 503.608 395.556 502.822C395.076 502.036 394.836 501.13 394.836 500.103V500.071C394.836 499.066 395.087 498.204 395.589 497.483C396.091 496.752 396.817 496.173 397.767 495.747C398.728 495.321 399.885 495.07 401.239 494.994L407.757 494.601V497.09L401.714 497.467C400.655 497.532 399.836 497.789 399.258 498.236C398.69 498.673 398.406 499.257 398.406 499.989V500.021C398.406 500.775 398.69 501.37 399.258 501.807C399.836 502.243 400.6 502.462 401.55 502.462C402.38 502.462 403.122 502.292 403.778 501.954C404.444 501.615 404.968 501.151 405.35 500.562C405.732 499.961 405.923 499.29 405.923 498.548V493.422C405.923 492.472 405.628 491.729 405.039 491.194C404.449 490.649 403.603 490.376 402.5 490.376C401.485 490.376 400.666 490.594 400.044 491.031C399.432 491.467 399.05 492.03 398.897 492.717L398.864 492.865H395.524L395.54 492.685C395.627 491.691 395.96 490.801 396.539 490.015C397.118 489.218 397.92 488.591 398.946 488.132C399.973 487.673 401.19 487.444 402.598 487.444C404.007 487.444 405.224 487.679 406.25 488.148C407.277 488.618 408.074 489.278 408.641 490.13C409.209 490.982 409.493 491.98 409.493 493.127V505H405.923V502.281H405.857C405.519 502.904 405.082 503.444 404.547 503.903C404.012 504.35 403.406 504.7 402.729 504.951C402.063 505.191 401.348 505.311 400.584 505.311ZM412.899 505V487.772H416.469V490.719H416.535C416.808 489.704 417.294 488.907 417.993 488.328C418.691 487.739 419.532 487.444 420.515 487.444C420.777 487.444 421.011 487.461 421.219 487.493C421.437 487.515 421.612 487.542 421.743 487.575V490.867C421.601 490.812 421.388 490.769 421.104 490.736C420.82 490.692 420.504 490.67 420.154 490.67C419.401 490.67 418.746 490.834 418.189 491.162C417.632 491.478 417.206 491.942 416.912 492.554C416.617 493.154 416.469 493.88 416.469 494.732V505H412.899ZM426.508 510.748C426.17 510.748 425.832 510.732 425.493 510.699C425.155 510.666 424.876 510.628 424.658 510.584V507.817C424.789 507.839 424.953 507.86 425.149 507.882C425.357 507.915 425.58 507.931 425.821 507.931C426.661 507.931 427.327 507.79 427.819 507.506C428.321 507.222 428.714 506.665 428.998 505.835L429.292 505.016L423.02 487.772H426.869L431.438 502.56L430.816 501.79H431.683L431.061 502.56L435.647 487.772H439.397L432.977 505.786C432.551 506.976 432.049 507.937 431.471 508.668C430.903 509.4 430.215 509.929 429.407 510.257C428.61 510.584 427.644 510.748 426.508 510.748Z" fill="#FFFFF0"/>
<path d="M330.283 550H328.234L332.024 529.744H334.073L332.894 536.033H332.838L331.477 543.234H331.533L330.283 550ZM337.049 550H335L336.235 543.234H336.291L337.653 536.033H337.597L338.79 529.744H340.839L337.049 550ZM341.639 544.511H325.96L326.367 542.462H330.536V542.518H337.316V542.462H342.047L341.639 544.511ZM342.931 537.086H338.355V537.03H331.617L331.603 537.086H327.237L327.644 535.036H343.338L342.931 537.086ZM350.146 550V532.425H350.09L344.728 536.159V533.619L350.118 529.744H352.588V550H350.146ZM364.787 550.337C363.233 550.337 361.9 549.911 360.786 549.06C359.682 548.208 358.835 547.001 358.245 545.438C357.656 543.875 357.361 542.022 357.361 539.879V539.851C357.361 537.708 357.656 535.855 358.245 534.292C358.835 532.73 359.682 531.527 360.786 530.685C361.9 529.833 363.233 529.407 364.787 529.407C366.34 529.407 367.674 529.833 368.787 530.685C369.901 531.527 370.753 532.73 371.342 534.292C371.941 535.855 372.241 537.708 372.241 539.851V539.879C372.241 542.022 371.941 543.875 371.342 545.438C370.753 547.001 369.901 548.208 368.787 549.06C367.674 549.911 366.34 550.337 364.787 550.337ZM364.787 548.133C365.816 548.133 366.696 547.801 367.426 547.136C368.165 546.463 368.727 545.508 369.11 544.273C369.503 543.038 369.7 541.573 369.7 539.879V539.851C369.7 538.157 369.503 536.697 369.11 535.471C368.727 534.236 368.165 533.286 367.426 532.622C366.696 531.958 365.816 531.625 364.787 531.625C363.757 531.625 362.878 531.958 362.148 532.622C361.418 533.286 360.861 534.236 360.477 535.471C360.094 536.697 359.902 538.157 359.902 539.851V539.879C359.902 541.573 360.094 543.038 360.477 544.273C360.861 545.508 361.418 546.463 362.148 547.136C362.878 547.801 363.757 548.133 364.787 548.133ZM382.488 550.337C381.552 550.337 380.63 550.164 379.722 549.818C378.815 549.462 377.986 548.891 377.238 548.105C376.499 547.319 375.904 546.285 375.455 545.003C375.015 543.711 374.795 542.125 374.795 540.244V540.216C374.795 537.942 375.104 536 375.722 534.391C376.349 532.772 377.247 531.536 378.417 530.685C379.596 529.833 381.009 529.407 382.656 529.407C383.807 529.407 384.841 529.613 385.758 530.025C386.685 530.427 387.457 530.998 388.075 531.738C388.692 532.477 389.113 533.338 389.338 534.32L389.38 534.503H386.811L386.755 534.349C386.559 533.787 386.268 533.305 385.885 532.903C385.501 532.5 385.033 532.191 384.481 531.976C383.938 531.752 383.321 531.639 382.628 531.639C381.374 531.639 380.359 532.004 379.582 532.734C378.805 533.464 378.23 534.428 377.855 535.626C377.491 536.824 377.289 538.134 377.252 539.556C377.243 539.65 377.238 539.743 377.238 539.837C377.238 539.921 377.238 540.01 377.238 540.104L377.841 543.431C377.841 544.292 378.043 545.078 378.445 545.789C378.857 546.491 379.414 547.052 380.115 547.473C380.817 547.885 381.599 548.091 382.46 548.091C383.321 548.091 384.102 547.89 384.804 547.487C385.506 547.076 386.063 546.523 386.474 545.831C386.886 545.138 387.092 544.366 387.092 543.515V543.487C387.092 542.607 386.895 541.826 386.502 541.143C386.109 540.459 385.567 539.926 384.874 539.542C384.182 539.149 383.391 538.953 382.502 538.953C381.622 538.953 380.827 539.145 380.115 539.528C379.414 539.912 378.857 540.441 378.445 541.114C378.043 541.788 377.841 542.556 377.841 543.417V543.431H376.999V539.991H377.294C377.565 539.393 377.968 538.85 378.501 538.363C379.044 537.867 379.69 537.474 380.438 537.184C381.187 536.885 382.02 536.735 382.937 536.735C384.228 536.735 385.379 537.025 386.39 537.605C387.401 538.185 388.196 538.981 388.776 539.991C389.366 541.002 389.661 542.149 389.661 543.431V543.459C389.661 544.788 389.347 545.971 388.72 547.01C388.103 548.039 387.256 548.854 386.18 549.453C385.103 550.042 383.873 550.337 382.488 550.337ZM400.231 550.337C399.295 550.337 398.373 550.164 397.465 549.818C396.558 549.462 395.73 548.891 394.981 548.105C394.242 547.319 393.647 546.285 393.198 545.003C392.758 543.711 392.538 542.125 392.538 540.244V540.216C392.538 537.942 392.847 536 393.465 534.391C394.092 532.772 394.99 531.536 396.16 530.685C397.339 529.833 398.752 529.407 400.399 529.407C401.55 529.407 402.584 529.613 403.501 530.025C404.428 530.427 405.2 530.998 405.818 531.738C406.435 532.477 406.856 533.338 407.081 534.32L407.123 534.503H404.554L404.498 534.349C404.302 533.787 404.011 533.305 403.628 532.903C403.244 532.5 402.776 532.191 402.224 531.976C401.681 531.752 401.064 531.639 400.371 531.639C399.117 531.639 398.102 532.004 397.325 532.734C396.548 533.464 395.973 534.428 395.598 535.626C395.234 536.824 395.032 538.134 394.995 539.556C394.986 539.65 394.981 539.743 394.981 539.837C394.981 539.921 394.981 540.01 394.981 540.104L395.584 543.431C395.584 544.292 395.786 545.078 396.188 545.789C396.6 546.491 397.157 547.052 397.858 547.473C398.56 547.885 399.342 548.091 400.203 548.091C401.064 548.091 401.845 547.89 402.547 547.487C403.249 547.076 403.806 546.523 404.217 545.831C404.629 545.138 404.835 544.366 404.835 543.515V543.487C404.835 542.607 404.638 541.826 404.245 541.143C403.852 540.459 403.31 539.926 402.617 539.542C401.925 539.149 401.134 538.953 400.245 538.953C399.365 538.953 398.57 539.145 397.858 539.528C397.157 539.912 396.6 540.441 396.188 541.114C395.786 541.788 395.584 542.556 395.584 543.417V543.431H394.742V539.991H395.037C395.308 539.393 395.711 538.85 396.244 538.363C396.787 537.867 397.433 537.474 398.181 537.184C398.93 536.885 399.763 536.735 400.68 536.735C401.971 536.735 403.122 537.025 404.133 537.605C405.144 538.185 405.939 538.981 406.519 539.991C407.109 541.002 407.404 542.149 407.404 543.431V543.459C407.404 544.788 407.09 545.971 406.463 547.01C405.846 548.039 404.999 548.854 403.923 549.453C402.846 550.042 401.616 550.337 400.231 550.337ZM420.276 550V545.789H410.099V543.501C410.688 542.584 411.278 541.667 411.868 540.749C412.467 539.832 413.061 538.915 413.65 537.998C414.249 537.081 414.844 536.164 415.433 535.247C416.023 534.33 416.612 533.413 417.202 532.496C417.801 531.579 418.395 530.661 418.984 529.744H422.718V543.571H425.582V545.789H422.718V550H420.276ZM412.598 543.571H420.276V531.906H420.192C419.686 532.683 419.181 533.459 418.676 534.236C418.17 535.004 417.665 535.776 417.16 536.552C416.654 537.32 416.144 538.092 415.63 538.868C415.124 539.645 414.619 540.422 414.114 541.199C413.608 541.966 413.103 542.738 412.598 543.515V543.571ZM428.347 550V529.744H440.644V532.018H430.874V538.981H439.844V541.227H430.874V550H428.347Z" fill="#FFFFF0"/>
<path d="M343.742 371L357.891 330.489H365.359V338.349H362.776L352.641 371H343.742ZM351.35 361.174L353.427 354.829H372.321L374.399 361.174H351.35ZM373.079 371L362.945 338.349V330.489H367.858L381.979 371H373.079ZM383.551 371L397.701 330.489H405.169V338.349H402.586L392.451 371H383.551ZM391.159 361.174L393.237 354.829H412.131L414.208 361.174H391.159ZM412.889 371L402.754 338.349V330.489H407.667L421.789 371H412.889Z" fill="#FFFFF0"/>
<path d="M346.401 420.328C345.489 420.328 344.592 420.16 343.707 419.822C342.823 419.476 342.017 418.92 341.288 418.154C340.568 417.389 339.989 416.382 339.551 415.133C339.123 413.875 338.909 412.33 338.909 410.498V410.471C338.909 408.256 339.209 406.365 339.811 404.797C340.422 403.22 341.297 402.017 342.436 401.188C343.584 400.358 344.961 399.943 346.565 399.943C347.686 399.943 348.693 400.144 349.586 400.545C350.489 400.937 351.241 401.493 351.842 402.213C352.444 402.933 352.854 403.771 353.073 404.729L353.114 404.906H350.612L350.557 404.756C350.366 404.209 350.083 403.74 349.709 403.348C349.336 402.956 348.88 402.655 348.342 402.445C347.814 402.227 347.212 402.117 346.538 402.117C345.316 402.117 344.327 402.473 343.571 403.184C342.814 403.895 342.254 404.833 341.889 406C341.534 407.167 341.338 408.443 341.301 409.828C341.292 409.919 341.288 410.01 341.288 410.102C341.288 410.184 341.288 410.27 341.288 410.361L341.875 413.602C341.875 414.44 342.071 415.206 342.463 415.898C342.864 416.582 343.407 417.129 344.09 417.539C344.774 417.94 345.535 418.141 346.373 418.141C347.212 418.141 347.973 417.945 348.657 417.553C349.34 417.152 349.883 416.614 350.284 415.939C350.685 415.265 350.885 414.513 350.885 413.684V413.656C350.885 412.799 350.694 412.038 350.311 411.373C349.928 410.708 349.4 410.188 348.725 409.814C348.051 409.432 347.28 409.24 346.415 409.24C345.558 409.24 344.783 409.427 344.09 409.801C343.407 410.174 342.864 410.689 342.463 411.346C342.071 412.002 341.875 412.749 341.875 413.588V413.602H341.055V410.252H341.342C341.607 409.669 341.998 409.14 342.518 408.666C343.047 408.183 343.676 407.8 344.405 407.518C345.134 407.226 345.945 407.08 346.838 407.08C348.096 407.08 349.217 407.363 350.202 407.928C351.186 408.493 351.961 409.268 352.526 410.252C353.1 411.236 353.387 412.353 353.387 413.602V413.629C353.387 414.923 353.082 416.076 352.471 417.088C351.87 418.09 351.045 418.883 349.997 419.467C348.948 420.041 347.75 420.328 346.401 420.328ZM358.514 420.191C358.076 420.191 357.707 420.041 357.406 419.74C357.105 419.439 356.955 419.07 356.955 418.633C356.955 418.195 357.105 417.826 357.406 417.525C357.707 417.225 358.076 417.074 358.514 417.074C358.951 417.074 359.32 417.225 359.621 417.525C359.922 417.826 360.072 418.195 360.072 418.633C360.072 419.07 359.922 419.439 359.621 419.74C359.32 420.041 358.951 420.191 358.514 420.191ZM370.476 420.328C369.081 420.328 367.846 420.087 366.771 419.604C365.695 419.12 364.848 418.455 364.228 417.607C363.617 416.751 363.312 415.771 363.312 414.668V414.641C363.312 413.829 363.49 413.077 363.845 412.385C364.201 411.692 364.697 411.104 365.335 410.621C365.973 410.129 366.712 409.787 367.55 409.596V409.541C366.475 409.204 365.618 408.648 364.98 407.873C364.342 407.098 364.023 406.191 364.023 405.152V405.125C364.023 404.132 364.301 403.247 364.857 402.473C365.413 401.689 366.178 401.074 367.154 400.627C368.129 400.171 369.236 399.943 370.476 399.943C371.725 399.943 372.832 400.171 373.798 400.627C374.773 401.074 375.539 401.689 376.095 402.473C376.651 403.247 376.929 404.132 376.929 405.125V405.152C376.929 406.191 376.61 407.098 375.972 407.873C375.343 408.648 374.486 409.204 373.402 409.541V409.596C374.249 409.787 374.988 410.129 375.617 410.621C376.255 411.104 376.751 411.692 377.107 412.385C377.462 413.077 377.64 413.829 377.64 414.641V414.668C377.64 415.771 377.335 416.751 376.724 417.607C376.113 418.455 375.266 419.12 374.181 419.604C373.105 420.087 371.87 420.328 370.476 420.328ZM370.476 418.182C371.387 418.182 372.189 418.027 372.882 417.717C373.584 417.398 374.135 416.965 374.536 416.418C374.938 415.862 375.138 415.229 375.138 414.518V414.49C375.138 413.77 374.938 413.132 374.536 412.576C374.145 412.02 373.598 411.583 372.896 411.264C372.194 410.945 371.387 410.785 370.476 410.785C369.564 410.785 368.758 410.945 368.056 411.264C367.354 411.583 366.803 412.02 366.402 412.576C366.01 413.132 365.814 413.77 365.814 414.49V414.518C365.814 415.229 366.014 415.862 366.415 416.418C366.816 416.965 367.368 417.398 368.07 417.717C368.771 418.027 369.574 418.182 370.476 418.182ZM370.476 408.625C371.269 408.625 371.966 408.488 372.568 408.215C373.169 407.932 373.639 407.545 373.976 407.053C374.313 406.561 374.482 405.995 374.482 405.357V405.33C374.482 404.692 374.313 404.127 373.976 403.635C373.639 403.143 373.169 402.76 372.568 402.486C371.966 402.204 371.269 402.062 370.476 402.062C369.683 402.062 368.986 402.204 368.384 402.486C367.783 402.76 367.313 403.143 366.976 403.635C366.639 404.127 366.47 404.692 366.47 405.33V405.357C366.47 405.995 366.639 406.561 366.976 407.053C367.313 407.545 367.783 407.932 368.384 408.215C368.986 408.488 369.683 408.625 370.476 408.625ZM388.167 420.328C387.255 420.328 386.358 420.16 385.473 419.822C384.589 419.476 383.783 418.92 383.053 418.154C382.333 417.389 381.755 416.382 381.317 415.133C380.889 413.875 380.675 412.33 380.675 410.498V410.471C380.675 408.256 380.975 406.365 381.577 404.797C382.188 403.22 383.063 402.017 384.202 401.188C385.35 400.358 386.727 399.943 388.331 399.943C389.452 399.943 390.459 400.144 391.352 400.545C392.255 400.937 393.007 401.493 393.608 402.213C394.21 402.933 394.62 403.771 394.839 404.729L394.88 404.906H392.378L392.323 404.756C392.132 404.209 391.849 403.74 391.475 403.348C391.102 402.956 390.646 402.655 390.108 402.445C389.58 402.227 388.978 402.117 388.303 402.117C387.082 402.117 386.093 402.473 385.337 403.184C384.58 403.895 384.02 404.833 383.655 406C383.3 407.167 383.104 408.443 383.067 409.828C383.058 409.919 383.053 410.01 383.053 410.102C383.053 410.184 383.053 410.27 383.053 410.361L383.641 413.602C383.641 414.44 383.837 415.206 384.229 415.898C384.63 416.582 385.173 417.129 385.856 417.539C386.54 417.94 387.301 418.141 388.139 418.141C388.978 418.141 389.739 417.945 390.423 417.553C391.106 417.152 391.649 416.614 392.05 415.939C392.451 415.265 392.651 414.513 392.651 413.684V413.656C392.651 412.799 392.46 412.038 392.077 411.373C391.694 410.708 391.165 410.188 390.491 409.814C389.817 409.432 389.046 409.24 388.18 409.24C387.324 409.24 386.549 409.427 385.856 409.801C385.173 410.174 384.63 410.689 384.229 411.346C383.837 412.002 383.641 412.749 383.641 413.588V413.602H382.821V410.252H383.108C383.373 409.669 383.764 409.14 384.284 408.666C384.813 408.183 385.442 407.8 386.171 407.518C386.9 407.226 387.711 407.08 388.604 407.08C389.862 407.08 390.983 407.363 391.968 407.928C392.952 408.493 393.727 409.268 394.292 410.252C394.866 411.236 395.153 412.353 395.153 413.602V413.629C395.153 414.923 394.848 416.076 394.237 417.088C393.636 418.09 392.811 418.883 391.762 419.467C390.714 420.041 389.516 420.328 388.167 420.328ZM406.582 420.191C406.144 420.191 405.775 420.041 405.474 419.74C405.174 419.439 405.023 419.07 405.023 418.633C405.023 418.195 405.174 417.826 405.474 417.525C405.775 417.225 406.144 417.074 406.582 417.074C407.019 417.074 407.388 417.225 407.689 417.525C407.99 417.826 408.14 418.195 408.14 418.633C408.14 419.07 407.99 419.439 407.689 419.74C407.388 420.041 407.019 420.191 406.582 420.191ZM406.582 409.609C406.144 409.609 405.775 409.459 405.474 409.158C405.174 408.857 405.023 408.488 405.023 408.051C405.023 407.613 405.174 407.244 405.474 406.943C405.775 406.643 406.144 406.492 406.582 406.492C407.019 406.492 407.388 406.643 407.689 406.943C407.99 407.244 408.14 407.613 408.14 408.051C408.14 408.488 407.99 408.857 407.689 409.158C407.388 409.459 407.019 409.609 406.582 409.609ZM423.083 420V402.883H423.028L417.805 406.52V404.045L423.055 400.271H425.461V420H423.083Z" fill="#FFFFF0"/>
<rect x="572.265" y="260" width="333" height="333" rx="28.7482" fill="#232323"/>
<path d="M693.816 420V403.32H693.748L688.593 406.875V403.963L693.789 400.271H696.824V420H693.816ZM709.251 420.328C707.93 420.328 706.758 420.082 705.737 419.59C704.726 419.098 703.915 418.428 703.304 417.58C702.702 416.723 702.356 415.757 702.265 414.682L702.251 414.518H705.177L705.191 414.613C705.282 415.206 705.51 415.743 705.874 416.227C706.248 416.701 706.726 417.079 707.31 417.361C707.893 417.635 708.545 417.771 709.265 417.771C710.094 417.771 710.828 417.594 711.466 417.238C712.104 416.883 712.601 416.391 712.956 415.762C713.312 415.133 713.489 414.413 713.489 413.602V413.574C713.489 412.772 713.307 412.061 712.943 411.441C712.587 410.822 712.095 410.334 711.466 409.979C710.837 409.623 710.117 409.445 709.306 409.445C708.695 409.445 708.13 409.536 707.611 409.719C707.091 409.892 706.631 410.156 706.23 410.512C706.056 410.667 705.888 410.84 705.724 411.031C705.569 411.223 705.428 411.428 705.3 411.646H702.607L703.577 400.271H715.349V402.855H706.066L705.464 409.104H705.532C705.824 408.657 706.193 408.279 706.64 407.969C707.096 407.659 707.606 407.426 708.171 407.271C708.745 407.107 709.356 407.025 710.003 407.025C711.261 407.025 712.377 407.308 713.353 407.873C714.328 408.429 715.094 409.195 715.65 410.17C716.215 411.145 716.497 412.262 716.497 413.52V413.547C716.497 414.878 716.187 416.053 715.568 417.074C714.948 418.095 714.091 418.893 712.997 419.467C711.913 420.041 710.664 420.328 709.251 420.328ZM721.09 420.205C720.58 420.205 720.152 420.032 719.805 419.686C719.459 419.339 719.286 418.911 719.286 418.4C719.286 417.899 719.459 417.475 719.805 417.129C720.152 416.783 720.58 416.609 721.09 416.609C721.592 416.609 722.016 416.783 722.362 417.129C722.708 417.475 722.881 417.899 722.881 418.4C722.881 418.911 722.708 419.339 722.362 419.686C722.016 420.032 721.592 420.205 721.09 420.205ZM733.531 420.328C732.21 420.328 731.038 420.082 730.018 419.59C729.006 419.098 728.195 418.428 727.584 417.58C726.982 416.723 726.636 415.757 726.545 414.682L726.531 414.518H729.457L729.471 414.613C729.562 415.206 729.79 415.743 730.154 416.227C730.528 416.701 731.007 417.079 731.59 417.361C732.173 417.635 732.825 417.771 733.545 417.771C734.374 417.771 735.108 417.594 735.746 417.238C736.384 416.883 736.881 416.391 737.236 415.762C737.592 415.133 737.77 414.413 737.77 413.602V413.574C737.77 412.772 737.587 412.061 737.223 411.441C736.867 410.822 736.375 410.334 735.746 409.979C735.117 409.623 734.397 409.445 733.586 409.445C732.975 409.445 732.41 409.536 731.891 409.719C731.371 409.892 730.911 410.156 730.51 410.512C730.337 410.667 730.168 410.84 730.004 411.031C729.849 411.223 729.708 411.428 729.58 411.646H726.887L727.857 400.271H739.629V402.855H730.346L729.744 409.104H729.813C730.104 408.657 730.473 408.279 730.92 407.969C731.376 407.659 731.886 407.426 732.451 407.271C733.025 407.107 733.636 407.025 734.283 407.025C735.541 407.025 736.658 407.308 737.633 407.873C738.608 408.429 739.374 409.195 739.93 410.17C740.495 411.145 740.777 412.262 740.777 413.52V413.547C740.777 414.878 740.468 416.053 739.848 417.074C739.228 418.095 738.371 418.893 737.277 419.467C736.193 420.041 734.944 420.328 733.531 420.328ZM750.935 420.328C749.477 420.328 748.187 420.087 747.066 419.604C745.945 419.12 745.065 418.455 744.427 417.607C743.789 416.751 743.47 415.766 743.47 414.654V414.627C743.47 413.798 743.653 413.041 744.017 412.357C744.391 411.665 744.906 411.081 745.562 410.607C746.218 410.124 746.975 409.792 747.832 409.609V409.541C746.729 409.222 745.845 408.68 745.179 407.914C744.523 407.139 744.195 406.228 744.195 405.18V405.152C744.195 404.15 744.482 403.257 745.056 402.473C745.63 401.689 746.423 401.074 747.435 400.627C748.456 400.171 749.623 399.943 750.935 399.943C752.238 399.943 753.396 400.171 754.408 400.627C755.429 401.074 756.226 401.689 756.8 402.473C757.375 403.257 757.662 404.15 757.662 405.152V405.18C757.662 406.228 757.333 407.139 756.677 407.914C756.021 408.68 755.137 409.222 754.025 409.541V409.609C754.891 409.792 755.647 410.124 756.294 410.607C756.951 411.081 757.461 411.665 757.826 412.357C758.199 413.041 758.386 413.798 758.386 414.627V414.654C758.386 415.766 758.067 416.751 757.429 417.607C756.8 418.455 755.921 419.12 754.791 419.604C753.669 420.087 752.384 420.328 750.935 420.328ZM750.935 417.867C751.774 417.867 752.512 417.721 753.15 417.43C753.797 417.138 754.303 416.737 754.667 416.227C755.041 415.707 755.228 415.115 755.228 414.449V414.422C755.228 413.757 755.046 413.164 754.681 412.645C754.317 412.125 753.811 411.719 753.164 411.428C752.516 411.127 751.774 410.977 750.935 410.977C750.087 410.977 749.34 411.127 748.693 411.428C748.046 411.719 747.54 412.125 747.175 412.645C746.811 413.164 746.628 413.757 746.628 414.422V414.449C746.628 415.115 746.811 415.707 747.175 416.227C747.549 416.737 748.059 417.138 748.707 417.43C749.354 417.721 750.097 417.867 750.935 417.867ZM750.935 408.502C751.664 408.502 752.302 408.374 752.849 408.119C753.405 407.855 753.838 407.495 754.148 407.039C754.467 406.574 754.626 406.046 754.626 405.453V405.426C754.626 404.824 754.467 404.296 754.148 403.84C753.838 403.384 753.405 403.029 752.849 402.773C752.293 402.509 751.655 402.377 750.935 402.377C750.206 402.377 749.563 402.509 749.007 402.773C748.451 403.029 748.014 403.384 747.695 403.84C747.385 404.296 747.23 404.824 747.23 405.426V405.453C747.23 406.046 747.385 406.574 747.695 407.039C748.014 407.495 748.447 407.855 748.994 408.119C749.55 408.374 750.197 408.502 750.935 408.502ZM769.514 420.205C769.004 420.205 768.575 420.032 768.229 419.686C767.883 419.339 767.709 418.911 767.709 418.4C767.709 417.899 767.883 417.475 768.229 417.129C768.575 416.783 769.004 416.609 769.514 416.609C770.015 416.609 770.439 416.783 770.786 417.129C771.132 417.475 771.305 417.899 771.305 418.4C771.305 418.911 771.132 419.339 770.786 419.686C770.439 420.032 770.015 420.205 769.514 420.205ZM769.514 409.938C769.004 409.938 768.575 409.764 768.229 409.418C767.883 409.072 767.709 408.643 767.709 408.133C767.709 407.632 767.883 407.208 768.229 406.861C768.575 406.515 769.004 406.342 769.514 406.342C770.015 406.342 770.439 406.515 770.786 406.861C771.132 407.208 771.305 407.632 771.305 408.133C771.305 408.643 771.132 409.072 770.786 409.418C770.439 409.764 770.015 409.938 769.514 409.938ZM785.96 420V403.32H785.892L780.738 406.875V403.963L785.933 400.271H788.968V420H785.96Z" fill="#FFFFF0"/>
<path d="M622.58 505V502.003H629.491C631.128 502.003 632.379 501.676 633.241 501.02C634.104 500.365 634.535 499.41 634.535 498.155V498.122C634.535 497.27 634.333 496.561 633.929 495.993C633.536 495.425 632.946 494.999 632.16 494.715C631.374 494.421 630.397 494.273 629.229 494.273H622.58V491.44H628.492C630.108 491.44 631.341 491.123 632.193 490.49C633.045 489.857 633.47 488.951 633.47 487.772V487.739C633.47 486.647 633.105 485.812 632.373 485.233C631.652 484.655 630.626 484.365 629.294 484.365H622.58V481.368H630.179C631.587 481.368 632.81 481.614 633.847 482.105C634.895 482.586 635.703 483.274 636.271 484.169C636.849 485.053 637.139 486.09 637.139 487.28V487.313C637.139 488.143 636.948 488.929 636.566 489.671C636.183 490.414 635.659 491.036 634.993 491.538C634.338 492.041 633.59 492.352 632.75 492.472V492.537C633.874 492.646 634.851 492.963 635.681 493.487C636.522 494 637.166 494.672 637.614 495.501C638.072 496.32 638.301 497.254 638.301 498.302V498.335C638.301 499.721 637.974 500.911 637.319 501.905C636.675 502.898 635.752 503.663 634.551 504.198C633.35 504.733 631.909 505 630.228 505H622.58ZM620.746 505V481.368H624.414V505H620.746ZM646.08 505.311C644.934 505.311 643.93 505.093 643.067 504.656C642.205 504.219 641.533 503.608 641.053 502.822C640.572 502.036 640.332 501.13 640.332 500.103V500.071C640.332 499.066 640.583 498.204 641.085 497.483C641.588 496.752 642.314 496.173 643.264 495.747C644.224 495.321 645.382 495.07 646.735 494.994L653.253 494.601V497.09L647.21 497.467C646.151 497.532 645.333 497.789 644.754 498.236C644.186 498.673 643.902 499.257 643.902 499.989V500.021C643.902 500.775 644.186 501.37 644.754 501.807C645.333 502.243 646.097 502.462 647.047 502.462C647.876 502.462 648.619 502.292 649.274 501.954C649.94 501.615 650.464 501.151 650.846 500.562C651.228 499.961 651.419 499.29 651.419 498.548V493.422C651.419 492.472 651.124 491.729 650.535 491.194C649.945 490.649 649.099 490.376 647.996 490.376C646.981 490.376 646.162 490.594 645.54 491.031C644.929 491.467 644.546 492.03 644.394 492.717L644.361 492.865H641.02L641.036 492.685C641.124 491.691 641.457 490.801 642.035 490.015C642.614 489.218 643.416 488.591 644.443 488.132C645.469 487.673 646.686 487.444 648.095 487.444C649.503 487.444 650.72 487.679 651.747 488.148C652.773 488.618 653.57 489.278 654.138 490.13C654.705 490.982 654.989 491.98 654.989 493.127V505H651.419V502.281H651.354C651.015 502.904 650.579 503.444 650.044 503.903C649.509 504.35 648.903 504.7 648.226 504.951C647.56 505.191 646.845 505.311 646.08 505.311ZM665.814 505.344C664.144 505.344 662.692 504.978 661.458 504.247C660.235 503.515 659.291 502.478 658.625 501.135C657.97 499.792 657.642 498.204 657.642 496.369V496.353C657.642 494.53 657.975 492.952 658.641 491.62C659.318 490.288 660.268 489.262 661.491 488.541C662.714 487.81 664.144 487.444 665.782 487.444C667.256 487.444 668.527 487.728 669.597 488.296C670.678 488.853 671.524 489.595 672.136 490.523C672.747 491.451 673.102 492.455 673.2 493.536L673.217 493.667H669.827L669.794 493.52C669.608 492.679 669.183 491.953 668.517 491.342C667.861 490.719 666.955 490.408 665.798 490.408C664.892 490.408 664.095 490.654 663.407 491.145C662.73 491.626 662.201 492.313 661.818 493.209C661.447 494.104 661.262 495.163 661.262 496.386V496.402C661.262 497.658 661.453 498.733 661.835 499.628C662.217 500.513 662.746 501.19 663.423 501.659C664.111 502.129 664.914 502.363 665.831 502.363C666.923 502.363 667.801 502.079 668.467 501.512C669.144 500.933 669.592 500.18 669.81 499.252L669.827 499.121H673.233V499.235C673.102 500.382 672.709 501.419 672.054 502.347C671.41 503.264 670.553 503.996 669.483 504.541C668.424 505.076 667.201 505.344 665.814 505.344ZM675.968 505V481.368H679.522V505H675.968ZM686.826 505L680.734 497.008L683.043 494.47L690.936 505H686.826ZM678.899 499.416V495.108H679.604L686.498 487.772H690.674L682.601 496.255H682.06L678.899 499.416ZM699.452 511.076C697.978 511.076 696.69 510.868 695.587 510.453C694.496 510.039 693.617 509.476 692.951 508.767C692.285 508.057 691.864 507.265 691.69 506.392L691.657 506.245H695.194L695.243 506.376C695.484 506.922 695.964 507.364 696.685 507.702C697.416 508.052 698.333 508.226 699.436 508.226C700.833 508.226 701.909 507.871 702.662 507.162C703.415 506.463 703.792 505.519 703.792 504.329V501.954H703.71C703.383 502.576 702.951 503.117 702.416 503.575C701.892 504.034 701.281 504.389 700.582 504.64C699.883 504.891 699.119 505.016 698.289 505.016C696.848 505.016 695.587 504.662 694.506 503.952C693.426 503.231 692.59 502.216 692.001 500.906C691.411 499.596 691.116 498.045 691.116 496.255V496.238C691.116 494.437 691.417 492.881 692.017 491.571C692.618 490.25 693.458 489.235 694.539 488.525C695.631 487.804 696.903 487.444 698.355 487.444C699.174 487.444 699.922 487.581 700.599 487.854C701.286 488.126 701.892 488.509 702.416 489C702.94 489.48 703.372 490.048 703.71 490.703H703.792V487.772H707.346V504.525C707.346 505.835 707.024 506.982 706.38 507.964C705.746 508.947 704.835 509.711 703.645 510.257C702.466 510.803 701.068 511.076 699.452 511.076ZM699.288 502.134C700.195 502.134 700.981 501.894 701.647 501.413C702.324 500.933 702.848 500.256 703.219 499.383C703.601 498.509 703.792 497.483 703.792 496.304V496.288C703.792 495.108 703.601 494.088 703.219 493.225C702.848 492.352 702.324 491.68 701.647 491.211C700.97 490.73 700.184 490.49 699.288 490.49C698.36 490.49 697.552 490.725 696.865 491.194C696.188 491.664 695.664 492.335 695.293 493.209C694.921 494.071 694.736 495.092 694.736 496.271V496.288C694.736 497.499 694.921 498.542 695.293 499.416C695.664 500.278 696.188 500.949 696.865 501.43C697.552 501.899 698.36 502.134 699.288 502.134ZM710.834 505V487.772H714.404V490.719H714.47C714.743 489.704 715.228 488.907 715.927 488.328C716.626 487.739 717.467 487.444 718.449 487.444C718.711 487.444 718.946 487.461 719.153 487.493C719.372 487.515 719.546 487.542 719.677 487.575V490.867C719.536 490.812 719.323 490.769 719.039 490.736C718.755 490.692 718.438 490.67 718.089 490.67C717.336 490.67 716.681 490.834 716.124 491.162C715.567 491.478 715.141 491.942 714.846 492.554C714.552 493.154 714.404 493.88 714.404 494.732V505H710.834ZM728.586 505.344C726.938 505.344 725.497 504.984 724.263 504.263C723.04 503.532 722.09 502.5 721.413 501.168C720.737 499.825 720.398 498.231 720.398 496.386V496.353C720.398 494.519 720.737 492.936 721.413 491.604C722.101 490.272 723.057 489.246 724.279 488.525C725.513 487.804 726.943 487.444 728.57 487.444C730.208 487.444 731.638 487.804 732.861 488.525C734.094 489.235 735.05 490.255 735.727 491.587C736.415 492.919 736.758 494.508 736.758 496.353V496.386C736.758 498.242 736.415 499.836 735.727 501.168C735.05 502.5 734.1 503.532 732.877 504.263C731.654 504.984 730.224 505.344 728.586 505.344ZM728.603 502.363C729.52 502.363 730.317 502.129 730.994 501.659C731.671 501.19 732.195 500.513 732.566 499.628C732.937 498.733 733.123 497.652 733.123 496.386V496.353C733.123 495.098 732.937 494.028 732.566 493.143C732.195 492.248 731.665 491.571 730.977 491.113C730.29 490.643 729.487 490.408 728.57 490.408C727.664 490.408 726.867 490.643 726.179 491.113C725.502 491.582 724.973 492.259 724.591 493.143C724.208 494.028 724.017 495.098 724.017 496.353V496.386C724.017 497.652 724.203 498.733 724.574 499.628C724.956 500.513 725.491 501.19 726.179 501.659C726.867 502.129 727.675 502.363 728.603 502.363ZM745.373 505.344C744.117 505.344 743.042 505.087 742.146 504.574C741.262 504.05 740.585 503.308 740.116 502.347C739.646 501.386 739.411 500.245 739.411 498.924V487.772H742.982V498.253C742.982 499.552 743.282 500.551 743.882 501.25C744.494 501.938 745.411 502.281 746.634 502.281C747.267 502.281 747.829 502.178 748.32 501.97C748.823 501.752 749.254 501.452 749.614 501.07C749.974 500.677 750.247 500.207 750.433 499.661C750.63 499.104 750.728 498.493 750.728 497.827V487.772H754.282V505H750.728V502.412H750.646C750.351 502.98 749.958 503.488 749.467 503.936C748.975 504.372 748.386 504.716 747.698 504.967C747.021 505.218 746.246 505.344 745.373 505.344ZM757.77 505V487.772H761.34V490.376H761.405C761.864 489.502 762.535 488.798 763.42 488.263C764.304 487.717 765.396 487.444 766.695 487.444C768.584 487.444 770.047 488.017 771.084 489.164C772.121 490.299 772.64 491.86 772.64 493.847V505H769.086V494.535C769.086 493.236 768.78 492.237 768.169 491.538C767.569 490.84 766.657 490.49 765.434 490.49C764.604 490.49 763.878 490.676 763.256 491.047C762.645 491.418 762.17 491.937 761.831 492.603C761.504 493.269 761.34 494.055 761.34 494.961V505H757.77ZM782.499 505.344C781.036 505.344 779.764 504.978 778.683 504.247C777.602 503.515 776.767 502.483 776.177 501.151C775.588 499.809 775.293 498.22 775.293 496.386V496.369C775.293 494.535 775.588 492.952 776.177 491.62C776.778 490.288 777.613 489.262 778.683 488.541C779.764 487.81 781.025 487.444 782.466 487.444C783.274 487.444 784.027 487.575 784.726 487.837C785.425 488.099 786.042 488.476 786.576 488.967C787.122 489.448 787.565 490.026 787.903 490.703H787.969V481.368H791.539V505H787.969V502.085H787.903C787.565 502.762 787.128 503.34 786.593 503.821C786.069 504.301 785.463 504.678 784.775 504.951C784.087 505.213 783.328 505.344 782.499 505.344ZM783.432 502.281C784.327 502.281 785.113 502.041 785.79 501.561C786.478 501.07 787.013 500.382 787.395 499.497C787.788 498.613 787.985 497.576 787.985 496.386V496.369C787.985 495.179 787.788 494.148 787.395 493.274C787.002 492.39 786.467 491.708 785.79 491.227C785.113 490.736 784.327 490.49 783.432 490.49C782.504 490.49 781.702 490.73 781.025 491.211C780.348 491.68 779.824 492.357 779.453 493.241C779.092 494.115 778.912 495.158 778.912 496.369V496.386C778.912 497.598 779.092 498.651 779.453 499.547C779.824 500.431 780.348 501.108 781.025 501.577C781.702 502.047 782.504 502.281 783.432 502.281ZM803.084 481.368L796.681 510.732H793.406L799.793 481.368H803.084ZM811.289 505V484.545H804.067V481.368H822.196V484.545H814.974V505H811.289ZM827.895 505.344C826.214 505.344 824.762 504.984 823.539 504.263C822.327 503.532 821.393 502.5 820.738 501.168C820.094 499.825 819.772 498.247 819.772 496.435V496.419C819.772 494.628 820.1 493.061 820.755 491.718C821.41 490.365 822.332 489.317 823.522 488.574C824.712 487.821 826.11 487.444 827.715 487.444C829.331 487.444 830.717 487.804 831.875 488.525C833.043 489.235 833.943 490.245 834.577 491.555C835.21 492.854 835.527 494.366 835.527 496.091V497.287H821.524V494.781H833.807L832.055 497.123V495.747C832.055 494.535 831.869 493.531 831.498 492.734C831.138 491.926 830.63 491.325 829.975 490.932C829.331 490.539 828.583 490.343 827.731 490.343C826.891 490.343 826.137 490.55 825.471 490.965C824.805 491.38 824.281 491.991 823.899 492.799C823.517 493.596 823.326 494.579 823.326 495.747V497.123C823.326 498.236 823.511 499.192 823.883 499.989C824.265 500.775 824.805 501.381 825.504 501.807C826.203 502.221 827.027 502.429 827.977 502.429C828.676 502.429 829.292 502.325 829.827 502.118C830.362 501.899 830.805 501.615 831.154 501.266C831.514 500.906 831.765 500.507 831.907 500.071L831.956 499.94H835.33L835.297 500.12C835.155 500.797 834.888 501.446 834.495 502.069C834.102 502.691 833.589 503.253 832.955 503.755C832.333 504.247 831.596 504.634 830.745 504.918C829.893 505.202 828.943 505.344 827.895 505.344ZM836.673 505L842.372 496.402L836.755 487.772H840.734L844.485 493.995H844.567L848.268 487.772H852.198L846.532 496.288L852.133 505H848.219L844.419 498.662H844.337L840.521 505H836.673ZM860.468 505.344C858.765 505.344 857.493 504.962 856.653 504.198C855.823 503.422 855.408 502.172 855.408 500.447V490.588H852.935V487.772H855.408V483.284H859.044V487.772H862.27V490.588H859.044V500.251C859.044 501.124 859.235 501.725 859.617 502.052C859.999 502.369 860.567 502.527 861.32 502.527C861.506 502.527 861.675 502.522 861.828 502.511C861.991 502.489 862.139 502.473 862.27 502.462V505.197C862.062 505.229 861.8 505.262 861.484 505.295C861.167 505.328 860.829 505.344 860.468 505.344Z" fill="#FFFFF0"/>
<path d="M686.69 550H684.641L688.431 529.744H690.48L689.301 536.033H689.245L687.883 543.234H687.939L686.69 550ZM693.456 550H691.407L692.642 543.234H692.698L694.06 536.033H694.003L695.197 529.744H697.246L693.456 550ZM698.046 544.511H682.367L682.774 542.462H686.943V542.518H693.723V542.462H698.453L698.046 544.511ZM699.338 537.086H694.761V537.03H688.024L688.01 537.086H683.644L684.051 535.036H699.745L699.338 537.086ZM701.387 550V548.259L708.518 540.82C709.435 539.865 710.132 539.079 710.609 538.461C711.096 537.834 711.428 537.273 711.606 536.777C711.793 536.281 711.887 535.752 711.887 535.191V535.163C711.887 534.47 711.723 533.857 711.396 533.324C711.077 532.79 710.633 532.374 710.062 532.074C709.501 531.766 708.85 531.611 708.111 531.611C707.269 531.611 706.515 531.789 705.851 532.145C705.186 532.491 704.662 532.959 704.279 533.548C703.895 534.138 703.703 534.798 703.703 535.528V535.598H701.261V535.514C701.261 534.344 701.565 533.3 702.173 532.383C702.781 531.457 703.6 530.732 704.63 530.208C705.668 529.674 706.815 529.407 708.069 529.407C709.295 529.407 710.385 529.655 711.339 530.151C712.294 530.647 713.043 531.321 713.585 532.173C714.137 533.024 714.414 533.979 714.414 535.036V535.064C714.414 535.804 714.273 536.52 713.992 537.212C713.721 537.905 713.244 538.686 712.561 539.556C711.877 540.417 710.914 541.484 709.669 542.757L704.11 548.456L704.854 546.898V548.456L704.11 547.754H714.75V550H701.387ZM724.492 550.337C723.098 550.337 721.881 550.098 720.843 549.621C719.804 549.144 718.98 548.489 718.372 547.656C717.773 546.823 717.427 545.873 717.333 544.806L717.319 544.638H719.748L719.762 544.778C719.837 545.443 720.075 546.027 720.478 546.533C720.889 547.038 721.437 547.436 722.12 547.726C722.803 548.007 723.594 548.147 724.492 548.147C725.381 548.147 726.158 547.993 726.822 547.684C727.496 547.375 728.02 546.949 728.395 546.406C728.769 545.854 728.956 545.223 728.956 544.511V544.483C728.956 543.239 728.54 542.284 727.707 541.62C726.883 540.946 725.76 540.609 724.338 540.609H721.797V538.475H724.226C725.03 538.475 725.742 538.326 726.359 538.026C726.977 537.717 727.459 537.301 727.805 536.777C728.151 536.244 728.324 535.64 728.324 534.966V534.938C728.324 534.227 728.175 533.623 727.875 533.127C727.576 532.631 727.136 532.252 726.556 531.99C725.985 531.728 725.288 531.597 724.464 531.597C723.669 531.597 722.958 531.733 722.331 532.004C721.713 532.266 721.217 532.645 720.843 533.141C720.468 533.637 720.244 534.227 720.169 534.91L720.155 535.05H717.726L717.74 534.91C717.853 533.806 718.199 532.842 718.779 532.018C719.369 531.195 720.145 530.554 721.109 530.095C722.083 529.637 723.201 529.407 724.464 529.407C725.756 529.407 726.879 529.632 727.833 530.081C728.797 530.521 729.541 531.134 730.065 531.92C730.598 532.697 730.865 533.6 730.865 534.629V534.657C730.865 535.49 730.683 536.229 730.318 536.875C729.953 537.521 729.447 538.059 728.802 538.489C728.156 538.92 727.412 539.224 726.57 539.402V539.458C728.048 539.58 729.241 540.08 730.149 540.96C731.066 541.83 731.525 542.986 731.525 544.427V544.455C731.525 545.578 731.221 546.584 730.612 547.473C730.004 548.362 729.171 549.064 728.114 549.579C727.056 550.084 725.849 550.337 724.492 550.337ZM734.683 550V548.259L741.814 540.82C742.731 539.865 743.428 539.079 743.906 538.461C744.392 537.834 744.725 537.273 744.902 536.777C745.089 536.281 745.183 535.752 745.183 535.191V535.163C745.183 534.47 745.019 533.857 744.692 533.324C744.374 532.79 743.929 532.374 743.358 532.074C742.797 531.766 742.146 531.611 741.407 531.611C740.565 531.611 739.812 531.789 739.147 532.145C738.483 532.491 737.959 532.959 737.575 533.548C737.191 534.138 736.999 534.798 736.999 535.528V535.598H734.557V535.514C734.557 534.344 734.861 533.3 735.469 532.383C736.078 531.457 736.896 530.732 737.926 530.208C738.965 529.674 740.111 529.407 741.365 529.407C742.591 529.407 743.681 529.655 744.636 530.151C745.59 530.647 746.339 531.321 746.882 532.173C747.434 533.024 747.71 533.979 747.71 535.036V535.064C747.71 535.804 747.569 536.52 747.289 537.212C747.017 537.905 746.54 538.686 745.857 539.556C745.174 540.417 744.21 541.484 742.965 542.757L737.406 548.456L738.15 546.898V548.456L737.406 547.754H748.047V550H734.683ZM757.789 550.337C756.394 550.337 755.178 550.098 754.139 549.621C753.1 549.144 752.277 548.489 751.668 547.656C751.069 546.823 750.723 545.873 750.63 544.806L750.615 544.638H753.044L753.058 544.778C753.133 545.443 753.371 546.027 753.774 546.533C754.186 547.038 754.733 547.436 755.416 547.726C756.099 548.007 756.89 548.147 757.789 548.147C758.678 548.147 759.454 547.993 760.119 547.684C760.792 547.375 761.317 546.949 761.691 546.406C762.065 545.854 762.252 545.223 762.252 544.511V544.483C762.252 543.239 761.836 542.284 761.003 541.62C760.18 540.946 759.057 540.609 757.634 540.609H755.093V538.475H757.522C758.327 538.475 759.038 538.326 759.655 538.026C760.273 537.717 760.755 537.301 761.101 536.777C761.448 536.244 761.621 535.64 761.621 534.966V534.938C761.621 534.227 761.471 533.623 761.171 533.127C760.872 532.631 760.432 532.252 759.852 531.99C759.281 531.728 758.584 531.597 757.76 531.597C756.965 531.597 756.254 531.733 755.627 532.004C755.009 532.266 754.513 532.645 754.139 533.141C753.765 533.637 753.54 534.227 753.465 534.91L753.451 535.05H751.023L751.037 534.91C751.149 533.806 751.495 532.842 752.075 532.018C752.665 531.195 753.442 530.554 754.406 530.095C755.379 529.637 756.497 529.407 757.76 529.407C759.052 529.407 760.175 529.632 761.129 530.081C762.093 530.521 762.837 531.134 763.361 531.92C763.895 532.697 764.161 533.6 764.161 534.629V534.657C764.161 535.49 763.979 536.229 763.614 536.875C763.249 537.521 762.744 538.059 762.098 538.489C761.452 538.92 760.708 539.224 759.866 539.402V539.458C761.345 539.58 762.538 540.08 763.445 540.96C764.363 541.83 764.821 542.986 764.821 544.427V544.455C764.821 545.578 764.517 546.584 763.909 547.473C763.3 548.362 762.468 549.064 761.41 549.579C760.353 550.084 759.145 550.337 757.789 550.337ZM767.98 550V548.259L775.11 540.82C776.028 539.865 776.725 539.079 777.202 538.461C777.689 537.834 778.021 537.273 778.199 536.777C778.386 536.281 778.479 535.752 778.479 535.191V535.163C778.479 534.47 778.316 533.857 777.988 533.324C777.67 532.79 777.225 532.374 776.655 532.074C776.093 531.766 775.443 531.611 774.703 531.611C773.861 531.611 773.108 531.789 772.443 532.145C771.779 532.491 771.255 532.959 770.871 533.548C770.487 534.138 770.296 534.798 770.296 535.528V535.598H767.853V535.514C767.853 534.344 768.157 533.3 768.766 532.383C769.374 531.457 770.193 530.732 771.222 530.208C772.261 529.674 773.407 529.407 774.661 529.407C775.887 529.407 776.977 529.655 777.932 530.151C778.886 530.647 779.635 531.321 780.178 532.173C780.73 533.024 781.006 533.979 781.006 535.036V535.064C781.006 535.804 780.866 536.52 780.585 537.212C780.314 537.905 779.836 538.686 779.153 539.556C778.47 540.417 777.506 541.484 776.261 542.757L770.703 548.456L771.447 546.898V548.456L770.703 547.754H781.343V550H767.98ZM791.085 550.337C789.69 550.337 788.474 550.098 787.435 549.621C786.396 549.144 785.573 548.489 784.965 547.656C784.366 546.823 784.019 545.873 783.926 544.806L783.912 544.638H786.34L786.354 544.778C786.429 545.443 786.668 546.027 787.07 546.533C787.482 547.038 788.029 547.436 788.712 547.726C789.396 548.007 790.186 548.147 791.085 548.147C791.974 548.147 792.751 547.993 793.415 547.684C794.089 547.375 794.613 546.949 794.987 546.406C795.361 545.854 795.549 545.223 795.549 544.511V544.483C795.549 543.239 795.132 542.284 794.299 541.62C793.476 540.946 792.353 540.609 790.93 540.609H788.39V538.475H790.818C791.623 538.475 792.334 538.326 792.952 538.026C793.569 537.717 794.051 537.301 794.398 536.777C794.744 536.244 794.917 535.64 794.917 534.966V534.938C794.917 534.227 794.767 533.623 794.468 533.127C794.168 532.631 793.728 532.252 793.148 531.99C792.577 531.728 791.88 531.597 791.057 531.597C790.261 531.597 789.55 531.733 788.923 532.004C788.305 532.266 787.809 532.645 787.435 533.141C787.061 533.637 786.836 534.227 786.761 534.91L786.747 535.05H784.319L784.333 534.91C784.445 533.806 784.791 532.842 785.372 532.018C785.961 531.195 786.738 530.554 787.702 530.095C788.675 529.637 789.793 529.407 791.057 529.407C792.348 529.407 793.471 529.632 794.426 530.081C795.39 530.521 796.133 531.134 796.658 531.92C797.191 532.697 797.458 533.6 797.458 534.629V534.657C797.458 535.49 797.275 536.229 796.91 536.875C796.545 537.521 796.04 538.059 795.394 538.489C794.748 538.92 794.005 539.224 793.162 539.402V539.458C794.641 539.58 795.834 540.08 796.742 540.96C797.659 541.83 798.117 542.986 798.117 544.427V544.455C798.117 545.578 797.813 546.584 797.205 547.473C796.597 548.362 795.764 549.064 794.706 549.579C793.649 550.084 792.442 550.337 791.085 550.337Z" fill="#FFFFF0"/>
<path d="M679.837 371L693.986 330.489H701.454V338.349H698.871L688.737 371H679.837ZM687.445 361.174L689.523 354.829H708.417L710.494 361.174H687.445ZM709.175 371L699.04 338.349V330.489H703.953L718.074 371H709.175ZM719.646 371L733.796 330.489H741.264V338.349H738.681L728.546 371H719.646ZM727.255 361.174L729.332 354.829H748.226L750.304 361.174H727.255ZM748.984 371L738.849 338.349V330.489H743.762L757.884 371H748.984ZM759.456 371L773.605 330.489H781.073V338.349H778.49L768.356 371H759.456ZM767.064 361.174L769.142 354.829H788.036L790.113 361.174H767.064ZM788.794 371L778.659 338.349V330.489H783.572L797.693 371H788.794Z" fill="#FFFFF0"/>
<rect x="927.5" y="260" width="333" height="333" rx="28.7482" fill="#FFFFF0"/>
<path d="M1057.64 420.328C1056.72 420.328 1055.83 420.16 1054.94 419.822C1054.06 419.476 1053.25 418.92 1052.52 418.154C1051.8 417.389 1051.22 416.382 1050.79 415.133C1050.36 413.875 1050.14 412.33 1050.14 410.498V410.471C1050.14 408.256 1050.44 406.365 1051.05 404.797C1051.66 403.22 1052.53 402.017 1053.67 401.188C1054.82 400.358 1056.2 399.943 1057.8 399.943C1058.92 399.943 1059.93 400.144 1060.82 400.545C1061.72 400.937 1062.48 401.493 1063.08 402.213C1063.68 402.933 1064.09 403.771 1064.31 404.729L1064.35 404.906H1061.85L1061.79 404.756C1061.6 404.209 1061.32 403.74 1060.94 403.348C1060.57 402.956 1060.11 402.655 1059.58 402.445C1059.05 402.227 1058.45 402.117 1057.77 402.117C1056.55 402.117 1055.56 402.473 1054.81 403.184C1054.05 403.895 1053.49 404.833 1053.12 406C1052.77 407.167 1052.57 408.443 1052.54 409.828C1052.53 409.919 1052.52 410.01 1052.52 410.102C1052.52 410.184 1052.52 410.27 1052.52 410.361L1053.11 413.602C1053.11 414.44 1053.31 415.206 1053.7 415.898C1054.1 416.582 1054.64 417.129 1055.33 417.539C1056.01 417.94 1056.77 418.141 1057.61 418.141C1058.45 418.141 1059.21 417.945 1059.89 417.553C1060.58 417.152 1061.12 416.614 1061.52 415.939C1061.92 415.265 1062.12 414.513 1062.12 413.684V413.656C1062.12 412.799 1061.93 412.038 1061.55 411.373C1061.16 410.708 1060.63 410.188 1059.96 409.814C1059.29 409.432 1058.52 409.24 1057.65 409.24C1056.79 409.24 1056.02 409.427 1055.33 409.801C1054.64 410.174 1054.1 410.689 1053.7 411.346C1053.31 412.002 1053.11 412.749 1053.11 413.588V413.602H1052.29V410.252H1052.58C1052.84 409.669 1053.23 409.14 1053.75 408.666C1054.28 408.183 1054.91 407.8 1055.64 407.518C1056.37 407.226 1057.18 407.08 1058.07 407.08C1059.33 407.08 1060.45 407.363 1061.44 407.928C1062.42 408.493 1063.2 409.268 1063.76 410.252C1064.33 411.236 1064.62 412.353 1064.62 413.602V413.629C1064.62 414.923 1064.32 416.076 1063.71 417.088C1063.1 418.09 1062.28 418.883 1061.23 419.467C1060.18 420.041 1058.98 420.328 1057.64 420.328ZM1069.75 420.191C1069.31 420.191 1068.94 420.041 1068.64 419.74C1068.34 419.439 1068.19 419.07 1068.19 418.633C1068.19 418.195 1068.34 417.826 1068.64 417.525C1068.94 417.225 1069.31 417.074 1069.75 417.074C1070.19 417.074 1070.56 417.225 1070.86 417.525C1071.16 417.826 1071.31 418.195 1071.31 418.633C1071.31 419.07 1071.16 419.439 1070.86 419.74C1070.56 420.041 1070.19 420.191 1069.75 420.191ZM1081.71 420.328C1080.32 420.328 1079.08 420.087 1078.01 419.604C1076.93 419.12 1076.08 418.455 1075.46 417.607C1074.85 416.751 1074.55 415.771 1074.55 414.668V414.641C1074.55 413.829 1074.72 413.077 1075.08 412.385C1075.44 411.692 1075.93 411.104 1076.57 410.621C1077.21 410.129 1077.95 409.787 1078.79 409.596V409.541C1077.71 409.204 1076.85 408.648 1076.21 407.873C1075.58 407.098 1075.26 406.191 1075.26 405.152V405.125C1075.26 404.132 1075.54 403.247 1076.09 402.473C1076.65 401.689 1077.41 401.074 1078.39 400.627C1079.36 400.171 1080.47 399.943 1081.71 399.943C1082.96 399.943 1084.07 400.171 1085.03 400.627C1086.01 401.074 1086.77 401.689 1087.33 402.473C1087.89 403.247 1088.16 404.132 1088.16 405.125V405.152C1088.16 406.191 1087.84 407.098 1087.21 407.873C1086.58 408.648 1085.72 409.204 1084.64 409.541V409.596C1085.48 409.787 1086.22 410.129 1086.85 410.621C1087.49 411.104 1087.99 411.692 1088.34 412.385C1088.7 413.077 1088.87 413.829 1088.87 414.641V414.668C1088.87 415.771 1088.57 416.751 1087.96 417.607C1087.35 418.455 1086.5 419.12 1085.42 419.604C1084.34 420.087 1083.11 420.328 1081.71 420.328ZM1081.71 418.182C1082.62 418.182 1083.42 418.027 1084.12 417.717C1084.82 417.398 1085.37 416.965 1085.77 416.418C1086.17 415.862 1086.37 415.229 1086.37 414.518V414.49C1086.37 413.77 1086.17 413.132 1085.77 412.576C1085.38 412.02 1084.83 411.583 1084.13 411.264C1083.43 410.945 1082.62 410.785 1081.71 410.785C1080.8 410.785 1079.99 410.945 1079.29 411.264C1078.59 411.583 1078.04 412.02 1077.64 412.576C1077.24 413.132 1077.05 413.77 1077.05 414.49V414.518C1077.05 415.229 1077.25 415.862 1077.65 416.418C1078.05 416.965 1078.6 417.398 1079.3 417.717C1080.01 418.027 1080.81 418.182 1081.71 418.182ZM1081.71 408.625C1082.5 408.625 1083.2 408.488 1083.8 408.215C1084.4 407.932 1084.87 407.545 1085.21 407.053C1085.55 406.561 1085.72 405.995 1085.72 405.357V405.33C1085.72 404.692 1085.55 404.127 1085.21 403.635C1084.87 403.143 1084.4 402.76 1083.8 402.486C1083.2 402.204 1082.5 402.062 1081.71 402.062C1080.92 402.062 1080.22 402.204 1079.62 402.486C1079.02 402.76 1078.55 403.143 1078.21 403.635C1077.87 404.127 1077.7 404.692 1077.7 405.33V405.357C1077.7 405.995 1077.87 406.561 1078.21 407.053C1078.55 407.545 1079.02 407.932 1079.62 408.215C1080.22 408.488 1080.92 408.625 1081.71 408.625ZM1099.4 420.328C1098.49 420.328 1097.59 420.16 1096.71 419.822C1095.82 419.476 1095.02 418.92 1094.29 418.154C1093.57 417.389 1092.99 416.382 1092.55 415.133C1092.12 413.875 1091.91 412.33 1091.91 410.498V410.471C1091.91 408.256 1092.21 406.365 1092.81 404.797C1093.42 403.22 1094.3 402.017 1095.44 401.188C1096.59 400.358 1097.96 399.943 1099.57 399.943C1100.69 399.943 1101.69 400.144 1102.59 400.545C1103.49 400.937 1104.24 401.493 1104.84 402.213C1105.44 402.933 1105.85 403.771 1106.07 404.729L1106.11 404.906H1103.61L1103.56 404.756C1103.37 404.209 1103.08 403.74 1102.71 403.348C1102.34 402.956 1101.88 402.655 1101.34 402.445C1100.81 402.227 1100.21 402.117 1099.54 402.117C1098.32 402.117 1097.33 402.473 1096.57 403.184C1095.82 403.895 1095.25 404.833 1094.89 406C1094.53 407.167 1094.34 408.443 1094.3 409.828C1094.29 409.919 1094.29 410.01 1094.29 410.102C1094.29 410.184 1094.29 410.27 1094.29 410.361L1094.88 413.602C1094.88 414.44 1095.07 415.206 1095.46 415.898C1095.87 416.582 1096.41 417.129 1097.09 417.539C1097.77 417.94 1098.54 418.141 1099.37 418.141C1100.21 418.141 1100.97 417.945 1101.66 417.553C1102.34 417.152 1102.88 416.614 1103.28 415.939C1103.69 415.265 1103.89 414.513 1103.89 413.684V413.656C1103.89 412.799 1103.69 412.038 1103.31 411.373C1102.93 410.708 1102.4 410.188 1101.73 409.814C1101.05 409.432 1100.28 409.24 1099.42 409.24C1098.56 409.24 1097.78 409.427 1097.09 409.801C1096.41 410.174 1095.87 410.689 1095.46 411.346C1095.07 412.002 1094.88 412.749 1094.88 413.588V413.602H1094.06V410.252H1094.34C1094.61 409.669 1095 409.14 1095.52 408.666C1096.05 408.183 1096.68 407.8 1097.41 407.518C1098.13 407.226 1098.95 407.08 1099.84 407.08C1101.1 407.08 1102.22 407.363 1103.2 407.928C1104.19 408.493 1104.96 409.268 1105.53 410.252C1106.1 411.236 1106.39 412.353 1106.39 413.602V413.629C1106.39 414.923 1106.08 416.076 1105.47 417.088C1104.87 418.09 1104.05 418.883 1103 419.467C1101.95 420.041 1100.75 420.328 1099.4 420.328ZM1117.82 420.191C1117.38 420.191 1117.01 420.041 1116.71 419.74C1116.41 419.439 1116.26 419.07 1116.26 418.633C1116.26 418.195 1116.41 417.826 1116.71 417.525C1117.01 417.225 1117.38 417.074 1117.82 417.074C1118.25 417.074 1118.62 417.225 1118.92 417.525C1119.22 417.826 1119.38 418.195 1119.38 418.633C1119.38 419.07 1119.22 419.439 1118.92 419.74C1118.62 420.041 1118.25 420.191 1117.82 420.191ZM1117.82 409.609C1117.38 409.609 1117.01 409.459 1116.71 409.158C1116.41 408.857 1116.26 408.488 1116.26 408.051C1116.26 407.613 1116.41 407.244 1116.71 406.943C1117.01 406.643 1117.38 406.492 1117.82 406.492C1118.25 406.492 1118.62 406.643 1118.92 406.943C1119.22 407.244 1119.38 407.613 1119.38 408.051C1119.38 408.488 1119.22 408.857 1118.92 409.158C1118.62 409.459 1118.25 409.609 1117.82 409.609ZM1134.32 420V402.883H1134.26L1129.04 406.52V404.045L1134.29 400.271H1136.7V420H1134.32Z" fill="#10664F"/>
<path d="M977.815 505V502.003H984.726C986.363 502.003 987.613 501.676 988.476 501.02C989.338 500.365 989.77 499.41 989.77 498.155V498.122C989.77 497.27 989.568 496.561 989.164 495.993C988.771 495.425 988.181 494.999 987.395 494.715C986.609 494.421 985.632 494.273 984.464 494.273H977.815V491.44H983.727C985.342 491.44 986.576 491.123 987.428 490.49C988.279 489.857 988.705 488.951 988.705 487.772V487.739C988.705 486.647 988.339 485.812 987.608 485.233C986.887 484.655 985.861 484.365 984.529 484.365H977.815V481.368H985.413C986.822 481.368 988.045 481.614 989.082 482.105C990.13 482.586 990.938 483.274 991.506 484.169C992.084 485.053 992.374 486.09 992.374 487.28V487.313C992.374 488.143 992.182 488.929 991.8 489.671C991.418 490.414 990.894 491.036 990.228 491.538C989.573 492.041 988.825 492.352 987.985 492.472V492.537C989.109 492.646 990.086 492.963 990.916 493.487C991.757 494 992.401 494.672 992.848 495.501C993.307 496.32 993.536 497.254 993.536 498.302V498.335C993.536 499.721 993.209 500.911 992.554 501.905C991.91 502.898 990.987 503.663 989.786 504.198C988.585 504.733 987.144 505 985.463 505H977.815ZM975.98 505V481.368H979.649V505H975.98ZM1001.32 505.311C1000.17 505.311 999.164 505.093 998.302 504.656C997.439 504.219 996.768 503.608 996.288 502.822C995.807 502.036 995.567 501.13 995.567 500.103V500.071C995.567 499.066 995.818 498.204 996.32 497.483C996.823 496.752 997.549 496.173 998.498 495.747C999.459 495.321 1000.62 495.07 1001.97 494.994L1008.49 494.601V497.09L1002.45 497.467C1001.39 497.532 1000.57 497.789 999.989 498.236C999.421 498.673 999.137 499.257 999.137 499.989V500.021C999.137 500.775 999.421 501.37 999.989 501.807C1000.57 502.243 1001.33 502.462 1002.28 502.462C1003.11 502.462 1003.85 502.292 1004.51 501.954C1005.17 501.615 1005.7 501.151 1006.08 500.562C1006.46 499.961 1006.65 499.29 1006.65 498.548V493.422C1006.65 492.472 1006.36 491.729 1005.77 491.194C1005.18 490.649 1004.33 490.376 1003.23 490.376C1002.22 490.376 1001.4 490.594 1000.77 491.031C1000.16 491.467 999.781 492.03 999.628 492.717L999.596 492.865H996.255L996.271 492.685C996.359 491.691 996.692 490.801 997.27 490.015C997.849 489.218 998.651 488.591 999.678 488.132C1000.7 487.673 1001.92 487.444 1003.33 487.444C1004.74 487.444 1005.96 487.679 1006.98 488.148C1008.01 488.618 1008.8 489.278 1009.37 490.13C1009.94 490.982 1010.22 491.98 1010.22 493.127V505H1006.65V502.281H1006.59C1006.25 502.904 1005.81 503.444 1005.28 503.903C1004.74 504.35 1004.14 504.7 1003.46 504.951C1002.79 505.191 1002.08 505.311 1001.32 505.311ZM1021.05 505.344C1019.38 505.344 1017.93 504.978 1016.69 504.247C1015.47 503.515 1014.53 502.478 1013.86 501.135C1013.2 499.792 1012.88 498.204 1012.88 496.369V496.353C1012.88 494.53 1013.21 492.952 1013.88 491.62C1014.55 490.288 1015.5 489.262 1016.73 488.541C1017.95 487.81 1019.38 487.444 1021.02 487.444C1022.49 487.444 1023.76 487.728 1024.83 488.296C1025.91 488.853 1026.76 489.595 1027.37 490.523C1027.98 491.451 1028.34 492.455 1028.44 493.536L1028.45 493.667H1025.06L1025.03 493.52C1024.84 492.679 1024.42 491.953 1023.75 491.342C1023.1 490.719 1022.19 490.408 1021.03 490.408C1020.13 490.408 1019.33 490.654 1018.64 491.145C1017.96 491.626 1017.44 492.313 1017.05 493.209C1016.68 494.104 1016.5 495.163 1016.5 496.386V496.402C1016.5 497.658 1016.69 498.733 1017.07 499.628C1017.45 500.513 1017.98 501.19 1018.66 501.659C1019.35 502.129 1020.15 502.363 1021.07 502.363C1022.16 502.363 1023.04 502.079 1023.7 501.512C1024.38 500.933 1024.83 500.18 1025.05 499.252L1025.06 499.121H1028.47V499.235C1028.34 500.382 1027.94 501.419 1027.29 502.347C1026.64 503.264 1025.79 503.996 1024.72 504.541C1023.66 505.076 1022.44 505.344 1021.05 505.344ZM1031.2 505V481.368H1034.76V505H1031.2ZM1042.06 505L1035.97 497.008L1038.28 494.47L1046.17 505H1042.06ZM1034.13 499.416V495.108H1034.84L1041.73 487.772H1045.91L1037.84 496.255H1037.29L1034.13 499.416ZM1054.69 511.076C1053.21 511.076 1051.92 510.868 1050.82 510.453C1049.73 510.039 1048.85 509.476 1048.19 508.767C1047.52 508.057 1047.1 507.265 1046.92 506.392L1046.89 506.245H1050.43L1050.48 506.376C1050.72 506.922 1051.2 507.364 1051.92 507.702C1052.65 508.052 1053.57 508.226 1054.67 508.226C1056.07 508.226 1057.14 507.871 1057.9 507.162C1058.65 506.463 1059.03 505.519 1059.03 504.329V501.954H1058.95C1058.62 502.576 1058.19 503.117 1057.65 503.575C1057.13 504.034 1056.52 504.389 1055.82 504.64C1055.12 504.891 1054.35 505.016 1053.52 505.016C1052.08 505.016 1050.82 504.662 1049.74 503.952C1048.66 503.231 1047.83 502.216 1047.24 500.906C1046.65 499.596 1046.35 498.045 1046.35 496.255V496.238C1046.35 494.437 1046.65 492.881 1047.25 491.571C1047.85 490.25 1048.69 489.235 1049.77 488.525C1050.87 487.804 1052.14 487.444 1053.59 487.444C1054.41 487.444 1055.16 487.581 1055.83 487.854C1056.52 488.126 1057.13 488.509 1057.65 489C1058.18 489.48 1058.61 490.048 1058.95 490.703H1059.03V487.772H1062.58V504.525C1062.58 505.835 1062.26 506.982 1061.61 507.964C1060.98 508.947 1060.07 509.711 1058.88 510.257C1057.7 510.803 1056.3 511.076 1054.69 511.076ZM1054.52 502.134C1055.43 502.134 1056.22 501.894 1056.88 501.413C1057.56 500.933 1058.08 500.256 1058.45 499.383C1058.84 498.509 1059.03 497.483 1059.03 496.304V496.288C1059.03 495.108 1058.84 494.088 1058.45 493.225C1058.08 492.352 1057.56 491.68 1056.88 491.211C1056.2 490.73 1055.42 490.49 1054.52 490.49C1053.6 490.49 1052.79 490.725 1052.1 491.194C1051.42 491.664 1050.9 492.335 1050.53 493.209C1050.16 494.071 1049.97 495.092 1049.97 496.271V496.288C1049.97 497.499 1050.16 498.542 1050.53 499.416C1050.9 500.278 1051.42 500.949 1052.1 501.43C1052.79 501.899 1053.6 502.134 1054.52 502.134ZM1066.07 505V487.772H1069.64V490.719H1069.7C1069.98 489.704 1070.46 488.907 1071.16 488.328C1071.86 487.739 1072.7 487.444 1073.68 487.444C1073.95 487.444 1074.18 487.461 1074.39 487.493C1074.61 487.515 1074.78 487.542 1074.91 487.575V490.867C1074.77 490.812 1074.56 490.769 1074.27 490.736C1073.99 490.692 1073.67 490.67 1073.32 490.67C1072.57 490.67 1071.92 490.834 1071.36 491.162C1070.8 491.478 1070.38 491.942 1070.08 492.554C1069.79 493.154 1069.64 493.88 1069.64 494.732V505H1066.07ZM1083.82 505.344C1082.17 505.344 1080.73 504.984 1079.5 504.263C1078.28 503.532 1077.33 502.5 1076.65 501.168C1075.97 499.825 1075.63 498.231 1075.63 496.386V496.353C1075.63 494.519 1075.97 492.936 1076.65 491.604C1077.34 490.272 1078.29 489.246 1079.51 488.525C1080.75 487.804 1082.18 487.444 1083.8 487.444C1085.44 487.444 1086.87 487.804 1088.1 488.525C1089.33 489.235 1090.28 490.255 1090.96 491.587C1091.65 492.919 1091.99 494.508 1091.99 496.353V496.386C1091.99 498.242 1091.65 499.836 1090.96 501.168C1090.28 502.5 1089.33 503.532 1088.11 504.263C1086.89 504.984 1085.46 505.344 1083.82 505.344ZM1083.84 502.363C1084.75 502.363 1085.55 502.129 1086.23 501.659C1086.91 501.19 1087.43 500.513 1087.8 499.628C1088.17 498.733 1088.36 497.652 1088.36 496.386V496.353C1088.36 495.098 1088.17 494.028 1087.8 493.143C1087.43 492.248 1086.9 491.571 1086.21 491.113C1085.52 490.643 1084.72 490.408 1083.8 490.408C1082.9 490.408 1082.1 490.643 1081.41 491.113C1080.74 491.582 1080.21 492.259 1079.83 493.143C1079.44 494.028 1079.25 495.098 1079.25 496.353V496.386C1079.25 497.652 1079.44 498.733 1079.81 499.628C1080.19 500.513 1080.73 501.19 1081.41 501.659C1082.1 502.129 1082.91 502.363 1083.84 502.363ZM1100.61 505.344C1099.35 505.344 1098.28 505.087 1097.38 504.574C1096.5 504.05 1095.82 503.308 1095.35 502.347C1094.88 501.386 1094.65 500.245 1094.65 498.924V487.772H1098.22V498.253C1098.22 499.552 1098.52 500.551 1099.12 501.25C1099.73 501.938 1100.65 502.281 1101.87 502.281C1102.5 502.281 1103.06 502.178 1103.56 501.97C1104.06 501.752 1104.49 501.452 1104.85 501.07C1105.21 500.677 1105.48 500.207 1105.67 499.661C1105.86 499.104 1105.96 498.493 1105.96 497.827V487.772H1109.52V505H1105.96V502.412H1105.88C1105.59 502.98 1105.19 503.488 1104.7 503.936C1104.21 504.372 1103.62 504.716 1102.93 504.967C1102.26 505.218 1101.48 505.344 1100.61 505.344ZM1113 505V487.772H1116.57V490.376H1116.64C1117.1 489.502 1117.77 488.798 1118.65 488.263C1119.54 487.717 1120.63 487.444 1121.93 487.444C1123.82 487.444 1125.28 488.017 1126.32 489.164C1127.36 490.299 1127.87 491.86 1127.87 493.847V505H1124.32V494.535C1124.32 493.236 1124.02 492.237 1123.4 491.538C1122.8 490.84 1121.89 490.49 1120.67 490.49C1119.84 490.49 1119.11 490.676 1118.49 491.047C1117.88 491.418 1117.4 491.937 1117.07 492.603C1116.74 493.269 1116.57 494.055 1116.57 494.961V505H1113ZM1137.73 505.344C1136.27 505.344 1135 504.978 1133.92 504.247C1132.84 503.515 1132 502.483 1131.41 501.151C1130.82 499.809 1130.53 498.22 1130.53 496.386V496.369C1130.53 494.535 1130.82 492.952 1131.41 491.62C1132.01 490.288 1132.85 489.262 1133.92 488.541C1135 487.81 1136.26 487.444 1137.7 487.444C1138.51 487.444 1139.26 487.575 1139.96 487.837C1140.66 488.099 1141.28 488.476 1141.81 488.967C1142.36 489.448 1142.8 490.026 1143.14 490.703H1143.2V481.368H1146.77V505H1143.2V502.085H1143.14C1142.8 502.762 1142.36 503.34 1141.83 503.821C1141.3 504.301 1140.7 504.678 1140.01 504.951C1139.32 505.213 1138.56 505.344 1137.73 505.344ZM1138.67 502.281C1139.56 502.281 1140.35 502.041 1141.03 501.561C1141.71 501.07 1142.25 500.382 1142.63 499.497C1143.02 498.613 1143.22 497.576 1143.22 496.386V496.369C1143.22 495.179 1143.02 494.148 1142.63 493.274C1142.24 492.39 1141.7 491.708 1141.03 491.227C1140.35 490.736 1139.56 490.49 1138.67 490.49C1137.74 490.49 1136.94 490.73 1136.26 491.211C1135.58 491.68 1135.06 492.357 1134.69 493.241C1134.33 494.115 1134.15 495.158 1134.15 496.369V496.386C1134.15 497.598 1134.33 498.651 1134.69 499.547C1135.06 500.431 1135.58 501.108 1136.26 501.577C1136.94 502.047 1137.74 502.281 1138.67 502.281ZM1158.32 481.368L1151.92 510.732H1148.64L1155.03 481.368H1158.32ZM1166.52 505V484.545H1159.3V481.368H1177.43V484.545H1170.21V505H1166.52ZM1183.13 505.344C1181.45 505.344 1180 504.984 1178.77 504.263C1177.56 503.532 1176.63 502.5 1175.97 501.168C1175.33 499.825 1175.01 498.247 1175.01 496.435V496.419C1175.01 494.628 1175.33 493.061 1175.99 491.718C1176.64 490.365 1177.57 489.317 1178.76 488.574C1179.95 487.821 1181.34 487.444 1182.95 487.444C1184.57 487.444 1185.95 487.804 1187.11 488.525C1188.28 489.235 1189.18 490.245 1189.81 491.555C1190.44 492.854 1190.76 494.366 1190.76 496.091V497.287H1176.76V494.781H1189.04L1187.29 497.123V495.747C1187.29 494.535 1187.1 493.531 1186.73 492.734C1186.37 491.926 1185.86 491.325 1185.21 490.932C1184.57 490.539 1183.82 490.343 1182.97 490.343C1182.13 490.343 1181.37 490.55 1180.71 490.965C1180.04 491.38 1179.52 491.991 1179.13 492.799C1178.75 493.596 1178.56 494.579 1178.56 495.747V497.123C1178.56 498.236 1178.75 499.192 1179.12 499.989C1179.5 500.775 1180.04 501.381 1180.74 501.807C1181.44 502.221 1182.26 502.429 1183.21 502.429C1183.91 502.429 1184.53 502.325 1185.06 502.118C1185.6 501.899 1186.04 501.615 1186.39 501.266C1186.75 500.906 1187 500.507 1187.14 500.071L1187.19 499.94H1190.56L1190.53 500.12C1190.39 500.797 1190.12 501.446 1189.73 502.069C1189.34 502.691 1188.82 503.253 1188.19 503.755C1187.57 504.247 1186.83 504.634 1185.98 504.918C1185.13 505.202 1184.18 505.344 1183.13 505.344ZM1191.91 505L1197.61 496.402L1191.99 487.772H1195.97L1199.72 493.995H1199.8L1203.5 487.772H1207.43L1201.77 496.288L1207.37 505H1203.45L1199.65 498.662H1199.57L1195.76 505H1191.91ZM1215.7 505.344C1214 505.344 1212.73 504.962 1211.89 504.198C1211.06 503.422 1210.64 502.172 1210.64 500.447V490.588H1208.17V487.772H1210.64V483.284H1214.28V487.772H1217.5V490.588H1214.28V500.251C1214.28 501.124 1214.47 501.725 1214.85 502.052C1215.23 502.369 1215.8 502.527 1216.55 502.527C1216.74 502.527 1216.91 502.522 1217.06 502.511C1217.23 502.489 1217.37 502.473 1217.5 502.462V505.197C1217.3 505.229 1217.04 505.262 1216.72 505.295C1216.4 505.328 1216.06 505.344 1215.7 505.344Z" fill="#10664F"/>
<path d="M1045.18 550H1043.13L1046.92 529.744H1048.97L1047.79 536.033H1047.74L1046.37 543.234H1046.43L1045.18 550ZM1051.95 550H1049.9L1051.13 543.234H1051.19L1052.55 536.033H1052.49L1053.69 529.744H1055.74L1051.95 550ZM1056.54 544.511H1040.86L1041.27 542.462H1045.43V542.518H1052.21V542.462H1056.94L1056.54 544.511ZM1057.83 537.086H1053.25V537.03H1046.52L1046.5 537.086H1042.14L1042.54 535.036H1058.24L1057.83 537.086ZM1060.2 550V529.744H1072.5V532.018H1062.73V538.981H1071.7V541.227H1062.73V550H1060.2ZM1075.39 550V529.744H1087.69V532.018H1077.92V538.981H1086.89V541.227H1077.92V550H1075.39ZM1090.58 550V529.744H1102.87V532.018H1093.1V538.981H1102.07V541.227H1093.1V550H1090.58ZM1105.77 550V529.744H1118.06V532.018H1108.29V538.981H1117.26V541.227H1108.29V550H1105.77ZM1120.95 550V529.744H1133.25V532.018H1123.48V538.981H1132.45V541.227H1123.48V550H1120.95ZM1142.88 550.337C1141.33 550.337 1139.99 549.911 1138.88 549.06C1137.78 548.208 1136.93 547.001 1136.34 545.438C1135.75 543.875 1135.45 542.022 1135.45 539.879V539.851C1135.45 537.708 1135.75 535.855 1136.34 534.292C1136.93 532.73 1137.78 531.527 1138.88 530.685C1139.99 529.833 1141.33 529.407 1142.88 529.407C1144.43 529.407 1145.77 529.833 1146.88 530.685C1147.99 531.527 1148.85 532.73 1149.44 534.292C1150.03 535.855 1150.33 537.708 1150.33 539.851V539.879C1150.33 542.022 1150.03 543.875 1149.44 545.438C1148.85 547.001 1147.99 548.208 1146.88 549.06C1145.77 549.911 1144.43 550.337 1142.88 550.337ZM1142.88 548.133C1143.91 548.133 1144.79 547.801 1145.52 547.136C1146.26 546.463 1146.82 545.508 1147.2 544.273C1147.6 543.038 1147.79 541.573 1147.79 539.879V539.851C1147.79 538.157 1147.6 536.697 1147.2 535.471C1146.82 534.236 1146.26 533.286 1145.52 532.622C1144.79 531.958 1143.91 531.625 1142.88 531.625C1141.85 531.625 1140.97 531.958 1140.24 532.622C1139.51 533.286 1138.95 534.236 1138.57 535.471C1138.19 536.697 1138 538.157 1138 539.851V539.879C1138 541.573 1138.19 543.038 1138.57 544.273C1138.95 545.508 1139.51 546.463 1140.24 547.136C1140.97 547.801 1141.85 548.133 1142.88 548.133Z" fill="#10664F"/>
<path d="M1035.07 371L1049.22 330.489H1056.69V338.349H1054.11L1043.97 371H1035.07ZM1042.68 361.174L1044.76 354.829H1063.65L1065.73 361.174H1042.68ZM1064.41 371L1054.27 338.349V330.489H1059.19L1073.31 371H1064.41ZM1074.88 371L1089.03 330.489H1096.5V338.349H1093.92L1083.78 371H1074.88ZM1082.49 361.174L1084.57 354.829H1103.46L1105.54 361.174H1082.49ZM1104.22 371L1094.08 338.349V330.489H1099L1113.12 371H1104.22ZM1114.69 371L1128.84 330.489H1136.31V338.349H1133.73L1123.59 371H1114.69ZM1122.3 361.174L1124.38 354.829H1143.27L1145.35 361.174H1122.3ZM1144.03 371L1133.89 338.349V330.489H1138.81L1152.93 371H1144.03Z" fill="#10664F"/>
<path d="M142.648 157.469C139.992 157.469 137.681 156.876 135.715 155.691C133.762 154.507 132.251 152.827 131.184 150.652C130.116 148.465 129.582 145.88 129.582 142.898V142.879C129.582 139.897 130.116 137.319 131.184 135.145C132.251 132.97 133.762 131.297 135.715 130.125C137.668 128.94 139.979 128.348 142.648 128.348C144.719 128.348 146.587 128.745 148.254 129.539C149.921 130.333 151.294 131.434 152.375 132.84C153.456 134.246 154.139 135.88 154.426 137.742L154.445 137.938H150.09L149.973 137.547C149.673 136.44 149.185 135.49 148.508 134.695C147.844 133.901 147.017 133.296 146.027 132.879C145.051 132.449 143.924 132.234 142.648 132.234C140.904 132.234 139.387 132.671 138.098 133.543C136.822 134.415 135.832 135.646 135.129 137.234C134.426 138.823 134.074 140.704 134.074 142.879V142.898C134.074 145.06 134.426 146.948 135.129 148.562C135.832 150.164 136.828 151.401 138.117 152.273C139.406 153.146 140.917 153.582 142.648 153.582C143.898 153.582 145.012 153.374 145.988 152.957C146.978 152.527 147.818 151.902 148.508 151.082C149.198 150.262 149.712 149.259 150.051 148.074L150.109 147.879H154.465L154.426 148.074C154.139 149.949 153.456 151.596 152.375 153.016C151.307 154.422 149.94 155.516 148.273 156.297C146.607 157.078 144.732 157.469 142.648 157.469ZM171.656 157.469C168.935 157.469 166.585 156.883 164.605 155.711C162.626 154.526 161.103 152.846 160.035 150.672C158.967 148.484 158.434 145.9 158.434 142.918V142.879C158.434 139.897 158.967 137.319 160.035 135.145C161.116 132.97 162.646 131.297 164.625 130.125C166.604 128.94 168.948 128.348 171.656 128.348C174.352 128.348 176.689 128.94 178.668 130.125C180.647 131.31 182.171 132.99 183.238 135.164C184.306 137.326 184.84 139.897 184.84 142.879V142.918C184.84 145.9 184.306 148.478 183.238 150.652C182.171 152.827 180.647 154.507 178.668 155.691C176.702 156.876 174.365 157.469 171.656 157.469ZM171.656 153.582C173.453 153.582 175.003 153.146 176.305 152.273C177.607 151.401 178.609 150.164 179.312 148.562C180.016 146.961 180.367 145.079 180.367 142.918V142.879C180.367 140.704 180.009 138.823 179.293 137.234C178.59 135.633 177.581 134.402 176.266 133.543C174.964 132.671 173.427 132.234 171.656 132.234C169.872 132.234 168.323 132.664 167.008 133.523C165.706 134.383 164.697 135.613 163.98 137.215C163.264 138.803 162.906 140.691 162.906 142.879V142.918C162.906 145.092 163.264 146.98 163.98 148.582C164.697 150.184 165.706 151.421 167.008 152.293C168.31 153.152 169.859 153.582 171.656 153.582ZM190.02 157V128.816H194.062L211.406 153.719L206.777 149.617H208.672V128.816H213.027V157H208.984L191.641 132.059L196.27 136.141H194.375V157H190.02ZM226.195 157V132.605H217.582V128.816H239.203V132.605H230.59V157H226.195ZM243.777 157V128.816H254.734C256.648 128.816 258.309 129.168 259.715 129.871C261.121 130.574 262.202 131.57 262.957 132.859C263.725 134.148 264.109 135.678 264.109 137.449V137.488C264.109 139.402 263.621 141.076 262.645 142.508C261.681 143.94 260.353 144.943 258.66 145.516L264.969 157H259.91L254.168 146.199C254.116 146.199 254.07 146.199 254.031 146.199C254.005 146.199 253.966 146.199 253.914 146.199H248.152V157H243.777ZM248.152 142.586H254.305C255.984 142.586 257.286 142.15 258.211 141.277C259.135 140.392 259.598 139.142 259.598 137.527V137.488C259.598 135.939 259.109 134.721 258.133 133.836C257.169 132.938 255.848 132.488 254.168 132.488H248.152V142.586ZM267.258 157L277.512 128.816H281.066V133.484H279.836L271.867 157H267.258ZM272.238 149.383L273.508 145.867H286.242L287.512 149.383H272.238ZM287.883 157L279.934 133.484V128.816H282.258L292.492 157H287.883ZM305.973 157.469C303.863 157.469 302.014 157.15 300.426 156.512C298.85 155.874 297.6 154.962 296.676 153.777C295.751 152.579 295.23 151.154 295.113 149.5L295.094 149.207H299.371L299.41 149.461C299.54 150.32 299.898 151.069 300.484 151.707C301.083 152.332 301.865 152.814 302.828 153.152C303.792 153.491 304.898 153.66 306.148 153.66C307.411 153.66 308.499 153.484 309.41 153.133C310.322 152.781 311.025 152.28 311.52 151.629C312.027 150.978 312.281 150.216 312.281 149.344V149.324C312.281 148.191 311.871 147.293 311.051 146.629C310.243 145.952 308.902 145.411 307.027 145.008L303.961 144.363C301.201 143.777 299.143 142.84 297.789 141.551C296.435 140.249 295.758 138.556 295.758 136.473V136.453C295.771 134.852 296.214 133.445 297.086 132.234C297.958 131.01 299.163 130.06 300.699 129.383C302.236 128.693 304 128.348 305.992 128.348C307.945 128.348 309.671 128.68 311.168 129.344C312.665 130.008 313.85 130.939 314.723 132.137C315.595 133.322 316.083 134.708 316.188 136.297L316.207 136.609H311.93L311.891 136.355C311.773 135.47 311.448 134.715 310.914 134.09C310.393 133.465 309.71 132.99 308.863 132.664C308.017 132.326 307.034 132.156 305.914 132.156C304.755 132.156 303.746 132.332 302.887 132.684C302.027 133.022 301.363 133.497 300.895 134.109C300.426 134.721 300.191 135.444 300.191 136.277V136.297C300.191 137.352 300.608 138.211 301.441 138.875C302.275 139.539 303.57 140.06 305.328 140.438L308.395 141.102C310.335 141.505 311.917 142.052 313.141 142.742C314.365 143.432 315.27 144.292 315.855 145.32C316.441 146.349 316.734 147.592 316.734 149.051V149.07C316.734 150.789 316.298 152.28 315.426 153.543C314.566 154.793 313.329 155.763 311.715 156.453C310.113 157.13 308.199 157.469 305.973 157.469ZM327.852 157V132.605H319.238V128.816H340.859V132.605H332.246V157H327.852ZM354.52 157V128.816H365.477C367.391 128.816 369.051 129.168 370.457 129.871C371.863 130.574 372.944 131.57 373.699 132.859C374.467 134.148 374.852 135.678 374.852 137.449V137.488C374.852 139.402 374.363 141.076 373.387 142.508C372.423 143.94 371.095 144.943 369.402 145.516L375.711 157H370.652L364.91 146.199C364.858 146.199 364.812 146.199 364.773 146.199C364.747 146.199 364.708 146.199 364.656 146.199H358.895V157H354.52ZM358.895 142.586H365.047C366.727 142.586 368.029 142.15 368.953 141.277C369.878 140.392 370.34 139.142 370.34 137.527V137.488C370.34 135.939 369.852 134.721 368.875 133.836C367.911 132.938 366.59 132.488 364.91 132.488H358.895V142.586ZM378 157L388.254 128.816H391.809V133.484H390.578L382.609 157H378ZM382.98 149.383L384.25 145.867H396.984L398.254 149.383H382.98ZM398.625 157L390.676 133.484V128.816H393L403.234 157H398.625ZM410.445 157V132.605H401.832V128.816H423.453V132.605H414.84V157H410.445ZM428.027 157V128.816H432.402V157H428.027ZM450.805 157.469C448.083 157.469 445.733 156.883 443.754 155.711C441.775 154.526 440.251 152.846 439.184 150.672C438.116 148.484 437.582 145.9 437.582 142.918V142.879C437.582 139.897 438.116 137.319 439.184 135.145C440.264 132.97 441.794 131.297 443.773 130.125C445.753 128.94 448.096 128.348 450.805 128.348C453.5 128.348 455.837 128.94 457.816 130.125C459.796 131.31 461.319 132.99 462.387 135.164C463.454 137.326 463.988 139.897 463.988 142.879V142.918C463.988 145.9 463.454 148.478 462.387 150.652C461.319 152.827 459.796 154.507 457.816 155.691C455.85 156.876 453.513 157.469 450.805 157.469ZM450.805 153.582C452.602 153.582 454.151 153.146 455.453 152.273C456.755 151.401 457.758 150.164 458.461 148.562C459.164 146.961 459.516 145.079 459.516 142.918V142.879C459.516 140.704 459.158 138.823 458.441 137.234C457.738 135.633 456.729 134.402 455.414 133.543C454.112 132.671 452.576 132.234 450.805 132.234C449.021 132.234 447.471 132.664 446.156 133.523C444.854 134.383 443.845 135.613 443.129 137.215C442.413 138.803 442.055 140.691 442.055 142.879V142.918C442.055 145.092 442.413 146.98 443.129 148.582C443.845 150.184 444.854 151.421 446.156 152.293C447.458 153.152 449.008 153.582 450.805 153.582ZM478.777 157.469C476.668 157.469 474.819 157.15 473.23 156.512C471.655 155.874 470.405 154.962 469.48 153.777C468.556 152.579 468.035 151.154 467.918 149.5L467.898 149.207H472.176L472.215 149.461C472.345 150.32 472.703 151.069 473.289 151.707C473.888 152.332 474.669 152.814 475.633 153.152C476.596 153.491 477.703 153.66 478.953 153.66C480.216 153.66 481.303 153.484 482.215 153.133C483.126 152.781 483.829 152.28 484.324 151.629C484.832 150.978 485.086 150.216 485.086 149.344V149.324C485.086 148.191 484.676 147.293 483.855 146.629C483.048 145.952 481.707 145.411 479.832 145.008L476.766 144.363C474.005 143.777 471.948 142.84 470.594 141.551C469.24 140.249 468.562 138.556 468.562 136.473V136.453C468.576 134.852 469.018 133.445 469.891 132.234C470.763 131.01 471.967 130.06 473.504 129.383C475.04 128.693 476.805 128.348 478.797 128.348C480.75 128.348 482.475 128.68 483.973 129.344C485.47 130.008 486.655 130.939 487.527 132.137C488.4 133.322 488.888 134.708 488.992 136.297L489.012 136.609H484.734L484.695 136.355C484.578 135.47 484.253 134.715 483.719 134.09C483.198 133.465 482.514 132.99 481.668 132.664C480.822 132.326 479.839 132.156 478.719 132.156C477.56 132.156 476.551 132.332 475.691 132.684C474.832 133.022 474.168 133.497 473.699 134.109C473.23 134.721 472.996 135.444 472.996 136.277V136.297C472.996 137.352 473.413 138.211 474.246 138.875C475.079 139.539 476.375 140.06 478.133 140.438L481.199 141.102C483.139 141.505 484.721 142.052 485.945 142.742C487.169 143.432 488.074 144.292 488.66 145.32C489.246 146.349 489.539 147.592 489.539 149.051V149.07C489.539 150.789 489.103 152.28 488.23 153.543C487.371 154.793 486.134 155.763 484.52 156.453C482.918 157.13 481.004 157.469 478.777 157.469Z" fill="white"/>
</svg>
