<svg width="1440" height="900" viewBox="0 0 1440 900" fill="none" xmlns="http://www.w3.org/2000/svg">
<rect width="1440" height="900" rx="28" fill="#848484"/>
<rect x="39" y="503" width="658" height="244" rx="24" fill="#FFFFF0"/>
<path d="M40.6406 802V782.271H44.7695V802H40.6406ZM51.5781 802L46.5059 787.344H50.7715L53.834 798.473H53.916L56.9375 787.344H61.1074L56.0762 802H51.5781ZM68.709 802.301C67.2233 802.301 65.9382 801.995 64.8535 801.385C63.7689 800.774 62.9303 799.899 62.3379 798.76C61.7454 797.62 61.4492 796.258 61.4492 794.672V794.645C61.4492 793.068 61.75 791.714 62.3516 790.584C62.9531 789.445 63.7962 788.57 64.8809 787.959C65.9655 787.348 67.237 787.043 68.6953 787.043C70.1628 787.043 71.4388 787.348 72.5234 787.959C73.6172 788.561 74.4648 789.431 75.0664 790.57C75.668 791.701 75.9688 793.059 75.9688 794.645V794.672C75.9688 796.267 75.668 797.634 75.0664 798.773C74.474 799.913 73.6354 800.788 72.5508 801.398C71.4661 802 70.1855 802.301 68.709 802.301ZM68.7227 799.17C69.3698 799.17 69.9303 798.997 70.4043 798.65C70.8874 798.295 71.2565 797.785 71.5117 797.119C71.776 796.445 71.9082 795.629 71.9082 794.672V794.645C71.9082 793.697 71.776 792.89 71.5117 792.225C71.2474 791.559 70.8737 791.053 70.3906 790.707C69.9076 790.352 69.3424 790.174 68.6953 790.174C68.0573 790.174 67.4967 790.352 67.0137 790.707C66.5397 791.053 66.1706 791.559 65.9062 792.225C65.6419 792.89 65.5098 793.697 65.5098 794.645V794.672C65.5098 795.629 65.6374 796.445 65.8926 797.119C66.1569 797.785 66.5306 798.295 67.0137 798.65C67.4967 798.997 68.0664 799.17 68.7227 799.17ZM78.0332 802V787.344H82.0254V789.9H82.1074C82.3262 788.998 82.7227 788.296 83.2969 787.795C83.8711 787.294 84.5866 787.043 85.4434 787.043C85.6621 787.043 85.8717 787.057 86.0723 787.084C86.2728 787.111 86.446 787.148 86.5918 787.193V790.707C86.4277 790.643 86.2181 790.593 85.9629 790.557C85.7077 790.511 85.4342 790.488 85.1426 790.488C84.4863 790.488 83.9258 790.616 83.4609 790.871C82.9961 791.126 82.6406 791.5 82.3945 791.992C82.1484 792.484 82.0254 793.086 82.0254 793.797V802H78.0332ZM91.0215 806.826C90.6296 806.826 90.2513 806.808 89.8867 806.771C89.5221 806.735 89.2214 806.694 88.9844 806.648V803.682C89.1302 803.709 89.3171 803.736 89.5449 803.764C89.7728 803.8 90.0326 803.818 90.3242 803.818C90.9258 803.818 91.3997 803.718 91.7461 803.518C92.0924 803.317 92.3522 802.971 92.5254 802.479L92.7031 802L87.5215 787.344H91.9102L95.2188 799.594L94.6855 798.801H95.4375L94.9043 799.594L98.2129 787.344H102.424L97.3926 802.26C97.0098 803.408 96.5267 804.315 95.9434 804.98C95.3691 805.646 94.6764 806.12 93.8652 806.402C93.054 806.685 92.1061 806.826 91.0215 806.826ZM109.711 802V782.271H113.84V798.596H122.467V802H109.711ZM128.934 802.232C127.958 802.232 127.102 802.046 126.363 801.672C125.625 801.289 125.046 800.765 124.627 800.1C124.217 799.425 124.012 798.66 124.012 797.803V797.775C124.012 796.882 124.235 796.121 124.682 795.492C125.128 794.854 125.775 794.353 126.623 793.988C127.471 793.624 128.501 793.4 129.713 793.318L135.428 792.963V795.451L130.314 795.779C129.549 795.825 128.965 796.007 128.564 796.326C128.163 796.636 127.963 797.051 127.963 797.57V797.598C127.963 798.135 128.168 798.559 128.578 798.869C128.988 799.17 129.54 799.32 130.232 799.32C130.825 799.32 131.354 799.206 131.818 798.979C132.292 798.742 132.661 798.423 132.926 798.021C133.199 797.611 133.336 797.151 133.336 796.641V792.197C133.336 791.55 133.131 791.04 132.721 790.666C132.311 790.283 131.714 790.092 130.93 790.092C130.182 790.092 129.59 790.247 129.152 790.557C128.715 790.867 128.446 791.258 128.346 791.732L128.318 791.855H124.668L124.682 791.691C124.755 790.789 125.051 789.987 125.57 789.285C126.099 788.583 126.828 788.036 127.758 787.645C128.697 787.243 129.809 787.043 131.094 787.043C132.361 787.043 133.459 787.248 134.389 787.658C135.318 788.059 136.038 788.629 136.549 789.367C137.068 790.105 137.328 790.967 137.328 791.951V802H133.336V799.812H133.254C132.98 800.314 132.625 800.747 132.188 801.111C131.759 801.467 131.271 801.745 130.725 801.945C130.178 802.137 129.581 802.232 128.934 802.232ZM146.611 802.301C145.126 802.301 143.84 801.991 142.756 801.371C141.671 800.751 140.837 799.872 140.254 798.732C139.671 797.584 139.379 796.226 139.379 794.658V794.645C139.379 793.077 139.671 791.728 140.254 790.598C140.846 789.458 141.68 788.583 142.756 787.973C143.84 787.353 145.112 787.043 146.57 787.043C147.901 787.043 149.054 787.294 150.029 787.795C151.005 788.287 151.766 788.957 152.312 789.805C152.868 790.652 153.174 791.605 153.229 792.662V792.758H149.523L149.496 792.635C149.378 791.933 149.077 791.35 148.594 790.885C148.111 790.411 147.454 790.174 146.625 790.174C145.978 790.174 145.413 790.356 144.93 790.721C144.456 791.076 144.087 791.591 143.822 792.266C143.567 792.931 143.439 793.729 143.439 794.658V794.672C143.439 795.629 143.567 796.445 143.822 797.119C144.087 797.785 144.456 798.295 144.93 798.65C145.413 798.997 145.982 799.17 146.639 799.17C147.441 799.17 148.083 798.947 148.566 798.5C149.059 798.044 149.373 797.447 149.51 796.709L149.523 796.586H153.242V796.668C153.178 797.734 152.868 798.691 152.312 799.539C151.757 800.387 150.991 801.061 150.016 801.562C149.049 802.055 147.915 802.301 146.611 802.301ZM161.842 802.301C160.347 802.301 159.062 801.995 157.986 801.385C156.911 800.765 156.081 799.885 155.498 798.746C154.924 797.607 154.637 796.258 154.637 794.699V794.686C154.637 793.127 154.924 791.778 155.498 790.639C156.081 789.49 156.897 788.606 157.945 787.986C159.003 787.357 160.247 787.043 161.678 787.043C163.109 787.043 164.344 787.348 165.383 787.959C166.431 788.561 167.238 789.413 167.803 790.516C168.377 791.618 168.664 792.908 168.664 794.385V795.615H156.592V793.1H166.777L164.877 795.451V793.92C164.877 793.063 164.745 792.348 164.48 791.773C164.216 791.19 163.847 790.753 163.373 790.461C162.908 790.169 162.366 790.023 161.746 790.023C161.126 790.023 160.575 790.174 160.092 790.475C159.618 790.775 159.244 791.217 158.971 791.801C158.706 792.375 158.574 793.081 158.574 793.92V795.465C158.574 796.276 158.706 796.969 158.971 797.543C159.244 798.117 159.632 798.559 160.133 798.869C160.634 799.17 161.231 799.32 161.924 799.32C162.471 799.32 162.945 799.234 163.346 799.061C163.747 798.887 164.075 798.669 164.33 798.404C164.585 798.14 164.758 797.871 164.85 797.598L164.877 797.516H168.541L168.5 797.666C168.391 798.204 168.176 798.746 167.857 799.293C167.538 799.84 167.105 800.341 166.559 800.797C166.021 801.253 165.36 801.617 164.576 801.891C163.801 802.164 162.89 802.301 161.842 802.301Z" fill="white"/>
<path d="M42.9492 840H40.9219L44.1562 823.09H46.1836L45.1758 828.363L45.0938 828.398L43.957 834.305L44.0273 834.34L42.9492 840ZM48.5977 840H46.5586L47.625 834.34L47.707 834.305L48.8438 828.398L48.7734 828.363L49.793 823.09H51.832L48.5977 840ZM52.3945 835.512H39.0703L39.457 833.508H43.1016L43.1484 833.59H48.8203L48.8672 833.508H52.7812L52.3945 835.512ZM53.4727 829.406H49.5938L49.5469 829.324H43.8984L43.8516 829.406H40.1367L40.5352 827.402H53.8594L53.4727 829.406ZM55.582 840V823.09H66.1523V825.363H58.2188V830.707H65.4844V832.922H58.2188V840H55.582ZM68.6367 840V823.09H79.207V825.363H71.2734V830.707H78.5391V832.922H71.2734V840H68.6367ZM81.6914 840V823.09H92.2617V825.363H84.3281V830.707H91.5938V832.922H84.3281V840H81.6914ZM94.7461 840V823.09H105.316V825.363H97.3828V830.707H104.648V832.922H97.3828V840H94.7461ZM113.625 840.305C112.281 840.305 111.129 839.949 110.168 839.238C109.215 838.527 108.48 837.52 107.965 836.215C107.457 834.902 107.203 833.348 107.203 831.551V831.527C107.203 829.73 107.457 828.18 107.965 826.875C108.48 825.562 109.215 824.555 110.168 823.852C111.129 823.141 112.281 822.785 113.625 822.785C114.961 822.785 116.109 823.141 117.07 823.852C118.031 824.555 118.766 825.562 119.273 826.875C119.789 828.18 120.047 829.73 120.047 831.527V831.551C120.047 833.348 119.789 834.902 119.273 836.215C118.766 837.52 118.031 838.527 117.07 839.238C116.109 839.949 114.961 840.305 113.625 840.305ZM113.625 838.113C114.414 838.113 115.09 837.848 115.652 837.316C116.215 836.785 116.645 836.031 116.941 835.055C117.246 834.07 117.398 832.902 117.398 831.551V831.527C117.398 830.176 117.246 829.012 116.941 828.035C116.645 827.059 116.215 826.309 115.652 825.785C115.09 825.254 114.414 824.988 113.625 824.988C112.828 824.988 112.148 825.254 111.586 825.785C111.023 826.309 110.594 827.059 110.297 828.035C110.008 829.012 109.863 830.176 109.863 831.527V831.551C109.863 832.902 110.008 834.07 110.297 835.055C110.594 836.031 111.023 836.785 111.586 837.316C112.148 837.848 112.828 838.113 113.625 838.113Z" fill="white"/>
<rect x="738" y="503" width="663" height="244" rx="24" fill="#232323"/>
<path d="M739.641 802V782.271H744.412L750.018 796.449H750.1L755.705 782.271H760.477V802H756.799V788.656H754.885L759.014 782.818L751.357 802H748.76L741.104 782.818L745.232 788.656H743.318V802H739.641ZM763.498 802V787.344H767.49V802H763.498ZM765.494 785.457C764.893 785.457 764.387 785.252 763.977 784.842C763.566 784.432 763.361 783.944 763.361 783.379C763.361 782.805 763.566 782.317 763.977 781.916C764.387 781.506 764.893 781.301 765.494 781.301C766.096 781.301 766.602 781.506 767.012 781.916C767.422 782.317 767.627 782.805 767.627 783.379C767.627 783.944 767.422 784.432 767.012 784.842C766.602 785.252 766.096 785.457 765.494 785.457ZM775.598 802.301C774.367 802.301 773.305 801.995 772.412 801.385C771.519 800.774 770.831 799.899 770.348 798.76C769.874 797.62 769.637 796.258 769.637 794.672V794.658C769.637 793.063 769.878 791.701 770.361 790.57C770.844 789.431 771.528 788.561 772.412 787.959C773.305 787.348 774.367 787.043 775.598 787.043C776.29 787.043 776.928 787.157 777.512 787.385C778.095 787.613 778.605 787.941 779.043 788.369C779.49 788.788 779.845 789.294 780.109 789.887H780.191V782.271H784.184V802H780.191V799.498H780.109C779.854 800.081 779.508 800.583 779.07 801.002C778.633 801.412 778.122 801.731 777.539 801.959C776.956 802.187 776.309 802.301 775.598 802.301ZM776.938 798.992C777.585 798.992 778.154 798.819 778.646 798.473C779.139 798.117 779.521 797.616 779.795 796.969C780.068 796.322 780.205 795.556 780.205 794.672V794.658C780.205 793.774 780.064 793.013 779.781 792.375C779.508 791.728 779.125 791.231 778.633 790.885C778.15 790.529 777.585 790.352 776.938 790.352C776.272 790.352 775.698 790.525 775.215 790.871C774.732 791.217 774.358 791.714 774.094 792.361C773.829 792.999 773.697 793.765 773.697 794.658V794.672C773.697 795.556 773.825 796.322 774.08 796.969C774.344 797.616 774.718 798.117 775.201 798.473C775.693 798.819 776.272 798.992 776.938 798.992ZM786.85 802V787.344H790.842V789.75H790.924C791.307 788.911 791.872 788.251 792.619 787.768C793.367 787.285 794.292 787.043 795.395 787.043C797.008 787.043 798.252 787.531 799.127 788.506C800.011 789.472 800.453 790.816 800.453 792.539V802H796.461V793.359C796.461 792.402 796.233 791.664 795.777 791.145C795.331 790.616 794.661 790.352 793.768 790.352C793.175 790.352 792.66 790.488 792.223 790.762C791.785 791.026 791.443 791.4 791.197 791.883C790.96 792.366 790.842 792.931 790.842 793.578V802H786.85ZM803.064 802V787.344H807.057V802H803.064ZM805.061 785.457C804.459 785.457 803.953 785.252 803.543 784.842C803.133 784.432 802.928 783.944 802.928 783.379C802.928 782.805 803.133 782.317 803.543 781.916C803.953 781.506 804.459 781.301 805.061 781.301C805.662 781.301 806.168 781.506 806.578 781.916C806.988 782.317 807.193 782.805 807.193 783.379C807.193 783.944 806.988 784.432 806.578 784.842C806.168 785.252 805.662 785.457 805.061 785.457ZM816.586 807.086C815.246 807.086 814.075 806.899 813.072 806.525C812.079 806.161 811.286 805.664 810.693 805.035C810.11 804.406 809.755 803.7 809.627 802.916L809.613 802.793H813.496L813.537 802.889C813.701 803.244 814.043 803.559 814.562 803.832C815.082 804.105 815.757 804.242 816.586 804.242C817.616 804.242 818.4 803.996 818.938 803.504C819.475 803.012 819.744 802.355 819.744 801.535V799.293H819.662C819.407 799.803 819.061 800.245 818.623 800.619C818.186 800.993 817.671 801.285 817.078 801.494C816.495 801.695 815.848 801.795 815.137 801.795C813.915 801.795 812.858 801.503 811.965 800.92C811.081 800.337 810.397 799.503 809.914 798.418C809.44 797.324 809.203 796.021 809.203 794.508V794.494C809.203 792.936 809.445 791.6 809.928 790.488C810.42 789.376 811.113 788.524 812.006 787.932C812.899 787.339 813.965 787.043 815.205 787.043C815.898 787.043 816.531 787.157 817.105 787.385C817.68 787.613 818.181 787.936 818.609 788.355C819.047 788.775 819.398 789.271 819.662 789.846H819.744V787.344H823.736V801.59C823.736 802.674 823.445 803.627 822.861 804.447C822.287 805.277 821.462 805.924 820.387 806.389C819.32 806.854 818.053 807.086 816.586 807.086ZM816.518 798.869C817.174 798.869 817.743 798.696 818.227 798.35C818.71 798.003 819.083 797.511 819.348 796.873C819.621 796.235 819.758 795.479 819.758 794.604V794.59C819.758 793.715 819.621 792.963 819.348 792.334C819.083 791.696 818.705 791.208 818.213 790.871C817.73 790.525 817.165 790.352 816.518 790.352C815.861 790.352 815.287 790.525 814.795 790.871C814.303 791.208 813.924 791.691 813.66 792.32C813.396 792.949 813.264 793.706 813.264 794.59V794.604C813.264 795.479 813.396 796.235 813.66 796.873C813.924 797.511 814.303 798.003 814.795 798.35C815.287 798.696 815.861 798.869 816.518 798.869ZM826.457 802V782.271H830.449V789.873H830.531C830.914 788.962 831.484 788.264 832.24 787.781C833.006 787.289 833.936 787.043 835.029 787.043C836.096 787.043 837.012 787.28 837.777 787.754C838.543 788.219 839.131 788.88 839.541 789.736C839.96 790.593 840.17 791.614 840.17 792.799V802H836.178V793.619C836.178 792.598 835.932 791.801 835.439 791.227C834.956 790.643 834.259 790.352 833.348 790.352C832.764 790.352 832.254 790.493 831.816 790.775C831.388 791.049 831.051 791.432 830.805 791.924C830.568 792.407 830.449 792.967 830.449 793.605V802H826.457ZM848.564 802.301C846.942 802.301 845.739 801.959 844.955 801.275C844.171 800.592 843.779 799.466 843.779 797.898V790.352H841.742V787.344H843.779V783.762H847.812V787.344H850.492V790.352H847.812V797.461C847.812 798.145 847.963 798.623 848.264 798.896C848.574 799.161 849.029 799.293 849.631 799.293C849.813 799.293 849.973 799.288 850.109 799.279C850.246 799.261 850.374 799.243 850.492 799.225V802.15C850.273 802.187 850 802.219 849.672 802.246C849.353 802.283 848.984 802.301 848.564 802.301Z" fill="white"/>
<path d="M741.949 840H739.922L743.156 823.09H745.184L744.176 828.363L744.094 828.398L742.957 834.305L743.027 834.34L741.949 840ZM747.598 840H745.559L746.625 834.34L746.707 834.305L747.844 828.398L747.773 828.363L748.793 823.09H750.832L747.598 840ZM751.395 835.512H738.07L738.457 833.508H742.102L742.148 833.59H747.82L747.867 833.508H751.781L751.395 835.512ZM752.473 829.406H748.594L748.547 829.324H742.898L742.852 829.406H739.137L739.535 827.402H752.859L752.473 829.406ZM754.324 840V838.195L760.23 832.23C760.98 831.473 761.555 830.844 761.953 830.344C762.352 829.844 762.625 829.398 762.773 829.008C762.922 828.617 762.996 828.199 762.996 827.754V827.73C762.996 827.191 762.871 826.715 762.621 826.301C762.379 825.879 762.035 825.551 761.59 825.316C761.152 825.074 760.641 824.953 760.055 824.953C759.406 824.953 758.828 825.09 758.32 825.363C757.812 825.629 757.414 825.992 757.125 826.453C756.836 826.914 756.691 827.434 756.691 828.012L756.68 828.082H754.195L754.184 828.012C754.191 826.996 754.449 826.098 754.957 825.316C755.473 824.527 756.176 823.91 757.066 823.465C757.957 823.012 758.953 822.785 760.055 822.785C761.133 822.785 762.09 822.992 762.926 823.406C763.762 823.82 764.418 824.391 764.895 825.117C765.371 825.836 765.609 826.652 765.609 827.566V827.59C765.609 828.23 765.492 828.844 765.258 829.43C765.023 830.008 764.621 830.648 764.051 831.352C763.48 832.055 762.688 832.906 761.672 833.906L757.02 838.488L757.875 836.883V838.488L757.02 837.773H765.867V840H754.324ZM774.34 840.293C773.129 840.293 772.074 840.09 771.176 839.684C770.277 839.277 769.566 838.719 769.043 838.008C768.52 837.289 768.219 836.469 768.141 835.547L768.129 835.406H770.648L770.672 835.523C770.727 836.023 770.91 836.469 771.223 836.859C771.543 837.242 771.965 837.543 772.488 837.762C773.02 837.98 773.637 838.09 774.34 838.09C775.027 838.09 775.629 837.973 776.145 837.738C776.668 837.496 777.07 837.168 777.352 836.754C777.641 836.332 777.785 835.848 777.785 835.301V835.277C777.785 834.324 777.461 833.594 776.812 833.086C776.172 832.57 775.285 832.312 774.152 832.312H772.102V830.25H774.082C774.723 830.25 775.285 830.137 775.77 829.91C776.262 829.676 776.641 829.355 776.906 828.949C777.18 828.543 777.316 828.078 777.316 827.555V827.531C777.316 826.984 777.199 826.52 776.965 826.137C776.73 825.754 776.387 825.461 775.934 825.258C775.488 825.055 774.949 824.953 774.316 824.953C773.691 824.953 773.137 825.059 772.652 825.27C772.168 825.473 771.781 825.766 771.492 826.148C771.203 826.531 771.027 826.984 770.965 827.508L770.953 827.625H768.48L768.492 827.496C768.586 826.551 768.883 825.727 769.383 825.023C769.883 824.32 770.555 823.773 771.398 823.383C772.242 822.992 773.215 822.797 774.316 822.797C775.441 822.797 776.422 822.984 777.258 823.359C778.094 823.727 778.742 824.242 779.203 824.906C779.664 825.562 779.895 826.324 779.895 827.191V827.215C779.895 827.918 779.738 828.539 779.426 829.078C779.121 829.609 778.699 830.055 778.16 830.414C777.621 830.766 777.008 831.012 776.32 831.152V831.211C777.562 831.312 778.562 831.723 779.32 832.441C780.086 833.16 780.469 834.113 780.469 835.301V835.324C780.469 836.285 780.207 837.141 779.684 837.891C779.16 838.641 778.438 839.23 777.516 839.66C776.602 840.082 775.543 840.293 774.34 840.293ZM783.105 840V838.195L789.012 832.23C789.762 831.473 790.336 830.844 790.734 830.344C791.133 829.844 791.406 829.398 791.555 829.008C791.703 828.617 791.777 828.199 791.777 827.754V827.73C791.777 827.191 791.652 826.715 791.402 826.301C791.16 825.879 790.816 825.551 790.371 825.316C789.934 825.074 789.422 824.953 788.836 824.953C788.188 824.953 787.609 825.09 787.102 825.363C786.594 825.629 786.195 825.992 785.906 826.453C785.617 826.914 785.473 827.434 785.473 828.012L785.461 828.082H782.977L782.965 828.012C782.973 826.996 783.23 826.098 783.738 825.316C784.254 824.527 784.957 823.91 785.848 823.465C786.738 823.012 787.734 822.785 788.836 822.785C789.914 822.785 790.871 822.992 791.707 823.406C792.543 823.82 793.199 824.391 793.676 825.117C794.152 825.836 794.391 826.652 794.391 827.566V827.59C794.391 828.23 794.273 828.844 794.039 829.43C793.805 830.008 793.402 830.648 792.832 831.352C792.262 832.055 791.469 832.906 790.453 833.906L785.801 838.488L786.656 836.883V838.488L785.801 837.773H794.648V840H783.105ZM803.121 840.293C801.91 840.293 800.855 840.09 799.957 839.684C799.059 839.277 798.348 838.719 797.824 838.008C797.301 837.289 797 836.469 796.922 835.547L796.91 835.406H799.43L799.453 835.523C799.508 836.023 799.691 836.469 800.004 836.859C800.324 837.242 800.746 837.543 801.27 837.762C801.801 837.98 802.418 838.09 803.121 838.09C803.809 838.09 804.41 837.973 804.926 837.738C805.449 837.496 805.852 837.168 806.133 836.754C806.422 836.332 806.566 835.848 806.566 835.301V835.277C806.566 834.324 806.242 833.594 805.594 833.086C804.953 832.57 804.066 832.312 802.934 832.312H800.883V830.25H802.863C803.504 830.25 804.066 830.137 804.551 829.91C805.043 829.676 805.422 829.355 805.688 828.949C805.961 828.543 806.098 828.078 806.098 827.555V827.531C806.098 826.984 805.98 826.52 805.746 826.137C805.512 825.754 805.168 825.461 804.715 825.258C804.27 825.055 803.73 824.953 803.098 824.953C802.473 824.953 801.918 825.059 801.434 825.27C800.949 825.473 800.562 825.766 800.273 826.148C799.984 826.531 799.809 826.984 799.746 827.508L799.734 827.625H797.262L797.273 827.496C797.367 826.551 797.664 825.727 798.164 825.023C798.664 824.32 799.336 823.773 800.18 823.383C801.023 822.992 801.996 822.797 803.098 822.797C804.223 822.797 805.203 822.984 806.039 823.359C806.875 823.727 807.523 824.242 807.984 824.906C808.445 825.562 808.676 826.324 808.676 827.191V827.215C808.676 827.918 808.52 828.539 808.207 829.078C807.902 829.609 807.48 830.055 806.941 830.414C806.402 830.766 805.789 831.012 805.102 831.152V831.211C806.344 831.312 807.344 831.723 808.102 832.441C808.867 833.16 809.25 834.113 809.25 835.301V835.324C809.25 836.285 808.988 837.141 808.465 837.891C807.941 838.641 807.219 839.23 806.297 839.66C805.383 840.082 804.324 840.293 803.121 840.293ZM811.887 840V838.195L817.793 832.23C818.543 831.473 819.117 830.844 819.516 830.344C819.914 829.844 820.188 829.398 820.336 829.008C820.484 828.617 820.559 828.199 820.559 827.754V827.73C820.559 827.191 820.434 826.715 820.184 826.301C819.941 825.879 819.598 825.551 819.152 825.316C818.715 825.074 818.203 824.953 817.617 824.953C816.969 824.953 816.391 825.09 815.883 825.363C815.375 825.629 814.977 825.992 814.688 826.453C814.398 826.914 814.254 827.434 814.254 828.012L814.242 828.082H811.758L811.746 828.012C811.754 826.996 812.012 826.098 812.52 825.316C813.035 824.527 813.738 823.91 814.629 823.465C815.52 823.012 816.516 822.785 817.617 822.785C818.695 822.785 819.652 822.992 820.488 823.406C821.324 823.82 821.98 824.391 822.457 825.117C822.934 825.836 823.172 826.652 823.172 827.566V827.59C823.172 828.23 823.055 828.844 822.82 829.43C822.586 830.008 822.184 830.648 821.613 831.352C821.043 832.055 820.25 832.906 819.234 833.906L814.582 838.488L815.438 836.883V838.488L814.582 837.773H823.43V840H811.887ZM831.902 840.293C830.691 840.293 829.637 840.09 828.738 839.684C827.84 839.277 827.129 838.719 826.605 838.008C826.082 837.289 825.781 836.469 825.703 835.547L825.691 835.406H828.211L828.234 835.523C828.289 836.023 828.473 836.469 828.785 836.859C829.105 837.242 829.527 837.543 830.051 837.762C830.582 837.98 831.199 838.09 831.902 838.09C832.59 838.09 833.191 837.973 833.707 837.738C834.23 837.496 834.633 837.168 834.914 836.754C835.203 836.332 835.348 835.848 835.348 835.301V835.277C835.348 834.324 835.023 833.594 834.375 833.086C833.734 832.57 832.848 832.312 831.715 832.312H829.664V830.25H831.645C832.285 830.25 832.848 830.137 833.332 829.91C833.824 829.676 834.203 829.355 834.469 828.949C834.742 828.543 834.879 828.078 834.879 827.555V827.531C834.879 826.984 834.762 826.52 834.527 826.137C834.293 825.754 833.949 825.461 833.496 825.258C833.051 825.055 832.512 824.953 831.879 824.953C831.254 824.953 830.699 825.059 830.215 825.27C829.73 825.473 829.344 825.766 829.055 826.148C828.766 826.531 828.59 826.984 828.527 827.508L828.516 827.625H826.043L826.055 827.496C826.148 826.551 826.445 825.727 826.945 825.023C827.445 824.32 828.117 823.773 828.961 823.383C829.805 822.992 830.777 822.797 831.879 822.797C833.004 822.797 833.984 822.984 834.82 823.359C835.656 823.727 836.305 824.242 836.766 824.906C837.227 825.562 837.457 826.324 837.457 827.191V827.215C837.457 827.918 837.301 828.539 836.988 829.078C836.684 829.609 836.262 830.055 835.723 830.414C835.184 830.766 834.57 831.012 833.883 831.152V831.211C835.125 831.312 836.125 831.723 836.883 832.441C837.648 833.16 838.031 834.113 838.031 835.301V835.324C838.031 836.285 837.77 837.141 837.246 837.891C836.723 838.641 836 839.23 835.078 839.66C834.164 840.082 833.105 840.293 831.902 840.293Z" fill="white"/>
<rect x="39" y="104" width="657" height="244" rx="24" fill="#10664F"/>
<path d="M40.6406 403V383.271H53.7109V386.676H44.7695V391.406H53.2051V394.633H44.7695V399.596H53.7109V403H40.6406ZM56.3496 403V388.344H60.3418V390.805H60.4238C60.7246 389.966 61.235 389.296 61.9551 388.795C62.6842 388.294 63.541 388.043 64.5254 388.043C65.209 388.043 65.8242 388.161 66.3711 388.398C66.918 388.635 67.3783 388.977 67.752 389.424C68.1348 389.87 68.4036 390.417 68.5586 391.064H68.6406C68.8594 390.445 69.1875 389.911 69.625 389.465C70.0716 389.009 70.5957 388.658 71.1973 388.412C71.8079 388.166 72.4733 388.043 73.1934 388.043C74.1504 388.043 74.9889 388.248 75.709 388.658C76.429 389.068 76.9896 389.643 77.3906 390.381C77.7917 391.119 77.9922 391.985 77.9922 392.979V403H74V393.977C74 393.411 73.9043 392.933 73.7129 392.541C73.5306 392.149 73.2617 391.853 72.9062 391.652C72.5599 391.452 72.127 391.352 71.6074 391.352C71.1061 391.352 70.6641 391.465 70.2812 391.693C69.9076 391.921 69.6159 392.24 69.4062 392.65C69.1966 393.061 69.0918 393.539 69.0918 394.086V403H65.25V393.854C65.25 393.325 65.1543 392.874 64.9629 392.5C64.7715 392.126 64.498 391.844 64.1426 391.652C63.7962 391.452 63.377 391.352 62.8848 391.352C62.3835 391.352 61.9414 391.47 61.5586 391.707C61.1758 391.944 60.875 392.272 60.6562 392.691C60.4466 393.111 60.3418 393.598 60.3418 394.154V403H56.3496ZM87.1934 403.301C85.6986 403.301 84.4134 402.995 83.3379 402.385C82.2624 401.765 81.4329 400.885 80.8496 399.746C80.2754 398.607 79.9883 397.258 79.9883 395.699V395.686C79.9883 394.127 80.2754 392.778 80.8496 391.639C81.4329 390.49 82.2487 389.606 83.2969 388.986C84.3542 388.357 85.5983 388.043 87.0293 388.043C88.4603 388.043 89.6953 388.348 90.7344 388.959C91.7826 389.561 92.5892 390.413 93.1543 391.516C93.7285 392.618 94.0156 393.908 94.0156 395.385V396.615H81.9434V394.1H92.1289L90.2285 396.451V394.92C90.2285 394.063 90.0964 393.348 89.832 392.773C89.5677 392.19 89.1986 391.753 88.7246 391.461C88.2598 391.169 87.7174 391.023 87.0977 391.023C86.4779 391.023 85.9264 391.174 85.4434 391.475C84.9694 391.775 84.5957 392.217 84.3223 392.801C84.0579 393.375 83.9258 394.081 83.9258 394.92V396.465C83.9258 397.276 84.0579 397.969 84.3223 398.543C84.5957 399.117 84.9831 399.559 85.4844 399.869C85.9857 400.17 86.5827 400.32 87.2754 400.32C87.8223 400.32 88.2962 400.234 88.6973 400.061C89.0983 399.887 89.4264 399.669 89.6816 399.404C89.9368 399.14 90.11 398.871 90.2012 398.598L90.2285 398.516H93.8926L93.8516 398.666C93.7422 399.204 93.528 399.746 93.209 400.293C92.89 400.84 92.457 401.341 91.9102 401.797C91.3724 402.253 90.7116 402.617 89.9277 402.891C89.153 403.164 88.2415 403.301 87.1934 403.301ZM96.0801 403V388.344H100.072V390.9H100.154C100.373 389.998 100.77 389.296 101.344 388.795C101.918 388.294 102.633 388.043 103.49 388.043C103.709 388.043 103.919 388.057 104.119 388.084C104.32 388.111 104.493 388.148 104.639 388.193V391.707C104.475 391.643 104.265 391.593 104.01 391.557C103.755 391.511 103.481 391.488 103.189 391.488C102.533 391.488 101.973 391.616 101.508 391.871C101.043 392.126 100.688 392.5 100.441 392.992C100.195 393.484 100.072 394.086 100.072 394.797V403H96.0801ZM110.312 403.232C109.337 403.232 108.48 403.046 107.742 402.672C107.004 402.289 106.425 401.765 106.006 401.1C105.596 400.425 105.391 399.66 105.391 398.803V398.775C105.391 397.882 105.614 397.121 106.061 396.492C106.507 395.854 107.154 395.353 108.002 394.988C108.85 394.624 109.88 394.4 111.092 394.318L116.807 393.963V396.451L111.693 396.779C110.928 396.825 110.344 397.007 109.943 397.326C109.542 397.636 109.342 398.051 109.342 398.57V398.598C109.342 399.135 109.547 399.559 109.957 399.869C110.367 400.17 110.919 400.32 111.611 400.32C112.204 400.32 112.732 400.206 113.197 399.979C113.671 399.742 114.04 399.423 114.305 399.021C114.578 398.611 114.715 398.151 114.715 397.641V393.197C114.715 392.55 114.51 392.04 114.1 391.666C113.689 391.283 113.092 391.092 112.309 391.092C111.561 391.092 110.969 391.247 110.531 391.557C110.094 391.867 109.825 392.258 109.725 392.732L109.697 392.855H106.047L106.061 392.691C106.133 391.789 106.43 390.987 106.949 390.285C107.478 389.583 108.207 389.036 109.137 388.645C110.076 388.243 111.188 388.043 112.473 388.043C113.74 388.043 114.838 388.248 115.768 388.658C116.697 389.059 117.417 389.629 117.928 390.367C118.447 391.105 118.707 391.967 118.707 392.951V403H114.715V400.812H114.633C114.359 401.314 114.004 401.747 113.566 402.111C113.138 402.467 112.65 402.745 112.104 402.945C111.557 403.137 110.96 403.232 110.312 403.232ZM121.387 403V383.271H125.379V403H121.387ZM133.5 403.301C132.27 403.301 131.208 402.995 130.314 402.385C129.421 401.774 128.733 400.899 128.25 399.76C127.776 398.62 127.539 397.258 127.539 395.672V395.658C127.539 394.063 127.781 392.701 128.264 391.57C128.747 390.431 129.43 389.561 130.314 388.959C131.208 388.348 132.27 388.043 133.5 388.043C134.193 388.043 134.831 388.157 135.414 388.385C135.997 388.613 136.508 388.941 136.945 389.369C137.392 389.788 137.747 390.294 138.012 390.887H138.094V383.271H142.086V403H138.094V400.498H138.012C137.757 401.081 137.41 401.583 136.973 402.002C136.535 402.412 136.025 402.731 135.441 402.959C134.858 403.187 134.211 403.301 133.5 403.301ZM134.84 399.992C135.487 399.992 136.057 399.819 136.549 399.473C137.041 399.117 137.424 398.616 137.697 397.969C137.971 397.322 138.107 396.556 138.107 395.672V395.658C138.107 394.774 137.966 394.013 137.684 393.375C137.41 392.728 137.027 392.231 136.535 391.885C136.052 391.529 135.487 391.352 134.84 391.352C134.174 391.352 133.6 391.525 133.117 391.871C132.634 392.217 132.26 392.714 131.996 393.361C131.732 393.999 131.6 394.765 131.6 395.658V395.672C131.6 396.556 131.727 397.322 131.982 397.969C132.247 398.616 132.62 399.117 133.104 399.473C133.596 399.819 134.174 399.992 134.84 399.992ZM159.531 403.342C158.055 403.342 156.729 403.109 155.553 402.645C154.386 402.18 153.393 401.505 152.572 400.621C151.752 399.728 151.123 398.648 150.686 397.381C150.248 396.114 150.029 394.678 150.029 393.074V393.061C150.029 390.946 150.412 389.137 151.178 387.633C151.943 386.12 153.028 384.958 154.432 384.146C155.844 383.335 157.512 382.93 159.436 382.93C161.021 382.93 162.421 383.212 163.633 383.777C164.845 384.333 165.829 385.099 166.586 386.074C167.352 387.049 167.844 388.157 168.062 389.396L168.104 389.588H163.961L163.906 389.451C163.578 388.494 163.031 387.751 162.266 387.223C161.5 386.694 160.561 386.43 159.449 386.43C158.365 386.43 157.43 386.689 156.646 387.209C155.872 387.719 155.275 388.467 154.855 389.451C154.445 390.436 154.24 391.625 154.24 393.02V393.033C154.24 394.1 154.363 395.057 154.609 395.904C154.855 396.743 155.211 397.454 155.676 398.037C156.15 398.62 156.715 399.067 157.371 399.377C158.036 399.687 158.779 399.842 159.6 399.842C160.493 399.842 161.281 399.678 161.965 399.35C162.658 399.012 163.2 398.543 163.592 397.941C163.993 397.331 164.212 396.62 164.248 395.809L164.262 395.521H159.75V392.445H168.281V394.715C168.281 396.055 168.081 397.258 167.68 398.324C167.288 399.391 166.714 400.298 165.957 401.045C165.21 401.792 164.294 402.362 163.209 402.754C162.124 403.146 160.898 403.342 159.531 403.342ZM170.674 403V388.344H174.666V390.9H174.748C174.967 389.998 175.363 389.296 175.938 388.795C176.512 388.294 177.227 388.043 178.084 388.043C178.303 388.043 178.512 388.057 178.713 388.084C178.913 388.111 179.087 388.148 179.232 388.193V391.707C179.068 391.643 178.859 391.593 178.604 391.557C178.348 391.511 178.075 391.488 177.783 391.488C177.127 391.488 176.566 391.616 176.102 391.871C175.637 392.126 175.281 392.5 175.035 392.992C174.789 393.484 174.666 394.086 174.666 394.797V403H170.674ZM187.08 403.301C185.585 403.301 184.3 402.995 183.225 402.385C182.149 401.765 181.32 400.885 180.736 399.746C180.162 398.607 179.875 397.258 179.875 395.699V395.686C179.875 394.127 180.162 392.778 180.736 391.639C181.32 390.49 182.135 389.606 183.184 388.986C184.241 388.357 185.485 388.043 186.916 388.043C188.347 388.043 189.582 388.348 190.621 388.959C191.669 389.561 192.476 390.413 193.041 391.516C193.615 392.618 193.902 393.908 193.902 395.385V396.615H181.83V394.1H192.016L190.115 396.451V394.92C190.115 394.063 189.983 393.348 189.719 392.773C189.454 392.19 189.085 391.753 188.611 391.461C188.146 391.169 187.604 391.023 186.984 391.023C186.365 391.023 185.813 391.174 185.33 391.475C184.856 391.775 184.482 392.217 184.209 392.801C183.945 393.375 183.812 394.081 183.812 394.92V396.465C183.812 397.276 183.945 397.969 184.209 398.543C184.482 399.117 184.87 399.559 185.371 399.869C185.872 400.17 186.469 400.32 187.162 400.32C187.709 400.32 188.183 400.234 188.584 400.061C188.985 399.887 189.313 399.669 189.568 399.404C189.824 399.14 189.997 398.871 190.088 398.598L190.115 398.516H193.779L193.738 398.666C193.629 399.204 193.415 399.746 193.096 400.293C192.777 400.84 192.344 401.341 191.797 401.797C191.259 402.253 190.598 402.617 189.814 402.891C189.04 403.164 188.128 403.301 187.08 403.301ZM202.639 403.301C201.144 403.301 199.859 402.995 198.783 402.385C197.708 401.765 196.878 400.885 196.295 399.746C195.721 398.607 195.434 397.258 195.434 395.699V395.686C195.434 394.127 195.721 392.778 196.295 391.639C196.878 390.49 197.694 389.606 198.742 388.986C199.799 388.357 201.044 388.043 202.475 388.043C203.906 388.043 205.141 388.348 206.18 388.959C207.228 389.561 208.035 390.413 208.6 391.516C209.174 392.618 209.461 393.908 209.461 395.385V396.615H197.389V394.1H207.574L205.674 396.451V394.92C205.674 394.063 205.542 393.348 205.277 392.773C205.013 392.19 204.644 391.753 204.17 391.461C203.705 391.169 203.163 391.023 202.543 391.023C201.923 391.023 201.372 391.174 200.889 391.475C200.415 391.775 200.041 392.217 199.768 392.801C199.503 393.375 199.371 394.081 199.371 394.92V396.465C199.371 397.276 199.503 397.969 199.768 398.543C200.041 399.117 200.428 399.559 200.93 399.869C201.431 400.17 202.028 400.32 202.721 400.32C203.268 400.32 203.742 400.234 204.143 400.061C204.544 399.887 204.872 399.669 205.127 399.404C205.382 399.14 205.555 398.871 205.646 398.598L205.674 398.516H209.338L209.297 398.666C209.188 399.204 208.973 399.746 208.654 400.293C208.335 400.84 207.902 401.341 207.355 401.797C206.818 402.253 206.157 402.617 205.373 402.891C204.598 403.164 203.687 403.301 202.639 403.301ZM211.525 403V388.344H215.518V390.75H215.6C215.982 389.911 216.548 389.251 217.295 388.768C218.042 388.285 218.967 388.043 220.07 388.043C221.684 388.043 222.928 388.531 223.803 389.506C224.687 390.472 225.129 391.816 225.129 393.539V403H221.137V394.359C221.137 393.402 220.909 392.664 220.453 392.145C220.007 391.616 219.337 391.352 218.443 391.352C217.851 391.352 217.336 391.488 216.898 391.762C216.461 392.026 216.119 392.4 215.873 392.883C215.636 393.366 215.518 393.931 215.518 394.578V403H211.525Z" fill="white"/>
<path d="M42.9492 441H40.9219L44.1562 424.09H46.1836L45.1758 429.363L45.0938 429.398L43.957 435.305L44.0273 435.34L42.9492 441ZM48.5977 441H46.5586L47.625 435.34L47.707 435.305L48.8438 429.398L48.7734 429.363L49.793 424.09H51.832L48.5977 441ZM52.3945 436.512H39.0703L39.457 434.508H43.1016L43.1484 434.59H48.8203L48.8672 434.508H52.7812L52.3945 436.512ZM53.4727 430.406H49.5938L49.5469 430.324H43.8984L43.8516 430.406H40.1367L40.5352 428.402H53.8594L53.4727 430.406ZM59.5898 441V426.715H59.5078L55.1133 429.762V427.254L59.5664 424.09H62.168V441H59.5898ZM72.5625 441.305C71.2188 441.305 70.0664 440.949 69.1055 440.238C68.1523 439.527 67.418 438.52 66.9023 437.215C66.3945 435.902 66.1406 434.348 66.1406 432.551V432.527C66.1406 430.73 66.3945 429.18 66.9023 427.875C67.418 426.562 68.1523 425.555 69.1055 424.852C70.0664 424.141 71.2188 423.785 72.5625 423.785C73.8984 423.785 75.0469 424.141 76.0078 424.852C76.9688 425.555 77.7031 426.562 78.2109 427.875C78.7266 429.18 78.9844 430.73 78.9844 432.527V432.551C78.9844 434.348 78.7266 435.902 78.2109 437.215C77.7031 438.52 76.9688 439.527 76.0078 440.238C75.0469 440.949 73.8984 441.305 72.5625 441.305ZM72.5625 439.113C73.3516 439.113 74.0273 438.848 74.5898 438.316C75.1523 437.785 75.582 437.031 75.8789 436.055C76.1836 435.07 76.3359 433.902 76.3359 432.551V432.527C76.3359 431.176 76.1836 430.012 75.8789 429.035C75.582 428.059 75.1523 427.309 74.5898 426.785C74.0273 426.254 73.3516 425.988 72.5625 425.988C71.7656 425.988 71.0859 426.254 70.5234 426.785C69.9609 427.309 69.5312 428.059 69.2344 429.035C68.9453 430.012 68.8008 431.176 68.8008 432.527V432.551C68.8008 433.902 68.9453 435.07 69.2344 436.055C69.5312 437.031 69.9609 437.785 70.5234 438.316C71.0859 438.848 71.7656 439.113 72.5625 439.113ZM87.8672 441.305C87 441.305 86.168 441.148 85.3711 440.836C84.582 440.516 83.875 440.016 83.25 439.336C82.625 438.656 82.1289 437.781 81.7617 436.711C81.4023 435.633 81.2227 434.328 81.2227 432.797V432.773C81.2227 430.891 81.4883 429.277 82.0195 427.934C82.5586 426.59 83.332 425.562 84.3398 424.852C85.3477 424.141 86.5547 423.785 87.9609 423.785C88.9688 423.785 89.875 423.965 90.6797 424.324C91.4922 424.684 92.1641 425.184 92.6953 425.824C93.2344 426.465 93.5938 427.203 93.7734 428.039L93.8086 428.18H91.1719L91.125 428.062C90.9688 427.641 90.7422 427.277 90.4453 426.973C90.1562 426.66 89.8008 426.422 89.3789 426.258C88.957 426.086 88.4805 426 87.9492 426C86.9883 426 86.2031 426.281 85.5938 426.844C84.9922 427.398 84.543 428.141 84.2461 429.07C83.957 430 83.793 431.023 83.7539 432.141C83.7461 432.234 83.7422 432.328 83.7422 432.422C83.7422 432.516 83.7422 432.609 83.7422 432.703L84.2578 435.504C84.2578 436.168 84.4141 436.773 84.7266 437.32C85.0469 437.859 85.4766 438.289 86.0156 438.609C86.5625 438.93 87.168 439.09 87.832 439.09C88.4961 439.09 89.0977 438.934 89.6367 438.621C90.1836 438.309 90.6172 437.887 90.9375 437.355C91.2578 436.816 91.418 436.219 91.418 435.562V435.539C91.418 434.859 91.2617 434.254 90.9492 433.723C90.6445 433.191 90.2266 432.777 89.6953 432.48C89.1641 432.184 88.5547 432.035 87.8672 432.035C87.1875 432.035 86.5742 432.184 86.0273 432.48C85.4805 432.777 85.0469 433.188 84.7266 433.711C84.4141 434.227 84.2578 434.816 84.2578 435.48V435.504H83.5547V432.598H83.8359C84.0547 432.098 84.3828 431.645 84.8203 431.238C85.2578 430.832 85.7812 430.508 86.3906 430.266C87.0078 430.023 87.6992 429.902 88.4648 429.902C89.5508 429.902 90.5117 430.145 91.3477 430.629C92.1836 431.105 92.8398 431.766 93.3164 432.609C93.793 433.445 94.0312 434.398 94.0312 435.469V435.492C94.0312 436.617 93.7617 437.617 93.2227 438.492C92.6914 439.367 91.9609 440.055 91.0312 440.555C90.1094 441.055 89.0547 441.305 87.8672 441.305ZM103.102 441.305C102.234 441.305 101.402 441.148 100.605 440.836C99.8164 440.516 99.1094 440.016 98.4844 439.336C97.8594 438.656 97.3633 437.781 96.9961 436.711C96.6367 435.633 96.457 434.328 96.457 432.797V432.773C96.457 430.891 96.7227 429.277 97.2539 427.934C97.793 426.59 98.5664 425.562 99.5742 424.852C100.582 424.141 101.789 423.785 103.195 423.785C104.203 423.785 105.109 423.965 105.914 424.324C106.727 424.684 107.398 425.184 107.93 425.824C108.469 426.465 108.828 427.203 109.008 428.039L109.043 428.18H106.406L106.359 428.062C106.203 427.641 105.977 427.277 105.68 426.973C105.391 426.66 105.035 426.422 104.613 426.258C104.191 426.086 103.715 426 103.184 426C102.223 426 101.438 426.281 100.828 426.844C100.227 427.398 99.7773 428.141 99.4805 429.07C99.1914 430 99.0273 431.023 98.9883 432.141C98.9805 432.234 98.9766 432.328 98.9766 432.422C98.9766 432.516 98.9766 432.609 98.9766 432.703L99.4922 435.504C99.4922 436.168 99.6484 436.773 99.9609 437.32C100.281 437.859 100.711 438.289 101.25 438.609C101.797 438.93 102.402 439.09 103.066 439.09C103.73 439.09 104.332 438.934 104.871 438.621C105.418 438.309 105.852 437.887 106.172 437.355C106.492 436.816 106.652 436.219 106.652 435.562V435.539C106.652 434.859 106.496 434.254 106.184 433.723C105.879 433.191 105.461 432.777 104.93 432.48C104.398 432.184 103.789 432.035 103.102 432.035C102.422 432.035 101.809 432.184 101.262 432.48C100.715 432.777 100.281 433.188 99.9609 433.711C99.6484 434.227 99.4922 434.816 99.4922 435.48V435.504H98.7891V432.598H99.0703C99.2891 432.098 99.6172 431.645 100.055 431.238C100.492 430.832 101.016 430.508 101.625 430.266C102.242 430.023 102.934 429.902 103.699 429.902C104.785 429.902 105.746 430.145 106.582 430.629C107.418 431.105 108.074 431.766 108.551 432.609C109.027 433.445 109.266 434.398 109.266 435.469V435.492C109.266 436.617 108.996 437.617 108.457 438.492C107.926 439.367 107.195 440.055 106.266 440.555C105.344 441.055 104.289 441.305 103.102 441.305ZM119.977 441V437.637H111.551V435.352C112.02 434.602 112.492 433.852 112.969 433.102C113.445 432.344 113.922 431.59 114.398 430.84C114.883 430.082 115.363 429.328 115.84 428.578C116.316 427.82 116.793 427.07 117.27 426.328C117.754 425.578 118.23 424.832 118.699 424.09H122.496V435.422H124.828V437.637H122.496V441H119.977ZM114.012 435.457H120V426.199H119.906C119.516 426.801 119.125 427.406 118.734 428.016C118.344 428.625 117.949 429.238 117.551 429.855C117.16 430.465 116.766 431.078 116.367 431.695C115.969 432.312 115.574 432.93 115.184 433.547C114.793 434.156 114.402 434.766 114.012 435.375V435.457ZM127.301 441V424.09H137.871V426.363H129.938V431.707H137.203V433.922H129.938V441H127.301Z" fill="white"/>
</svg>
