<svg width="1440" height="900" viewBox="0 0 1440 900" fill="none" xmlns="http://www.w3.org/2000/svg">
<rect width="1440" height="900" rx="28" fill="white"/>
<path d="M132.785 147.371V143.699H140.012C141.9 143.699 143.365 143.211 144.406 142.234C145.461 141.245 145.988 139.878 145.988 138.133V138.094C145.988 136.323 145.461 134.949 144.406 133.973C143.365 132.996 141.9 132.508 140.012 132.508H132.785V128.816H141.105C142.954 128.816 144.576 129.207 145.969 129.988C147.375 130.757 148.475 131.837 149.27 133.23C150.064 134.611 150.461 136.219 150.461 138.055V138.094C150.461 139.93 150.064 141.551 149.27 142.957C148.475 144.35 147.375 145.438 145.969 146.219C144.576 146.987 142.954 147.371 141.105 147.371H132.785ZM130.598 157V128.816H134.973V157H130.598ZM155.309 157V128.816H166.266C168.18 128.816 169.84 129.168 171.246 129.871C172.652 130.574 173.733 131.57 174.488 132.859C175.257 134.148 175.641 135.678 175.641 137.449V137.488C175.641 139.402 175.152 141.076 174.176 142.508C173.212 143.94 171.884 144.943 170.191 145.516L176.5 157H171.441L165.699 146.199C165.647 146.199 165.602 146.199 165.562 146.199C165.536 146.199 165.497 146.199 165.445 146.199H159.684V157H155.309ZM159.684 142.586H165.836C167.516 142.586 168.818 142.15 169.742 141.277C170.667 140.392 171.129 139.142 171.129 137.527V137.488C171.129 135.939 170.641 134.721 169.664 133.836C168.701 132.938 167.379 132.488 165.699 132.488H159.684V142.586ZM180.879 157V128.816H185.254V157H180.879ZM191.449 157V128.816H196.508L205.629 151.297H205.746L214.867 128.816H219.945V157H215.941V136.219H213.93L218.5 129.598L207.309 157H204.066L192.895 129.598L197.465 136.219H195.453V157H191.449ZM224.07 157L234.324 128.816H237.879V133.484H236.648L228.68 157H224.07ZM229.051 149.383L230.32 145.867H243.055L244.324 149.383H229.051ZM244.695 157L236.746 133.484V128.816H239.07L249.305 157H244.695ZM253.41 157V128.816H264.367C266.281 128.816 267.941 129.168 269.348 129.871C270.754 130.574 271.835 131.57 272.59 132.859C273.358 134.148 273.742 135.678 273.742 137.449V137.488C273.742 139.402 273.254 141.076 272.277 142.508C271.314 143.94 269.986 144.943 268.293 145.516L274.602 157H269.543L263.801 146.199C263.749 146.199 263.703 146.199 263.664 146.199C263.638 146.199 263.599 146.199 263.547 146.199H257.785V157H253.41ZM257.785 142.586H263.938C265.617 142.586 266.919 142.15 267.844 141.277C268.768 140.392 269.23 139.142 269.23 137.527V137.488C269.23 135.939 268.742 134.721 267.766 133.836C266.802 132.938 265.48 132.488 263.801 132.488H257.785V142.586ZM285.797 157V145.457L275.875 128.816H280.738L287.945 141.238H288.062L295.25 128.816H300.133L290.191 145.457V157H285.797Z" fill="#393A41"/>
<rect x="489" y="118" width="657" height="244" rx="24" fill="#10664F"/>
<path d="M490.641 417V397.271H503.711V400.676H494.77V405.406H503.205V408.633H494.77V413.596H503.711V417H490.641ZM506.35 417V402.344H510.342V404.805H510.424C510.725 403.966 511.235 403.296 511.955 402.795C512.684 402.294 513.541 402.043 514.525 402.043C515.209 402.043 515.824 402.161 516.371 402.398C516.918 402.635 517.378 402.977 517.752 403.424C518.135 403.87 518.404 404.417 518.559 405.064H518.641C518.859 404.445 519.188 403.911 519.625 403.465C520.072 403.009 520.596 402.658 521.197 402.412C521.808 402.166 522.473 402.043 523.193 402.043C524.15 402.043 524.989 402.248 525.709 402.658C526.429 403.068 526.99 403.643 527.391 404.381C527.792 405.119 527.992 405.985 527.992 406.979V417H524V407.977C524 407.411 523.904 406.933 523.713 406.541C523.531 406.149 523.262 405.853 522.906 405.652C522.56 405.452 522.127 405.352 521.607 405.352C521.106 405.352 520.664 405.465 520.281 405.693C519.908 405.921 519.616 406.24 519.406 406.65C519.197 407.061 519.092 407.539 519.092 408.086V417H515.25V407.854C515.25 407.325 515.154 406.874 514.963 406.5C514.771 406.126 514.498 405.844 514.143 405.652C513.796 405.452 513.377 405.352 512.885 405.352C512.383 405.352 511.941 405.47 511.559 405.707C511.176 405.944 510.875 406.272 510.656 406.691C510.447 407.111 510.342 407.598 510.342 408.154V417H506.35ZM537.193 417.301C535.699 417.301 534.413 416.995 533.338 416.385C532.262 415.765 531.433 414.885 530.85 413.746C530.275 412.607 529.988 411.258 529.988 409.699V409.686C529.988 408.127 530.275 406.778 530.85 405.639C531.433 404.49 532.249 403.606 533.297 402.986C534.354 402.357 535.598 402.043 537.029 402.043C538.46 402.043 539.695 402.348 540.734 402.959C541.783 403.561 542.589 404.413 543.154 405.516C543.729 406.618 544.016 407.908 544.016 409.385V410.615H531.943V408.1H542.129L540.229 410.451V408.92C540.229 408.063 540.096 407.348 539.832 406.773C539.568 406.19 539.199 405.753 538.725 405.461C538.26 405.169 537.717 405.023 537.098 405.023C536.478 405.023 535.926 405.174 535.443 405.475C534.969 405.775 534.596 406.217 534.322 406.801C534.058 407.375 533.926 408.081 533.926 408.92V410.465C533.926 411.276 534.058 411.969 534.322 412.543C534.596 413.117 534.983 413.559 535.484 413.869C535.986 414.17 536.583 414.32 537.275 414.32C537.822 414.32 538.296 414.234 538.697 414.061C539.098 413.887 539.426 413.669 539.682 413.404C539.937 413.14 540.11 412.871 540.201 412.598L540.229 412.516H543.893L543.852 412.666C543.742 413.204 543.528 413.746 543.209 414.293C542.89 414.84 542.457 415.341 541.91 415.797C541.372 416.253 540.712 416.617 539.928 416.891C539.153 417.164 538.242 417.301 537.193 417.301ZM546.08 417V402.344H550.072V404.9H550.154C550.373 403.998 550.77 403.296 551.344 402.795C551.918 402.294 552.633 402.043 553.49 402.043C553.709 402.043 553.919 402.057 554.119 402.084C554.32 402.111 554.493 402.148 554.639 402.193V405.707C554.475 405.643 554.265 405.593 554.01 405.557C553.755 405.511 553.481 405.488 553.189 405.488C552.533 405.488 551.973 405.616 551.508 405.871C551.043 406.126 550.688 406.5 550.441 406.992C550.195 407.484 550.072 408.086 550.072 408.797V417H546.08ZM560.312 417.232C559.337 417.232 558.48 417.046 557.742 416.672C557.004 416.289 556.425 415.765 556.006 415.1C555.596 414.425 555.391 413.66 555.391 412.803V412.775C555.391 411.882 555.614 411.121 556.061 410.492C556.507 409.854 557.154 409.353 558.002 408.988C558.85 408.624 559.88 408.4 561.092 408.318L566.807 407.963V410.451L561.693 410.779C560.928 410.825 560.344 411.007 559.943 411.326C559.542 411.636 559.342 412.051 559.342 412.57V412.598C559.342 413.135 559.547 413.559 559.957 413.869C560.367 414.17 560.919 414.32 561.611 414.32C562.204 414.32 562.732 414.206 563.197 413.979C563.671 413.742 564.04 413.423 564.305 413.021C564.578 412.611 564.715 412.151 564.715 411.641V407.197C564.715 406.55 564.51 406.04 564.1 405.666C563.689 405.283 563.092 405.092 562.309 405.092C561.561 405.092 560.969 405.247 560.531 405.557C560.094 405.867 559.825 406.258 559.725 406.732L559.697 406.855H556.047L556.061 406.691C556.133 405.789 556.43 404.987 556.949 404.285C557.478 403.583 558.207 403.036 559.137 402.645C560.076 402.243 561.188 402.043 562.473 402.043C563.74 402.043 564.838 402.248 565.768 402.658C566.697 403.059 567.417 403.629 567.928 404.367C568.447 405.105 568.707 405.967 568.707 406.951V417H564.715V414.812H564.633C564.359 415.314 564.004 415.747 563.566 416.111C563.138 416.467 562.65 416.745 562.104 416.945C561.557 417.137 560.96 417.232 560.312 417.232ZM571.387 417V397.271H575.379V417H571.387ZM583.5 417.301C582.27 417.301 581.208 416.995 580.314 416.385C579.421 415.774 578.733 414.899 578.25 413.76C577.776 412.62 577.539 411.258 577.539 409.672V409.658C577.539 408.063 577.781 406.701 578.264 405.57C578.747 404.431 579.43 403.561 580.314 402.959C581.208 402.348 582.27 402.043 583.5 402.043C584.193 402.043 584.831 402.157 585.414 402.385C585.997 402.613 586.508 402.941 586.945 403.369C587.392 403.788 587.747 404.294 588.012 404.887H588.094V397.271H592.086V417H588.094V414.498H588.012C587.757 415.081 587.41 415.583 586.973 416.002C586.535 416.412 586.025 416.731 585.441 416.959C584.858 417.187 584.211 417.301 583.5 417.301ZM584.84 413.992C585.487 413.992 586.057 413.819 586.549 413.473C587.041 413.117 587.424 412.616 587.697 411.969C587.971 411.322 588.107 410.556 588.107 409.672V409.658C588.107 408.774 587.966 408.013 587.684 407.375C587.41 406.728 587.027 406.231 586.535 405.885C586.052 405.529 585.487 405.352 584.84 405.352C584.174 405.352 583.6 405.525 583.117 405.871C582.634 406.217 582.26 406.714 581.996 407.361C581.732 407.999 581.6 408.765 581.6 409.658V409.672C581.6 410.556 581.727 411.322 581.982 411.969C582.247 412.616 582.62 413.117 583.104 413.473C583.596 413.819 584.174 413.992 584.84 413.992ZM609.531 417.342C608.055 417.342 606.729 417.109 605.553 416.645C604.386 416.18 603.393 415.505 602.572 414.621C601.752 413.728 601.123 412.648 600.686 411.381C600.248 410.114 600.029 408.678 600.029 407.074V407.061C600.029 404.946 600.412 403.137 601.178 401.633C601.943 400.12 603.028 398.958 604.432 398.146C605.844 397.335 607.512 396.93 609.436 396.93C611.021 396.93 612.421 397.212 613.633 397.777C614.845 398.333 615.829 399.099 616.586 400.074C617.352 401.049 617.844 402.157 618.062 403.396L618.104 403.588H613.961L613.906 403.451C613.578 402.494 613.031 401.751 612.266 401.223C611.5 400.694 610.561 400.43 609.449 400.43C608.365 400.43 607.43 400.689 606.646 401.209C605.872 401.719 605.275 402.467 604.855 403.451C604.445 404.436 604.24 405.625 604.24 407.02V407.033C604.24 408.1 604.363 409.057 604.609 409.904C604.855 410.743 605.211 411.454 605.676 412.037C606.15 412.62 606.715 413.067 607.371 413.377C608.036 413.687 608.779 413.842 609.6 413.842C610.493 413.842 611.281 413.678 611.965 413.35C612.658 413.012 613.2 412.543 613.592 411.941C613.993 411.331 614.212 410.62 614.248 409.809L614.262 409.521H609.75V406.445H618.281V408.715C618.281 410.055 618.081 411.258 617.68 412.324C617.288 413.391 616.714 414.298 615.957 415.045C615.21 415.792 614.294 416.362 613.209 416.754C612.124 417.146 610.898 417.342 609.531 417.342ZM620.674 417V402.344H624.666V404.9H624.748C624.967 403.998 625.363 403.296 625.938 402.795C626.512 402.294 627.227 402.043 628.084 402.043C628.303 402.043 628.512 402.057 628.713 402.084C628.913 402.111 629.087 402.148 629.232 402.193V405.707C629.068 405.643 628.859 405.593 628.604 405.557C628.348 405.511 628.075 405.488 627.783 405.488C627.127 405.488 626.566 405.616 626.102 405.871C625.637 406.126 625.281 406.5 625.035 406.992C624.789 407.484 624.666 408.086 624.666 408.797V417H620.674ZM637.08 417.301C635.585 417.301 634.3 416.995 633.225 416.385C632.149 415.765 631.32 414.885 630.736 413.746C630.162 412.607 629.875 411.258 629.875 409.699V409.686C629.875 408.127 630.162 406.778 630.736 405.639C631.32 404.49 632.135 403.606 633.184 402.986C634.241 402.357 635.485 402.043 636.916 402.043C638.347 402.043 639.582 402.348 640.621 402.959C641.669 403.561 642.476 404.413 643.041 405.516C643.615 406.618 643.902 407.908 643.902 409.385V410.615H631.83V408.1H642.016L640.115 410.451V408.92C640.115 408.063 639.983 407.348 639.719 406.773C639.454 406.19 639.085 405.753 638.611 405.461C638.146 405.169 637.604 405.023 636.984 405.023C636.365 405.023 635.813 405.174 635.33 405.475C634.856 405.775 634.482 406.217 634.209 406.801C633.945 407.375 633.812 408.081 633.812 408.92V410.465C633.812 411.276 633.945 411.969 634.209 412.543C634.482 413.117 634.87 413.559 635.371 413.869C635.872 414.17 636.469 414.32 637.162 414.32C637.709 414.32 638.183 414.234 638.584 414.061C638.985 413.887 639.313 413.669 639.568 413.404C639.824 413.14 639.997 412.871 640.088 412.598L640.115 412.516H643.779L643.738 412.666C643.629 413.204 643.415 413.746 643.096 414.293C642.777 414.84 642.344 415.341 641.797 415.797C641.259 416.253 640.598 416.617 639.814 416.891C639.04 417.164 638.128 417.301 637.08 417.301ZM652.639 417.301C651.144 417.301 649.859 416.995 648.783 416.385C647.708 415.765 646.878 414.885 646.295 413.746C645.721 412.607 645.434 411.258 645.434 409.699V409.686C645.434 408.127 645.721 406.778 646.295 405.639C646.878 404.49 647.694 403.606 648.742 402.986C649.799 402.357 651.044 402.043 652.475 402.043C653.906 402.043 655.141 402.348 656.18 402.959C657.228 403.561 658.035 404.413 658.6 405.516C659.174 406.618 659.461 407.908 659.461 409.385V410.615H647.389V408.1H657.574L655.674 410.451V408.92C655.674 408.063 655.542 407.348 655.277 406.773C655.013 406.19 654.644 405.753 654.17 405.461C653.705 405.169 653.163 405.023 652.543 405.023C651.923 405.023 651.372 405.174 650.889 405.475C650.415 405.775 650.041 406.217 649.768 406.801C649.503 407.375 649.371 408.081 649.371 408.92V410.465C649.371 411.276 649.503 411.969 649.768 412.543C650.041 413.117 650.428 413.559 650.93 413.869C651.431 414.17 652.028 414.32 652.721 414.32C653.268 414.32 653.742 414.234 654.143 414.061C654.544 413.887 654.872 413.669 655.127 413.404C655.382 413.14 655.555 412.871 655.646 412.598L655.674 412.516H659.338L659.297 412.666C659.188 413.204 658.973 413.746 658.654 414.293C658.335 414.84 657.902 415.341 657.355 415.797C656.818 416.253 656.157 416.617 655.373 416.891C654.598 417.164 653.687 417.301 652.639 417.301ZM661.525 417V402.344H665.518V404.75H665.6C665.982 403.911 666.548 403.251 667.295 402.768C668.042 402.285 668.967 402.043 670.07 402.043C671.684 402.043 672.928 402.531 673.803 403.506C674.687 404.472 675.129 405.816 675.129 407.539V417H671.137V408.359C671.137 407.402 670.909 406.664 670.453 406.145C670.007 405.616 669.337 405.352 668.443 405.352C667.851 405.352 667.336 405.488 666.898 405.762C666.461 406.026 666.119 406.4 665.873 406.883C665.636 407.366 665.518 407.931 665.518 408.578V417H661.525Z" fill="#393A41"/>
<path d="M492.645 455H490.945L494.156 438.09H495.867L494.859 443.34L494.812 443.375L493.676 449.34L493.699 449.375L492.645 455ZM498.27 455H496.57L497.613 449.375L497.66 449.34L498.809 443.375L498.773 443.34L499.781 438.09H501.492L498.27 455ZM502.137 450.395H489.059L489.398 448.684H492.867L492.914 448.719H498.492L498.539 448.684H502.477L502.137 450.395ZM503.215 444.242H499.418L499.371 444.195H493.805L493.758 444.242H490.125L490.465 442.531H503.555L503.215 444.242ZM509.367 455V440.352H509.297L504.855 443.469V441.324L509.355 438.09H511.418V455H509.367ZM521.672 455.305C520.383 455.305 519.277 454.949 518.355 454.238C517.441 453.52 516.738 452.508 516.246 451.203C515.762 449.898 515.52 448.348 515.52 446.551V446.527C515.52 444.73 515.762 443.18 516.246 441.875C516.738 440.57 517.441 439.562 518.355 438.852C519.277 438.141 520.383 437.785 521.672 437.785C522.961 437.785 524.066 438.141 524.988 438.852C525.91 439.562 526.617 440.57 527.109 441.875C527.609 443.18 527.859 444.73 527.859 446.527V446.551C527.859 448.348 527.609 449.898 527.109 451.203C526.617 452.508 525.91 453.52 524.988 454.238C524.066 454.949 522.961 455.305 521.672 455.305ZM521.672 453.465C522.523 453.465 523.25 453.184 523.852 452.621C524.461 452.059 524.926 451.262 525.246 450.23C525.574 449.199 525.738 447.973 525.738 446.551V446.527C525.738 445.105 525.574 443.883 525.246 442.859C524.926 441.828 524.461 441.035 523.852 440.48C523.25 439.918 522.523 439.637 521.672 439.637C520.828 439.637 520.102 439.918 519.492 440.48C518.891 441.035 518.43 441.828 518.109 442.859C517.797 443.883 517.641 445.105 517.641 446.527V446.551C517.641 447.973 517.797 449.199 518.109 450.23C518.43 451.262 518.891 452.059 519.492 452.621C520.102 453.184 520.828 453.465 521.672 453.465ZM536.59 455.305C535.809 455.305 535.039 455.16 534.281 454.871C533.523 454.574 532.836 454.098 532.219 453.441C531.602 452.777 531.105 451.91 530.73 450.84C530.363 449.762 530.18 448.434 530.18 446.855V446.832C530.18 444.926 530.438 443.301 530.953 441.957C531.477 440.605 532.227 439.574 533.203 438.863C534.18 438.145 535.355 437.785 536.73 437.785C537.684 437.785 538.543 437.957 539.309 438.301C540.082 438.645 540.727 439.125 541.242 439.742C541.758 440.359 542.109 441.078 542.297 441.898L542.332 442.051H540.188L540.141 441.922C539.977 441.453 539.734 441.051 539.414 440.715C539.094 440.379 538.707 440.121 538.254 439.941C537.801 439.754 537.285 439.66 536.707 439.66C535.66 439.66 534.812 439.965 534.164 440.574C533.523 441.176 533.047 441.977 532.734 442.977C532.43 443.969 532.258 445.059 532.219 446.246C532.211 446.332 532.207 446.414 532.207 446.492C532.207 446.57 532.207 446.652 532.207 446.738L532.711 449.527C532.711 450.246 532.879 450.902 533.215 451.496C533.559 452.09 534.023 452.562 534.609 452.914C535.195 453.258 535.848 453.43 536.566 453.43C537.285 453.43 537.934 453.262 538.512 452.926C539.098 452.582 539.562 452.121 539.906 451.543C540.25 450.957 540.422 450.309 540.422 449.598V449.574C540.422 448.832 540.258 448.176 539.93 447.605C539.602 447.035 539.148 446.586 538.57 446.258C538 445.93 537.344 445.766 536.602 445.766C535.867 445.766 535.203 445.93 534.609 446.258C534.023 446.578 533.559 447.02 533.215 447.582C532.879 448.145 532.711 448.789 532.711 449.516V449.527H532.02V446.621H532.289C532.516 446.129 532.848 445.68 533.285 445.273C533.73 444.859 534.262 444.531 534.879 444.289C535.504 444.039 536.199 443.914 536.965 443.914C538.035 443.914 538.992 444.16 539.836 444.652C540.68 445.137 541.344 445.801 541.828 446.645C542.32 447.488 542.566 448.449 542.566 449.527V449.551C542.566 450.66 542.305 451.648 541.781 452.516C541.266 453.375 540.559 454.055 539.66 454.555C538.762 455.055 537.738 455.305 536.59 455.305ZM551.496 455.305C550.715 455.305 549.945 455.16 549.188 454.871C548.43 454.574 547.742 454.098 547.125 453.441C546.508 452.777 546.012 451.91 545.637 450.84C545.27 449.762 545.086 448.434 545.086 446.855V446.832C545.086 444.926 545.344 443.301 545.859 441.957C546.383 440.605 547.133 439.574 548.109 438.863C549.086 438.145 550.262 437.785 551.637 437.785C552.59 437.785 553.449 437.957 554.215 438.301C554.988 438.645 555.633 439.125 556.148 439.742C556.664 440.359 557.016 441.078 557.203 441.898L557.238 442.051H555.094L555.047 441.922C554.883 441.453 554.641 441.051 554.32 440.715C554 440.379 553.613 440.121 553.16 439.941C552.707 439.754 552.191 439.66 551.613 439.66C550.566 439.66 549.719 439.965 549.07 440.574C548.43 441.176 547.953 441.977 547.641 442.977C547.336 443.969 547.164 445.059 547.125 446.246C547.117 446.332 547.113 446.414 547.113 446.492C547.113 446.57 547.113 446.652 547.113 446.738L547.617 449.527C547.617 450.246 547.785 450.902 548.121 451.496C548.465 452.09 548.93 452.562 549.516 452.914C550.102 453.258 550.754 453.43 551.473 453.43C552.191 453.43 552.84 453.262 553.418 452.926C554.004 452.582 554.469 452.121 554.812 451.543C555.156 450.957 555.328 450.309 555.328 449.598V449.574C555.328 448.832 555.164 448.176 554.836 447.605C554.508 447.035 554.055 446.586 553.477 446.258C552.906 445.93 552.25 445.766 551.508 445.766C550.773 445.766 550.109 445.93 549.516 446.258C548.93 446.578 548.465 447.02 548.121 447.582C547.785 448.145 547.617 448.789 547.617 449.516V449.527H546.926V446.621H547.195C547.422 446.129 547.754 445.68 548.191 445.273C548.637 444.859 549.168 444.531 549.785 444.289C550.41 444.039 551.105 443.914 551.871 443.914C552.941 443.914 553.898 444.16 554.742 444.652C555.586 445.137 556.25 445.801 556.734 446.645C557.227 447.488 557.473 448.449 557.473 449.527V449.551C557.473 450.66 557.211 451.648 556.688 452.516C556.172 453.375 555.465 454.055 554.566 454.555C553.668 455.055 552.645 455.305 551.496 455.305ZM568.289 455V451.484H559.84V449.574C560.324 448.809 560.812 448.043 561.305 447.277C561.797 446.504 562.289 445.734 562.781 444.969C563.281 444.195 563.777 443.426 564.27 442.66C564.762 441.895 565.254 441.133 565.746 440.375C566.246 439.609 566.738 438.848 567.223 438.09H570.328V449.633H572.73V451.484H570.328V455H568.289ZM561.938 449.633H568.289V439.918H568.207C567.793 440.559 567.375 441.199 566.953 441.84C566.539 442.473 566.121 443.113 565.699 443.762C565.285 444.402 564.867 445.047 564.445 445.695C564.023 446.344 563.602 446.992 563.18 447.641C562.766 448.281 562.352 448.922 561.938 449.562V449.633ZM575.273 455V438.09H585.539V439.988H577.383V445.801H584.871V447.676H577.383V455H575.273Z" fill="#393A41"/>
<rect x="489" y="512" width="195" height="216" rx="24" fill="#33997E"/>
<path d="M492.645 773H490.945L494.156 756.09H495.867L494.859 761.34L494.812 761.375L493.676 767.34L493.699 767.375L492.645 773ZM498.27 773H496.57L497.613 767.375L497.66 767.34L498.809 761.375L498.773 761.34L499.781 756.09H501.492L498.27 773ZM502.137 768.395H489.059L489.398 766.684H492.867L492.914 766.719H498.492L498.539 766.684H502.477L502.137 768.395ZM503.215 762.242H499.418L499.371 762.195H493.805L493.758 762.242H490.125L490.465 760.531H503.555L503.215 762.242ZM510.797 773.281C509.633 773.281 508.617 773.082 507.75 772.684C506.883 772.285 506.195 771.738 505.688 771.043C505.188 770.348 504.898 769.555 504.82 768.664L504.809 768.523H506.836L506.848 768.641C506.91 769.195 507.109 769.684 507.445 770.105C507.789 770.527 508.246 770.859 508.816 771.102C509.387 771.336 510.047 771.453 510.797 771.453C511.539 771.453 512.188 771.324 512.742 771.066C513.305 770.809 513.742 770.453 514.055 770C514.367 769.539 514.523 769.012 514.523 768.418V768.395C514.523 767.355 514.176 766.559 513.48 766.004C512.793 765.441 511.855 765.16 510.668 765.16H508.547V763.379H510.574C511.246 763.379 511.84 763.254 512.355 763.004C512.871 762.746 513.273 762.398 513.562 761.961C513.852 761.516 513.996 761.012 513.996 760.449V760.426C513.996 759.832 513.871 759.328 513.621 758.914C513.371 758.5 513.004 758.184 512.52 757.965C512.043 757.746 511.461 757.637 510.773 757.637C510.109 757.637 509.516 757.75 508.992 757.977C508.477 758.195 508.062 758.512 507.75 758.926C507.438 759.34 507.25 759.832 507.188 760.402L507.176 760.52H505.148L505.16 760.402C505.254 759.48 505.543 758.676 506.027 757.988C506.52 757.301 507.168 756.766 507.973 756.383C508.785 756 509.719 755.809 510.773 755.809C511.852 755.809 512.789 755.996 513.586 756.371C514.391 756.738 515.012 757.25 515.449 757.906C515.895 758.555 516.117 759.309 516.117 760.168V760.191C516.117 760.887 515.965 761.504 515.66 762.043C515.355 762.582 514.934 763.031 514.395 763.391C513.855 763.75 513.234 764.004 512.531 764.152V764.199C513.766 764.301 514.762 764.719 515.52 765.453C516.285 766.18 516.668 767.145 516.668 768.348V768.371C516.668 769.309 516.414 770.148 515.906 770.891C515.398 771.633 514.703 772.219 513.82 772.648C512.938 773.07 511.93 773.281 510.797 773.281ZM525.164 773.281C524 773.281 522.984 773.082 522.117 772.684C521.25 772.285 520.562 771.738 520.055 771.043C519.555 770.348 519.266 769.555 519.188 768.664L519.176 768.523H521.203L521.215 768.641C521.277 769.195 521.477 769.684 521.812 770.105C522.156 770.527 522.613 770.859 523.184 771.102C523.754 771.336 524.414 771.453 525.164 771.453C525.906 771.453 526.555 771.324 527.109 771.066C527.672 770.809 528.109 770.453 528.422 770C528.734 769.539 528.891 769.012 528.891 768.418V768.395C528.891 767.355 528.543 766.559 527.848 766.004C527.16 765.441 526.223 765.16 525.035 765.16H522.914V763.379H524.941C525.613 763.379 526.207 763.254 526.723 763.004C527.238 762.746 527.641 762.398 527.93 761.961C528.219 761.516 528.363 761.012 528.363 760.449V760.426C528.363 759.832 528.238 759.328 527.988 758.914C527.738 758.5 527.371 758.184 526.887 757.965C526.41 757.746 525.828 757.637 525.141 757.637C524.477 757.637 523.883 757.75 523.359 757.977C522.844 758.195 522.43 758.512 522.117 758.926C521.805 759.34 521.617 759.832 521.555 760.402L521.543 760.52H519.516L519.527 760.402C519.621 759.48 519.91 758.676 520.395 757.988C520.887 757.301 521.535 756.766 522.34 756.383C523.152 756 524.086 755.809 525.141 755.809C526.219 755.809 527.156 755.996 527.953 756.371C528.758 756.738 529.379 757.25 529.816 757.906C530.262 758.555 530.484 759.309 530.484 760.168V760.191C530.484 760.887 530.332 761.504 530.027 762.043C529.723 762.582 529.301 763.031 528.762 763.391C528.223 763.75 527.602 764.004 526.898 764.152V764.199C528.133 764.301 529.129 764.719 529.887 765.453C530.652 766.18 531.035 767.145 531.035 768.348V768.371C531.035 769.309 530.781 770.148 530.273 770.891C529.766 771.633 529.07 772.219 528.188 772.648C527.305 773.07 526.297 773.281 525.164 773.281ZM539.695 755.785C540.477 755.785 541.246 755.934 542.004 756.23C542.762 756.52 543.449 756.996 544.066 757.66C544.691 758.316 545.188 759.184 545.555 760.262C545.93 761.332 546.117 762.656 546.117 764.234V764.258C546.117 766.164 545.855 767.793 545.332 769.145C544.816 770.488 544.07 771.52 543.094 772.238C542.117 772.949 540.938 773.305 539.555 773.305C538.609 773.305 537.75 773.133 536.977 772.789C536.203 772.445 535.559 771.965 535.043 771.348C534.535 770.73 534.184 770.012 533.988 769.191L533.953 769.039H536.098L536.145 769.168C536.316 769.629 536.559 770.031 536.871 770.375C537.191 770.711 537.578 770.973 538.031 771.16C538.492 771.34 539.008 771.43 539.578 771.43C540.633 771.43 541.48 771.129 542.121 770.527C542.77 769.918 543.246 769.113 543.551 768.113C543.863 767.113 544.035 766.023 544.066 764.844C544.074 764.758 544.078 764.676 544.078 764.598C544.078 764.52 544.078 764.438 544.078 764.352L543.574 761.562C543.574 760.836 543.402 760.18 543.059 759.594C542.723 759 542.262 758.531 541.676 758.188C541.098 757.836 540.445 757.66 539.719 757.66C539.008 757.66 538.359 757.832 537.773 758.176C537.188 758.512 536.723 758.973 536.379 759.559C536.035 760.137 535.863 760.781 535.863 761.492V761.516C535.863 762.258 536.027 762.914 536.355 763.484C536.684 764.055 537.137 764.504 537.715 764.832C538.293 765.16 538.949 765.324 539.684 765.324C540.426 765.324 541.09 765.164 541.676 764.844C542.262 764.516 542.723 764.07 543.059 763.508C543.402 762.945 543.574 762.301 543.574 761.574V761.562H544.277V764.469H543.996C543.777 764.961 543.445 765.414 543 765.828C542.562 766.234 542.031 766.562 541.406 766.812C540.781 767.055 540.086 767.176 539.32 767.176C538.258 767.176 537.301 766.934 536.449 766.449C535.605 765.957 534.941 765.289 534.457 764.445C533.973 763.602 533.73 762.641 533.73 761.562V761.539C533.73 760.43 533.988 759.441 534.504 758.574C535.02 757.707 535.727 757.027 536.625 756.535C537.523 756.035 538.547 755.785 539.695 755.785ZM554.602 755.785C555.383 755.785 556.152 755.934 556.91 756.23C557.668 756.52 558.355 756.996 558.973 757.66C559.598 758.316 560.094 759.184 560.461 760.262C560.836 761.332 561.023 762.656 561.023 764.234V764.258C561.023 766.164 560.762 767.793 560.238 769.145C559.723 770.488 558.977 771.52 558 772.238C557.023 772.949 555.844 773.305 554.461 773.305C553.516 773.305 552.656 773.133 551.883 772.789C551.109 772.445 550.465 771.965 549.949 771.348C549.441 770.73 549.09 770.012 548.895 769.191L548.859 769.039H551.004L551.051 769.168C551.223 769.629 551.465 770.031 551.777 770.375C552.098 770.711 552.484 770.973 552.938 771.16C553.398 771.34 553.914 771.43 554.484 771.43C555.539 771.43 556.387 771.129 557.027 770.527C557.676 769.918 558.152 769.113 558.457 768.113C558.77 767.113 558.941 766.023 558.973 764.844C558.98 764.758 558.984 764.676 558.984 764.598C558.984 764.52 558.984 764.438 558.984 764.352L558.48 761.562C558.48 760.836 558.309 760.18 557.965 759.594C557.629 759 557.168 758.531 556.582 758.188C556.004 757.836 555.352 757.66 554.625 757.66C553.914 757.66 553.266 757.832 552.68 758.176C552.094 758.512 551.629 758.973 551.285 759.559C550.941 760.137 550.77 760.781 550.77 761.492V761.516C550.77 762.258 550.934 762.914 551.262 763.484C551.59 764.055 552.043 764.504 552.621 764.832C553.199 765.16 553.855 765.324 554.59 765.324C555.332 765.324 555.996 765.164 556.582 764.844C557.168 764.516 557.629 764.07 557.965 763.508C558.309 762.945 558.48 762.301 558.48 761.574V761.562H559.184V764.469H558.902C558.684 764.961 558.352 765.414 557.906 765.828C557.469 766.234 556.938 766.562 556.312 766.812C555.688 767.055 554.992 767.176 554.227 767.176C553.164 767.176 552.207 766.934 551.355 766.449C550.512 765.957 549.848 765.289 549.363 764.445C548.879 763.602 548.637 762.641 548.637 761.562V761.539C548.637 760.43 548.895 759.441 549.41 758.574C549.926 757.707 550.633 757.027 551.531 756.535C552.43 756.035 553.453 755.785 554.602 755.785ZM564.094 773L571.734 758.035V757.965H562.641V756.09H573.832V758.047L566.309 773H564.094ZM576.656 773V756.09H587.133V757.988H578.766V763.414H586.699V765.289H578.766V771.102H587.133V773H576.656Z" fill="#393A41"/>
<rect x="720" y="512" width="195" height="216" rx="24" fill="#10664F"/>
<path d="M723.645 773H721.945L725.156 756.09H726.867L725.859 761.34L725.812 761.375L724.676 767.34L724.699 767.375L723.645 773ZM729.27 773H727.57L728.613 767.375L728.66 767.34L729.809 761.375L729.773 761.34L730.781 756.09H732.492L729.27 773ZM733.137 768.395H720.059L720.398 766.684H723.867L723.914 766.719H729.492L729.539 766.684H733.477L733.137 768.395ZM734.215 762.242H730.418L730.371 762.195H724.805L724.758 762.242H721.125L721.465 760.531H734.555L734.215 762.242ZM740.367 773V758.352H740.297L735.855 761.469V759.324L740.355 756.09H742.418V773H740.367ZM752.672 773.305C751.383 773.305 750.277 772.949 749.355 772.238C748.441 771.52 747.738 770.508 747.246 769.203C746.762 767.898 746.52 766.348 746.52 764.551V764.527C746.52 762.73 746.762 761.18 747.246 759.875C747.738 758.57 748.441 757.562 749.355 756.852C750.277 756.141 751.383 755.785 752.672 755.785C753.961 755.785 755.066 756.141 755.988 756.852C756.91 757.562 757.617 758.57 758.109 759.875C758.609 761.18 758.859 762.73 758.859 764.527V764.551C758.859 766.348 758.609 767.898 758.109 769.203C757.617 770.508 756.91 771.52 755.988 772.238C755.066 772.949 753.961 773.305 752.672 773.305ZM752.672 771.465C753.523 771.465 754.25 771.184 754.852 770.621C755.461 770.059 755.926 769.262 756.246 768.23C756.574 767.199 756.738 765.973 756.738 764.551V764.527C756.738 763.105 756.574 761.883 756.246 760.859C755.926 759.828 755.461 759.035 754.852 758.48C754.25 757.918 753.523 757.637 752.672 757.637C751.828 757.637 751.102 757.918 750.492 758.48C749.891 759.035 749.43 759.828 749.109 760.859C748.797 761.883 748.641 763.105 748.641 764.527V764.551C748.641 765.973 748.797 767.199 749.109 768.23C749.43 769.262 749.891 770.059 750.492 770.621C751.102 771.184 751.828 771.465 752.672 771.465ZM767.59 773.305C766.809 773.305 766.039 773.16 765.281 772.871C764.523 772.574 763.836 772.098 763.219 771.441C762.602 770.777 762.105 769.91 761.73 768.84C761.363 767.762 761.18 766.434 761.18 764.855V764.832C761.18 762.926 761.438 761.301 761.953 759.957C762.477 758.605 763.227 757.574 764.203 756.863C765.18 756.145 766.355 755.785 767.73 755.785C768.684 755.785 769.543 755.957 770.309 756.301C771.082 756.645 771.727 757.125 772.242 757.742C772.758 758.359 773.109 759.078 773.297 759.898L773.332 760.051H771.188L771.141 759.922C770.977 759.453 770.734 759.051 770.414 758.715C770.094 758.379 769.707 758.121 769.254 757.941C768.801 757.754 768.285 757.66 767.707 757.66C766.66 757.66 765.812 757.965 765.164 758.574C764.523 759.176 764.047 759.977 763.734 760.977C763.43 761.969 763.258 763.059 763.219 764.246C763.211 764.332 763.207 764.414 763.207 764.492C763.207 764.57 763.207 764.652 763.207 764.738L763.711 767.527C763.711 768.246 763.879 768.902 764.215 769.496C764.559 770.09 765.023 770.562 765.609 770.914C766.195 771.258 766.848 771.43 767.566 771.43C768.285 771.43 768.934 771.262 769.512 770.926C770.098 770.582 770.562 770.121 770.906 769.543C771.25 768.957 771.422 768.309 771.422 767.598V767.574C771.422 766.832 771.258 766.176 770.93 765.605C770.602 765.035 770.148 764.586 769.57 764.258C769 763.93 768.344 763.766 767.602 763.766C766.867 763.766 766.203 763.93 765.609 764.258C765.023 764.578 764.559 765.02 764.215 765.582C763.879 766.145 763.711 766.789 763.711 767.516V767.527H763.02V764.621H763.289C763.516 764.129 763.848 763.68 764.285 763.273C764.73 762.859 765.262 762.531 765.879 762.289C766.504 762.039 767.199 761.914 767.965 761.914C769.035 761.914 769.992 762.16 770.836 762.652C771.68 763.137 772.344 763.801 772.828 764.645C773.32 765.488 773.566 766.449 773.566 767.527V767.551C773.566 768.66 773.305 769.648 772.781 770.516C772.266 771.375 771.559 772.055 770.66 772.555C769.762 773.055 768.738 773.305 767.59 773.305ZM782.496 773.305C781.715 773.305 780.945 773.16 780.188 772.871C779.43 772.574 778.742 772.098 778.125 771.441C777.508 770.777 777.012 769.91 776.637 768.84C776.27 767.762 776.086 766.434 776.086 764.855V764.832C776.086 762.926 776.344 761.301 776.859 759.957C777.383 758.605 778.133 757.574 779.109 756.863C780.086 756.145 781.262 755.785 782.637 755.785C783.59 755.785 784.449 755.957 785.215 756.301C785.988 756.645 786.633 757.125 787.148 757.742C787.664 758.359 788.016 759.078 788.203 759.898L788.238 760.051H786.094L786.047 759.922C785.883 759.453 785.641 759.051 785.32 758.715C785 758.379 784.613 758.121 784.16 757.941C783.707 757.754 783.191 757.66 782.613 757.66C781.566 757.66 780.719 757.965 780.07 758.574C779.43 759.176 778.953 759.977 778.641 760.977C778.336 761.969 778.164 763.059 778.125 764.246C778.117 764.332 778.113 764.414 778.113 764.492C778.113 764.57 778.113 764.652 778.113 764.738L778.617 767.527C778.617 768.246 778.785 768.902 779.121 769.496C779.465 770.09 779.93 770.562 780.516 770.914C781.102 771.258 781.754 771.43 782.473 771.43C783.191 771.43 783.84 771.262 784.418 770.926C785.004 770.582 785.469 770.121 785.812 769.543C786.156 768.957 786.328 768.309 786.328 767.598V767.574C786.328 766.832 786.164 766.176 785.836 765.605C785.508 765.035 785.055 764.586 784.477 764.258C783.906 763.93 783.25 763.766 782.508 763.766C781.773 763.766 781.109 763.93 780.516 764.258C779.93 764.578 779.465 765.02 779.121 765.582C778.785 766.145 778.617 766.789 778.617 767.516V767.527H777.926V764.621H778.195C778.422 764.129 778.754 763.68 779.191 763.273C779.637 762.859 780.168 762.531 780.785 762.289C781.41 762.039 782.105 761.914 782.871 761.914C783.941 761.914 784.898 762.16 785.742 762.652C786.586 763.137 787.25 763.801 787.734 764.645C788.227 765.488 788.473 766.449 788.473 767.527V767.551C788.473 768.66 788.211 769.648 787.688 770.516C787.172 771.375 786.465 772.055 785.566 772.555C784.668 773.055 783.645 773.305 782.496 773.305ZM799.289 773V769.484H790.84V767.574C791.324 766.809 791.812 766.043 792.305 765.277C792.797 764.504 793.289 763.734 793.781 762.969C794.281 762.195 794.777 761.426 795.27 760.66C795.762 759.895 796.254 759.133 796.746 758.375C797.246 757.609 797.738 756.848 798.223 756.09H801.328V767.633H803.73V769.484H801.328V773H799.289ZM792.938 767.633H799.289V757.918H799.207C798.793 758.559 798.375 759.199 797.953 759.84C797.539 760.473 797.121 761.113 796.699 761.762C796.285 762.402 795.867 763.047 795.445 763.695C795.023 764.344 794.602 764.992 794.18 765.641C793.766 766.281 793.352 766.922 792.938 767.562V767.633ZM806.273 773V756.09H816.539V757.988H808.383V763.801H815.871V765.676H808.383V773H806.273Z" fill="#393A41"/>
<rect x="951" y="512" width="195" height="216" rx="24" fill="#084534"/>
<path d="M954.645 773H952.945L956.156 756.09H957.867L956.859 761.34L956.812 761.375L955.676 767.34L955.699 767.375L954.645 773ZM960.27 773H958.57L959.613 767.375L959.66 767.34L960.809 761.375L960.773 761.34L961.781 756.09H963.492L960.27 773ZM964.137 768.395H951.059L951.398 766.684H954.867L954.914 766.719H960.492L960.539 766.684H964.477L964.137 768.395ZM965.215 762.242H961.418L961.371 762.195H955.805L955.758 762.242H952.125L952.465 760.531H965.555L965.215 762.242ZM972.938 773.305C971.648 773.305 970.543 772.949 969.621 772.238C968.707 771.52 968.004 770.508 967.512 769.203C967.027 767.898 966.785 766.348 966.785 764.551V764.527C966.785 762.73 967.027 761.18 967.512 759.875C968.004 758.57 968.707 757.562 969.621 756.852C970.543 756.141 971.648 755.785 972.938 755.785C974.227 755.785 975.332 756.141 976.254 756.852C977.176 757.562 977.883 758.57 978.375 759.875C978.875 761.18 979.125 762.73 979.125 764.527V764.551C979.125 766.348 978.875 767.898 978.375 769.203C977.883 770.508 977.176 771.52 976.254 772.238C975.332 772.949 974.227 773.305 972.938 773.305ZM972.938 771.465C973.789 771.465 974.516 771.184 975.117 770.621C975.727 770.059 976.191 769.262 976.512 768.23C976.84 767.199 977.004 765.973 977.004 764.551V764.527C977.004 763.105 976.84 761.883 976.512 760.859C976.191 759.828 975.727 759.035 975.117 758.48C974.516 757.918 973.789 757.637 972.938 757.637C972.094 757.637 971.367 757.918 970.758 758.48C970.156 759.035 969.695 759.828 969.375 760.859C969.062 761.883 968.906 763.105 968.906 764.527V764.551C968.906 765.973 969.062 767.199 969.375 768.23C969.695 769.262 970.156 770.059 970.758 770.621C971.367 771.184 972.094 771.465 972.938 771.465ZM987.574 773.281C986.379 773.281 985.32 773.074 984.398 772.66C983.477 772.246 982.75 771.676 982.219 770.949C981.695 770.215 981.434 769.375 981.434 768.43V768.406C981.434 767.711 981.586 767.066 981.891 766.473C982.195 765.879 982.621 765.375 983.168 764.961C983.715 764.539 984.348 764.246 985.066 764.082V764.035C984.145 763.746 983.41 763.27 982.863 762.605C982.316 761.941 982.043 761.164 982.043 760.273V760.25C982.043 759.398 982.281 758.641 982.758 757.977C983.234 757.305 983.891 756.777 984.727 756.395C985.562 756.004 986.512 755.809 987.574 755.809C988.645 755.809 989.594 756.004 990.422 756.395C991.258 756.777 991.914 757.305 992.391 757.977C992.867 758.641 993.105 759.398 993.105 760.25V760.273C993.105 761.164 992.832 761.941 992.285 762.605C991.746 763.27 991.012 763.746 990.082 764.035V764.082C990.809 764.246 991.441 764.539 991.98 764.961C992.527 765.375 992.953 765.879 993.258 766.473C993.562 767.066 993.715 767.711 993.715 768.406V768.43C993.715 769.375 993.453 770.215 992.93 770.949C992.406 771.676 991.68 772.246 990.75 772.66C989.828 773.074 988.77 773.281 987.574 773.281ZM987.574 771.441C988.355 771.441 989.043 771.309 989.637 771.043C990.238 770.77 990.711 770.398 991.055 769.93C991.398 769.453 991.57 768.91 991.57 768.301V768.277C991.57 767.66 991.398 767.113 991.055 766.637C990.719 766.16 990.25 765.785 989.648 765.512C989.047 765.238 988.355 765.102 987.574 765.102C986.793 765.102 986.102 765.238 985.5 765.512C984.898 765.785 984.426 766.16 984.082 766.637C983.746 767.113 983.578 767.66 983.578 768.277V768.301C983.578 768.91 983.75 769.453 984.094 769.93C984.438 770.398 984.91 770.77 985.512 771.043C986.113 771.309 986.801 771.441 987.574 771.441ZM987.574 763.25C988.254 763.25 988.852 763.133 989.367 762.898C989.883 762.656 990.285 762.324 990.574 761.902C990.863 761.48 991.008 760.996 991.008 760.449V760.426C991.008 759.879 990.863 759.395 990.574 758.973C990.285 758.551 989.883 758.223 989.367 757.988C988.852 757.746 988.254 757.625 987.574 757.625C986.895 757.625 986.297 757.746 985.781 757.988C985.266 758.223 984.863 758.551 984.574 758.973C984.285 759.395 984.141 759.879 984.141 760.426V760.449C984.141 760.996 984.285 761.48 984.574 761.902C984.863 762.324 985.266 762.656 985.781 762.898C986.297 763.133 986.895 763.25 987.574 763.25ZM1004.32 773V769.484H995.871V767.574C996.355 766.809 996.844 766.043 997.336 765.277C997.828 764.504 998.32 763.734 998.812 762.969C999.312 762.195 999.809 761.426 1000.3 760.66C1000.79 759.895 1001.29 759.133 1001.78 758.375C1002.28 757.609 1002.77 756.848 1003.25 756.09H1006.36V767.633H1008.76V769.484H1006.36V773H1004.32ZM997.969 767.633H1004.32V757.918H1004.24C1003.82 758.559 1003.41 759.199 1002.98 759.84C1002.57 760.473 1002.15 761.113 1001.73 761.762C1001.32 762.402 1000.9 763.047 1000.48 763.695C1000.05 764.344 999.633 764.992 999.211 765.641C998.797 766.281 998.383 766.922 997.969 767.562V767.633ZM1016.8 773.305C1015.73 773.305 1014.78 773.098 1013.94 772.684C1013.11 772.27 1012.43 771.703 1011.93 770.984C1011.42 770.266 1011.12 769.449 1011.04 768.535L1011.02 768.406H1013.09L1013.1 768.5C1013.17 769.055 1013.37 769.559 1013.71 770.012C1014.04 770.457 1014.48 770.809 1015.01 771.066C1015.55 771.324 1016.15 771.453 1016.82 771.453C1017.59 771.453 1018.26 771.289 1018.84 770.961C1019.43 770.625 1019.88 770.168 1020.21 769.59C1020.54 769.004 1020.7 768.332 1020.7 767.574V767.551C1020.7 766.809 1020.54 766.152 1020.2 765.582C1019.87 765.004 1019.42 764.551 1018.84 764.223C1018.27 763.895 1017.61 763.73 1016.86 763.73C1016.29 763.73 1015.76 763.816 1015.28 763.988C1014.79 764.152 1014.36 764.406 1013.99 764.75C1013.84 764.891 1013.7 765.043 1013.55 765.207C1013.42 765.371 1013.3 765.551 1013.19 765.746H1011.34L1012.21 756.09H1021.84V757.965H1013.93L1013.36 763.66H1013.43C1013.69 763.277 1014.02 762.957 1014.4 762.699C1014.79 762.441 1015.22 762.246 1015.7 762.113C1016.18 761.98 1016.7 761.914 1017.23 761.914C1018.31 761.914 1019.27 762.156 1020.11 762.641C1020.94 763.125 1021.6 763.789 1022.07 764.633C1022.56 765.469 1022.8 766.43 1022.8 767.516V767.539C1022.8 768.664 1022.54 769.664 1022.03 770.539C1021.51 771.406 1020.8 772.086 1019.89 772.578C1019 773.062 1017.96 773.305 1016.8 773.305ZM1030.92 773.281C1029.76 773.281 1028.74 773.082 1027.88 772.684C1027.01 772.285 1026.32 771.738 1025.81 771.043C1025.31 770.348 1025.02 769.555 1024.95 768.664L1024.93 768.523H1026.96L1026.97 768.641C1027.04 769.195 1027.23 769.684 1027.57 770.105C1027.91 770.527 1028.37 770.859 1028.94 771.102C1029.51 771.336 1030.17 771.453 1030.92 771.453C1031.66 771.453 1032.31 771.324 1032.87 771.066C1033.43 770.809 1033.87 770.453 1034.18 770C1034.49 769.539 1034.65 769.012 1034.65 768.418V768.395C1034.65 767.355 1034.3 766.559 1033.61 766.004C1032.92 765.441 1031.98 765.16 1030.79 765.16H1028.67V763.379H1030.7C1031.37 763.379 1031.96 763.254 1032.48 763.004C1033 762.746 1033.4 762.398 1033.69 761.961C1033.98 761.516 1034.12 761.012 1034.12 760.449V760.426C1034.12 759.832 1034 759.328 1033.75 758.914C1033.5 758.5 1033.13 758.184 1032.64 757.965C1032.17 757.746 1031.59 757.637 1030.9 757.637C1030.23 757.637 1029.64 757.75 1029.12 757.977C1028.6 758.195 1028.19 758.512 1027.88 758.926C1027.56 759.34 1027.38 759.832 1027.31 760.402L1027.3 760.52H1025.27L1025.29 760.402C1025.38 759.48 1025.67 758.676 1026.15 757.988C1026.64 757.301 1027.29 756.766 1028.1 756.383C1028.91 756 1029.84 755.809 1030.9 755.809C1031.98 755.809 1032.91 755.996 1033.71 756.371C1034.52 756.738 1035.14 757.25 1035.57 757.906C1036.02 758.555 1036.24 759.309 1036.24 760.168V760.191C1036.24 760.887 1036.09 761.504 1035.79 762.043C1035.48 762.582 1035.06 763.031 1034.52 763.391C1033.98 763.75 1033.36 764.004 1032.66 764.152V764.199C1033.89 764.301 1034.89 764.719 1035.64 765.453C1036.41 766.18 1036.79 767.145 1036.79 768.348V768.371C1036.79 769.309 1036.54 770.148 1036.03 770.891C1035.52 771.633 1034.83 772.219 1033.95 772.648C1033.06 773.07 1032.05 773.281 1030.92 773.281ZM1047.56 773V769.484H1039.11V767.574C1039.6 766.809 1040.09 766.043 1040.58 765.277C1041.07 764.504 1041.56 763.734 1042.05 762.969C1042.55 762.195 1043.05 761.426 1043.54 760.66C1044.04 759.895 1044.53 759.133 1045.02 758.375C1045.52 757.609 1046.01 756.848 1046.5 756.09H1049.6V767.633H1052V769.484H1049.6V773H1047.56ZM1041.21 767.633H1047.56V757.918H1047.48C1047.07 758.559 1046.65 759.199 1046.23 759.84C1045.81 760.473 1045.39 761.113 1044.97 761.762C1044.56 762.402 1044.14 763.047 1043.72 763.695C1043.3 764.344 1042.88 764.992 1042.45 765.641C1042.04 766.281 1041.62 766.922 1041.21 767.562V767.633Z" fill="#393A41"/>
</svg>
