<svg width="752" height="504" viewBox="0 0 752 504" fill="none" xmlns="http://www.w3.org/2000/svg">
<rect width="752" height="503.5" rx="14" fill="white"/>
<path d="M40.154 32.6322V30.6545H49.4719V32.6322H45.9984V42H43.6274V32.6322H40.154ZM53.6059 42.1662C52.7306 42.1662 51.9772 41.9889 51.3457 41.6344C50.7178 41.2761 50.234 40.7702 49.8943 40.1165C49.5545 39.4591 49.3846 38.6817 49.3846 37.7842C49.3846 36.9089 49.5545 36.1408 49.8943 35.4797C50.234 34.8186 50.7123 34.3034 51.3291 33.9341C51.9495 33.5648 52.6771 33.3801 53.5117 33.3801C54.0731 33.3801 54.5957 33.4706 55.0795 33.6516C55.567 33.8288 55.9917 34.0966 56.3536 34.4548C56.7193 34.8131 57.0036 35.2636 57.2068 35.8065C57.4099 36.3457 57.5114 36.9773 57.5114 37.7011V38.3493H50.3264V36.8868H55.29C55.29 36.547 55.2161 36.246 55.0684 35.9838C54.9207 35.7216 54.7157 35.5166 54.4535 35.3689C54.195 35.2175 53.894 35.1418 53.5505 35.1418C53.1923 35.1418 52.8747 35.2249 52.5977 35.3911C52.3244 35.5536 52.1102 35.7733 51.9551 36.0503C51.7999 36.3236 51.7205 36.6283 51.7168 36.9643V38.3548C51.7168 38.7759 51.7944 39.1396 51.9495 39.4462C52.1083 39.7527 52.3318 39.9891 52.6198 40.1553C52.9079 40.3214 53.2495 40.4045 53.6447 40.4045C53.9069 40.4045 54.147 40.3676 54.3649 40.2937C54.5828 40.2199 54.7693 40.1091 54.9244 39.9614C55.0795 39.8136 55.1977 39.6327 55.2789 39.4185L57.4616 39.5625C57.3508 40.0869 57.1237 40.5449 56.7802 40.9364C56.4404 41.3241 56.0009 41.627 55.4617 41.8449C54.9262 42.0591 54.3076 42.1662 53.6059 42.1662ZM61.4779 42.1607C60.935 42.1607 60.4512 42.0665 60.0265 41.8781C59.6018 41.6861 59.2657 41.4036 59.0183 41.0305C58.7745 40.6538 58.6526 40.1848 58.6526 39.6234C58.6526 39.1507 58.7394 38.7537 58.913 38.4324C59.0866 38.1111 59.323 37.8526 59.6221 37.6568C59.9212 37.4611 60.261 37.3134 60.6414 37.2136C61.0255 37.1139 61.4281 37.0437 61.8491 37.0031C62.344 36.9514 62.7428 36.9034 63.0457 36.8591C63.3485 36.8111 63.5683 36.7409 63.7049 36.6486C63.8416 36.5562 63.9099 36.4196 63.9099 36.2386V36.2054C63.9099 35.8545 63.7991 35.5831 63.5775 35.3911C63.3596 35.199 63.0494 35.103 62.6468 35.103C62.2221 35.103 61.8842 35.1972 61.633 35.3855C61.3819 35.5702 61.2157 35.8028 61.1345 36.0835L58.9518 35.9062C59.0626 35.3892 59.2805 34.9423 59.6055 34.5656C59.9305 34.1852 60.3497 33.8935 60.863 33.6903C61.3801 33.4835 61.9783 33.3801 62.6579 33.3801C63.1306 33.3801 63.583 33.4355 64.0151 33.5463C64.4509 33.6571 64.8369 33.8288 65.173 34.0615C65.5127 34.2942 65.7805 34.5933 65.9762 34.9589C66.172 35.3209 66.2698 35.7548 66.2698 36.2608V42H64.0318V40.82H63.9653C63.8286 41.0859 63.6458 41.3205 63.4168 41.5236C63.1879 41.723 62.9127 41.88 62.5914 41.9945C62.2701 42.1053 61.8989 42.1607 61.4779 42.1607ZM62.1538 40.532C62.5009 40.532 62.8075 40.4636 63.0734 40.327C63.3393 40.1866 63.548 39.9983 63.6994 39.7619C63.8508 39.5256 63.9265 39.2578 63.9265 38.9587V38.0557C63.8526 38.1037 63.7511 38.148 63.6218 38.1886C63.4962 38.2256 63.3541 38.2607 63.1953 38.2939C63.0364 38.3234 62.8776 38.3511 62.7188 38.377C62.56 38.3991 62.416 38.4195 62.2867 38.4379C62.0097 38.4786 61.7678 38.5432 61.561 38.6318C61.3542 38.7205 61.1935 38.8405 61.0791 38.9919C60.9646 39.1396 60.9073 39.3243 60.9073 39.5459C60.9073 39.8672 61.0237 40.1128 61.2563 40.2827C61.4927 40.4489 61.7918 40.532 62.1538 40.532ZM70.4607 30.6545V42H68.1007V30.6545H70.4607Z" fill="black"/>
<rect x="39.6" y="55.6001" width="60" height="60" rx="12" fill="#CBF3F0"/>
<rect x="116.1" y="55.6001" width="60" height="60" rx="12" fill="#9DEAE5"/>
<rect x="192.6" y="55.6001" width="60" height="60" rx="12" fill="#76D6D6"/>
<rect x="269.1" y="55.6001" width="60" height="60" rx="12" fill="#4EC2C2"/>
<rect x="345.6" y="55.6001" width="60" height="60" rx="12" fill="#14B2B2"/>
<rect x="422.1" y="55.6001" width="60" height="60" rx="12" fill="#11A2A2"/>
<rect x="498.6" y="55.6001" width="60" height="60" rx="12" fill="#0F8E8E"/>
<rect x="575.1" y="55.6001" width="60" height="60" rx="12" fill="#0D8080"/>
<rect x="651.6" y="55.6001" width="60" height="60" rx="12" fill="#0B6C6C"/>
<path d="M39.9369 151.255H42.6237L45.2108 156.141H45.3216L47.9086 151.255H50.5954L46.4572 158.589V162.6H44.0751V158.589L39.9369 151.255ZM53.9567 162.766C53.0814 162.766 52.328 162.589 51.6965 162.234C51.0686 161.876 50.5848 161.37 50.245 160.717C49.9053 160.059 49.7354 159.282 49.7354 158.384C49.7354 157.509 49.9053 156.741 50.245 156.08C50.5848 155.419 51.0631 154.904 51.6798 154.534C52.3003 154.165 53.0279 153.98 53.8625 153.98C54.4239 153.98 54.9465 154.071 55.4303 154.252C55.9178 154.429 56.3425 154.697 56.7044 155.055C57.07 155.413 57.3544 155.864 57.5575 156.407C57.7607 156.946 57.8622 157.577 57.8622 158.301V158.949H50.6771V157.487H55.6408C55.6408 157.147 55.5669 156.846 55.4192 156.584C55.2715 156.322 55.0665 156.117 54.8043 155.969C54.5458 155.818 54.2448 155.742 53.9013 155.742C53.5431 155.742 53.2254 155.825 52.9484 155.991C52.6752 156.154 52.4609 156.373 52.3058 156.65C52.1507 156.924 52.0713 157.228 52.0676 157.564V158.955C52.0676 159.376 52.1452 159.74 52.3003 160.046C52.4591 160.353 52.6825 160.589 52.9706 160.755C53.2587 160.922 53.6003 161.005 53.9955 161.005C54.2577 161.005 54.4977 160.968 54.7156 160.894C54.9335 160.82 55.12 160.709 55.2752 160.561C55.4303 160.414 55.5484 160.233 55.6297 160.019L57.8124 160.163C57.7016 160.687 57.4744 161.145 57.131 161.536C56.7912 161.924 56.3517 162.227 55.8125 162.445C55.277 162.659 54.6584 162.766 53.9567 162.766ZM61.7622 151.255V162.6H59.4023V151.255H61.7622ZM66.0126 151.255V162.6H63.6527V151.255H66.0126ZM71.7477 162.766C70.8872 162.766 70.143 162.583 69.5151 162.218C68.891 161.849 68.409 161.335 68.0693 160.678C67.7295 160.017 67.5596 159.25 67.5596 158.379C67.5596 157.5 67.7295 156.732 68.0693 156.074C68.409 155.413 68.891 154.9 69.5151 154.534C70.143 154.165 70.8872 153.98 71.7477 153.98C72.6082 153.98 73.3505 154.165 73.9747 154.534C74.6025 154.9 75.0863 155.413 75.4261 156.074C75.7658 156.732 75.9357 157.5 75.9357 158.379C75.9357 159.25 75.7658 160.017 75.4261 160.678C75.0863 161.335 74.6025 161.849 73.9747 162.218C73.3505 162.583 72.6082 162.766 71.7477 162.766ZM71.7587 160.938C72.1502 160.938 72.4771 160.827 72.7393 160.606C73.0015 160.38 73.1991 160.074 73.332 159.686C73.4687 159.298 73.537 158.857 73.537 158.362C73.537 157.867 73.4687 157.426 73.332 157.038C73.1991 156.65 73.0015 156.344 72.7393 156.119C72.4771 155.893 72.1502 155.781 71.7587 155.781C71.3636 155.781 71.0312 155.893 70.7616 156.119C70.4957 156.344 70.2944 156.65 70.1578 157.038C70.0248 157.426 69.9583 157.867 69.9583 158.362C69.9583 158.857 70.0248 159.298 70.1578 159.686C70.2944 160.074 70.4957 160.38 70.7616 160.606C71.0312 160.827 71.3636 160.938 71.7587 160.938ZM78.9355 162.6L76.6199 154.091H79.0075L80.326 159.808H80.4036L81.7774 154.091H84.1207L85.5168 159.775H85.5888L86.8851 154.091H89.2672L86.9571 162.6H84.4587L82.9962 157.249H82.8909L81.4284 162.6H78.9355Z" fill="black"/>
<rect x="39.6" y="176.2" width="60" height="60" rx="12" fill="#FFE5A3"/>
<rect x="116.1" y="176.2" width="60" height="60" rx="12" fill="#FFD362"/>
<rect x="192.6" y="176.2" width="60" height="60" rx="12" fill="#FFC634"/>
<rect x="269.1" y="176.2" width="60" height="60" rx="12" fill="#FFC022"/>
<rect x="345.6" y="176.2" width="60" height="60" rx="12" fill="#FFBC10"/>
<rect x="422.1" y="176.2" width="60" height="60" rx="12" fill="#FAB300"/>
<rect x="498.6" y="176.2" width="60" height="60" rx="12" fill="#EFAB00"/>
<rect x="575.1" y="176.2" width="60" height="60" rx="12" fill="#E5A400"/>
<rect x="651.6" y="176.2" width="60" height="60" rx="12" fill="#D09500"/>
<path d="M45.0792 283.2H41.0573V271.855H45.1125C46.2536 271.855 47.236 272.082 48.0596 272.536C48.8832 272.987 49.5166 273.635 49.9598 274.481C50.4066 275.326 50.6301 276.338 50.6301 277.516C50.6301 278.698 50.4066 279.714 49.9598 280.563C49.5166 281.413 48.8795 282.065 48.0485 282.519C47.2213 282.973 46.2315 283.2 45.0792 283.2ZM43.4561 281.145H44.9795C45.6886 281.145 46.285 281.019 46.7688 280.768C47.2563 280.513 47.622 280.12 47.8657 279.588C48.1132 279.053 48.2369 278.362 48.2369 277.516C48.2369 276.678 48.1132 275.993 47.8657 275.461C47.622 274.929 47.2582 274.538 46.7744 274.287C46.2906 274.036 45.6941 273.91 44.985 273.91H43.4561V281.145ZM54.7891 283.361C54.2462 283.361 53.7623 283.267 53.3376 283.078C52.9129 282.886 52.5768 282.604 52.3294 282.231C52.0856 281.854 51.9638 281.385 51.9638 280.824C51.9638 280.351 52.0506 279.954 52.2241 279.633C52.3977 279.311 52.6341 279.053 52.9332 278.857C53.2324 278.661 53.5722 278.514 53.9525 278.414C54.3366 278.314 54.7392 278.244 55.1602 278.203C55.6551 278.152 56.054 278.104 56.3568 278.059C56.6597 278.011 56.8794 277.941 57.016 277.849C57.1527 277.756 57.221 277.62 57.221 277.439V277.406C57.221 277.055 57.1102 276.783 56.8886 276.591C56.6707 276.399 56.3605 276.303 55.9579 276.303C55.5332 276.303 55.1953 276.397 54.9442 276.586C54.693 276.77 54.5268 277.003 54.4456 277.284L52.2629 277.106C52.3737 276.589 52.5916 276.143 52.9166 275.766C53.2416 275.385 53.6608 275.094 54.1741 274.891C54.6912 274.684 55.2895 274.58 55.969 274.58C56.4418 274.58 56.8942 274.636 57.3263 274.747C57.7621 274.857 58.148 275.029 58.4841 275.262C58.8239 275.494 59.0916 275.794 59.2873 276.159C59.4831 276.521 59.581 276.955 59.581 277.461V283.2H57.3429V282.02H57.2764C57.1398 282.286 56.957 282.521 56.728 282.724C56.499 282.923 56.2239 283.08 55.9025 283.195C55.5812 283.305 55.2101 283.361 54.7891 283.361ZM55.4649 281.732C55.8121 281.732 56.1186 281.664 56.3845 281.527C56.6504 281.387 56.8591 281.198 57.0105 280.962C57.1619 280.726 57.2376 280.458 57.2376 280.159V279.256C57.1638 279.304 57.0622 279.348 56.9329 279.389C56.8074 279.426 56.6652 279.461 56.5064 279.494C56.3476 279.524 56.1888 279.551 56.03 279.577C55.8712 279.599 55.7271 279.62 55.5979 279.638C55.3209 279.679 55.079 279.743 54.8722 279.832C54.6653 279.921 54.5047 280.041 54.3902 280.192C54.2757 280.34 54.2185 280.524 54.2185 280.746C54.2185 281.067 54.3348 281.313 54.5675 281.483C54.8038 281.649 55.103 281.732 55.4649 281.732ZM61.4119 283.2V274.691H63.6998V276.176H63.7884C63.9435 275.648 64.2039 275.249 64.5695 274.979C64.9351 274.706 65.3562 274.569 65.8326 274.569C65.9508 274.569 66.0782 274.577 66.2148 274.591C66.3515 274.606 66.4715 274.626 66.5749 274.652V276.746C66.4641 276.713 66.3109 276.684 66.1151 276.658C65.9194 276.632 65.7403 276.619 65.5778 276.619C65.2306 276.619 64.9204 276.695 64.6471 276.846C64.3775 276.994 64.1633 277.201 64.0045 277.467C63.8494 277.732 63.7718 278.039 63.7718 278.386V283.2H61.4119ZM69.9334 280.752L69.9389 277.921H70.2824L73.008 274.691H75.7169L72.0551 278.968H71.4956L69.9334 280.752ZM67.7951 283.2V271.855H70.155V283.2H67.7951ZM73.1132 283.2L70.6093 279.494L72.1826 277.827L75.8776 283.2H73.1132ZM76.9191 283.2V271.855H79.279V276.12H79.351C79.4544 275.891 79.604 275.659 79.7997 275.422C79.9992 275.182 80.2577 274.983 80.5753 274.824C80.8966 274.662 81.2955 274.58 81.7719 274.58C82.3924 274.58 82.9648 274.743 83.4892 275.068C84.0137 275.389 84.4328 275.875 84.7468 276.525C85.0607 277.171 85.2176 277.982 85.2176 278.957C85.2176 279.906 85.0644 280.707 84.7578 281.361C84.455 282.011 84.0414 282.504 83.5169 282.84C82.9962 283.172 82.4127 283.339 81.7664 283.339C81.3084 283.339 80.9188 283.263 80.5975 283.112C80.2799 282.96 80.0195 282.77 79.8164 282.541C79.6132 282.308 79.4581 282.074 79.351 281.837H79.2458V283.2H76.9191ZM79.2291 278.946C79.2291 279.452 79.2993 279.893 79.4397 280.27C79.58 280.646 79.7831 280.94 80.049 281.15C80.3149 281.357 80.6381 281.461 81.0185 281.461C81.4026 281.461 81.7276 281.355 81.9935 281.145C82.2594 280.931 82.4607 280.635 82.5973 280.259C82.7377 279.878 82.8078 279.441 82.8078 278.946C82.8078 278.454 82.7395 278.022 82.6029 277.649C82.4662 277.276 82.2649 276.985 81.999 276.774C81.7331 276.564 81.4063 276.458 81.0185 276.458C80.6344 276.458 80.3094 276.56 80.0435 276.763C79.7813 276.966 79.58 277.254 79.4397 277.627C79.2993 278 79.2291 278.44 79.2291 278.946ZM89.1523 271.855V283.2H86.7923V271.855H89.1523ZM96.4994 279.577V274.691H98.8593V283.2H96.5936V281.655H96.5049C96.3129 282.153 95.9934 282.554 95.5465 282.857C95.1034 283.16 94.5623 283.311 93.9234 283.311C93.3546 283.311 92.8542 283.182 92.4221 282.923C91.99 282.665 91.6521 282.297 91.4083 281.821C91.1683 281.344 91.0464 280.774 91.0427 280.109V274.691H93.4027V279.688C93.4064 280.19 93.5412 280.587 93.8071 280.879C94.073 281.171 94.4294 281.317 94.8762 281.317C95.1606 281.317 95.4265 281.252 95.674 281.123C95.9214 280.99 96.1208 280.794 96.2723 280.536C96.4274 280.277 96.5031 279.958 96.4994 279.577ZM104.625 283.366C103.75 283.366 102.996 283.189 102.365 282.835C101.737 282.476 101.253 281.97 100.913 281.317C100.573 280.659 100.404 279.882 100.404 278.984C100.404 278.109 100.573 277.341 100.913 276.68C101.253 276.019 101.731 275.504 102.348 275.134C102.968 274.765 103.696 274.58 104.531 274.58C105.092 274.58 105.615 274.671 106.098 274.852C106.586 275.029 107.011 275.297 107.373 275.655C107.738 276.013 108.023 276.464 108.226 277.007C108.429 277.546 108.53 278.177 108.53 278.901V279.549H101.345V278.087H106.309C106.309 277.747 106.235 277.446 106.087 277.184C105.94 276.922 105.735 276.717 105.472 276.569C105.214 276.418 104.913 276.342 104.569 276.342C104.211 276.342 103.894 276.425 103.617 276.591C103.343 276.754 103.129 276.973 102.974 277.25C102.819 277.524 102.739 277.828 102.736 278.165V279.555C102.736 279.976 102.813 280.34 102.968 280.646C103.127 280.953 103.351 281.189 103.639 281.355C103.927 281.522 104.268 281.605 104.664 281.605C104.926 281.605 105.166 281.568 105.384 281.494C105.602 281.42 105.788 281.309 105.943 281.162C106.098 281.014 106.217 280.833 106.298 280.619L108.481 280.763C108.37 281.287 108.143 281.745 107.799 282.137C107.459 282.524 107.02 282.827 106.481 283.045C105.945 283.259 105.327 283.366 104.625 283.366Z" fill="black"/>
<rect x="39.6" y="296.8" width="60" height="60" rx="12" fill="#95B9E2"/>
<rect x="116.1" y="296.8" width="60" height="60" rx="12" fill="#6A9DD6"/>
<rect x="192.6" y="296.8" width="60" height="60" rx="12" fill="#316DB1"/>
<rect x="269.1" y="296.8" width="60" height="60" rx="12" fill="#255387"/>
<rect x="345.6" y="296.8" width="60" height="60" rx="12" fill="#224D7D"/>
<rect x="422.1" y="296.8" width="60" height="60" rx="12" fill="#214977"/>
<rect x="498.6" y="296.8" width="60" height="60" rx="12" fill="#1D4069"/>
<rect x="575.1" y="296.8" width="60" height="60" rx="12" fill="#1A3A5F"/>
<rect x="651.6" y="296.8" width="60" height="60" rx="12" fill="#142C48"/>
<path d="M50.195 392.454V403.8H48.1231L43.1872 396.659H43.1041V403.8H40.7054V392.454H42.8105L47.7077 399.59H47.8074V392.454H50.195ZM56.0104 403.966C55.1351 403.966 54.3817 403.789 53.7502 403.434C53.1223 403.076 52.6385 402.57 52.2987 401.916C51.959 401.259 51.7891 400.481 51.7891 399.584C51.7891 398.709 51.959 397.941 52.2987 397.279C52.6385 396.618 53.1168 396.103 53.7336 395.734C54.354 395.365 55.0816 395.18 55.9162 395.18C56.4776 395.18 57.0002 395.27 57.484 395.451C57.9715 395.629 58.3962 395.896 58.7581 396.255C59.1238 396.613 59.4081 397.063 59.6113 397.606C59.8144 398.146 59.9159 398.777 59.9159 399.501V400.149H52.7309V398.687H57.6945C57.6945 398.347 57.6206 398.046 57.4729 397.784C57.3252 397.521 57.1202 397.316 56.858 397.169C56.5995 397.017 56.2985 396.942 55.955 396.942C55.5968 396.942 55.2791 397.025 55.0022 397.191C54.7289 397.353 54.5147 397.573 54.3595 397.85C54.2044 398.123 54.125 398.428 54.1213 398.764V400.155C54.1213 400.576 54.1989 400.939 54.354 401.246C54.5128 401.553 54.7362 401.789 55.0243 401.955C55.3124 402.121 55.654 402.204 56.0492 402.204C56.3114 402.204 56.5514 402.167 56.7693 402.094C56.9872 402.02 57.1737 401.909 57.3289 401.761C57.484 401.613 57.6022 401.432 57.6834 401.218L59.8661 401.362C59.7553 401.887 59.5282 402.345 59.1847 402.736C58.8449 403.124 58.4054 403.427 57.8662 403.645C57.3307 403.859 56.7121 403.966 56.0104 403.966ZM66.9127 400.177V395.291H69.2726V403.8H67.0068V402.254H66.9182C66.7262 402.753 66.4067 403.153 65.9598 403.456C65.5166 403.759 64.9756 403.911 64.3367 403.911C63.7679 403.911 63.2675 403.781 62.8354 403.523C62.4033 403.264 62.0654 402.897 61.8216 402.42C61.5816 401.944 61.4597 401.373 61.456 400.709V395.291H63.8159V400.288C63.8196 400.79 63.9544 401.187 64.2203 401.479C64.4862 401.77 64.8426 401.916 65.2895 401.916C65.5739 401.916 65.8398 401.852 66.0872 401.722C66.3347 401.589 66.5341 401.394 66.6855 401.135C66.8407 400.877 66.9164 400.557 66.9127 400.177ZM75.6863 395.291V397.063H70.562V395.291H75.6863ZM71.7253 393.252H74.0853V401.185C74.0853 401.403 74.1185 401.573 74.185 401.695C74.2515 401.813 74.3438 401.896 74.462 401.944C74.5839 401.992 74.7242 402.016 74.883 402.016C74.9938 402.016 75.1046 402.007 75.2154 401.988C75.3262 401.966 75.4111 401.95 75.4702 401.938L75.8414 403.695C75.7232 403.731 75.557 403.774 75.3428 403.822C75.1286 403.874 74.8682 403.905 74.5617 403.916C73.993 403.938 73.4944 403.863 73.066 403.689C72.6413 403.515 72.3107 403.246 72.0744 402.88C71.838 402.515 71.7217 402.053 71.7253 401.495V393.252ZM77.2236 403.8V395.291H79.5115V396.775H79.6001C79.7552 396.247 80.0156 395.848 80.3812 395.579C80.7469 395.305 81.1679 395.169 81.6443 395.169C81.7625 395.169 81.8899 395.176 82.0266 395.191C82.1632 395.206 82.2832 395.226 82.3866 395.252V397.346C82.2758 397.313 82.1226 397.283 81.9268 397.257C81.7311 397.231 81.552 397.219 81.3895 397.219C81.0423 397.219 80.7321 397.294 80.4588 397.446C80.1892 397.593 79.975 397.8 79.8162 398.066C79.6611 398.332 79.5835 398.639 79.5835 398.986V403.8H77.2236ZM85.7894 403.96C85.2465 403.96 84.7627 403.866 84.338 403.678C83.9133 403.486 83.5772 403.203 83.3298 402.83C83.086 402.454 82.9642 401.985 82.9642 401.423C82.9642 400.951 83.051 400.553 83.2245 400.232C83.3981 399.911 83.6345 399.652 83.9336 399.457C84.2328 399.261 84.5725 399.113 84.9529 399.013C85.337 398.914 85.7396 398.844 86.1606 398.803C86.6555 398.751 87.0544 398.703 87.3572 398.659C87.66 398.611 87.8798 398.541 88.0164 398.448C88.1531 398.356 88.2214 398.219 88.2214 398.038V398.005C88.2214 397.654 88.1106 397.383 87.889 397.191C87.6711 396.999 87.3609 396.903 86.9583 396.903C86.5336 396.903 86.1957 396.997 85.9446 397.185C85.6934 397.37 85.5272 397.603 85.446 397.883L83.2633 397.706C83.3741 397.189 83.592 396.742 83.917 396.365C84.242 395.985 84.6612 395.693 85.1745 395.49C85.6916 395.283 86.2899 395.18 86.9694 395.18C87.4421 395.18 87.8946 395.235 88.3267 395.346C88.7625 395.457 89.1484 395.629 89.4845 395.861C89.8242 396.094 90.092 396.393 90.2877 396.759C90.4835 397.121 90.5813 397.555 90.5813 398.061V403.8H88.3433V402.62H88.2768C88.1402 402.886 87.9573 403.12 87.7284 403.323C87.4994 403.523 87.2242 403.68 86.9029 403.794C86.5816 403.905 86.2105 403.96 85.7894 403.96ZM86.4653 402.332C86.8125 402.332 87.119 402.263 87.3849 402.127C87.6508 401.986 87.8595 401.798 88.0109 401.562C88.1623 401.325 88.238 401.058 88.238 400.758V399.855C88.1642 399.903 88.0626 399.948 87.9333 399.988C87.8078 400.025 87.6656 400.06 87.5068 400.094C87.348 400.123 87.1892 400.151 87.0304 400.177C86.8715 400.199 86.7275 400.219 86.5983 400.238C86.3213 400.278 86.0794 400.343 85.8725 400.432C85.6657 400.52 85.5051 400.64 85.3906 400.792C85.2761 400.939 85.2189 401.124 85.2189 401.346C85.2189 401.667 85.3352 401.913 85.5679 402.082C85.8042 402.249 86.1034 402.332 86.4653 402.332ZM94.7722 392.454V403.8H92.4122V392.454H94.7722ZM103.742 397.717L101.582 397.85C101.545 397.665 101.466 397.499 101.344 397.352C101.222 397.2 101.061 397.08 100.862 396.991C100.666 396.899 100.432 396.853 100.158 396.853C99.7926 396.853 99.4842 396.93 99.2331 397.086C98.982 397.237 98.8564 397.44 98.8564 397.695C98.8564 397.898 98.9376 398.07 99.1001 398.21C99.2626 398.351 99.5415 398.463 99.9366 398.548L101.477 398.858C102.304 399.028 102.921 399.302 103.327 399.678C103.733 400.055 103.936 400.55 103.936 401.163C103.936 401.721 103.772 402.21 103.443 402.631C103.118 403.052 102.671 403.381 102.103 403.617C101.538 403.85 100.886 403.966 100.147 403.966C99.0207 403.966 98.1233 403.731 97.4548 403.262C96.7901 402.79 96.4004 402.147 96.2859 401.335L98.6071 401.213C98.6773 401.556 98.8472 401.818 99.1168 401.999C99.3864 402.177 99.7317 402.265 100.153 402.265C100.566 402.265 100.899 402.186 101.15 402.027C101.405 401.865 101.534 401.656 101.538 401.401C101.534 401.187 101.443 401.011 101.266 400.875C101.089 400.734 100.816 400.627 100.446 400.553L98.9727 400.26C98.1418 400.094 97.5231 399.806 97.1169 399.396C96.7143 398.986 96.5131 398.463 96.5131 397.828C96.5131 397.281 96.6608 396.81 96.9562 396.415C97.2554 396.02 97.6746 395.715 98.2138 395.501C98.7567 395.287 99.3919 395.18 100.119 395.18C101.194 395.18 102.04 395.407 102.657 395.861C103.277 396.316 103.639 396.934 103.742 397.717Z" fill="black"/>
<rect x="39.6" y="417.4" width="60" height="60" rx="12" fill="#F6F6F6"/>
<rect x="116.1" y="417.4" width="60" height="60" rx="12" fill="#EEEEEE"/>
<rect x="192.6" y="417.4" width="60" height="60" rx="12" fill="#E2E2E2"/>
<rect x="269.1" y="417.4" width="60" height="60" rx="12" fill="#CCCCCC"/>
<rect x="345.6" y="417.4" width="60" height="60" rx="12" fill="#BEBEBE"/>
<rect x="422.1" y="417.4" width="60" height="60" rx="12" fill="#ABABAB"/>
<rect x="498.6" y="417.4" width="60" height="60" rx="12" fill="#989898"/>
<rect x="575.1" y="417.4" width="60" height="60" rx="12" fill="#6D6D6D"/>
<rect x="651.6" y="417.4" width="60" height="60" rx="12" fill="#363636"/>
</svg>
