<svg width="752" height="504" viewBox="0 0 752 504" fill="none" xmlns="http://www.w3.org/2000/svg">
<rect width="752" height="504" rx="14.014" fill="white"/>
<rect x="12" y="12" width="254" height="479" rx="10.01" fill="#14B2B2"/>
<rect x="282" y="9.7666" width="219.219" height="233.733" rx="10.01" fill="#FFBC10"/>
<rect x="517.219" y="9.7666" width="219.219" height="233.733" rx="10.01" fill="#F6F6F6"/>
<rect x="282" y="259.5" width="219.219" height="233.733" rx="10.01" fill="#224D7D"/>
<rect x="517.219" y="259.5" width="219.219" height="233.733" rx="10.01" fill="#ECF9F9"/>
<path d="M30.8248 38.5298L27.5936 30.1214H29.1071L31.5635 36.734L33.9239 30.1214H35.4074L32.2602 38.5298H30.8248ZM38.5603 38.71C37.9196 38.71 37.3571 38.5798 36.8726 38.3196C36.3881 38.0553 36.0097 37.6869 35.7374 37.2145C35.4692 36.742 35.335 36.1935 35.335 35.5688C35.335 35.1124 35.4131 34.692 35.5693 34.3076C35.7254 33.9192 35.9456 33.5828 36.2299 33.2986C36.5142 33.0143 36.8465 32.7941 37.2269 32.6379C37.6113 32.4817 38.0297 32.4037 38.4822 32.4037C38.9747 32.4037 39.4131 32.4918 39.7975 32.6679C40.1819 32.8401 40.5002 33.0823 40.7524 33.3947C41.0087 33.707 41.1889 34.0733 41.293 34.4938C41.4011 34.9102 41.4191 35.3626 41.347 35.8511H36.6023C36.5943 36.2075 36.6724 36.5198 36.8365 36.788C37.0007 37.0523 37.2349 37.2585 37.5392 37.4067C37.8475 37.5548 38.2099 37.6289 38.6263 37.6289C38.9627 37.6289 39.287 37.5788 39.5993 37.4787C39.9156 37.3746 40.2019 37.2225 40.4581 37.0223L40.9687 37.9712C40.7765 38.1274 40.5442 38.2615 40.272 38.3736C39.9997 38.4817 39.7154 38.5638 39.4191 38.6199C39.1228 38.6799 38.8365 38.71 38.5603 38.71ZM36.6804 34.8781H40.0497C40.0377 34.4297 39.8936 34.0773 39.6173 33.8211C39.345 33.5648 38.9566 33.4367 38.4521 33.4367C37.9637 33.4367 37.5573 33.5648 37.2329 33.8211C36.9126 34.0773 36.7284 34.4297 36.6804 34.8781ZM42.5995 38.5298V32.5838H43.9208V33.4067C44.145 33.0343 44.4173 32.774 44.7376 32.6259C45.0579 32.4737 45.4023 32.3977 45.7706 32.3977C45.8908 32.3977 46.0049 32.4037 46.113 32.4157C46.2211 32.4277 46.3252 32.4457 46.4253 32.4697L46.2511 33.8331C46.131 33.7971 46.0089 33.769 45.8848 33.749C45.7606 33.729 45.6365 33.719 45.5124 33.719C45.0519 33.719 44.6715 33.8611 44.3712 34.1454C44.0709 34.4257 43.9208 34.8081 43.9208 35.2926V38.5298H42.5995ZM49.7573 38.71C49.1767 38.71 48.6622 38.5738 48.2138 38.3016C47.7653 38.0253 47.413 37.6509 47.1567 37.1784C46.9045 36.702 46.7783 36.1614 46.7783 35.5568C46.7783 35.1204 46.8504 34.712 46.9946 34.3316C47.1387 33.9472 47.3429 33.6109 47.6072 33.3226C47.8754 33.0343 48.1917 32.8101 48.5561 32.6499C48.9245 32.4857 49.3309 32.4037 49.7753 32.4037C50.3159 32.4037 50.7843 32.5118 51.1807 32.728C51.5771 32.9442 51.9075 33.2445 52.1717 33.6289L51.8954 33.9232V29.8811H53.2168V38.5298H52.0276V37.1004L52.2198 37.4007C52.0036 37.777 51.6932 38.0893 51.2888 38.3376C50.8884 38.5858 50.3779 38.71 49.7573 38.71ZM49.9976 37.5388C50.3659 37.5388 50.6922 37.4587 50.9765 37.2986C51.2648 37.1344 51.491 36.9042 51.6552 36.6079C51.8194 36.3116 51.9015 35.9612 51.9015 35.5568C51.9015 35.1524 51.8194 34.8021 51.6552 34.5058C51.491 34.2055 51.2648 33.9752 50.9765 33.8151C50.6922 33.6549 50.3659 33.5748 49.9976 33.5748C49.6292 33.5748 49.3029 33.6549 49.0186 33.8151C48.7343 33.9752 48.5101 34.2055 48.3459 34.5058C48.1817 34.8021 48.0997 35.1524 48.0997 35.5568C48.0997 35.9612 48.1817 36.3116 48.3459 36.6079C48.5101 36.9042 48.7343 37.1344 49.0186 37.2986C49.3069 37.4587 49.6332 37.5388 49.9976 37.5388ZM54.9343 38.5298V32.5838H56.2556V38.5298H54.9343ZM55.595 31.5208C55.3587 31.5208 55.1545 31.4447 54.9823 31.2926C54.8102 31.1404 54.7241 30.9402 54.7241 30.692C54.7241 30.4477 54.8102 30.2495 54.9823 30.0974C55.1545 29.9412 55.3587 29.8631 55.595 29.8631C55.8312 29.8631 56.0354 29.9412 56.2076 30.0974C56.3797 30.2495 56.4658 30.4477 56.4658 30.692C56.4658 30.9402 56.3797 31.1404 56.2076 31.2926C56.0354 31.4447 55.8312 31.5208 55.595 31.5208ZM60.312 41.2325C59.8676 41.2325 59.4672 41.1924 59.1108 41.1124C58.7545 41.0363 58.4502 40.9242 58.1979 40.776C57.9497 40.6279 57.7595 40.4497 57.6273 40.2415C57.4952 40.0333 57.4291 39.8011 57.4291 39.5448C57.4291 39.3406 57.4832 39.1484 57.5913 38.9682C57.7034 38.788 57.8676 38.6339 58.0838 38.5058C58.304 38.3736 58.5723 38.2755 58.8886 38.2115C58.6524 38.0913 58.4762 37.9552 58.3601 37.8031C58.248 37.6509 58.1919 37.4767 58.1919 37.2805C58.1919 37.1124 58.2399 36.9542 58.336 36.8061C58.4361 36.6539 58.5763 36.5198 58.7565 36.4037C58.9406 36.2835 59.1569 36.1854 59.4051 36.1094C59.6534 36.0333 59.9276 35.9892 60.2279 35.9772L60.5162 36.5538C60.268 36.5498 60.0558 36.5698 59.8796 36.6139C59.7074 36.6539 59.5733 36.712 59.4772 36.788C59.3851 36.8601 59.339 36.9482 59.339 37.0523C59.339 37.1884 59.4171 37.2885 59.5733 37.3526C59.7294 37.4127 59.9497 37.4547 60.2339 37.4787L61.255 37.5568C61.7555 37.5969 62.1819 37.6789 62.5342 37.8031C62.8906 37.9272 63.1629 38.1014 63.351 38.3256C63.5432 38.5498 63.6393 38.8341 63.6393 39.1784C63.6393 39.4707 63.5593 39.741 63.3991 39.9892C63.2429 40.2415 63.0167 40.4597 62.7204 40.6439C62.4281 40.8281 62.0778 40.9722 61.6694 41.0763C61.261 41.1804 60.8085 41.2325 60.312 41.2325ZM60.4441 40.3196C61.0407 40.3196 61.5092 40.2295 61.8495 40.0493C62.1939 39.8731 62.3661 39.6429 62.3661 39.3586C62.3661 39.1424 62.252 38.9742 62.0237 38.8541C61.7955 38.734 61.4471 38.6579 60.9787 38.6259L59.8856 38.5418C59.6293 38.5618 59.4071 38.6099 59.2189 38.6859C59.0347 38.762 58.8946 38.8601 58.7985 38.9802C58.7024 39.1004 58.6544 39.2365 58.6544 39.3886C58.6544 39.5728 58.7264 39.735 58.8706 39.8751C59.0147 40.0153 59.2209 40.1234 59.4892 40.1995C59.7575 40.2795 60.0758 40.3196 60.4441 40.3196ZM60.4021 36.6439C59.9056 36.6439 59.4592 36.5498 59.0628 36.3616C58.6704 36.1734 58.3601 35.9192 58.1318 35.5989C57.9036 35.2785 57.7895 34.9202 57.7895 34.5238C57.7895 34.1274 57.9036 33.769 58.1318 33.4487C58.3641 33.1284 58.6764 32.8741 59.0688 32.6859C59.4652 32.4978 59.9096 32.4037 60.4021 32.4037C60.8946 32.4037 61.337 32.4978 61.7294 32.6859C62.1218 32.8741 62.4321 33.1284 62.6604 33.4487C62.8926 33.769 63.0087 34.1274 63.0087 34.5238C63.0087 34.9162 62.8946 35.2725 62.6664 35.5929C62.4381 35.9132 62.1278 36.1694 61.7354 36.3616C61.343 36.5498 60.8986 36.6439 60.4021 36.6439ZM60.4021 35.6529C60.6744 35.6529 60.9166 35.6069 61.1288 35.5148C61.341 35.4187 61.5072 35.2865 61.6273 35.1184C61.7474 34.9462 61.8075 34.748 61.8075 34.5238C61.8075 34.1874 61.6754 33.9152 61.4111 33.707C61.1509 33.4948 60.8145 33.3886 60.4021 33.3886C60.1258 33.3886 59.8816 33.4367 59.6694 33.5328C59.4612 33.6289 59.297 33.763 59.1769 33.9352C59.0568 34.1034 58.9967 34.2996 58.9967 34.5238C58.9967 34.8561 59.1268 35.1284 59.3871 35.3406C59.6514 35.5488 59.9897 35.6529 60.4021 35.6529ZM61.327 33.6289L60.8345 32.71L64.0237 32.5838L64.0117 33.6769L61.327 33.6289ZM65.0403 38.5298V32.5838H66.3617V33.4067C66.5859 33.0343 66.8581 32.774 67.1785 32.6259C67.4988 32.4737 67.8431 32.3977 68.2115 32.3977C68.3316 32.3977 68.4457 32.4037 68.5538 32.4157C68.662 32.4277 68.7661 32.4457 68.8662 32.4697L68.692 33.8331C68.5719 33.7971 68.4497 33.769 68.3256 33.749C68.2015 33.729 68.0774 33.719 67.9532 33.719C67.4928 33.719 67.1124 33.8611 66.8121 34.1454C66.5118 34.4257 66.3617 34.8081 66.3617 35.2926V38.5298H65.0403ZM69.847 38.5298V32.5838H71.1683V38.5298H69.847ZM70.5077 31.5208C70.2714 31.5208 70.0672 31.4447 69.8951 31.2926C69.7229 31.1404 69.6368 30.9402 69.6368 30.692C69.6368 30.4477 69.7229 30.2495 69.8951 30.0974C70.0672 29.9412 70.2714 29.8631 70.5077 29.8631C70.7439 29.8631 70.9481 29.9412 71.1203 30.0974C71.2925 30.2495 71.3785 30.4477 71.3785 30.692C71.3785 30.9402 71.2925 31.1404 71.1203 31.2926C70.9481 31.4447 70.7439 31.5208 70.5077 31.5208ZM74.8884 38.704C74.3959 38.704 73.9354 38.6339 73.507 38.4937C73.0786 38.3536 72.7182 38.1654 72.4259 37.9292L72.9244 36.9622C73.2007 37.1784 73.511 37.3486 73.8554 37.4727C74.2037 37.5969 74.546 37.6589 74.8824 37.6589C75.2708 37.6589 75.5731 37.5908 75.7893 37.4547C76.0055 37.3186 76.1136 37.1284 76.1136 36.8841C76.1136 36.6519 76.0195 36.4817 75.8313 36.3736C75.6471 36.2615 75.2948 36.1454 74.7743 36.0253C74.0255 35.8691 73.481 35.6489 73.1406 35.3646C72.8043 35.0763 72.6361 34.6779 72.6361 34.1694C72.6361 33.8131 72.7342 33.4988 72.9304 33.2265C73.1306 32.9502 73.4049 32.734 73.7533 32.5778C74.1016 32.4217 74.504 32.3436 74.9605 32.3436C75.4049 32.3436 75.8233 32.4077 76.2157 32.5358C76.6081 32.6599 76.9484 32.8361 77.2367 33.0643L76.7683 34.0373C76.6201 33.9052 76.4479 33.7911 76.2518 33.695C76.0556 33.5989 75.8473 33.5248 75.6271 33.4727C75.4109 33.4167 75.1947 33.3886 74.9785 33.3886C74.6421 33.3886 74.3679 33.4547 74.1557 33.5868C73.9474 33.715 73.8433 33.8932 73.8433 34.1214C73.8433 34.3576 73.9434 34.5318 74.1436 34.6439C74.3438 34.756 74.6882 34.8681 75.1767 34.9802C75.9454 35.1484 76.496 35.3726 76.8283 35.6529C77.1607 35.9332 77.3268 36.3216 77.3268 36.8181C77.3268 37.1985 77.2247 37.5308 77.0205 37.8151C76.8163 38.0954 76.53 38.3136 76.1617 38.4697C75.7973 38.6259 75.3729 38.704 74.8884 38.704Z" fill="white"/>
<path d="M28.3473 51.5337V45.2274H29.3563V47.7319H32.4104V45.2274H33.4194V51.5337H32.4104V48.6598H29.3563V51.5337H28.3473ZM34.97 51.5337V45.2274H39.0466V46.1193H35.979V47.822H38.6277V48.6643H35.979V50.6328H39.0736V51.5337H34.97ZM39.8151 51.5337L41.8601 48.2995L39.9232 45.2274H41.1304L42.5854 47.5562L44.1394 45.2274H45.3106L43.2745 48.3265L45.3691 51.5337H44.1574L42.5448 49.0517L40.9908 51.5337H39.8151ZM46.8459 48.2319C46.6537 48.2319 46.487 48.1703 46.3459 48.0472C46.2078 47.9241 46.1387 47.7634 46.1387 47.5652C46.1387 47.4301 46.1702 47.313 46.2333 47.2139C46.2964 47.1118 46.3819 47.0337 46.4901 46.9796C46.5982 46.9226 46.7168 46.8941 46.8459 46.8941C47.0411 46.8941 47.2063 46.9556 47.3414 47.0787C47.4795 47.1989 47.5486 47.361 47.5486 47.5652C47.5486 47.6974 47.5171 47.8145 47.454 47.9166C47.391 48.0157 47.3054 48.0938 47.1973 48.1508C47.0922 48.2049 46.975 48.2319 46.8459 48.2319ZM46.8459 51.6688C46.6537 51.6688 46.487 51.6073 46.3459 51.4841C46.2078 51.361 46.1387 51.2004 46.1387 51.0022C46.1387 50.867 46.1702 50.7499 46.2333 50.6508C46.2964 50.5487 46.3819 50.4706 46.4901 50.4166C46.5982 50.3595 46.7168 50.331 46.8459 50.331C47.0411 50.331 47.2063 50.3926 47.3414 50.5157C47.4795 50.6358 47.5486 50.798 47.5486 51.0022C47.5486 51.1343 47.5171 51.2514 47.454 51.3535C47.391 51.4526 47.3054 51.5292 47.1973 51.5832C47.0922 51.6403 46.975 51.6688 46.8459 51.6688ZM50.9501 51.3175L51.3194 49.7904H50.5492L50.7113 49.0787H51.4861L51.8104 47.6914H51.0357L51.2068 46.9796H51.9726L52.3465 45.4436H53.0807L52.7158 46.9796H54.0492L54.414 45.4391H55.1573L54.7879 46.9796H55.5537L55.3915 47.6959H54.6212L54.3104 49.0742H55.0762L54.905 49.7904H54.1348L53.7654 51.322H53.0221L53.3915 49.7904H52.0627L51.6933 51.3175H50.9501ZM52.2248 49.0787L53.5672 49.0742L53.878 47.6959L52.5357 47.6914L52.2248 49.0787ZM57.786 51.5337V46.2905L56.1509 46.8896L55.8896 46.1058L58.6509 45.0923H58.7229V51.5337H57.786ZM62.931 51.5337V50.2409H59.7913V49.4796L62.0526 45.2274H63.0796L60.8499 49.3986H62.931V47.9977H63.8004V49.3986H64.7733V50.2409H63.8004V51.5337H62.931ZM65.7741 51.5337V45.2274H67.9408C68.5444 45.2274 69.0324 45.3625 69.4047 45.6328C69.7771 45.9001 69.9633 46.295 69.9633 46.8175C69.9633 47.0187 69.9152 47.2094 69.8191 47.3896C69.726 47.5667 69.6044 47.7229 69.4543 47.858C69.3041 47.9932 69.148 48.0923 68.9858 48.1553C69.3282 48.2604 69.6134 48.4526 69.8417 48.7319C70.0729 49.0112 70.1885 49.355 70.1885 49.7634C70.1885 50.1088 70.1014 50.4151 69.9272 50.6823C69.7531 50.9466 69.5053 51.1553 69.184 51.3085C68.8627 51.4586 68.4813 51.5337 68.0399 51.5337H65.7741ZM66.7831 50.7409H67.8687C68.3011 50.7409 68.6224 50.6568 68.8327 50.4886C69.0429 50.3175 69.148 50.0607 69.148 49.7184C69.148 49.379 69.0414 49.1208 68.8282 48.9436C68.6179 48.7664 68.2921 48.6778 67.8507 48.6778H66.7831V50.7409ZM66.7831 47.9211H67.7831C68.0264 47.9211 68.2366 47.882 68.4137 47.804C68.5909 47.7259 68.7291 47.6133 68.8282 47.4661C68.9273 47.319 68.9768 47.1418 68.9768 46.9346C68.9768 46.6403 68.8717 46.4151 68.6615 46.2589C68.4543 46.0998 68.157 46.0202 67.7696 46.0202H66.7831V47.9211ZM71.11 51.5337V50.813L72.4749 49.5652C72.9073 49.1688 73.2557 48.828 73.5199 48.5427C73.7842 48.2544 73.9764 47.9947 74.0965 47.7634C74.2166 47.5322 74.2767 47.298 74.2767 47.0607C74.2767 46.7154 74.1581 46.4466 73.9208 46.2544C73.6866 46.0592 73.3593 45.9616 72.9389 45.9616C72.6596 45.9616 72.3923 46.0097 72.1371 46.1058C71.8818 46.2019 71.6641 46.3415 71.4839 46.5247L71.1145 45.7905C71.3698 45.5622 71.6641 45.3896 71.9974 45.2724C72.3307 45.1523 72.6806 45.0923 73.047 45.0923C73.4824 45.0923 73.8623 45.1703 74.1866 45.3265C74.5139 45.4796 74.7677 45.6974 74.9479 45.9796C75.131 46.2589 75.2226 46.5862 75.2226 46.9616C75.2226 47.2229 75.1701 47.4841 75.065 47.7454C74.9629 48.0037 74.7782 48.295 74.5109 48.6193C74.2467 48.9436 73.8713 49.3325 73.3848 49.7859L72.4163 50.6778H75.3803V51.5337H71.11ZM76.6264 51.5337V45.2274H78.7931C79.3967 45.2274 79.8847 45.3625 80.2571 45.6328C80.6294 45.9001 80.8156 46.295 80.8156 46.8175C80.8156 47.0187 80.7676 47.2094 80.6715 47.3896C80.5784 47.5667 80.4568 47.7229 80.3066 47.858C80.1565 47.9932 80.0003 48.0923 79.8381 48.1553C80.1805 48.2604 80.4658 48.4526 80.694 48.7319C80.9252 49.0112 81.0408 49.355 81.0408 49.7634C81.0408 50.1088 80.9537 50.4151 80.7796 50.6823C80.6054 50.9466 80.3577 51.1553 80.0363 51.3085C79.715 51.4586 79.3336 51.5337 78.8922 51.5337H76.6264ZM77.6354 50.7409H78.721C79.1535 50.7409 79.4748 50.6568 79.685 50.4886C79.8952 50.3175 80.0003 50.0607 80.0003 49.7184C80.0003 49.379 79.8937 49.1208 79.6805 48.9436C79.4703 48.7664 79.1444 48.6778 78.703 48.6778H77.6354V50.7409ZM77.6354 47.9211H78.6354C78.8787 47.9211 79.0889 47.882 79.2661 47.804C79.4432 47.7259 79.5814 47.6133 79.6805 47.4661C79.7796 47.319 79.8291 47.1418 79.8291 46.9346C79.8291 46.6403 79.724 46.4151 79.5138 46.2589C79.3066 46.0998 79.0093 46.0202 78.6219 46.0202H77.6354V47.9211ZM81.9624 51.5337V50.813L83.3272 49.5652C83.7597 49.1688 84.108 48.828 84.3723 48.5427C84.6365 48.2544 84.8287 47.9947 84.9488 47.7634C85.069 47.5322 85.129 47.298 85.129 47.0607C85.129 46.7154 85.0104 46.4466 84.7732 46.2544C84.5389 46.0592 84.2116 45.9616 83.7912 45.9616C83.5119 45.9616 83.2446 46.0097 82.9894 46.1058C82.7341 46.2019 82.5164 46.3415 82.3362 46.5247L81.9669 45.7905C82.2221 45.5622 82.5164 45.3896 82.8497 45.2724C83.1831 45.1523 83.5329 45.0923 83.8993 45.0923C84.3347 45.0923 84.7146 45.1703 85.0389 45.3265C85.3663 45.4796 85.62 45.6974 85.8002 45.9796C85.9834 46.2589 86.075 46.5862 86.075 46.9616C86.075 47.2229 86.0224 47.4841 85.9173 47.7454C85.8152 48.0037 85.6305 48.295 85.3633 48.6193C85.099 48.9436 84.7236 49.3325 84.2371 49.7859L83.2687 50.6778H86.2326V51.5337H81.9624Z" fill="white"/>
<path d="M298.285 38.71C297.704 38.71 297.136 38.6279 296.579 38.4637C296.027 38.2956 295.56 38.0553 295.18 37.743L295.84 36.716C296.041 36.8881 296.273 37.0363 296.537 37.1604C296.805 37.2845 297.09 37.3806 297.39 37.4487C297.69 37.5128 297.991 37.5448 298.291 37.5448C298.839 37.5448 299.282 37.4407 299.618 37.2325C299.959 37.0243 300.129 36.72 300.129 36.3196C300.129 36.0193 300.013 35.765 299.78 35.5568C299.552 35.3486 299.128 35.1564 298.507 34.9802L297.642 34.728C296.849 34.4998 296.271 34.1975 295.907 33.8211C295.546 33.4447 295.366 32.9762 295.366 32.4157C295.366 32.0433 295.44 31.707 295.588 31.4067C295.74 31.1064 295.953 30.8461 296.225 30.6259C296.501 30.4057 296.825 30.2375 297.198 30.1214C297.57 30.0053 297.979 29.9472 298.423 29.9472C298.988 29.9472 299.512 30.0293 299.997 30.1935C300.481 30.3576 300.881 30.5778 301.198 30.8541L300.513 31.8511C300.341 31.695 300.139 31.5608 299.907 31.4487C299.678 31.3366 299.432 31.2505 299.168 31.1905C298.904 31.1304 298.635 31.1004 298.363 31.1004C298.027 31.1004 297.728 31.1504 297.468 31.2505C297.212 31.3466 297.012 31.4867 296.867 31.6709C296.723 31.8551 296.651 32.0793 296.651 32.3436C296.651 32.5358 296.699 32.704 296.795 32.8481C296.892 32.9923 297.056 33.1244 297.288 33.2445C297.524 33.3606 297.848 33.4787 298.261 33.5989L299.174 33.8691C299.951 34.0974 300.519 34.3957 300.879 34.764C301.24 35.1284 301.42 35.6029 301.42 36.1874C301.42 36.6879 301.296 37.1284 301.048 37.5088C300.803 37.8851 300.447 38.1794 299.979 38.3916C299.51 38.6039 298.946 38.71 298.285 38.71ZM305.509 38.71C304.869 38.71 304.306 38.5798 303.822 38.3196C303.337 38.0553 302.959 37.6869 302.686 37.2145C302.418 36.742 302.284 36.1935 302.284 35.5688C302.284 35.1124 302.362 34.692 302.518 34.3076C302.674 33.9192 302.895 33.5828 303.179 33.2986C303.463 33.0143 303.796 32.7941 304.176 32.6379C304.56 32.4817 304.979 32.4037 305.431 32.4037C305.924 32.4037 306.362 32.4918 306.747 32.6679C307.131 32.8401 307.449 33.0823 307.701 33.3947C307.958 33.707 308.138 34.0733 308.242 34.4938C308.35 34.9102 308.368 35.3626 308.296 35.8511H303.551C303.543 36.2075 303.621 36.5198 303.786 36.788C303.95 37.0523 304.184 37.2585 304.488 37.4067C304.797 37.5548 305.159 37.6289 305.575 37.6289C305.912 37.6289 306.236 37.5788 306.548 37.4787C306.865 37.3746 307.151 37.2225 307.407 37.0223L307.918 37.9712C307.725 38.1274 307.493 38.2615 307.221 38.3736C306.949 38.4817 306.664 38.5638 306.368 38.6199C306.072 38.6799 305.786 38.71 305.509 38.71ZM303.629 34.8781H306.999C306.987 34.4297 306.843 34.0773 306.566 33.8211C306.294 33.5648 305.906 33.4367 305.401 33.4367C304.913 33.4367 304.506 33.5648 304.182 33.8211C303.862 34.0773 303.677 34.4297 303.629 34.8781ZM309.548 38.5298V29.8811H310.87V38.5298H309.548ZM315.299 38.71C314.658 38.71 314.095 38.5798 313.611 38.3196C313.126 38.0553 312.748 37.6869 312.476 37.2145C312.207 36.742 312.073 36.1935 312.073 35.5688C312.073 35.1124 312.151 34.692 312.308 34.3076C312.464 33.9192 312.684 33.5828 312.968 33.2986C313.253 33.0143 313.585 32.7941 313.965 32.6379C314.35 32.4817 314.768 32.4037 315.22 32.4037C315.713 32.4037 316.151 32.4918 316.536 32.6679C316.92 32.8401 317.239 33.0823 317.491 33.3947C317.747 33.707 317.927 34.0733 318.031 34.4938C318.139 34.9102 318.157 35.3626 318.085 35.8511H313.341C313.333 36.2075 313.411 36.5198 313.575 36.788C313.739 37.0523 313.973 37.2585 314.278 37.4067C314.586 37.5548 314.948 37.6289 315.365 37.6289C315.701 37.6289 316.025 37.5788 316.338 37.4787C316.654 37.3746 316.94 37.2225 317.196 37.0223L317.707 37.9712C317.515 38.1274 317.283 38.2615 317.01 38.3736C316.738 38.4817 316.454 38.5638 316.157 38.6199C315.861 38.6799 315.575 38.71 315.299 38.71ZM313.419 34.8781H316.788C316.776 34.4297 316.632 34.0773 316.356 33.8211C316.083 33.5648 315.695 33.4367 315.19 33.4367C314.702 33.4367 314.296 33.5648 313.971 33.8211C313.651 34.0773 313.467 34.4297 313.419 34.8781ZM322.123 38.71C321.499 38.71 320.942 38.5738 320.454 38.3016C319.965 38.0253 319.581 37.6509 319.3 37.1784C319.024 36.702 318.886 36.1614 318.886 35.5568C318.886 35.1004 318.968 34.6819 319.132 34.3016C319.296 33.9172 319.529 33.5828 319.829 33.2986C320.129 33.0143 320.482 32.7941 320.886 32.6379C321.294 32.4817 321.737 32.4037 322.213 32.4037C322.614 32.4037 322.984 32.4577 323.324 32.5658C323.669 32.6699 323.985 32.8321 324.273 33.0523L323.637 34.0613C323.453 33.8972 323.24 33.775 323 33.695C322.764 33.6149 322.512 33.5748 322.243 33.5748C321.827 33.5748 321.469 33.6529 321.168 33.8091C320.868 33.9652 320.634 34.1915 320.466 34.4877C320.301 34.78 320.219 35.1344 320.219 35.5508C320.219 36.1714 320.399 36.6579 320.76 37.0103C321.124 37.3626 321.619 37.5388 322.243 37.5388C322.54 37.5388 322.82 37.4847 323.084 37.3766C323.348 37.2645 323.569 37.1184 323.745 36.9382L324.375 37.9412C324.059 38.1814 323.707 38.3696 323.318 38.5058C322.93 38.6419 322.532 38.71 322.123 38.71ZM327.969 38.71C327.388 38.71 326.923 38.5418 326.575 38.2055C326.227 37.8691 326.053 37.3546 326.053 36.6619V30.8481H327.374V32.5838H329.026V33.6769H327.374V36.3736C327.374 36.79 327.452 37.0843 327.608 37.2565C327.768 37.4247 327.993 37.5088 328.281 37.5088C328.421 37.5088 328.553 37.4927 328.677 37.4607C328.801 37.4287 328.913 37.3866 329.014 37.3346L329.248 38.4037C329.076 38.4917 328.877 38.5638 328.653 38.6199C328.433 38.6799 328.205 38.71 327.969 38.71ZM324.749 33.6769V32.5838H326.227V33.6769H324.749ZM330.511 38.5298V32.5838H331.833V38.5298H330.511ZM331.172 31.5208C330.936 31.5208 330.732 31.4447 330.559 31.2926C330.387 31.1404 330.301 30.9402 330.301 30.692C330.301 30.4477 330.387 30.2495 330.559 30.0974C330.732 29.9412 330.936 29.8631 331.172 29.8631C331.408 29.8631 331.612 29.9412 331.785 30.0974C331.957 30.2495 332.043 30.4477 332.043 30.692C332.043 30.9402 331.957 31.1404 331.785 31.2926C331.612 31.4447 331.408 31.5208 331.172 31.5208ZM335.024 38.5298L332.802 32.5838H334.249L335.895 37.3947H335.697L337.312 32.5838H338.718L336.538 38.5298H335.024ZM342.347 38.71C341.706 38.71 341.143 38.5798 340.659 38.3196C340.175 38.0553 339.796 37.6869 339.524 37.2145C339.256 36.742 339.121 36.1935 339.121 35.5688C339.121 35.1124 339.2 34.692 339.356 34.3076C339.512 33.9192 339.732 33.5828 340.016 33.2986C340.301 33.0143 340.633 32.7941 341.013 32.6379C341.398 32.4817 341.816 32.4037 342.269 32.4037C342.761 32.4037 343.2 32.4918 343.584 32.6679C343.968 32.8401 344.287 33.0823 344.539 33.3947C344.795 33.707 344.975 34.0733 345.079 34.4938C345.188 34.9102 345.206 35.3626 345.133 35.8511H340.389C340.381 36.2075 340.459 36.5198 340.623 36.788C340.787 37.0523 341.021 37.2585 341.326 37.4067C341.634 37.5548 341.996 37.6289 342.413 37.6289C342.749 37.6289 343.073 37.5788 343.386 37.4787C343.702 37.3746 343.988 37.2225 344.245 37.0223L344.755 37.9712C344.563 38.1274 344.331 38.2615 344.058 38.3736C343.786 38.4817 343.502 38.5638 343.206 38.6199C342.909 38.6799 342.623 38.71 342.347 38.71ZM340.467 34.8781H343.836C343.824 34.4297 343.68 34.0773 343.404 33.8211C343.131 33.5648 342.743 33.4367 342.239 33.4367C341.75 33.4367 341.344 33.5648 341.019 33.8211C340.699 34.0773 340.515 34.4297 340.467 34.8781ZM349.721 41.2205C349.504 41.2205 349.292 41.1964 349.084 41.1484C348.876 41.1004 348.672 41.0183 348.471 40.9022L348.772 39.773C348.896 39.8531 349.032 39.9132 349.18 39.9532C349.328 39.9932 349.46 40.0133 349.577 40.0133C349.857 40.0133 350.077 39.9472 350.237 39.8151C350.397 39.6829 350.523 39.4787 350.616 39.2025L350.814 38.6259L348.471 32.5838H349.919L351.564 37.1965L353.168 32.5838H354.567L351.997 39.3886C351.813 39.8651 351.607 40.2355 351.378 40.4998C351.15 40.768 350.898 40.9542 350.622 41.0583C350.345 41.1664 350.045 41.2205 349.721 41.2205ZM358.139 38.71C357.499 38.71 356.936 38.5798 356.452 38.3196C355.967 38.0553 355.589 37.6869 355.316 37.2145C355.048 36.742 354.914 36.1935 354.914 35.5688C354.914 35.1124 354.992 34.692 355.148 34.3076C355.304 33.9192 355.525 33.5828 355.809 33.2986C356.093 33.0143 356.425 32.7941 356.806 32.6379C357.19 32.4817 357.609 32.4037 358.061 32.4037C358.554 32.4037 358.992 32.4918 359.376 32.6679C359.761 32.8401 360.079 33.0823 360.331 33.3947C360.588 33.707 360.768 34.0733 360.872 34.4938C360.98 34.9102 360.998 35.3626 360.926 35.8511H356.181C356.173 36.2075 356.251 36.5198 356.415 36.788C356.58 37.0523 356.814 37.2585 357.118 37.4067C357.426 37.5548 357.789 37.6289 358.205 37.6289C358.542 37.6289 358.866 37.5788 359.178 37.4787C359.495 37.3746 359.781 37.2225 360.037 37.0223L360.548 37.9712C360.355 38.1274 360.123 38.2615 359.851 38.3736C359.579 38.4817 359.294 38.5638 358.998 38.6199C358.702 38.6799 358.415 38.71 358.139 38.71ZM356.259 34.8781H359.629C359.617 34.4297 359.473 34.0773 359.196 33.8211C358.924 33.5648 358.536 33.4367 358.031 33.4367C357.543 33.4367 357.136 33.5648 356.812 33.8211C356.492 34.0773 356.307 34.4297 356.259 34.8781ZM362.178 38.5298V29.8811H363.5V38.5298H362.178ZM365.214 38.5298V29.8811H366.535V38.5298H365.214ZM370.958 38.71C370.337 38.71 369.783 38.5678 369.294 38.2835C368.81 37.9953 368.429 37.6129 368.153 37.1364C367.877 36.6559 367.739 36.1294 367.739 35.5568C367.739 35.1324 367.817 34.732 367.973 34.3556C368.133 33.9752 368.357 33.6389 368.646 33.3466C368.938 33.0543 369.28 32.8241 369.673 32.6559C370.065 32.4877 370.495 32.4037 370.964 32.4037C371.584 32.4037 372.137 32.5478 372.622 32.8361C373.11 33.1204 373.492 33.5028 373.769 33.9832C374.045 34.4597 374.183 34.9842 374.183 35.5568C374.183 35.9772 374.103 36.3776 373.943 36.758C373.787 37.1384 373.564 37.4747 373.276 37.767C372.988 38.0593 372.648 38.2895 372.255 38.4577C371.863 38.6259 371.43 38.71 370.958 38.71ZM370.958 37.5388C371.326 37.5388 371.653 37.4587 371.937 37.2986C372.225 37.1344 372.451 36.9042 372.616 36.6079C372.78 36.3116 372.862 35.9612 372.862 35.5568C372.862 35.1524 372.78 34.8021 372.616 34.5058C372.451 34.2055 372.225 33.9752 371.937 33.8151C371.653 33.6549 371.326 33.5748 370.958 33.5748C370.59 33.5748 370.261 33.6549 369.973 33.8151C369.689 33.9752 369.464 34.2055 369.3 34.5058C369.14 34.8021 369.06 35.1524 369.06 35.5568C369.06 35.9612 369.142 36.3116 369.306 36.6079C369.47 36.9042 369.695 37.1344 369.979 37.2986C370.267 37.4587 370.594 37.5388 370.958 37.5388ZM376.455 38.5298L374.587 32.5838H375.902L377.175 37.0043L378.569 32.5838H379.86L381.163 37.0043L382.461 32.5838H383.716L381.848 38.5298H380.485L379.175 34.2595L377.818 38.5298H376.455Z" fill="#363636"/>
<path d="M295.273 51.5337V45.2274H296.282V47.7319H299.336V45.2274H300.345V51.5337H299.336V48.6598H296.282V51.5337H295.273ZM301.896 51.5337V45.2274H305.972V46.1193H302.905V47.822H305.553V48.6643H302.905V50.6328H305.999V51.5337H301.896ZM306.741 51.5337L308.786 48.2995L306.849 45.2274H308.056L309.511 47.5562L311.065 45.2274H312.236L310.2 48.3265L312.295 51.5337H311.083L309.47 49.0517L307.916 51.5337H306.741ZM313.771 48.2319C313.579 48.2319 313.413 48.1703 313.271 48.0472C313.133 47.9241 313.064 47.7634 313.064 47.5652C313.064 47.4301 313.096 47.313 313.159 47.2139C313.222 47.1118 313.307 47.0337 313.416 46.9796C313.524 46.9226 313.642 46.8941 313.771 46.8941C313.967 46.8941 314.132 46.9556 314.267 47.0787C314.405 47.1989 314.474 47.361 314.474 47.5652C314.474 47.6974 314.443 47.8145 314.38 47.9166C314.317 48.0157 314.231 48.0938 314.123 48.1508C314.018 48.2049 313.901 48.2319 313.771 48.2319ZM313.771 51.6688C313.579 51.6688 313.413 51.6073 313.271 51.4841C313.133 51.361 313.064 51.2004 313.064 51.0022C313.064 50.867 313.096 50.7499 313.159 50.6508C313.222 50.5487 313.307 50.4706 313.416 50.4166C313.524 50.3595 313.642 50.331 313.771 50.331C313.967 50.331 314.132 50.3926 314.267 50.5157C314.405 50.6358 314.474 50.798 314.474 51.0022C314.474 51.1343 314.443 51.2514 314.38 51.3535C314.317 51.4526 314.231 51.5292 314.123 51.5832C314.018 51.6403 313.901 51.6688 313.771 51.6688ZM317.876 51.3175L318.245 49.7904H317.475L317.637 49.0787H318.412L318.736 47.6914H317.961L318.132 46.9796H318.898L319.272 45.4436H320.006L319.641 46.9796H320.975L321.34 45.4391H322.083L321.713 46.9796H322.479L322.317 47.6959H321.547L321.236 49.0742H322.002L321.831 49.7904H321.06L320.691 51.322H319.948L320.317 49.7904H318.988L318.619 51.3175H317.876ZM319.15 49.0787L320.493 49.0742L320.804 47.6959L319.461 47.6914L319.15 49.0787ZM323.563 51.5337V45.2274H327.459V46.1508H324.572V47.9661H327.189V48.867H324.572V51.5337H323.563ZM328.699 51.5337V45.2274H332.595V46.1508H329.708V47.9661H332.325V48.867H329.708V51.5337H328.699ZM333.835 51.5337V45.2274H336.001C336.605 45.2274 337.093 45.3625 337.465 45.6328C337.838 45.9001 338.024 46.295 338.024 46.8175C338.024 47.0187 337.976 47.2094 337.88 47.3896C337.787 47.5667 337.665 47.7229 337.515 47.858C337.365 47.9932 337.208 48.0923 337.046 48.1553C337.389 48.2604 337.674 48.4526 337.902 48.7319C338.133 49.0112 338.249 49.355 338.249 49.7634C338.249 50.1088 338.162 50.4151 337.988 50.6823C337.814 50.9466 337.566 51.1553 337.244 51.3085C336.923 51.4586 336.542 51.5337 336.1 51.5337H333.835ZM334.844 50.7409H335.929C336.362 50.7409 336.683 50.6568 336.893 50.4886C337.103 50.3175 337.208 50.0607 337.208 49.7184C337.208 49.379 337.102 49.1208 336.889 48.9436C336.678 48.7664 336.353 48.6778 335.911 48.6778H334.844V50.7409ZM334.844 47.9211H335.844C336.087 47.9211 336.297 47.882 336.474 47.804C336.651 47.7259 336.79 47.6133 336.889 47.4661C336.988 47.319 337.037 47.1418 337.037 46.9346C337.037 46.6403 336.932 46.4151 336.722 46.2589C336.515 46.0998 336.217 46.0202 335.83 46.0202H334.844V47.9211ZM342.328 51.6688C341.674 51.6688 341.101 51.5337 340.612 51.2634C340.122 50.9932 339.741 50.6118 339.468 50.1193C339.198 49.6238 339.062 49.0457 339.062 48.385C339.062 47.9046 339.142 47.4646 339.301 47.0652C339.463 46.6628 339.69 46.3145 339.981 46.0202C340.276 45.7259 340.622 45.4977 341.022 45.3355C341.421 45.1733 341.86 45.0923 342.337 45.0923C342.818 45.0923 343.232 45.1523 343.58 45.2724C343.932 45.3926 344.238 45.5637 344.499 45.7859L343.977 46.6103C343.779 46.4271 343.547 46.2905 343.283 46.2004C343.019 46.1103 342.728 46.0652 342.409 46.0652C342.058 46.0652 341.741 46.1193 341.459 46.2274C341.177 46.3355 340.935 46.4902 340.734 46.6914C340.535 46.8896 340.382 47.1313 340.274 47.4166C340.169 47.6989 340.116 48.0187 340.116 48.376C340.116 48.8625 340.211 49.2784 340.4 49.6238C340.592 49.9691 340.863 50.2334 341.211 50.4166C341.562 50.5968 341.977 50.6868 342.454 50.6868C342.773 50.6868 343.079 50.6403 343.373 50.5472C343.671 50.4511 343.948 50.2965 344.207 50.0832L344.675 50.9346C344.372 51.1718 344.025 51.3535 343.634 51.4796C343.247 51.6058 342.812 51.6688 342.328 51.6688ZM346.795 51.5337V46.2905L345.159 46.8896L344.898 46.1058L347.659 45.0923H347.731V51.5337H346.795ZM351.701 51.6688C351.298 51.6688 350.936 51.5832 350.615 51.4121C350.297 51.2409 350.025 51.0037 349.8 50.7004C349.578 50.3971 349.408 50.0472 349.291 49.6508C349.174 49.2544 349.115 48.831 349.115 48.3805C349.115 47.9271 349.174 47.5022 349.291 47.1058C349.408 46.7094 349.578 46.361 349.8 46.0607C350.025 45.7574 350.297 45.5202 350.615 45.349C350.936 45.1778 351.298 45.0923 351.701 45.0923C352.103 45.0923 352.464 45.1778 352.782 45.349C353.103 45.5202 353.375 45.7574 353.597 46.0607C353.822 46.361 353.994 46.7094 354.111 47.1058C354.231 47.5022 354.291 47.9271 354.291 48.3805C354.291 48.831 354.231 49.2544 354.111 49.6508C353.994 50.0472 353.822 50.3971 353.597 50.7004C353.375 51.0037 353.103 51.2409 352.782 51.4121C352.464 51.5832 352.103 51.6688 351.701 51.6688ZM351.701 50.7769C351.941 50.7769 352.159 50.7229 352.354 50.6148C352.549 50.5037 352.717 50.3445 352.858 50.1373C353.003 49.9301 353.112 49.6793 353.187 49.385C353.262 49.0877 353.3 48.7529 353.3 48.3805C353.3 47.882 353.232 47.4541 353.097 47.0968C352.965 46.7364 352.779 46.4616 352.539 46.2724C352.301 46.0802 352.022 45.9841 351.701 45.9841C351.464 45.9841 351.246 46.0397 351.048 46.1508C350.852 46.2589 350.684 46.4166 350.543 46.6238C350.402 46.831 350.292 47.0817 350.214 47.376C350.139 47.6703 350.102 48.0052 350.102 48.3805C350.102 48.879 350.168 49.307 350.3 49.6643C350.435 50.0217 350.623 50.2965 350.863 50.4886C351.103 50.6808 351.382 50.7769 351.701 50.7769Z" fill="#363636"/>
<path d="M534.832 39.1802C534.251 39.1802 533.683 39.0981 533.126 38.9339C532.574 38.7658 532.107 38.5255 531.727 38.2132L532.387 37.1862C532.588 37.3584 532.82 37.5065 533.084 37.6306C533.352 37.7548 533.637 37.8509 533.937 37.9189C534.237 37.983 534.538 38.015 534.838 38.015C535.386 38.015 535.829 37.9109 536.165 37.7027C536.506 37.4945 536.676 37.1902 536.676 36.7898C536.676 36.4895 536.56 36.2352 536.327 36.027C536.099 35.8188 535.675 35.6266 535.054 35.4505L534.189 35.1982C533.396 34.97 532.818 34.6677 532.453 34.2913C532.093 33.9149 531.913 33.4465 531.913 32.8859C531.913 32.5135 531.987 32.1772 532.135 31.8769C532.287 31.5766 532.499 31.3163 532.772 31.0961C533.048 30.8759 533.372 30.7077 533.745 30.5916C534.117 30.4755 534.526 30.4174 534.97 30.4174C535.535 30.4174 536.059 30.4995 536.544 30.6637C537.028 30.8278 537.428 31.0481 537.745 31.3243L537.06 32.3213C536.888 32.1652 536.686 32.031 536.453 31.9189C536.225 31.8068 535.979 31.7207 535.715 31.6607C535.45 31.6006 535.182 31.5706 534.91 31.5706C534.574 31.5706 534.275 31.6206 534.015 31.7207C533.759 31.8168 533.559 31.957 533.414 32.1411C533.27 32.3253 533.198 32.5496 533.198 32.8138C533.198 33.006 533.246 33.1742 533.342 33.3183C533.438 33.4625 533.603 33.5946 533.835 33.7147C534.071 33.8308 534.395 33.949 534.808 34.0691L535.721 34.3393C536.497 34.5676 537.066 34.8659 537.426 35.2342C537.787 35.5986 537.967 36.0731 537.967 36.6577C537.967 37.1582 537.843 37.5986 537.595 37.979C537.35 38.3554 536.994 38.6496 536.526 38.8619C536.057 39.0741 535.492 39.1802 534.832 39.1802ZM542.056 39.1802C541.416 39.1802 540.853 39.0501 540.369 38.7898C539.884 38.5255 539.506 38.1572 539.233 37.6847C538.965 37.2122 538.831 36.6637 538.831 36.039C538.831 35.5826 538.909 35.1622 539.065 34.7778C539.221 34.3894 539.442 34.0531 539.726 33.7688C540.01 33.4845 540.342 33.2643 540.723 33.1081C541.107 32.952 541.526 32.8739 541.978 32.8739C542.471 32.8739 542.909 32.962 543.293 33.1381C543.678 33.3103 543.996 33.5526 544.248 33.8649C544.505 34.1772 544.685 34.5435 544.789 34.964C544.897 35.3804 544.915 35.8328 544.843 36.3213H540.098C540.09 36.6777 540.168 36.99 540.332 37.2583C540.497 37.5225 540.731 37.7287 541.035 37.8769C541.343 38.025 541.706 38.0991 542.122 38.0991C542.459 38.0991 542.783 38.049 543.095 37.9489C543.412 37.8448 543.698 37.6927 543.954 37.4925L544.465 38.4414C544.272 38.5976 544.04 38.7317 543.768 38.8438C543.496 38.952 543.211 39.034 542.915 39.0901C542.619 39.1502 542.332 39.1802 542.056 39.1802ZM540.176 35.3484H543.546C543.534 34.8999 543.39 34.5476 543.113 34.2913C542.841 34.035 542.453 33.9069 541.948 33.9069C541.46 33.9069 541.053 34.035 540.729 34.2913C540.409 34.5476 540.224 34.8999 540.176 35.3484ZM547.747 39.1802C547.335 39.1802 546.972 39.1041 546.66 38.952C546.348 38.7958 546.103 38.5776 545.927 38.2973C545.755 38.013 545.669 37.6787 545.669 37.2943C545.669 36.97 545.751 36.6777 545.915 36.4174C546.079 36.1532 546.334 35.9349 546.678 35.7628C547.026 35.5906 547.473 35.4765 548.017 35.4204C548.562 35.3604 549.217 35.3684 549.981 35.4444L550.005 36.3574C549.461 36.2813 548.992 36.2493 548.6 36.2613C548.208 36.2733 547.885 36.3233 547.633 36.4114C547.385 36.4955 547.201 36.6096 547.08 36.7538C546.964 36.8939 546.906 37.0561 546.906 37.2402C546.906 37.5285 547.008 37.7508 547.213 37.9069C547.421 38.0631 547.705 38.1411 548.065 38.1411C548.374 38.1411 548.65 38.0851 548.894 37.973C549.138 37.8609 549.331 37.7027 549.471 37.4985C549.615 37.2943 549.687 37.0541 549.687 36.7778V35.1982C549.687 34.9339 549.631 34.7057 549.519 34.5135C549.407 34.3173 549.237 34.1652 549.008 34.0571C548.78 33.949 548.496 33.8949 548.155 33.8949C547.843 33.8949 547.535 33.9429 547.231 34.039C546.926 34.1311 546.636 34.2773 546.36 34.4775L545.987 33.5045C546.36 33.2523 546.748 33.0741 547.152 32.97C547.557 32.8659 547.945 32.8138 548.318 32.8138C548.87 32.8138 549.343 32.9019 549.735 33.0781C550.131 33.2503 550.436 33.5125 550.648 33.8649C550.86 34.2132 550.966 34.6537 550.966 35.1862V39H549.777V38.2973C549.577 38.5816 549.299 38.7998 548.942 38.952C548.586 39.1041 548.188 39.1802 547.747 39.1802ZM554.609 39.1742C554.117 39.1742 553.656 39.1041 553.228 38.964C552.799 38.8238 552.439 38.6356 552.147 38.3994L552.645 37.4324C552.921 37.6486 553.232 37.8188 553.576 37.9429C553.924 38.0671 554.267 38.1291 554.603 38.1291C554.991 38.1291 555.294 38.0611 555.51 37.9249C555.726 37.7888 555.834 37.5986 555.834 37.3544C555.834 37.1221 555.74 36.952 555.552 36.8438C555.368 36.7317 555.015 36.6156 554.495 36.4955C553.746 36.3393 553.202 36.1191 552.861 35.8348C552.525 35.5465 552.357 35.1482 552.357 34.6396C552.357 34.2833 552.455 33.969 552.651 33.6967C552.851 33.4204 553.126 33.2042 553.474 33.0481C553.822 32.8919 554.225 32.8138 554.681 32.8138C555.126 32.8138 555.544 32.8779 555.936 33.006C556.329 33.1301 556.669 33.3063 556.957 33.5345L556.489 34.5075C556.341 34.3754 556.169 34.2613 555.972 34.1652C555.776 34.0691 555.568 33.995 555.348 33.9429C555.132 33.8869 554.915 33.8589 554.699 33.8589C554.363 33.8589 554.089 33.9249 553.876 34.0571C553.668 34.1852 553.564 34.3634 553.564 34.5916C553.564 34.8278 553.664 35.002 553.864 35.1141C554.064 35.2262 554.409 35.3383 554.897 35.4505C555.666 35.6186 556.217 35.8428 556.549 36.1231C556.881 36.4034 557.047 36.7918 557.047 37.2883C557.047 37.6687 556.945 38.001 556.741 38.2853C556.537 38.5656 556.251 38.7838 555.882 38.9399C555.518 39.0961 555.094 39.1742 554.609 39.1742ZM560.07 39.1802C559.658 39.1802 559.295 39.1041 558.983 38.952C558.671 38.7958 558.427 38.5776 558.25 38.2973C558.078 38.013 557.992 37.6787 557.992 37.2943C557.992 36.97 558.074 36.6777 558.238 36.4174C558.403 36.1532 558.657 35.9349 559.001 35.7628C559.349 35.5906 559.796 35.4765 560.34 35.4204C560.885 35.3604 561.54 35.3684 562.304 35.4444L562.328 36.3574C561.784 36.2813 561.315 36.2493 560.923 36.2613C560.531 36.2733 560.208 36.3233 559.956 36.4114C559.708 36.4955 559.524 36.6096 559.404 36.7538C559.287 36.8939 559.229 37.0561 559.229 37.2402C559.229 37.5285 559.331 37.7508 559.536 37.9069C559.744 38.0631 560.028 38.1411 560.388 38.1411C560.697 38.1411 560.973 38.0851 561.217 37.973C561.462 37.8609 561.654 37.7027 561.794 37.4985C561.938 37.2943 562.01 37.0541 562.01 36.7778V35.1982C562.01 34.9339 561.954 34.7057 561.842 34.5135C561.73 34.3173 561.56 34.1652 561.331 34.0571C561.103 33.949 560.819 33.8949 560.479 33.8949C560.166 33.8949 559.858 33.9429 559.554 34.039C559.249 34.1311 558.959 34.2773 558.683 34.4775L558.31 33.5045C558.683 33.2523 559.071 33.0741 559.476 32.97C559.88 32.8659 560.268 32.8138 560.641 32.8138C561.193 32.8138 561.666 32.9019 562.058 33.0781C562.455 33.2503 562.759 33.5125 562.971 33.8649C563.183 34.2132 563.289 34.6537 563.289 35.1862V39H562.1V38.2973C561.9 38.5816 561.622 38.7998 561.265 38.952C560.909 39.1041 560.511 39.1802 560.07 39.1802ZM564.926 39V30.3514H566.247V39H564.926ZM570.46 39.1802C569.879 39.1802 569.415 39.012 569.067 38.6757C568.718 38.3393 568.544 37.8248 568.544 37.1321V31.3183H569.865V33.0541H571.517V34.1472H569.865V36.8438C569.865 37.2603 569.943 37.5546 570.1 37.7267C570.26 37.8949 570.484 37.979 570.772 37.979C570.912 37.979 571.045 37.963 571.169 37.9309C571.293 37.8989 571.405 37.8569 571.505 37.8048L571.739 38.8739C571.567 38.962 571.369 39.034 571.145 39.0901C570.924 39.1502 570.696 39.1802 570.46 39.1802ZM567.241 34.1472V33.0541H568.718V34.1472H567.241Z" fill="#363636"/>
<path d="M531.82 52.0039V45.6976H532.829V48.2021H535.883V45.6976H536.892V52.0039H535.883V49.13H532.829V52.0039H531.82ZM538.442 52.0039V45.6976H542.519V46.5895H539.451V48.2922H542.1V49.1345H539.451V51.103H542.546V52.0039H538.442ZM543.288 52.0039L545.333 48.7697L543.396 45.6976H544.603L546.058 48.0264L547.612 45.6976H548.783L546.747 48.7967L548.842 52.0039H547.63L546.017 49.5219L544.463 52.0039H543.288ZM550.318 48.7021C550.126 48.7021 549.96 48.6405 549.818 48.5174C549.68 48.3943 549.611 48.2336 549.611 48.0354C549.611 47.9003 549.643 47.7832 549.706 47.6841C549.769 47.582 549.854 47.5039 549.963 47.4499C550.071 47.3928 550.189 47.3643 550.318 47.3643C550.514 47.3643 550.679 47.4258 550.814 47.549C550.952 47.6691 551.021 47.8312 551.021 48.0354C551.021 48.1676 550.99 48.2847 550.927 48.3868C550.863 48.4859 550.778 48.564 550.67 48.621C550.565 48.6751 550.448 48.7021 550.318 48.7021ZM550.318 52.139C550.126 52.139 549.96 52.0775 549.818 51.9544C549.68 51.8312 549.611 51.6706 549.611 51.4724C549.611 51.3372 549.643 51.2201 549.706 51.121C549.769 51.0189 549.854 50.9408 549.963 50.8868C550.071 50.8297 550.189 50.8012 550.318 50.8012C550.514 50.8012 550.679 50.8628 550.814 50.9859C550.952 51.106 551.021 51.2682 551.021 51.4724C551.021 51.6045 550.99 51.7216 550.927 51.8237C550.863 51.9228 550.778 51.9994 550.67 52.0535C550.565 52.1105 550.448 52.139 550.318 52.139ZM554.423 51.7877L554.792 50.2607H554.022L554.184 49.549H554.959L555.283 48.1616H554.508L554.679 47.4499H555.445L555.819 45.9138H556.553L556.188 47.4499H557.522L557.887 45.9093H558.63L558.26 47.4499H559.026L558.864 48.1661H558.094L557.783 49.5444H558.549L558.378 50.2607H557.607L557.238 51.7922H556.495L556.864 50.2607H555.535L555.166 51.7877H554.423ZM555.697 49.549L557.04 49.5444L557.35 48.1661L556.008 48.1616L555.697 49.549ZM560.11 52.0039V45.6976H564.006V46.621H561.119V48.4363H563.736V49.3372H561.119V52.0039H560.11ZM567.399 52.139C566.924 52.139 566.504 52.0369 566.138 51.8327C565.771 51.6285 565.483 51.3342 565.273 50.9499C565.062 50.5625 564.957 50.0955 564.957 49.549C564.957 49.0174 565.056 48.5279 565.255 48.0805C565.453 47.63 565.731 47.2321 566.088 46.8868C566.445 46.5384 566.863 46.2517 567.34 46.0264C567.821 45.8012 568.342 45.6466 568.903 45.5625L569.255 46.3372C568.795 46.3853 568.387 46.4814 568.029 46.6255C567.672 46.7667 567.364 46.9423 567.106 47.1526C566.851 47.3628 566.642 47.597 566.48 47.8553C566.318 48.1105 566.198 48.3778 566.12 48.6571C566.288 48.4408 566.501 48.2697 566.759 48.1435C567.017 48.0144 567.298 47.9499 567.602 47.9499C568.007 47.9499 568.372 48.0354 568.696 48.2066C569.023 48.3778 569.28 48.615 569.466 48.9183C569.656 49.2216 569.75 49.5715 569.75 49.9679C569.75 50.2712 569.693 50.555 569.579 50.8192C569.465 51.0835 569.303 51.3147 569.093 51.5129C568.882 51.7081 568.633 51.8613 568.345 51.9724C568.059 52.0835 567.744 52.139 567.399 52.139ZM567.399 51.2832C567.666 51.2832 567.903 51.2291 568.111 51.121C568.318 51.0129 568.48 50.8658 568.597 50.6796C568.717 50.4904 568.777 50.2742 568.777 50.0309C568.777 49.7907 568.716 49.576 568.593 49.3868C568.472 49.1976 568.307 49.0475 568.097 48.9363C567.89 48.8252 567.657 48.7697 567.399 48.7697C567.138 48.7697 566.902 48.8252 566.692 48.9363C566.484 49.0475 566.319 49.1976 566.196 49.3868C566.076 49.576 566.016 49.7907 566.016 50.0309C566.016 50.2742 566.075 50.4904 566.192 50.6796C566.312 50.8658 566.475 51.0129 566.683 51.121C566.89 51.2291 567.129 51.2832 567.399 51.2832ZM570.927 52.0039V45.6976H574.823V46.621H571.936V48.4363H574.553V49.3372H571.936V52.0039H570.927ZM578.216 52.139C577.741 52.139 577.321 52.0369 576.955 51.8327C576.588 51.6285 576.3 51.3342 576.09 50.9499C575.88 50.5625 575.775 50.0955 575.775 49.549C575.775 49.0174 575.874 48.5279 576.072 48.0805C576.27 47.63 576.548 47.2321 576.905 46.8868C577.263 46.5384 577.68 46.2517 578.157 46.0264C578.638 45.8012 579.159 45.6466 579.72 45.5625L580.072 46.3372C579.612 46.3853 579.204 46.4814 578.847 46.6255C578.489 46.7667 578.181 46.9423 577.923 47.1526C577.668 47.3628 577.459 47.597 577.297 47.8553C577.135 48.1105 577.015 48.3778 576.937 48.6571C577.105 48.4408 577.318 48.2697 577.576 48.1435C577.835 48.0144 578.115 47.9499 578.419 47.9499C578.824 47.9499 579.189 48.0354 579.513 48.2066C579.841 48.3778 580.097 48.615 580.284 48.9183C580.473 49.2216 580.567 49.5715 580.567 49.9679C580.567 50.2712 580.51 50.555 580.396 50.8192C580.282 51.0835 580.12 51.3147 579.91 51.5129C579.699 51.7081 579.45 51.8613 579.162 51.9724C578.877 52.0835 578.561 52.139 578.216 52.139ZM578.216 51.2832C578.483 51.2832 578.72 51.2291 578.928 51.121C579.135 51.0129 579.297 50.8658 579.414 50.6796C579.534 50.4904 579.594 50.2742 579.594 50.0309C579.594 49.7907 579.533 49.576 579.41 49.3868C579.29 49.1976 579.124 49.0475 578.914 48.9363C578.707 48.8252 578.474 48.7697 578.216 48.7697C577.955 48.7697 577.719 48.8252 577.509 48.9363C577.302 49.0475 577.136 49.1976 577.013 49.3868C576.893 49.576 576.833 49.7907 576.833 50.0309C576.833 50.2742 576.892 50.4904 577.009 50.6796C577.129 50.8658 577.293 51.0129 577.5 51.121C577.707 51.2291 577.946 51.2832 578.216 51.2832ZM581.744 52.0039V45.6976H585.641V46.621H582.753V48.4363H585.37V49.3372H582.753V52.0039H581.744ZM589.033 52.139C588.559 52.139 588.138 52.0369 587.772 51.8327C587.405 51.6285 587.117 51.3342 586.907 50.9499C586.697 50.5625 586.592 50.0955 586.592 49.549C586.592 49.0174 586.691 48.5279 586.889 48.0805C587.087 47.63 587.365 47.2321 587.722 46.8868C588.08 46.5384 588.497 46.2517 588.975 46.0264C589.455 45.8012 589.976 45.6466 590.538 45.5625L590.889 46.3372C590.429 46.3853 590.021 46.4814 589.664 46.6255C589.306 46.7667 588.999 46.9423 588.74 47.1526C588.485 47.3628 588.276 47.597 588.114 47.8553C587.952 48.1105 587.832 48.3778 587.754 48.6571C587.922 48.4408 588.135 48.2697 588.393 48.1435C588.652 48.0144 588.932 47.9499 589.236 47.9499C589.641 47.9499 590.006 48.0354 590.33 48.2066C590.658 48.3778 590.914 48.615 591.101 48.9183C591.29 49.2216 591.384 49.5715 591.384 49.9679C591.384 50.2712 591.327 50.555 591.213 50.8192C591.099 51.0835 590.937 51.3147 590.727 51.5129C590.517 51.7081 590.267 51.8613 589.979 51.9724C589.694 52.0835 589.378 52.139 589.033 52.139ZM589.033 51.2832C589.3 51.2832 589.538 51.2291 589.745 51.121C589.952 51.0129 590.114 50.8658 590.231 50.6796C590.351 50.4904 590.411 50.2742 590.411 50.0309C590.411 49.7907 590.35 49.576 590.227 49.3868C590.107 49.1976 589.942 49.0475 589.731 48.9363C589.524 48.8252 589.291 48.7697 589.033 48.7697C588.772 48.7697 588.536 48.8252 588.326 48.9363C588.119 49.0475 587.954 49.1976 587.83 49.3868C587.71 49.576 587.65 49.7907 587.65 50.0309C587.65 50.2742 587.709 50.4904 587.826 50.6796C587.946 50.8658 588.11 51.0129 588.317 51.121C588.524 51.2291 588.763 51.2832 589.033 51.2832Z" fill="#363636"/>
<path d="M532.093 291.752V283.344H533.396L536.826 288.924L536.303 288.93L539.607 283.344H540.886V291.752H539.571L539.589 285.134L539.847 285.224L536.988 289.939H536.003L533.09 285.224L533.306 285.134L533.324 291.752H532.093ZM542.779 291.752V285.807H544.1V291.752H542.779ZM543.439 284.743C543.203 284.743 542.999 284.667 542.827 284.515C542.654 284.363 542.568 284.163 542.568 283.915C542.568 283.67 542.654 283.472 542.827 283.32C542.999 283.164 543.203 283.086 543.439 283.086C543.675 283.086 543.88 283.164 544.052 283.32C544.224 283.472 544.31 283.67 544.31 283.915C544.31 284.163 544.224 284.363 544.052 284.515C543.88 284.667 543.675 284.743 543.439 284.743ZM545.814 291.752V285.807H547.135V286.563C547.383 286.231 547.672 285.993 548 285.849C548.328 285.7 548.669 285.626 549.021 285.626C549.566 285.626 550.016 285.734 550.372 285.951C550.729 286.167 550.993 286.445 551.165 286.785C551.341 287.126 551.43 287.476 551.43 287.837V291.752H550.108V288.245C550.108 287.821 549.98 287.48 549.724 287.224C549.472 286.968 549.119 286.84 548.667 286.84C548.37 286.84 548.106 286.906 547.874 287.038C547.646 287.17 547.466 287.354 547.333 287.59C547.201 287.823 547.135 288.095 547.135 288.407V291.752H545.814ZM555.465 291.933C554.885 291.933 554.42 291.764 554.072 291.428C553.723 291.092 553.549 290.577 553.549 289.885V284.071H554.871V285.807H556.522V286.9H554.871V289.596C554.871 290.013 554.949 290.307 555.105 290.479C555.265 290.647 555.489 290.731 555.777 290.731C555.918 290.731 556.05 290.715 556.174 290.683C556.298 290.651 556.41 290.609 556.51 290.557L556.744 291.626C556.572 291.714 556.374 291.786 556.15 291.843C555.93 291.903 555.701 291.933 555.465 291.933ZM552.246 286.9V285.807H553.723V286.9H552.246ZM563.175 294.455C562.73 294.455 562.33 294.415 561.973 294.335C561.617 294.259 561.313 294.147 561.06 293.999C560.812 293.851 560.622 293.672 560.49 293.464C560.358 293.256 560.292 293.024 560.292 292.767C560.292 292.563 560.346 292.371 560.454 292.191C560.566 292.011 560.73 291.857 560.946 291.728C561.167 291.596 561.435 291.498 561.751 291.434C561.515 291.314 561.339 291.178 561.223 291.026C561.11 290.874 561.054 290.699 561.054 290.503C561.054 290.335 561.102 290.177 561.199 290.029C561.299 289.877 561.439 289.742 561.619 289.626C561.803 289.506 562.019 289.408 562.268 289.332C562.516 289.256 562.79 289.212 563.09 289.2L563.379 289.776C563.13 289.772 562.918 289.792 562.742 289.837C562.57 289.877 562.436 289.935 562.34 290.011C562.248 290.083 562.202 290.171 562.202 290.275C562.202 290.411 562.28 290.511 562.436 290.575C562.592 290.635 562.812 290.677 563.096 290.701L564.117 290.779C564.618 290.82 565.044 290.902 565.397 291.026C565.753 291.15 566.025 291.324 566.214 291.548C566.406 291.772 566.502 292.057 566.502 292.401C566.502 292.693 566.422 292.964 566.262 293.212C566.105 293.464 565.879 293.682 565.583 293.867C565.291 294.051 564.94 294.195 564.532 294.299C564.123 294.403 563.671 294.455 563.175 294.455ZM563.307 293.542C563.903 293.542 564.372 293.452 564.712 293.272C565.056 293.096 565.229 292.866 565.229 292.581C565.229 292.365 565.114 292.197 564.886 292.077C564.658 291.957 564.31 291.881 563.841 291.849L562.748 291.764C562.492 291.784 562.27 291.833 562.081 291.909C561.897 291.985 561.757 292.083 561.661 292.203C561.565 292.323 561.517 292.459 561.517 292.611C561.517 292.795 561.589 292.958 561.733 293.098C561.877 293.238 562.083 293.346 562.352 293.422C562.62 293.502 562.938 293.542 563.307 293.542ZM563.265 289.867C562.768 289.867 562.322 289.772 561.925 289.584C561.533 289.396 561.223 289.142 560.994 288.822C560.766 288.501 560.652 288.143 560.652 287.746C560.652 287.35 560.766 286.992 560.994 286.671C561.227 286.351 561.539 286.097 561.931 285.909C562.328 285.72 562.772 285.626 563.265 285.626C563.757 285.626 564.2 285.72 564.592 285.909C564.984 286.097 565.295 286.351 565.523 286.671C565.755 286.992 565.871 287.35 565.871 287.746C565.871 288.139 565.757 288.495 565.529 288.816C565.301 289.136 564.99 289.392 564.598 289.584C564.206 289.772 563.761 289.867 563.265 289.867ZM563.265 288.876C563.537 288.876 563.779 288.83 563.991 288.737C564.204 288.641 564.37 288.509 564.49 288.341C564.61 288.169 564.67 287.971 564.67 287.746C564.67 287.41 564.538 287.138 564.274 286.93C564.013 286.717 563.677 286.611 563.265 286.611C562.988 286.611 562.744 286.659 562.532 286.755C562.324 286.852 562.16 286.986 562.039 287.158C561.919 287.326 561.859 287.522 561.859 287.746C561.859 288.079 561.989 288.351 562.25 288.563C562.514 288.771 562.852 288.876 563.265 288.876ZM564.19 286.852L563.697 285.933L566.886 285.807L566.874 286.9L564.19 286.852ZM567.903 291.752V285.807H569.224V286.629C569.448 286.257 569.721 285.997 570.041 285.849C570.361 285.696 570.706 285.62 571.074 285.62C571.194 285.62 571.308 285.626 571.416 285.638C571.524 285.65 571.629 285.668 571.729 285.692L571.554 287.056C571.434 287.02 571.312 286.992 571.188 286.972C571.064 286.952 570.94 286.942 570.816 286.942C570.355 286.942 569.975 287.084 569.675 287.368C569.374 287.648 569.224 288.031 569.224 288.515V291.752H567.903ZM575.307 291.933C574.666 291.933 574.104 291.802 573.619 291.542C573.135 291.278 572.756 290.91 572.484 290.437C572.216 289.965 572.082 289.416 572.082 288.791C572.082 288.335 572.16 287.915 572.316 287.53C572.472 287.142 572.692 286.805 572.977 286.521C573.261 286.237 573.593 286.017 573.974 285.861C574.358 285.704 574.776 285.626 575.229 285.626C575.721 285.626 576.16 285.714 576.544 285.891C576.929 286.063 577.247 286.305 577.499 286.617C577.755 286.93 577.936 287.296 578.04 287.716C578.148 288.133 578.166 288.585 578.094 289.074H573.349C573.341 289.43 573.419 289.742 573.583 290.011C573.747 290.275 573.982 290.481 574.286 290.629C574.594 290.777 574.957 290.852 575.373 290.852C575.709 290.852 576.034 290.801 576.346 290.701C576.662 290.597 576.949 290.445 577.205 290.245L577.715 291.194C577.523 291.35 577.291 291.484 577.019 291.596C576.746 291.704 576.462 291.786 576.166 291.843C575.869 291.903 575.583 291.933 575.307 291.933ZM573.427 288.101H576.796C576.784 287.652 576.64 287.3 576.364 287.044C576.092 286.787 575.703 286.659 575.199 286.659C574.71 286.659 574.304 286.787 573.98 287.044C573.659 287.3 573.475 287.652 573.427 288.101ZM582.12 291.933C581.479 291.933 580.916 291.802 580.432 291.542C579.947 291.278 579.569 290.91 579.297 290.437C579.028 289.965 578.894 289.416 578.894 288.791C578.894 288.335 578.972 287.915 579.129 287.53C579.285 287.142 579.505 286.805 579.789 286.521C580.073 286.237 580.406 286.017 580.786 285.861C581.171 285.704 581.589 285.626 582.041 285.626C582.534 285.626 582.972 285.714 583.357 285.891C583.741 286.063 584.059 286.305 584.312 286.617C584.568 286.93 584.748 287.296 584.852 287.716C584.96 288.133 584.978 288.585 584.906 289.074H580.162C580.154 289.43 580.232 289.742 580.396 290.011C580.56 290.275 580.794 290.481 581.098 290.629C581.407 290.777 581.769 290.852 582.186 290.852C582.522 290.852 582.846 290.801 583.159 290.701C583.475 290.597 583.761 290.445 584.017 290.245L584.528 291.194C584.336 291.35 584.103 291.484 583.831 291.596C583.559 291.704 583.275 291.786 582.978 291.843C582.682 291.903 582.396 291.933 582.12 291.933ZM580.24 288.101H583.609C583.597 287.652 583.453 287.3 583.177 287.044C582.904 286.787 582.516 286.659 582.011 286.659C581.523 286.659 581.117 286.787 580.792 287.044C580.472 287.3 580.288 287.652 580.24 288.101ZM586.159 291.752V285.807H587.48V286.563C587.728 286.231 588.017 285.993 588.345 285.849C588.673 285.7 589.014 285.626 589.366 285.626C589.91 285.626 590.361 285.734 590.717 285.951C591.074 286.167 591.338 286.445 591.51 286.785C591.686 287.126 591.774 287.476 591.774 287.837V291.752H590.453V288.245C590.453 287.821 590.325 287.48 590.069 287.224C589.816 286.968 589.464 286.84 589.012 286.84C588.715 286.84 588.451 286.906 588.219 287.038C587.991 287.17 587.81 287.354 587.678 287.59C587.546 287.823 587.48 288.095 587.48 288.407V291.752H586.159Z" fill="#363636"/>
<path d="M531.82 304.756V298.45H532.829V300.955H535.883V298.45H536.892V304.756H535.883V301.882H532.829V304.756H531.82ZM538.442 304.756V298.45H542.519V299.342H539.451V301.045H542.1V301.887H539.451V303.855H542.546V304.756H538.442ZM543.288 304.756L545.333 301.522L543.396 298.45H544.603L546.058 300.779L547.612 298.45H548.783L546.747 301.549L548.842 304.756H547.63L546.017 302.274L544.463 304.756H543.288ZM550.318 301.455C550.126 301.455 549.96 301.393 549.818 301.27C549.68 301.147 549.611 300.986 549.611 300.788C549.611 300.653 549.643 300.536 549.706 300.437C549.769 300.334 549.854 300.256 549.963 300.202C550.071 300.145 550.189 300.117 550.318 300.117C550.514 300.117 550.679 300.178 550.814 300.301C550.952 300.422 551.021 300.584 551.021 300.788C551.021 300.92 550.99 301.037 550.927 301.139C550.863 301.238 550.778 301.316 550.67 301.373C550.565 301.428 550.448 301.455 550.318 301.455ZM550.318 304.891C550.126 304.891 549.96 304.83 549.818 304.707C549.68 304.584 549.611 304.423 549.611 304.225C549.611 304.09 549.643 303.973 549.706 303.873C549.769 303.771 549.854 303.693 549.963 303.639C550.071 303.582 550.189 303.554 550.318 303.554C550.514 303.554 550.679 303.615 550.814 303.738C550.952 303.858 551.021 304.021 551.021 304.225C551.021 304.357 550.99 304.474 550.927 304.576C550.863 304.675 550.778 304.752 550.67 304.806C550.565 304.863 550.448 304.891 550.318 304.891ZM554.423 304.54L554.792 303.013H554.022L554.184 302.301H554.959L555.283 300.914H554.508L554.679 300.202H555.445L555.819 298.666H556.553L556.188 300.202H557.522L557.887 298.662H558.63L558.26 300.202H559.026L558.864 300.919H558.094L557.783 302.297H558.549L558.378 303.013H557.607L557.238 304.545H556.495L556.864 303.013H555.535L555.166 304.54H554.423ZM555.697 302.301L557.04 302.297L557.35 300.919L556.008 300.914L555.697 302.301ZM560.11 304.756V298.45H564.186V299.342H561.119V301.045H563.767V301.887H561.119V303.855H564.213V304.756H560.11ZM568.41 304.891C567.755 304.891 567.183 304.756 566.694 304.486C566.204 304.216 565.823 303.834 565.55 303.342C565.279 302.846 565.144 302.268 565.144 301.608C565.144 301.127 565.224 300.687 565.383 300.288C565.545 299.885 565.772 299.537 566.063 299.243C566.357 298.949 566.704 298.72 567.104 298.558C567.503 298.396 567.941 298.315 568.419 298.315C568.899 298.315 569.314 298.375 569.662 298.495C570.013 298.615 570.32 298.786 570.581 299.009L570.059 299.833C569.86 299.65 569.629 299.513 569.365 299.423C569.101 299.333 568.809 299.288 568.491 299.288C568.14 299.288 567.823 299.342 567.541 299.45C567.258 299.558 567.016 299.713 566.815 299.914C566.617 300.112 566.464 300.354 566.356 300.639C566.251 300.922 566.198 301.241 566.198 301.599C566.198 302.085 566.293 302.501 566.482 302.846C566.674 303.192 566.944 303.456 567.293 303.639C567.644 303.819 568.059 303.91 568.536 303.91C568.854 303.91 569.161 303.863 569.455 303.77C569.752 303.674 570.03 303.519 570.288 303.306L570.757 304.157C570.453 304.394 570.107 304.576 569.716 304.702C569.329 304.828 568.893 304.891 568.41 304.891ZM571.728 304.756V298.45H575.624V299.373H572.737V301.189H575.354V302.09H572.737V304.756H571.728ZM577.273 304.891L576.926 304.117C577.38 304.063 577.782 303.962 578.134 303.815C578.485 303.668 578.787 303.485 579.039 303.265C579.294 303.043 579.502 302.798 579.661 302.531C579.823 302.261 579.94 301.979 580.012 301.684C579.853 301.903 579.649 302.078 579.399 302.207C579.153 302.333 578.883 302.396 578.589 302.396C578.192 302.396 577.835 302.31 577.517 302.139C577.201 301.968 576.951 301.731 576.764 301.428C576.581 301.121 576.49 300.771 576.49 300.378C576.49 299.988 576.587 299.638 576.782 299.328C576.981 299.016 577.252 298.77 577.598 298.59C577.946 298.407 578.344 298.315 578.791 298.315C579.254 298.315 579.664 298.416 580.021 298.617C580.381 298.815 580.664 299.103 580.868 299.482C581.075 299.857 581.179 300.312 581.179 300.846C581.179 301.387 581.08 301.885 580.881 302.342C580.686 302.795 580.411 303.198 580.057 303.549C579.706 303.9 579.293 304.19 578.818 304.419C578.344 304.647 577.829 304.804 577.273 304.891ZM578.791 301.576C579.044 301.576 579.269 301.524 579.467 301.419C579.665 301.313 579.823 301.169 579.94 300.986C580.057 300.803 580.116 300.597 580.116 300.369C580.116 300.135 580.059 299.928 579.944 299.747C579.833 299.567 579.677 299.426 579.476 299.324C579.278 299.222 579.05 299.171 578.791 299.171C578.536 299.171 578.308 299.222 578.107 299.324C577.905 299.426 577.748 299.567 577.634 299.747C577.52 299.928 577.463 300.135 577.463 300.369C577.463 300.597 577.521 300.803 577.638 300.986C577.758 301.169 577.917 301.313 578.116 301.419C578.317 301.524 578.542 301.576 578.791 301.576ZM582.439 304.756V298.45H586.336V299.373H583.448V301.189H586.065V302.09H583.448V304.756H582.439ZM587.985 304.891L587.638 304.117C588.091 304.063 588.494 303.962 588.845 303.815C589.197 303.668 589.498 303.485 589.751 303.265C590.006 303.043 590.213 302.798 590.372 302.531C590.534 302.261 590.652 301.979 590.724 301.684C590.564 301.903 590.36 302.078 590.111 302.207C589.865 302.333 589.594 302.396 589.3 302.396C588.904 302.396 588.546 302.31 588.228 302.139C587.913 301.968 587.662 301.731 587.476 301.428C587.293 301.121 587.201 300.771 587.201 300.378C587.201 299.988 587.299 299.638 587.494 299.328C587.692 299.016 587.964 298.77 588.309 298.59C588.658 298.407 589.055 298.315 589.503 298.315C589.965 298.315 590.375 298.416 590.733 298.617C591.093 298.815 591.375 299.103 591.579 299.482C591.787 299.857 591.89 300.312 591.89 300.846C591.89 301.387 591.791 301.885 591.593 302.342C591.398 302.795 591.123 303.198 590.769 303.549C590.417 303.9 590.004 304.19 589.53 304.419C589.055 304.647 588.54 304.804 587.985 304.891ZM589.503 301.576C589.755 301.576 589.98 301.524 590.179 301.419C590.377 301.313 590.534 301.169 590.652 300.986C590.769 300.803 590.827 300.597 590.827 300.369C590.827 300.135 590.77 299.928 590.656 299.747C590.545 299.567 590.389 299.426 590.188 299.324C589.989 299.222 589.761 299.171 589.503 299.171C589.248 299.171 589.019 299.222 588.818 299.324C588.617 299.426 588.459 299.567 588.345 299.747C588.231 299.928 588.174 300.135 588.174 300.369C588.174 300.597 588.233 300.803 588.35 300.986C588.47 301.169 588.629 301.313 588.827 301.419C589.028 301.524 589.254 301.576 589.503 301.576Z" fill="#363636"/>
<path d="M295.546 291.282V282.874H296.849L300.279 288.453L299.756 288.459L303.06 282.874H304.339V291.282H303.024L303.042 284.664L303.3 284.754L300.441 289.468H299.456L296.543 284.754L296.759 284.664L296.777 291.282H295.546ZM306.232 291.282V285.336H307.553V291.282H306.232ZM306.892 284.273C306.656 284.273 306.452 284.197 306.28 284.045C306.107 283.893 306.021 283.693 306.021 283.444C306.021 283.2 306.107 283.002 306.28 282.85C306.452 282.694 306.656 282.616 306.892 282.616C307.128 282.616 307.333 282.694 307.505 282.85C307.677 283.002 307.763 283.2 307.763 283.444C307.763 283.693 307.677 283.893 307.505 284.045C307.333 284.197 307.128 284.273 306.892 284.273ZM309.267 291.282V285.336H310.588V286.093C310.837 285.761 311.125 285.522 311.453 285.378C311.781 285.23 312.122 285.156 312.474 285.156C313.019 285.156 313.469 285.264 313.826 285.48C314.182 285.697 314.446 285.975 314.618 286.315C314.794 286.656 314.883 287.006 314.883 287.366V291.282H313.561V287.775C313.561 287.35 313.433 287.01 313.177 286.754C312.925 286.497 312.572 286.369 312.12 286.369C311.824 286.369 311.559 286.435 311.327 286.568C311.099 286.7 310.919 286.884 310.786 287.12C310.654 287.352 310.588 287.625 310.588 287.937V291.282H309.267ZM318.918 291.462C318.338 291.462 317.873 291.294 317.525 290.958C317.176 290.622 317.002 290.107 317.002 289.414V283.601H318.324V285.336H319.975V286.429H318.324V289.126C318.324 289.542 318.402 289.837 318.558 290.009C318.718 290.177 318.942 290.261 319.231 290.261C319.371 290.261 319.503 290.245 319.627 290.213C319.751 290.181 319.863 290.139 319.963 290.087L320.198 291.156C320.025 291.244 319.827 291.316 319.603 291.372C319.383 291.432 319.154 291.462 318.918 291.462ZM315.699 286.429V285.336H317.176V286.429H315.699ZM327.012 291.462C326.387 291.462 325.831 291.326 325.342 291.054C324.854 290.778 324.469 290.403 324.189 289.931C323.913 289.454 323.775 288.914 323.775 288.309C323.775 287.853 323.857 287.434 324.021 287.054C324.185 286.67 324.417 286.335 324.718 286.051C325.018 285.767 325.37 285.546 325.775 285.39C326.183 285.234 326.626 285.156 327.102 285.156C327.502 285.156 327.873 285.21 328.213 285.318C328.558 285.422 328.874 285.585 329.162 285.805L328.525 286.814C328.341 286.65 328.129 286.527 327.889 286.447C327.653 286.367 327.4 286.327 327.132 286.327C326.716 286.327 326.357 286.405 326.057 286.562C325.757 286.718 325.522 286.944 325.354 287.24C325.19 287.532 325.108 287.887 325.108 288.303C325.108 288.924 325.288 289.41 325.649 289.763C326.013 290.115 326.507 290.291 327.132 290.291C327.428 290.291 327.709 290.237 327.973 290.129C328.237 290.017 328.457 289.871 328.634 289.691L329.264 290.694C328.948 290.934 328.596 291.122 328.207 291.258C327.819 291.394 327.42 291.462 327.012 291.462ZM330.359 291.282V285.336H331.68V286.159C331.904 285.787 332.177 285.526 332.497 285.378C332.817 285.226 333.162 285.15 333.53 285.15C333.65 285.15 333.764 285.156 333.872 285.168C333.98 285.18 334.085 285.198 334.185 285.222L334.01 286.586C333.89 286.549 333.768 286.521 333.644 286.501C333.52 286.481 333.396 286.471 333.272 286.471C332.811 286.471 332.431 286.614 332.131 286.898C331.83 287.178 331.68 287.561 331.68 288.045V291.282H330.359ZM337.763 291.462C337.122 291.462 336.56 291.332 336.075 291.072C335.591 290.808 335.212 290.439 334.94 289.967C334.672 289.494 334.538 288.946 334.538 288.321C334.538 287.865 334.616 287.444 334.772 287.06C334.928 286.672 335.148 286.335 335.433 286.051C335.717 285.767 336.049 285.546 336.43 285.39C336.814 285.234 337.232 285.156 337.685 285.156C338.177 285.156 338.616 285.244 339 285.42C339.385 285.593 339.703 285.835 339.955 286.147C340.211 286.459 340.392 286.826 340.496 287.246C340.604 287.663 340.622 288.115 340.55 288.604H335.805C335.797 288.96 335.875 289.272 336.039 289.54C336.203 289.805 336.438 290.011 336.742 290.159C337.05 290.307 337.413 290.381 337.829 290.381C338.165 290.381 338.49 290.331 338.802 290.231C339.118 290.127 339.405 289.975 339.661 289.775L340.171 290.724C339.979 290.88 339.747 291.014 339.475 291.126C339.202 291.234 338.918 291.316 338.622 291.372C338.325 291.432 338.039 291.462 337.763 291.462ZM335.883 287.631H339.252C339.24 287.182 339.096 286.83 338.82 286.574C338.548 286.317 338.159 286.189 337.655 286.189C337.166 286.189 336.76 286.317 336.436 286.574C336.115 286.83 335.931 287.182 335.883 287.631ZM343.454 291.462C343.041 291.462 342.679 291.386 342.367 291.234C342.054 291.078 341.81 290.86 341.634 290.58C341.462 290.295 341.376 289.961 341.376 289.577C341.376 289.252 341.458 288.96 341.622 288.7C341.786 288.435 342.04 288.217 342.385 288.045C342.733 287.873 343.179 287.759 343.724 287.703C344.269 287.643 344.923 287.651 345.688 287.727L345.712 288.64C345.167 288.564 344.699 288.531 344.307 288.543C343.914 288.556 343.592 288.606 343.34 288.694C343.091 288.778 342.907 288.892 342.787 289.036C342.671 289.176 342.613 289.338 342.613 289.522C342.613 289.811 342.715 290.033 342.919 290.189C343.127 290.345 343.412 290.423 343.772 290.423C344.08 290.423 344.357 290.367 344.601 290.255C344.845 290.143 345.037 289.985 345.177 289.781C345.322 289.577 345.394 289.336 345.394 289.06V287.48C345.394 287.216 345.338 286.988 345.226 286.796C345.113 286.6 344.943 286.447 344.715 286.339C344.487 286.231 344.203 286.177 343.862 286.177C343.55 286.177 343.242 286.225 342.937 286.321C342.633 286.413 342.343 286.56 342.066 286.76L341.694 285.787C342.066 285.534 342.455 285.356 342.859 285.252C343.264 285.148 343.652 285.096 344.024 285.096C344.577 285.096 345.049 285.184 345.442 285.36C345.838 285.532 346.142 285.795 346.355 286.147C346.567 286.495 346.673 286.936 346.673 287.468V291.282H345.484V290.58C345.284 290.864 345.005 291.082 344.649 291.234C344.293 291.386 343.894 291.462 343.454 291.462ZM348.31 291.282V285.336H349.631V286.153C349.791 285.921 349.975 285.733 350.184 285.589C350.392 285.44 350.612 285.332 350.844 285.264C351.076 285.192 351.313 285.156 351.553 285.156C352.037 285.156 352.44 285.262 352.76 285.474C353.084 285.687 353.313 285.959 353.445 286.291C353.741 285.859 354.085 285.563 354.478 285.402C354.87 285.238 355.265 285.156 355.661 285.156C356.21 285.156 356.648 285.264 356.976 285.48C357.305 285.697 357.541 285.975 357.685 286.315C357.833 286.656 357.907 287.006 357.907 287.366V291.282H356.586V287.751C356.586 287.338 356.472 287.006 356.244 286.754C356.019 286.497 355.691 286.369 355.259 286.369C354.974 286.369 354.72 286.431 354.496 286.556C354.272 286.68 354.093 286.852 353.961 287.072C353.833 287.288 353.769 287.538 353.769 287.823V291.282H352.448V287.751C352.448 287.338 352.336 287.006 352.112 286.754C351.887 286.497 351.557 286.369 351.121 286.369C350.84 286.369 350.586 286.431 350.358 286.556C350.134 286.68 349.955 286.852 349.823 287.072C349.695 287.288 349.631 287.538 349.631 287.823V291.282H348.31Z" fill="#F6F6F6"/>
<path d="M295.273 304.286V297.98H296.282V300.484H299.336V297.98H300.345V304.286H299.336V301.412H296.282V304.286H295.273ZM301.896 304.286V297.98H305.972V298.872H302.905V300.574H305.553V301.417H302.905V303.385H305.999V304.286H301.896ZM306.741 304.286L308.786 301.052L306.849 297.98H308.056L309.511 300.309L311.065 297.98H312.236L310.2 301.079L312.295 304.286H311.083L309.47 301.804L307.916 304.286H306.741ZM313.771 300.984C313.579 300.984 313.413 300.923 313.271 300.8C313.133 300.677 313.064 300.516 313.064 300.318C313.064 300.183 313.096 300.065 313.159 299.966C313.222 299.864 313.307 299.786 313.416 299.732C313.524 299.675 313.642 299.646 313.771 299.646C313.967 299.646 314.132 299.708 314.267 299.831C314.405 299.951 314.474 300.113 314.474 300.318C314.474 300.45 314.443 300.567 314.38 300.669C314.317 300.768 314.231 300.846 314.123 300.903C314.018 300.957 313.901 300.984 313.771 300.984ZM313.771 304.421C313.579 304.421 313.413 304.36 313.271 304.237C313.133 304.113 313.064 303.953 313.064 303.755C313.064 303.619 313.096 303.502 313.159 303.403C313.222 303.301 313.307 303.223 313.416 303.169C313.524 303.112 313.642 303.083 313.771 303.083C313.967 303.083 314.132 303.145 314.267 303.268C314.405 303.388 314.474 303.55 314.474 303.755C314.474 303.887 314.443 304.004 314.38 304.106C314.317 304.205 314.231 304.282 314.123 304.336C314.018 304.393 313.901 304.421 313.771 304.421ZM317.876 304.07L318.245 302.543H317.475L317.637 301.831H318.412L318.736 300.444H317.961L318.132 299.732H318.898L319.272 298.196H320.006L319.641 299.732H320.975L321.34 298.192H322.083L321.713 299.732H322.479L322.317 300.448H321.547L321.236 301.827H322.002L321.831 302.543H321.06L320.691 304.074H319.948L320.317 302.543H318.988L318.619 304.07H317.876ZM319.15 301.831L320.493 301.827L320.804 300.448L319.461 300.444L319.15 301.831ZM323.279 304.286V303.565L324.644 302.318C325.076 301.921 325.425 301.58 325.689 301.295C325.953 301.007 326.145 300.747 326.266 300.516C326.386 300.285 326.446 300.05 326.446 299.813C326.446 299.468 326.327 299.199 326.09 299.007C325.856 298.812 325.528 298.714 325.108 298.714C324.829 298.714 324.561 298.762 324.306 298.858C324.051 298.954 323.833 299.094 323.653 299.277L323.284 298.543C323.539 298.315 323.833 298.142 324.167 298.025C324.5 297.905 324.85 297.845 325.216 297.845C325.651 297.845 326.031 297.923 326.356 298.079C326.683 298.232 326.937 298.45 327.117 298.732C327.3 299.011 327.392 299.339 327.392 299.714C327.392 299.975 327.339 300.237 327.234 300.498C327.132 300.756 326.947 301.047 326.68 301.372C326.416 301.696 326.04 302.085 325.554 302.538L324.585 303.43H327.549V304.286H323.279ZM328.512 304.286V303.565L329.877 302.318C330.309 301.921 330.657 301.58 330.922 301.295C331.186 301.007 331.378 300.747 331.498 300.516C331.618 300.285 331.678 300.05 331.678 299.813C331.678 299.468 331.56 299.199 331.323 299.007C331.088 298.812 330.761 298.714 330.341 298.714C330.061 298.714 329.794 298.762 329.539 298.858C329.284 298.954 329.066 299.094 328.886 299.277L328.516 298.543C328.771 298.315 329.066 298.142 329.399 298.025C329.732 297.905 330.082 297.845 330.449 297.845C330.884 297.845 331.264 297.923 331.588 298.079C331.916 298.232 332.169 298.45 332.35 298.732C332.533 299.011 332.624 299.339 332.624 299.714C332.624 299.975 332.572 300.237 332.467 300.498C332.365 300.756 332.18 301.047 331.913 301.372C331.648 301.696 331.273 302.085 330.787 302.538L329.818 303.43H332.782V304.286H328.512ZM336.506 304.286V302.993H333.366V302.232L335.627 297.98H336.654L334.425 302.151H336.506V300.75H337.375V302.151H338.348V302.993H337.375V304.286H336.506ZM339.349 304.286V297.98H341.322C341.949 297.98 342.503 298.115 342.984 298.385C343.464 298.653 343.84 299.023 344.11 299.498C344.383 299.972 344.52 300.519 344.52 301.137C344.52 301.597 344.442 302.02 344.286 302.408C344.132 302.792 343.913 303.124 343.628 303.403C343.343 303.683 343.005 303.9 342.614 304.056C342.224 304.21 341.793 304.286 341.322 304.286H339.349ZM340.358 303.345H341.2C341.539 303.345 341.847 303.295 342.123 303.196C342.403 303.094 342.642 302.947 342.84 302.755C343.041 302.562 343.196 302.331 343.304 302.061C343.412 301.788 343.466 301.48 343.466 301.137C343.466 300.678 343.371 300.283 343.182 299.953C342.996 299.619 342.733 299.364 342.394 299.187C342.054 299.007 341.657 298.917 341.2 298.917H340.358V303.345ZM345.65 304.286L348.307 298.89H345.303V297.98H349.433V298.732L346.731 304.286H345.65ZM350.579 304.286V297.98H352.552C353.18 297.98 353.734 298.115 354.214 298.385C354.695 298.653 355.07 299.023 355.341 299.498C355.614 299.972 355.751 300.519 355.751 301.137C355.751 301.597 355.672 302.02 355.516 302.408C355.363 302.792 355.144 303.124 354.859 303.403C354.573 303.683 354.236 303.9 353.845 304.056C353.455 304.21 353.024 304.286 352.552 304.286H350.579ZM351.588 303.345H352.431C352.77 303.345 353.078 303.295 353.354 303.196C353.633 303.094 353.872 302.947 354.07 302.755C354.272 302.562 354.426 302.331 354.534 302.061C354.642 301.788 354.696 301.48 354.696 301.137C354.696 300.678 354.602 300.283 354.413 299.953C354.226 299.619 353.964 299.364 353.624 299.187C353.285 299.007 352.887 298.917 352.431 298.917H351.588V303.345Z" fill="#F6F6F6"/>
</svg>
